<svg fill="#FFFFFF" xmlns="http://www.w3.org/2000/svg" xmlns:xlink="http://www.w3.org/1999/xlink" version="1.1" x="0px" y="0px" viewBox="0 0 100 100" enable-background="new 0 0 100 100" xml:space="preserve"><polygon points="3.7,62.6 7.3,66.2 10.9,66.2 13.5,63.6 15,63.6 15,66.2 21.6,66.2 25.2,62.5 33.4,62.5 35.5,60.4 37.4,60.4   37.4,64.5 41.8,68.9 49.2,68.9 50.8,70.4 57.2,70.4 68.1,70.4 73.8,64.8 81.1,64.8 83.5,62.4 86.4,62.4 86.4,60.1 89,60.1 89,56.8   90.8,56.8 90.8,49.6 93.1,47.3 93.1,45.8 90.5,43.2 96.2,43.2 98.1,41.3 98.1,37.4 94.3,33.6 94.3,26 91.6,23.4 81.9,23.4   80.7,22.1 68.5,22.1 68.5,29.3 59.5,29.3 57.6,27.7 55.1,27.7 55.1,31.6 50.6,31.6 50.6,33.9 43.4,41.1 46.7,44.3 46.7,52.8   42.5,48.6 36.1,48.6 34.2,50.5 29.1,50.5 25.3,54.3 21.5,54.3 19.3,52.1 13.7,52.1 13.7,56.1 12.1,57.7 6.9,52.5 2,52.5 2,54.1   3.7,55.8 "></polygon></svg>