<svg fill="#FFFFFF" xmlns="http://www.w3.org/2000/svg" xmlns:xlink="http://www.w3.org/1999/xlink" version="1.1" x="0px" y="0px" viewBox="0 0 100 100" enable-background="new 0 0 100 100" xml:space="preserve"><rect x="5" y="32" fill-rule="evenodd" clip-rule="evenodd" width="90" height="4"></rect><rect x="5" y="91" fill-rule="evenodd" clip-rule="evenodd" width="90" height="4"></rect><path fill-rule="evenodd" clip-rule="evenodd" d="M10,30h80L50,5L10,30L10,30z M27.434,25L50,10.896L72.566,25H27.434z"></path><path fill-rule="evenodd" clip-rule="evenodd" d="M44.13,89c0.213-0.626,0.363-1.271,0.438-1.942h-9.876  c-0.04-0.317-0.061-0.641-0.061-0.972c0-0.33,0.021-0.653,0.061-0.971h9.876c-0.146-1.32-0.584-2.542-1.225-3.704h-7.283  c0.063-0.103,0.126-0.204,0.191-0.306c0.362-0.562,0.766-1.106,1.197-1.637h4.615c-0.667-0.878-1.431-1.738-2.249-2.599  c0.233-0.237,0.467-0.473,0.699-0.704c0.223-0.224,0.447-0.448,0.669-0.675c1.242,1.305,2.381,2.626,3.293,4.041  c1.277,1.979,2.087,4.108,2.087,6.554c0,1.023-0.142,1.99-0.399,2.914H44.13L44.13,89z M37.098,74.095  c-1.242-1.304-2.381-2.626-3.293-4.041c-1.276-1.979-2.087-4.107-2.087-6.554s0.811-4.574,2.087-6.555  c1.236-1.916,2.887-3.663,4.649-5.426c1.328-1.328,2.585-2.639,3.61-3.989h-4.615c-0.431-0.53-0.835-1.075-1.197-1.637  c-0.065-0.101-0.129-0.203-0.191-0.306h7.283c0.641-1.163,1.079-2.384,1.225-3.704h-9.876c-0.04-0.317-0.061-0.641-0.061-0.971  c0-0.33,0.021-0.654,0.061-0.971h9.876c-0.074-0.671-0.224-1.317-0.438-1.942h2.034c0.258,0.924,0.399,1.891,0.399,2.914  c0,2.446-0.81,4.575-2.087,6.554c-1.236,1.917-2.887,3.664-4.649,5.425c-1.328,1.328-2.585,2.64-3.61,3.989h4.616  c0.431,0.53,0.835,1.075,1.197,1.637c0.065,0.102,0.129,0.203,0.191,0.306h-7.283c-0.641,1.163-1.079,2.385-1.225,3.704h9.876  c0.04,0.317,0.061,0.642,0.061,0.972s-0.021,0.653-0.061,0.971h-9.876c0.146,1.32,0.584,2.542,1.225,3.704h7.282  c-0.062,0.103-0.126,0.205-0.191,0.306c-0.362,0.562-0.766,1.106-1.197,1.637h-4.615c0.666,0.878,1.431,1.738,2.249,2.599  c-0.234,0.237-0.467,0.473-0.699,0.704C37.544,73.644,37.32,73.868,37.098,74.095L37.098,74.095z M34.151,38h-2.033  c-0.258,0.924-0.4,1.891-0.4,2.914c0,2.446,0.811,4.575,2.087,6.554c0.912,1.415,2.051,2.737,3.293,4.041  c0.223-0.227,0.446-0.451,0.67-0.675c0.231-0.231,0.465-0.466,0.699-0.703c-1.161-1.22-2.213-2.442-3.03-3.709  c-1.086-1.685-1.776-3.478-1.776-5.507C33.66,39.887,33.836,38.921,34.151,38L34.151,38z M32.118,89h2.033  c-0.314-0.922-0.491-1.888-0.491-2.914c0-2.029,0.69-3.822,1.776-5.507c1.127-1.748,2.702-3.41,4.391-5.1  c1.762-1.762,3.414-3.509,4.649-5.426c1.277-1.979,2.087-4.107,2.087-6.554s-0.81-4.574-2.087-6.555  c-0.912-1.414-2.051-2.736-3.293-4.041c-0.223,0.228-0.446,0.452-0.669,0.676c-0.232,0.231-0.465,0.466-0.699,0.703  c1.161,1.22,2.213,2.442,3.03,3.709c1.086,1.686,1.776,3.478,1.776,5.508c0,2.029-0.69,3.822-1.776,5.507  c-1.127,1.748-2.702,3.41-4.392,5.1c-1.762,1.763-3.414,3.509-4.649,5.426c-1.276,1.979-2.087,4.108-2.087,6.554  C31.718,87.109,31.859,88.076,32.118,89z"></path><path fill-rule="evenodd" clip-rule="evenodd" d="M65.849,89c0.213-0.626,0.363-1.271,0.438-1.942h-9.877  c-0.039-0.317-0.06-0.641-0.06-0.972c0-0.33,0.021-0.653,0.06-0.971h9.877c-0.146-1.32-0.585-2.542-1.225-3.704h-7.283  c0.063-0.103,0.126-0.204,0.191-0.306c0.362-0.562,0.767-1.106,1.197-1.637h4.615c-0.666-0.878-1.431-1.738-2.249-2.599  c0.233-0.237,0.467-0.473,0.699-0.704c0.223-0.224,0.446-0.448,0.669-0.675c1.243,1.305,2.381,2.626,3.293,4.041  c1.276,1.979,2.087,4.108,2.087,6.554c0,1.023-0.142,1.99-0.399,2.914H65.849L65.849,89z M58.815,74.095  c-1.242-1.304-2.381-2.626-3.293-4.041c-1.276-1.979-2.087-4.107-2.087-6.554s0.811-4.574,2.087-6.555  c1.236-1.916,2.888-3.663,4.649-5.426c1.328-1.328,2.586-2.639,3.61-3.989h-4.615c-0.431-0.53-0.835-1.075-1.197-1.637  c-0.065-0.101-0.129-0.203-0.191-0.306h7.283c0.64-1.163,1.078-2.384,1.225-3.704h-9.877c-0.039-0.317-0.06-0.641-0.06-0.971  c0-0.33,0.021-0.654,0.06-0.971h9.877c-0.074-0.671-0.225-1.317-0.438-1.942h2.033c0.258,0.924,0.399,1.891,0.399,2.914  c0,2.446-0.811,4.575-2.087,6.554c-1.235,1.917-2.887,3.664-4.649,5.425c-1.328,1.328-2.585,2.64-3.61,3.989h4.616  c0.431,0.53,0.835,1.075,1.196,1.637c0.065,0.102,0.129,0.203,0.191,0.306h-7.282c-0.641,1.163-1.079,2.385-1.225,3.704h9.877  c0.039,0.317,0.06,0.642,0.06,0.972s-0.021,0.653-0.06,0.971h-9.877c0.146,1.32,0.584,2.542,1.225,3.704h7.282  c-0.063,0.103-0.126,0.205-0.191,0.306c-0.362,0.562-0.766,1.106-1.197,1.637h-4.614c0.666,0.878,1.431,1.738,2.249,2.599  c-0.234,0.237-0.468,0.473-0.699,0.704C59.262,73.644,59.038,73.868,58.815,74.095L58.815,74.095z M55.869,38h-2.033  c-0.259,0.924-0.4,1.891-0.4,2.914c0,2.446,0.811,4.575,2.087,6.554c0.912,1.415,2.051,2.737,3.293,4.041  c0.223-0.227,0.446-0.451,0.67-0.675c0.231-0.231,0.465-0.466,0.699-0.703c-1.161-1.22-2.214-2.442-3.03-3.709  c-1.087-1.685-1.776-3.478-1.776-5.507C55.378,39.887,55.555,38.921,55.869,38L55.869,38z M53.836,89h2.033  c-0.314-0.922-0.491-1.888-0.491-2.914c0-2.029,0.689-3.822,1.776-5.507c1.127-1.748,2.701-3.41,4.391-5.1  c1.763-1.762,3.414-3.509,4.649-5.426c1.276-1.979,2.087-4.107,2.087-6.554s-0.811-4.574-2.087-6.555  c-0.912-1.414-2.05-2.736-3.293-4.041c-0.223,0.228-0.446,0.452-0.669,0.676c-0.232,0.231-0.466,0.466-0.699,0.703  c1.16,1.22,2.213,2.442,3.03,3.709c1.086,1.686,1.775,3.478,1.775,5.508c0,2.029-0.689,3.822-1.775,5.507  c-1.127,1.748-2.702,3.41-4.392,5.1c-1.762,1.763-3.413,3.509-4.649,5.426c-1.276,1.979-2.087,4.108-2.087,6.554  C53.436,87.109,53.577,88.076,53.836,89z"></path><path fill-rule="evenodd" clip-rule="evenodd" d="M22.412,89c0.214-0.626,0.364-1.271,0.438-1.942h-9.876  c-0.04-0.317-0.061-0.641-0.061-0.972c0-0.33,0.021-0.653,0.061-0.971h9.876c-0.146-1.32-0.584-2.542-1.225-3.704h-7.283  c0.062-0.103,0.126-0.204,0.191-0.306c0.362-0.562,0.766-1.106,1.197-1.637h4.616c-0.667-0.878-1.431-1.738-2.25-2.599  c0.234-0.237,0.467-0.473,0.699-0.704c0.224-0.224,0.447-0.448,0.67-0.675c1.242,1.305,2.381,2.626,3.293,4.041  c1.276,1.979,2.087,4.108,2.087,6.554c0,1.023-0.142,1.99-0.4,2.914H22.412L22.412,89z M15.38,74.095  c-1.243-1.304-2.381-2.626-3.293-4.041C10.81,68.074,10,65.946,10,63.5s0.81-4.574,2.087-6.555c1.236-1.916,2.887-3.663,4.649-5.426  c1.328-1.328,2.585-2.639,3.61-3.989h-4.616c-0.431-0.53-0.835-1.075-1.197-1.637c-0.065-0.101-0.129-0.203-0.191-0.306h7.283  c0.641-1.163,1.079-2.384,1.225-3.704h-9.876c-0.04-0.317-0.061-0.641-0.061-0.971c0-0.33,0.021-0.654,0.061-0.971h9.876  c-0.074-0.671-0.224-1.317-0.438-1.942h2.034c0.258,0.924,0.4,1.891,0.4,2.914c0,2.446-0.811,4.575-2.087,6.554  c-1.236,1.917-2.887,3.664-4.649,5.425c-1.328,1.328-2.585,2.64-3.61,3.989h4.615c0.431,0.53,0.835,1.075,1.197,1.637  c0.065,0.102,0.129,0.203,0.191,0.306H13.22c-0.641,1.163-1.079,2.385-1.225,3.704h9.876c0.04,0.317,0.061,0.642,0.061,0.972  s-0.021,0.653-0.061,0.971h-9.876c0.146,1.32,0.584,2.542,1.225,3.704h7.282c-0.062,0.103-0.126,0.205-0.191,0.306  c-0.362,0.562-0.767,1.106-1.197,1.637h-4.615c0.667,0.878,1.431,1.738,2.249,2.599c-0.233,0.237-0.467,0.473-0.698,0.704  C15.826,73.644,15.603,73.868,15.38,74.095L15.38,74.095z M12.433,38h-2.034C10.142,38.924,10,39.891,10,40.913  c0,2.446,0.81,4.575,2.087,6.554c0.912,1.415,2.05,2.737,3.293,4.041c0.223-0.227,0.446-0.451,0.67-0.675  c0.231-0.231,0.465-0.466,0.698-0.703c-1.161-1.22-2.213-2.442-3.03-3.709c-1.086-1.685-1.776-3.478-1.776-5.507  C11.942,39.887,12.118,38.921,12.433,38L12.433,38z M10.399,89h2.034c-0.315-0.922-0.491-1.888-0.491-2.914  c0-2.029,0.69-3.822,1.776-5.507c1.127-1.748,2.702-3.41,4.391-5.1c1.762-1.762,3.414-3.509,4.649-5.426  c1.276-1.979,2.087-4.107,2.087-6.554s-0.811-4.574-2.087-6.555c-0.912-1.414-2.051-2.736-3.293-4.041  c-0.223,0.228-0.446,0.452-0.67,0.676c-0.231,0.231-0.465,0.466-0.699,0.703c1.161,1.22,2.213,2.442,3.03,3.709  c1.086,1.686,1.776,3.478,1.776,5.508c0,2.029-0.69,3.822-1.776,5.507c-1.127,1.748-2.702,3.41-4.391,5.1  c-1.762,1.763-3.414,3.509-4.649,5.426C10.81,81.512,10,83.641,10,86.086C10,87.109,10.142,88.076,10.399,89z"></path><path fill-rule="evenodd" clip-rule="evenodd" d="M87.566,89c0.214-0.626,0.363-1.271,0.438-1.942h-9.877  c-0.039-0.317-0.06-0.641-0.06-0.972c0-0.33,0.021-0.653,0.06-0.971h9.877c-0.146-1.32-0.584-2.542-1.225-3.704h-7.282  c0.062-0.103,0.126-0.204,0.191-0.306c0.361-0.562,0.766-1.106,1.196-1.637h4.616c-0.667-0.878-1.432-1.738-2.25-2.599  c0.233-0.237,0.468-0.473,0.699-0.704c0.224-0.224,0.447-0.448,0.67-0.675c1.242,1.305,2.381,2.626,3.292,4.041  C89.189,81.512,90,83.641,90,86.086c0,1.023-0.142,1.99-0.4,2.914H87.566L87.566,89z M80.534,74.095  c-1.243-1.304-2.381-2.626-3.293-4.041c-1.277-1.979-2.087-4.107-2.087-6.554s0.81-4.574,2.087-6.555  c1.235-1.916,2.887-3.663,4.648-5.426c1.328-1.328,2.586-2.639,3.611-3.989h-4.616c-0.431-0.53-0.835-1.075-1.196-1.637  c-0.065-0.101-0.13-0.203-0.191-0.306h7.282c0.641-1.163,1.079-2.384,1.225-3.704h-9.877c-0.039-0.317-0.06-0.641-0.06-0.971  c0-0.33,0.021-0.654,0.06-0.971h9.877C87.93,39.271,87.78,38.625,87.566,38H89.6c0.259,0.924,0.4,1.891,0.4,2.914  c0,2.446-0.811,4.575-2.088,6.554c-1.235,1.917-2.887,3.664-4.648,5.425c-1.328,1.328-2.586,2.64-3.61,3.989h4.615  c0.431,0.53,0.835,1.075,1.197,1.637c0.065,0.102,0.129,0.203,0.191,0.306h-7.283c-0.641,1.163-1.079,2.385-1.225,3.704h9.877  c0.039,0.317,0.06,0.642,0.06,0.972s-0.021,0.653-0.06,0.971h-9.877c0.146,1.32,0.585,2.542,1.225,3.704h7.282  c-0.062,0.103-0.125,0.205-0.19,0.306c-0.362,0.562-0.767,1.106-1.197,1.637h-4.615c0.666,0.878,1.431,1.738,2.249,2.599  c-0.233,0.237-0.468,0.473-0.699,0.704C80.979,73.644,80.756,73.868,80.534,74.095L80.534,74.095z M77.587,38h-2.033  c-0.258,0.924-0.399,1.891-0.399,2.914c0,2.446,0.81,4.575,2.087,6.554c0.912,1.415,2.05,2.737,3.293,4.041  c0.222-0.227,0.445-0.451,0.669-0.675c0.231-0.231,0.466-0.466,0.699-0.703c-1.161-1.22-2.213-2.442-3.03-3.709  c-1.087-1.685-1.776-3.478-1.776-5.507C77.096,39.887,77.272,38.921,77.587,38L77.587,38z M75.554,89h2.033  c-0.314-0.922-0.491-1.888-0.491-2.914c0-2.029,0.689-3.822,1.776-5.507c1.127-1.748,2.702-3.41,4.392-5.1  c1.762-1.762,3.413-3.509,4.648-5.426C89.189,68.074,90,65.946,90,63.5s-0.811-4.574-2.088-6.555  c-0.911-1.414-2.05-2.736-3.292-4.041c-0.223,0.228-0.446,0.452-0.67,0.676c-0.231,0.231-0.465,0.466-0.699,0.703  c1.161,1.22,2.214,2.442,3.03,3.709c1.087,1.686,1.776,3.478,1.776,5.508c0,2.029-0.689,3.822-1.776,5.507  c-1.127,1.748-2.701,3.41-4.392,5.1c-1.762,1.763-3.413,3.509-4.648,5.426c-1.277,1.979-2.087,4.108-2.087,6.554  C75.154,87.109,75.296,88.076,75.554,89z"></path></svg>