<svg fill="#FFFFFF" xmlns="http://www.w3.org/2000/svg" xmlns:xlink="http://www.w3.org/1999/xlink" version="1.1" x="0px" y="0px" viewBox="0 0 100 100" enable-background="new 0 0 100 100" xml:space="preserve"><g><g><circle fill-rule="evenodd" clip-rule="evenodd" fill="#FFFFFF" cx="38.967" cy="26.734" r="9.937"></circle><path fill-rule="evenodd" clip-rule="evenodd" fill="#FFFFFF" d="M57.768,45.858v4.031c-1.13-0.301-2.494-0.487-4.135-0.489    h-0.026c-3.824,0-7.111,1.65-9.255,4.649c-1.971,2.755-2.684,6.262-2.016,9.657H20.168V45.858c0-2.967,2.403-5.372,5.37-5.372    h26.86C55.363,40.487,57.768,42.892,57.768,45.858z"></path></g><path fill="#FFFFFF" d="M69.84,50.941c-7.792,0.015-8.105,4.449-8.105,4.449s-0.312-4.435-8.105-4.449   c-7.628-0.015-11.603,7.468-9.378,13.985c2.227,6.517,10.967,10.171,17.483,18.278c6.517-8.107,15.257-11.761,17.482-18.278   C81.443,58.409,77.469,50.926,69.84,50.941z"></path></g></svg>