<svg fill="#FFFFFF" xmlns="http://www.w3.org/2000/svg" xmlns:xlink="http://www.w3.org/1999/xlink" version="1.1" x="0px" y="0px" viewBox="0 0 100 100" style="enable-background:new 0 0 100 100;" xml:space="preserve"><style type="text/css">
	.st0{fill:#FFFFFF;}
</style><g><g><path d="M50,60.4c-3.5-2.1-8.2-1.7-11.2,1.4c-3.6,3.6-3.6,9.4,0,13l9.4,9.4c0.5,0.5,1.1,0.7,1.8,0.7s1.3-0.2,1.8-0.7l9.4-9.4    c0,0,0,0,0,0c3.6-3.6,3.6-9.4,0-13C58.2,58.7,53.5,58.2,50,60.4z M50,78.8l-7.7-7.7c-1.6-1.6-1.6-4.3,0-5.9c1.6-1.6,4.3-1.6,5.9,0    c0.2,0.2,0.4,0.3,0.7,0.5c0.5,0.2,1.1,0.3,1.6,0.2c0.5-0.1,0.9-0.3,1.3-0.7c0,0,0,0,0,0c1.6-1.6,4.3-1.6,5.9,0    c1.6,1.6,1.6,4.3,0,5.9c0,0,0,0,0,0L50,78.8z"></path><path d="M69.5,38.7c-0.8,0-1.6,0.1-2.4,0.4V18.6c0-4.1-3.3-7.4-7.4-7.4c-0.9,0-1.8,0.2-2.7,0.5c-0.9-3.1-3.7-5.4-7.1-5.4    s-6.2,2.3-7.1,5.4c-0.8-0.3-1.7-0.5-2.7-0.5c-4.1,0-7.4,3.3-7.4,7.4v7.9c-0.7-0.3-1.5-0.4-2.4-0.4c-4.1,0-7.4,3.3-7.4,7.4v33.3    c0,14.8,12.1,26.9,26.9,26.9s26.9-12.1,26.9-26.9V46.1C76.9,42,73.6,38.7,69.5,38.7z M50,88.7c-12.1,0-21.9-9.8-21.9-21.9V33.4    c0-1.3,1.1-2.4,2.4-2.4s2.4,1.1,2.4,2.4v20.2c0,1.4,1.1,2.5,2.5,2.5s2.5-1.1,2.5-2.5v-35c0-1.3,1.1-2.4,2.4-2.4s2.4,1.1,2.4,2.4    v31.5c0,1.4,1.1,2.5,2.5,2.5s2.5-1.1,2.5-2.5V13.7c0-1.3,1.1-2.4,2.4-2.4s2.4,1.1,2.4,2.4v36.4c0,1.4,1.1,2.5,2.5,2.5    s2.5-1.1,2.5-2.5V18.6c0-1.3,1.1-2.4,2.4-2.4s2.4,1.1,2.4,2.4v39.7c0,1.4,1.1,2.5,2.5,2.5s2.5-1.1,2.5-2.5V46.1    c0-1.3,1.1-2.4,2.4-2.4s2.4,1.1,2.4,2.4v20.7C71.9,78.8,62.1,88.7,50,88.7z"></path></g></g></svg>