<svg fill="#FFFFFF" xmlns="http://www.w3.org/2000/svg" xmlns:xlink="http://www.w3.org/1999/xlink" version="1.1" x="0px" y="0px" viewBox="0 0 48 30" xml:space="preserve"><g transform="translate(-176 -140)"><g xmlns="http://www.w3.org/2000/svg" xmlns:xlink="http://www.w3.org/1999/xlink"><path d="M223,154v-4l-1-2v-1v-2l-2-1l-1,1h-2l-1-1h-1l-2-1h-3v2h-1l-1,1h-3v-1l-2-1v2h-2v2l-1,1h-1l-2,2l2,2v4h-1l-1-1v-2h-4v1h-3    l-2,2h-2l-1-2h-3v2l-1,1l-2-3l-2,1v3l3,3l1-1h1l2,2h2l1-2h6l1,3l10,2h4l3-2h6v-2l1-1h2v-4l1-1v-1h-2l1-1H223z"></path></g></g></svg>