<svg fill="#FFFFFF" xmlns="http://www.w3.org/2000/svg" xmlns:xlink="http://www.w3.org/1999/xlink" version="1.1" x="0px" y="0px" viewBox="0 0 100 100" enable-background="new 0 0 100 100" xml:space="preserve"><path d="M5.705,52.081c-0.477-0.035-0.534,1.027-1.094,1.281c-0.344,0.156-1.801,0.178-1.051,1.156  c0.75,0.98,0.813,1.605,0.438,1.646s-1.938,1.896-1.271,3.063s0.465,2.207,0.416,2.709c-0.078,0.801,1.781,0.316,2.563,0.875  c0.365,0.26,0.229,0.709,0.938,1.541c0.709,0.834,1.501,0.625,2.584,1.541c1.083,0.918,1.135-0.625,2.291-1.207  c0.685-0.346,1.418-1.793,1.959-1.043s0.959,1.125,0.625,2.25s1.458,0.793,1.708,0.5c0.25-0.291,1.375-0.623,1.75,0.584  c0.375,1.209,2.375,0.916,3.208,0.834c0.834-0.084,1.126-3.416,2.084-3.709c0.958-0.291,2.042-0.625,2.875-0.375  s1.209-0.541,2.125-0.334c0.916,0.209,1.167-0.25,1.75,0.125s2-0.373,2.541-0.791c0.542-0.416,2.125-0.803,2.531-0.959  s1.844-0.094,1.125,0.906s-1.281,0.781-0.813,1.5s0.49,1.594,1.012,1.5c0.52-0.094,1.301,0.406,0.926,1.063s0.969,1.969,2.188,2.5  s5,0.969,6.406,1.469s6.906,1.125,7.438,1.125s5.344,0.719,5.906,1.063s2.25,1.094,3.344,0.906s2.25,0.406,2.719,0.875  s0.813-0.344,1.531-1s1.469-0.969,1.938-1.156s0.906-2.281,1.875-2.219s3.094-0.25,4.25-0.5s1.656,0.719,2.375,0.719  s1.719-1.625,2.531-1.625s2.313-0.688,3.438,0.219s1-0.656,0.844-1.469s0.5-1.844,1.469-2.406s1.531-2.25,3.938-2.156  s0.688-1.219,0.563-2.594c-0.182-2-1.281-4.281-0.625-4.875s2.656-0.438,2.844-1.656s-0.906-2.594-2.5-3.063s1.469-2,2.313-1.734  s2,1.891,3.938,1.016s0.922-3.688,1.656-5.688c0.912-2.48-3.016-4.984-3.094-7.156c-0.047-1.313,1.469-4.25,0.594-6.188  s-2.531-0.52-3.172-1.469c-0.906-1.344-2.297,0.406-3.797,0.906s-4.813-0.438-5.406-1.5s-5.291-1.875-6.385-2.813  s-2.021,0.375-2.646,0.375s-1.75-1.938-2.563-1.344s-0.656,3.563-0.5,4.125s-1.031,0.813-1.75,0.563s-1.063,3.094-1.594,3.188  s-1.844-0.875-2.969-0.813s-1.469,2.281-2.406,1.375S58.58,32.8,58.83,32.144s-0.688-1.781-1.719-2.281s-0.75,1.813-1.094,2.625  s-0.875,2.344-1.875,1.844s-2.781-1.375-3.031,0.688s-1,3.781-3.375,3.938s-5.063,2.594-5.219,3.563s3.813,3.906,3.219,4.813  s-1.563,2.496,0.406,2.67s0.625,4.58-0.344,4.424s-3-1.625-2.531-2.594s-1.563-1.813-2.469-1.469s-1.781,0.563-2.906-0.219  s-1.844-0.344-2.375,0.719s-2.406,0.781-3.5,0.75s-3.125,0.531-3.906,1.406s-3.313,1.938-4.281,2.094s-3.313,1-3.438,0.188  s-1.625-2.563-4.219-2.781s-1.656,1.188-2.438,2.531s-3.031,3.75-3.031,2.406s-0.969-1.188-1.531-2.844S6.955,52.175,5.705,52.081z"></path></svg>