<svg fill="#FFFFFF" xmlns="http://www.w3.org/2000/svg" xmlns:xlink="http://www.w3.org/1999/xlink" version="1.1" x="0px" y="0px" viewBox="0 0 100 100" enable-background="new 0 0 100 100" xml:space="preserve"><g display="none"><rect x="5" y="5" display="inline" fill="none" stroke="#FFFFFF" stroke-miterlimit="10" width="90" height="90"></rect></g><g><path d="M30.806,56.694c1.045-1.05,1.399-2.075,0.26-3.215c-0.101-0.415-0.957-1.573-1.329-0.529   c-0.782-0.004-1.474-0.79-1.864-1.329c-0.793-0.786-0.514-3.706-1.347-3.751c-0.15-0.273-0.294-1.021-0.271-1.325   c1.451-0.608-0.345-2.293,1.044-0.813c-0.73,0.944,1.506,2.258,2.039,2.951c0.185-0.292,0.4-0.56,0.643-0.802   c-0.309-1.395-2.686-2.845-2.643-4.551c1.493-0.482,2.087-0.573,3.73-0.562c0.311,0.01,2.75,0.498,2.883,0.128   c0.168-0.478-0.716-0.375-0.724-0.376c-0.381-1.408-4.279-0.219-4.824-0.283c-2.19-2.097-1.497,0.928-2.26,2.055   c-1.291-0.446-1.918-1.748-3.086-1.765c-0.009,0.018,0.763-1.191,0.765-1.072c-0.008-0.599-3.269-4.103-3.97-4.535   c-0.006-0.542-0.146-0.139-0.538-0.806c-0.053-0.68-1.268-1.571-1.879-1.611c-0.021,0.089,0.04-1.169-0.002-0.791   c0.684-0.687,0.383-1.98-0.233-2.676c-0.095-0.688,0.367-3.794-0.299-4.022c0.108-0.791-0.165-1.613-0.793-2.126   c-0.372-1.073-1.786-2.371-2.528-3.093c-0.964-0.938-0.686-2.005-0.679-3.334c0.623-0.507,1.233-1.208,1.338-2.14   c0.48-0.325,1.689-8.987-0.547-9.086c-0.03,0.126-0.048-0.651-0.001-0.52c0.471-0.147,0.272-1.489,0.279-1.607   c6.243-0.001,12.486-0.002,18.73-0.004c3.122,0,6.244,0,9.365-0.001c1.989,0,2.105-0.553,2.105,1.495c0,2.01,0,4.019,0.001,6.029   c0,6.028,0,12.057,0,18.085c0,2.873,0.563,3.853,2.942,5.657c0.607,0.585,1.24,0.981,1.873,1.608   c0.079,0.764,2.62,2.631,3.205,3.212c1.222,1.241,2.285,2.756,3.744,3.734c0.274,0.267,1.543,1.573,1.872,1.609   c0.083,0.772,2.617,2.624,3.204,3.211c1.22,1.245,2.29,2.75,3.746,3.733c0.278,0.268,1.539,1.574,1.872,1.609   c0.079,0.768,2.62,2.628,3.204,3.212c1.232,1.271,2.477,2.5,3.745,3.729c0.217,0.218,1.597,1.584,1.872,1.613   c0.079,0.765,2.621,2.63,3.204,3.212c1.237,1.263,2.485,2.494,3.746,3.729c0.913,0.904,0.905,1.995,1.872,2.951   c0.062,0.56,1.232,3.46,1.813,3.701c1.018,0.424,1.464,1.055,0.587,1.915c-0.722,0.736-1.194,1.457-1.866,2.144   c-0.382,0.346-0.725,1.867-0.028,2.139c0.033,0.713-0.741,1.262-0.777,2.401c-0.579,0.148-1.226,1.623-0.807,2.14   c0.043,0.604-0.284,1.277-0.273,1.74c0.021,0.863,1.496,0.866,1.634,1.449c-0.028,2.78-0.91,0.598-1.628,2.152   c-1.786,0.059-3.54,0.544-5.332,0.553c-3.973,0.034-8.06,1.374-12.048,1.049c0.19-0.44-1.323-3.212-1.065-3.206   c0.061-0.396,0.015-1.71-0.536-1.875c0.052-1.334-2.066-4.253-3.463-4.264c-1.587-1.572-2.005-1.928-4.29-1.881   c0.632-1.501-0.434-3.362-2.345-3.186c-1.635,0.151-1.809-0.364-3.27-0.558c-0.668-0.571-0.456-2.109-1.863-2.14   c-0.408-1.227-3.173-0.789-4.003-0.789c-0.986-1.046-2.717-0.429-4.012-0.802c-0.011-0.601-0.297-0.278-0.556-0.532   c0.128-1.229-0.208-2.175-0.216-3.351c-0.003-0.371,0.595-1.41,0.467-1.782c-0.433-1.259-2.142-0.172-2.115-1.818   c1.08-1.08-0.693-1.24-1.335-1.888c-0.377-1.047-1.233-1.462-1.871-2.394c-0.403-1.313-1.624-3.032-2.658-4.007   c0-0.553-0.353-0.531-0.805-0.563C31.22,58.838,30.85,58.024,30.806,56.694C30.983,56.516,30.823,57.206,30.806,56.694z"></path></g></svg>