<svg fill="#FFFFFF" xmlns="http://www.w3.org/2000/svg" xmlns:xlink="http://www.w3.org/1999/xlink" version="1.1" x="0px" y="0px" viewBox="0 0 85.311 100" enable-background="new 0 0 85.311 100" xml:space="preserve"><g><g><path d="M14.267,46.081c0.501-0.723,2.592,2.175,3.633,2.182c0.6,0.004-0.855-1.495-1.444-3.424    c-0.432-1.414,0.21-3.87-0.191-4.39c-0.401-0.52-1.012,2.843-1.594,3.676s-3.009-1.234-3.658-3.072    c-0.564-1.598-0.887-3.668-2.504-4.572c-3.12-1.747-3.911-5.811-3.708-8.915c0.206-3.146-1.487-6.563-3.371-8.606    c-1.656-1.796-1.802-2.544-0.814-4.585c1.885-3.894,3.958-8.114,2.144-12.46C2.648,1.644,2.634,0.697,2.668,0.39    C2.692,0.165,2.824,0,3.087,0C13.818,0.435,26.35,1.109,37.49,1.56c0,1.097-0.545,20.014-0.8,28.685    c-0.051,1.731,0.419,2.895,1.736,4.07C51.98,46.41,66.272,59.98,79.633,72.287c1.021,0.941,1.669,2.65,2.307,3.668    c1.231,1.963,2.603,2.839,3.372,4.851c-0.71,2.07-2.68,4.093-2.449,6.016c0.147,1.231-0.905,2.803-0.923,4.001    c-0.019,1.277,0.195,2.296,0.816,3.388c1.268,2.229,1.155,2.941-1.364,3.271c-6.247,0.819-15.27,1.717-21.521,2.51    c-1.542,0.196-0.232-2.66-3.04-3.908c-1.156-5.364-2.871-7.232-7.485-8.889c-1.952-2.07-3.764-2.851-6.571-3.468    c-0.439-0.097-1.807-0.502-2.007-0.85c-1.561-2.726-3.389-2.539-6.006-2.595c-0.158-0.003-0.315-0.013-0.473-0.025    c-4.216-0.321-5.132-0.957-5.175-5.129c-1.124-2.958-2.366-6.803-4.377-7.749c-2.025-3.137-3.441-4.489-5.703-7.481    c-0.807-1.068-1.127-2.195,0.497-3.139c0.344-0.2,0.995-1.619,0.629-2.427c-0.39-0.861-1.641-1.176-2.552-1.641    c-1.095-0.558-3.19-1.035-2.658-3.283C15.171,48.475,13.313,47.456,14.267,46.081z"></path></g></g></svg>