<svg fill="#FFFFFF" xmlns="http://www.w3.org/2000/svg" xmlns:xlink="http://www.w3.org/1999/xlink" xmlns:a="http://ns.adobe.com/AdobeSVGViewerExtensions/3.0/" version="1.1" x="0px" y="0px" viewBox="-5.585 -11.804 100 100" enable-background="new -5.585 -11.804 100 100" xml:space="preserve"><path fill="#FFFFFF" d="M46.131,0.042c-0.069,0.028-0.235,0.222-0.368,0.43l-0.249,0.381l0.027-0.368  c0.015-0.195,0.008-0.361-0.014-0.361c-0.291,0-1.254,0.243-1.448,0.361c-0.139,0.083-0.389,0.187-0.569,0.235  c-0.263,0.069-0.312,0.104-0.291,0.236c0.006,0.09,0.069,0.201,0.138,0.25c0.098,0.076,0.027,0.083-0.431,0.048L42.38,1.221  l0.035,0.354c0.035,0.333,0.028,0.361-0.112,0.34c-0.11-0.014-0.138,0.014-0.124,0.118c0.049,0.313,0.049,0.721,0,0.763  c-0.028,0.027-0.181-0.063-0.339-0.201c-0.368-0.312-0.478-0.319-0.443-0.042c0.021,0.152-0.015,0.235-0.112,0.298  c-0.194,0.118-0.16,0.236,0.077,0.292c0.222,0.048,0.256,0.097,0.131,0.222c-0.048,0.048-0.153,0.048-0.333,0.007  c-0.235-0.063-0.284-0.049-0.443,0.097c-0.097,0.098-0.326,0.243-0.5,0.333c-0.18,0.09-0.353,0.229-0.395,0.305  c-0.043,0.083-0.048,0.125-0.021,0.09c0.035-0.027,0.097,0.042,0.146,0.16c0.055,0.118,0.125,0.194,0.18,0.173  c0.048-0.014,0.159,0.028,0.249,0.097c0.133,0.118,0.146,0.16,0.083,0.326c-0.104,0.263-0.041,0.375,0.209,0.375  c0.284,0,0.686-0.174,0.929-0.402l0.193-0.188l-0.104,0.215c-0.076,0.138-0.242,0.284-0.5,0.409  c-0.208,0.111-0.381,0.229-0.381,0.27c0,0.084,0.444,0.458,0.547,0.458c0.036,0,0.083-0.125,0.112-0.278  c0.027-0.152,0.076-0.277,0.118-0.277c0.041,0,0.049,0.104,0.021,0.277c-0.042,0.257-0.035,0.278,0.118,0.278  c0.083,0,0.277,0.021,0.415,0.041c0.238,0.042,0.264,0.028,0.299-0.132c0.042-0.159,0.063-0.172,0.215-0.104  c0.146,0.069,0.201,0.042,0.528-0.271c0.416-0.388,0.734-0.61,0.79-0.554c0.104,0.104-0.374,0.791-0.756,1.075  c-0.319,0.242-0.381,0.325-0.325,0.401c0.049,0.048,0.055,0.132,0.027,0.174c-0.027,0.048-0.021,0.062,0.021,0.042  c0.083-0.056,0.45,0.333,0.61,0.645c0.167,0.318,0.014,0.25-0.521-0.243c-0.485-0.444-0.742-0.562-1.116-0.506  c-0.325,0.042-0.229,0.61,0.193,1.109c0.376,0.443,0.646,0.895,0.646,1.068c0,0.159,0.021,0.166,0.748,0.249  c0.138,0.021,0.146,0.035,0.069,0.146c-0.075,0.097-0.208,0.125-0.708,0.138c-0.582,0.021-0.624,0.028-0.77,0.215  c-0.187,0.236-0.312,0.624-0.312,0.977c0,0.257,0,0.264,0.243,0.222c0.194-0.035,0.243-0.014,0.278,0.097  c0.055,0.167,0.152,0.167,0.256-0.007c0.104-0.159,0.195-0.18,0.195-0.034c0,0.048,0.035,0.25,0.075,0.443  c0.063,0.298,0.104,0.354,0.291,0.423c0.203,0.07,0.237,0.056,0.382-0.111c0.09-0.096,0.173-0.166,0.194-0.146  c0.062,0.063-0.174,0.458-0.312,0.534c-0.256,0.131-0.417,0.069-0.817-0.333c-0.319-0.319-0.438-0.395-0.591-0.374  c-0.332,0.041-0.338,0.666-0.007,0.949l0.16,0.146l-0.353,0.375c-0.187,0.201-0.368,0.458-0.389,0.569  c-0.02,0.111-0.069,0.173-0.118,0.145c-0.042-0.021-0.042,0,0.014,0.056c0.042,0.048,0.084,0.173,0.084,0.277  c0,0.16,0.055,0.208,0.388,0.34l0.381,0.159l0.195-0.188c0.166-0.159,0.214-0.173,0.388-0.111c0.104,0.042,0.278,0.132,0.38,0.208  c0.201,0.146,0.348,0.083,0.348-0.146c0-0.152,0.18-0.298,0.284-0.229c0.047,0.028,0.062,0.021,0.034-0.027  c-0.082-0.132,0.236-0.173,0.417-0.049c0.097,0.063,0.187,0.104,0.194,0.09c0.006-0.014,0.049-0.104,0.09-0.202  c0.056-0.125,0.146-0.194,0.293-0.214c0.228-0.035,0.234-0.028,0.241,0.361c0.007,0.193,0.035,0.249,0.152,0.263  c0.118,0.014,0.257-0.118,0.616-0.575l0.472-0.603l-0.082-0.271c-0.049-0.152-0.07-0.298-0.049-0.333  c0.083-0.132-0.25-0.014-0.347,0.125c-0.145,0.201-0.305,0.076-0.305-0.243c0-0.271,0.006-0.271-0.445-0.131  c-0.491,0.152-0.567,0.131-0.658-0.111c-0.117-0.34-0.091-0.381,0.118-0.181c0.243,0.229,0.388,0.236,0.804,0.014  c0.182-0.097,0.354-0.16,0.39-0.139c0.131,0.076,0.131-0.236,0.006-0.589c-0.145-0.423-0.117-0.514,0.188-0.576  c0.444-0.09,0.715-0.52,0.333-0.541c-0.11-0.007-0.117-0.014-0.021-0.042c0.153-0.042,0.16-0.389,0.008-0.541  c-0.104-0.104-0.104-0.118,0-0.236c0.117-0.132,0.152-0.458,0.049-0.52c-0.035-0.028-0.215-0.063-0.404-0.09  c-0.304-0.035-0.429-0.111-0.435-0.243c0-0.028,0.139-0.069,0.311-0.097c0.313-0.042,0.715-0.271,0.515-0.292  c-0.056-0.007-0.181-0.028-0.284-0.055C45.812,7.76,45.597,7.787,45.41,7.85c-0.297,0.104-0.311,0.097-0.228-0.014  c0.138-0.167,0.311-0.298,0.679-0.5c0.285-0.159,0.319-0.201,0.299-0.402c-0.014-0.201,0-0.222,0.188-0.222  c0.207,0,0.374-0.139,0.388-0.333c0.007-0.069,0.035-0.222,0.063-0.347c0.055-0.242,0-0.277-0.244-0.152  c-0.173,0.097-0.167,0.055,0.035-0.375c0.235-0.499,0.513-1.394,0.672-2.143c0.167-0.804,0.167-0.881,0-0.881  c-0.221,0-0.54,0.326-0.672,0.68c-0.146,0.389-0.202,0.465-0.306,0.396c-0.049-0.035-0.021-0.118,0.091-0.264  c0.09-0.125,0.207-0.298,0.256-0.388c0.082-0.16,0.077-0.167-0.131-0.125c-0.195,0.042-0.209,0.028-0.152-0.076  c0.034-0.062,0.222-0.264,0.414-0.444c0.432-0.402,0.535-0.721,0.452-1.366c-0.063-0.437-0.069-0.444-0.334-0.541  c-0.15-0.049-0.332-0.153-0.401-0.229C46.338-0.02,46.312-0.027,46.131,0.042z"></path><path fill="#FFFFFF" d="M39.191,4.889c0.021,0.069,0.069,0.167,0.111,0.208c0.097,0.125-0.007,0.478-0.111,0.375  c-0.042-0.042-0.146-0.076-0.235-0.076c-0.229,0-0.223,0.346,0.006,0.52c0.16,0.117,0.181,0.36,0.021,0.264  c-0.035-0.021-0.048-0.007-0.027,0.035c0.027,0.035-0.063,0.201-0.194,0.36c-0.131,0.16-0.243,0.332-0.243,0.381  c0,0.056,0.112,0.153,0.243,0.215c0.139,0.063,0.264,0.145,0.284,0.18c0.076,0.125-0.028,0.132-0.243,0.027  c-0.11-0.063-0.221-0.111-0.25-0.111c-0.021,0-0.035,0.139-0.035,0.313c0,0.221,0.042,0.353,0.14,0.451  c0.09,0.09,0.138,0.229,0.138,0.396c0,0.554,0.146,0.713,0.326,0.36c0.076-0.139,0.118-0.139,0.104,0.007  C39.218,8.89,39.53,8.82,39.613,8.709c0.133-0.18,0.202-0.152,0.25,0.097c0.048,0.25-0.028,0.333-0.32,0.333  c-0.235,0-0.305,0.188-0.187,0.541c0.104,0.34,0.173,0.409,0.41,0.464c0.173,0.042,0.194,0.063,0.125,0.167  c-0.145,0.236,0.111,0.52,0.542,0.596c0.158,0.035,0.25-0.006,0.443-0.173c0.222-0.194,0.243-0.202,0.264-0.069  c0.028,0.173,0.223,0.187,0.223,0.014c0.006-0.174,0.236-0.652,0.519-1.089c0.181-0.27,0.285-0.36,0.362-0.333  c0.089,0.034,0.104,0.014,0.069-0.077c-0.028-0.062,0-0.208,0.055-0.318c0.146-0.278,0.132-0.527-0.035-0.693  c-0.152-0.152-0.52-0.188-0.582-0.055c-0.021,0.048-0.035-0.104-0.028-0.34c0.006-0.298-0.02-0.472-0.097-0.554  c-0.055-0.07-0.124-0.25-0.145-0.396c-0.049-0.298-0.132-0.388-0.389-0.388c-0.118,0-0.153,0.027-0.118,0.11  c0.097,0.257,0.118,0.43,0.056,0.472c-0.042,0.021-0.104-0.049-0.138-0.167c-0.063-0.159-0.791-1.428-1.103-1.92  c-0.035-0.042-0.188-0.097-0.354-0.125C39.17,4.764,39.149,4.771,39.191,4.889z"></path><path fill="#FFFFFF" d="M35.377,8.64c-0.069,0.069-0.118,0.167-0.118,0.215c0,0.152,0.222,0.479,0.347,0.513  c0.062,0.014,0.138,0.118,0.159,0.229c0.021,0.111,0.063,0.257,0.083,0.319c0.042,0.104,0.014,0.11-0.194,0.076  c-0.214-0.035-0.242-0.014-0.284,0.145c-0.028,0.104-0.028,0.215-0.007,0.25c0.056,0.09,0.506,0.208,0.805,0.208  c0.304,0,0.409,0.111,0.637,0.659c0.139,0.339,0.209,0.416,0.333,0.416c0.131,0,0.173-0.048,0.222-0.278  c0.146-0.679-0.104-1.581-0.61-2.163c-0.215-0.25-0.422-0.271-0.333-0.042c0.028,0.069,0.014,0.097-0.027,0.069  c-0.042-0.027-0.097-0.167-0.125-0.305c-0.028-0.146-0.077-0.305-0.118-0.354C36.037,8.467,35.509,8.495,35.377,8.64z"></path><path fill="#FFFFFF" d="M33.124,9.278c-0.132,0.069-0.388,0.146-0.575,0.173c-0.431,0.062-0.437,0.201-0.028,0.43  c0.235,0.131,0.284,0.139,0.333,0.049c0.048-0.09,0.097-0.076,0.291,0.069c0.284,0.222,0.423,0.229,0.527,0.035  c0.09-0.173,0.042-0.645-0.076-0.791C33.492,9.119,33.416,9.125,33.124,9.278z"></path><path fill="#FFFFFF" d="M37.755,9.964c0,0.333,0.14,0.701,0.333,0.895c0.139,0.138,0.139,0.138-0.027,0.215  c-0.188,0.083-0.209,0.194-0.07,0.367c0.111,0.146,0.236,0.152,0.61,0.042c0.18-0.055,0.299-0.139,0.34-0.25  c0.09-0.229,0.076-0.714-0.027-0.908c-0.09-0.173-0.645-0.52-0.964-0.596C37.762,9.68,37.755,9.688,37.755,9.964z"></path><path fill="#FFFFFF" d="M32.798,10.339c-0.797,0.152-0.853,0.18-0.929,0.409c-0.111,0.313-0.097,0.458,0.069,0.687  c0.131,0.187,0.173,0.208,0.499,0.187c0.382-0.021,0.348,0.027,0.493-0.631c0.035-0.139,0.083-0.187,0.215-0.187  c0.18,0,0.299-0.243,0.215-0.451C33.318,10.235,33.297,10.235,32.798,10.339z"></path><path fill="#FFFFFF" d="M29.352,10.728c-0.014,0.021-0.153,0.145-0.319,0.27c-0.257,0.202-0.313,0.223-0.417,0.14  c-0.104-0.083-0.11-0.076-0.028,0.027c0.076,0.097,0.069,0.131-0.069,0.222c-0.083,0.062-0.222,0.111-0.305,0.111  c-0.09,0-0.215,0.076-0.292,0.166c-0.104,0.132-0.208,0.173-0.471,0.194l-0.34,0.02l-0.021,0.382  c-0.021,0.374-0.014,0.381,0.181,0.388c0.381,0.014,0.568,0.097,0.609,0.264c0.021,0.09,0.097,0.18,0.167,0.201  c0.194,0.048,0.769-0.403,1.109-0.874c0.304-0.416,0.395-0.472,0.284-0.173c-0.062,0.159-0.097,0.513-0.083,0.75  c0.007,0.055,0.18-0.07,0.422-0.312c0.23-0.229,0.417-0.382,0.417-0.347c0,0.152,0.138-0.153,0.138-0.312  c0-0.097,0.083-0.25,0.18-0.34c0.146-0.139,0.167-0.222,0.152-0.486c-0.021-0.277-0.041-0.318-0.159-0.291  c-0.16,0.027-0.437,0.021-0.846-0.021C29.504,10.693,29.366,10.7,29.352,10.728z"></path><path fill="#FFFFFF" d="M29.907,13.002c-0.326,0.347-0.41,0.513-0.319,0.666c0.055,0.104,0.041,0.118-0.097,0.083  c-0.111-0.027-0.208,0.007-0.319,0.104c-0.194,0.18-0.194,0.18,0.042,0.305c0.18,0.104,0.18,0.104,0.035,0.118  c-0.25,0.014-0.569,0.042-0.646,0.056c-0.159,0.021-0.048,0.215,0.25,0.458c0.174,0.146,0.341,0.326,0.368,0.402  c0.035,0.09,0.166,0.173,0.36,0.235c0.291,0.084,0.313,0.084,0.444-0.083c0.111-0.139,0.166-0.152,0.229-0.09  c0.048,0.049,0.083,0.118,0.083,0.167c0,0.091,0.368,0.167,0.818,0.167c0.291,0,0.36,0.062,0.208,0.187  c-0.069,0.056-1.04,0.152-1.56,0.16c-0.104,0-0.048,0.312,0.098,0.562c0.304,0.52,1.088,0.464,2.225-0.146l0.361-0.194l0.096,0.181  c0.091,0.18,0.125,0.187,0.603,0.187h0.513l0.222-0.381c0.118-0.208,0.284-0.472,0.369-0.575c0.394-0.499-0.174-1.332-0.68-1.012  c-0.104,0.062-0.166,0.042-0.354-0.132c-0.221-0.201-0.221-0.208-0.083-0.256c0.159-0.049,0.187-0.285,0.104-0.985  c-0.063-0.478-0.173-0.506-0.554-0.131c-0.368,0.375-0.458,0.679-0.243,0.818c0.187,0.111,0.18,0.173-0.008,0.333l-0.159,0.125  l0.187,0.389c0.104,0.208,0.16,0.402,0.125,0.423c-0.035,0.021-0.25-0.014-0.479-0.083l-0.422-0.125l-0.07-0.381  c-0.138-0.7-0.263-0.957-0.52-1.047c-0.214-0.083-0.228-0.104-0.201-0.354c0.035-0.291,0.028-0.298-0.458-0.367  C30.177,12.745,30.143,12.759,29.907,13.002z"></path><path fill="#FFFFFF" d="M38.22,13.238c-0.09,0.325-0.048,0.52,0.131,0.679c0.097,0.083,0.243,0.298,0.319,0.472  c0.139,0.312,0.139,0.312,0.431,0.278c0.152-0.028,0.38-0.063,0.499-0.091c0.202-0.042,0.215-0.027,0.389,0.368  c0.215,0.479,0.243,0.68,0.173,1.221c-0.049,0.347-0.035,0.437,0.117,0.763c0.097,0.194,0.215,0.409,0.264,0.471  c0.118,0.146,0.555,0.271,0.929,0.271c0.265,0,0.292-0.021,0.327-0.201c0.027-0.118,0.096-0.208,0.18-0.236  c0.124-0.027,0.146,0,0.146,0.201c0,0.263-0.021,0.257,0.729,0.236c0.63-0.014,1.303-0.187,1.628-0.423  c0.273-0.201,0.299-0.201,0.459-0.097c0.09,0.056,0.166,0.09,0.166,0.07c0-0.021,0.056-0.008,0.125,0.027  c0.097,0.049,0.193,0.035,0.366-0.069c0.319-0.194,0.41-0.326,0.41-0.597c0-0.138,0.034-0.229,0.09-0.229  c0.104,0,0.333-0.25,0.277-0.305c-0.027-0.021-0.097-0.042-0.166-0.042c-0.111,0-0.126-0.062-0.126-0.388  c0.008-0.409-0.061-0.52-0.282-0.464c-0.077,0.021-0.134-0.014-0.154-0.097c-0.021-0.076-0.166-0.181-0.36-0.257  c-0.305-0.118-0.346-0.118-0.687-0.007c-0.2,0.063-0.616,0.257-0.929,0.423c-0.521,0.284-0.575,0.333-0.575,0.52  c0,0.243-0.021,0.243-0.291,0.056c-0.152-0.111-0.27-0.139-0.457-0.111c-0.174,0.021-0.292,0-0.354-0.07  c-0.104-0.117-0.138-0.096-0.181,0.118c-0.048,0.264-0.083,0.229-0.131-0.132c-0.056-0.402-0.16-0.492-0.603-0.492h-0.298  l0.332-0.34c0.292-0.291,0.32-0.347,0.208-0.381c-0.076-0.021-0.277-0.18-0.458-0.354c-0.18-0.173-0.368-0.312-0.417-0.312  c-0.048,0-0.201,0.056-0.333,0.132l-0.242,0.131l-0.208-0.27c-0.229-0.313-0.679-0.549-1.102-0.597  C38.289,13.078,38.255,13.092,38.22,13.238z"></path><path fill="#FFFFFF" d="M37.347,14.007l-0.083,0.229l-0.118-0.194c-0.131-0.215-0.361-0.25-0.527-0.076  c-0.152,0.146-0.138,0.278,0.063,0.714c0.097,0.208,0.166,0.389,0.146,0.402c-0.028,0.027-0.173-0.208-0.416-0.687  c-0.076-0.139-0.201-0.263-0.284-0.278c-0.14-0.027-0.14-0.007-0.097,0.444c0.02,0.263,0.076,0.513,0.125,0.562  c0.131,0.131,0.083,0.187-0.091,0.111c-0.242-0.111-0.665,0.208-0.665,0.506c0,0.174,0.021,0.202,0.125,0.16  c0.208-0.084,1.29-0.306,1.324-0.278c0.056,0.062-0.229,0.319-0.312,0.284c-0.055-0.021-0.069,0.021-0.042,0.111  c0.028,0.111,0.014,0.132-0.056,0.091c-0.055-0.035-0.076-0.028-0.048,0.014c0.021,0.034,0.048,0.229,0.055,0.423l0.021,0.361h0.312  c0.174-0.007,0.479-0.049,0.666-0.098l0.346-0.09l0.098-0.916c0.118-1.04,0.056-1.574-0.215-1.858  C37.478,13.737,37.437,13.744,37.347,14.007z"></path><path fill="#FFFFFF" d="M24.935,14.887c-0.034,0.063-0.083,0.222-0.111,0.354c-0.083,0.402-0.25,0.763-0.333,0.714  c-0.035-0.021-0.049-0.014-0.028,0.027c0.083,0.132-1.005,1.366-1.719,1.942c-0.34,0.285-0.34,0.464,0,1.123  c0.263,0.5,0.292,0.7,0.159,1.13c-0.056,0.194-0.056,0.291,0,0.347c0.111,0.111,0.478,0.083,0.687-0.056  c0.167-0.104,0.201-0.104,0.548,0.014c0.423,0.146,0.465,0.125,0.701-0.319c0.277-0.513,0.375-0.617,0.735-0.728  c0.263-0.083,0.443-0.208,0.672-0.45c0.292-0.319,0.361-0.354,1.11-0.576c0.436-0.132,0.846-0.25,0.901-0.264  c0.367-0.097,0.451-0.687,0.173-1.269c-0.236-0.506-0.361-0.597-0.908-0.673c-0.256-0.034-0.514-0.104-0.569-0.152  c-0.153-0.118-0.36-0.603-0.36-0.833c0-0.229,0.006-0.229-0.888-0.347C25.06,14.791,24.983,14.791,24.935,14.887z"></path><path fill="#FFFFFF" d="M38.587,16.177c-0.159,0.25-0.318,0.451-0.353,0.451c-0.035,0-0.062,0.062-0.062,0.132  c0,0.076,0.173,0.277,0.401,0.471c0.673,0.569,0.604,0.541,0.922,0.396l0.284-0.125l-0.026-0.458  c-0.055-0.721-0.375-1.317-0.714-1.317C38.92,15.727,38.81,15.837,38.587,16.177z"></path><path fill="#FFFFFF" d="M12.377,16.815c-0.006,0.111-0.873,1.13-1.788,2.087c-0.521,0.555-1.013,1.089-1.089,1.187  c-0.388,0.52-1.103,1.317-1.144,1.289c-0.028-0.021-0.048,0.007-0.042,0.056c0.006,0.083-0.264,0.443-0.791,1.054  c-0.139,0.153-0.402,0.464-0.589,0.693c-0.624,0.742-1.297,1.422-1.373,1.373c-0.035-0.021-0.049-0.007-0.028,0.028  c0.063,0.097-1.962,2.315-2.052,2.26c-0.042-0.021-0.049-0.007-0.021,0.035c0.063,0.097-0.437,0.652-0.534,0.589  c-0.042-0.021-0.049-0.007-0.021,0.042c0.035,0.049-0.25,0.417-0.721,0.943c-0.853,0.957-0.853,0.957-0.471,1.394  c0.222,0.249,0.513,0.43,0.762,0.479c0.215,0.042,0.215,0.063,0.027,0.464C2.296,31.23,2.282,31.348,2.4,31.966  c0.097,0.52,0.042,0.797-0.235,1.192l-0.146,0.201l0.188,0.146c0.229,0.18,0.52,0.174,1.401-0.035  c0.492-0.118,0.665-0.132,0.818-0.07c0.214,0.083,0.235,0.208,0.083,0.624c-0.09,0.257-0.09,0.375,0.007,0.999  c0.187,1.241,0.104,3.75-0.118,3.619c-0.035-0.027-0.042,0.007-0.021,0.063c0.021,0.055-0.014,0.201-0.077,0.326  c-0.257,0.484-0.035,1.372,0.603,2.392c0.146,0.236,0.263,0.464,0.263,0.521c0,0.222-0.79,1.206-1.15,1.428  c-0.111,0.069-0.118,0.09-0.028,0.151c0.139,0.098,0.021,0.21-0.368,0.362c-0.444,0.173-0.499,0.339-0.492,1.448l0.014,0.937  l-0.098-0.443c-0.146-0.708-0.235-0.681-0.298,0.104c-0.035,0.396-0.021,0.541,0.049,0.604c0.076,0.055,0.125,0.041,0.214-0.077  c0.084-0.118,0.132-0.138,0.195-0.075c0.062,0.063,0.125,0.042,0.27-0.07c0.111-0.09,0.243-0.132,0.319-0.111  c0.07,0.028,0.125,0.015,0.125-0.027s0.076-0.076,0.173-0.076h0.18l-0.193,0.242c-0.104,0.133-0.243,0.243-0.306,0.243  c-0.125,0-0.201,0.264-0.201,0.681c0,0.305-0.049,0.27-0.083-0.058c-0.021-0.187-0.063-0.241-0.181-0.249  c-0.083-0.007-0.132,0.015-0.118,0.049c0.021,0.027-0.042,0.112-0.139,0.194c-0.104,0.077-0.18,0.159-0.18,0.194  c0.006,0.152-0.076,0.284-0.167,0.257c-0.055-0.028-0.118,0.048-0.173,0.209c-0.132,0.407,0.069,0.554,0.236,0.158l0.097-0.222  l0.09,0.215c0.118,0.271,0.277,0.229,0.493-0.111L3.6,47.655l0.049,0.278c0.042,0.236,0.028,0.306-0.125,0.458  c-0.152,0.166-0.167,0.222-0.117,0.514l0.048,0.332l0.354-0.042c0.195-0.021,0.409-0.062,0.479-0.083  c0.104-0.042,0.118-0.021,0.104,0.11c-0.013,0.091-0.049,0.202-0.076,0.249c-0.063,0.098-0.541,0.271-0.895,0.334  c-0.34,0.055-0.458,0.25-0.298,0.492c0.097,0.159,0.097,0.18-0.014,0.339c-0.07,0.092-0.181,0.188-0.243,0.21  c-0.152,0.055-0.16,0.366-0.021,0.754c0.055,0.153,0.083,0.299,0.069,0.32c-0.021,0.027,0.07,0.042,0.195,0.034  c0.166-0.014,0.284,0.035,0.478,0.2c0.243,0.209,0.25,0.23,0.194,0.528c-0.035,0.173-0.042,0.332-0.021,0.366  c0.014,0.027,0.201,0.152,0.409,0.265c0.312,0.18,0.86,0.714,0.86,0.839c0,0.021-0.063,0.104-0.139,0.193  c-0.077,0.084-0.125,0.182-0.104,0.209c0.014,0.027,0.055,0.173,0.09,0.332c0.062,0.264,0.056,0.285-0.056,0.222  c-0.167-0.09-0.187-0.09-0.236,0.036c-0.048,0.131,0.236,0.588,0.368,0.588c0.069,0,0.083-0.062,0.048-0.241  c-0.048-0.236-0.042-0.244,0.159-0.244c0.257,0,0.326,0.104,0.195,0.299c-0.069,0.11-0.083,0.208-0.028,0.409  c0.07,0.27,0.167,0.319,0.396,0.194c0.118-0.062,0.132-0.034,0.173,0.256c0.027,0.188,0.063,0.389,0.076,0.45  c0.027,0.084-0.021,0.132-0.152,0.167c-0.188,0.049-0.181,0.049,0.152,0.229c0.188,0.098,0.354,0.181,0.375,0.181  c0.021,0.007,0.319,0.139,0.658,0.305c0.347,0.16,0.777,0.36,0.964,0.431c0.187,0.076,0.472,0.193,0.63,0.27  c1.921,0.874,5.458,2.255,6.948,2.705c0.423,0.131,0.763,0.256,0.749,0.276c-0.014,0.022,0.063,0.035,0.16,0.043  c0.104,0.006,0.922,0.193,1.816,0.429c1.449,0.375,5.7,1.36,7.489,1.734c2.066,0.437,5.595,0.895,7.835,1.019  c0.436,0.028,0.874,0.056,0.971,0.076c0.09,0.014,1.067,0.049,2.163,0.069l1.991,0.048l-0.008-0.512  c0-0.479,0.008-0.521,0.188-0.651c0.485-0.354,0.471-0.319,0.339-0.577c-0.201-0.415-0.069-0.29,0.312,0.271  c0.202,0.312,0.354,0.568,0.34,0.582c-0.014,0.015-0.138,0-0.284-0.034c-0.444-0.098-0.424,0.229,0.028,0.347  c0.144,0.042,0.27,0.097,0.27,0.124c0,0.028-0.146,0.125-0.326,0.222c-0.479,0.257-0.527,0.383-0.229,0.639l0.242,0.208l0.853-0.049  c0.944-0.056,1.005-0.034,1.457,0.431c0.214,0.221,0.249,0.235,0.438,0.159c0.179-0.076,0.228-0.069,0.435,0.097  c0.299,0.229,0.535,0.229,0.909,0.007c0.16-0.089,0.312-0.153,0.328-0.131c0.061,0.055,1.586,0.305,1.649,0.271  c0.027-0.021,0.123-0.209,0.215-0.416c0.104-0.251,0.187-0.375,0.25-0.348c0.048,0.021,0.131,0.056,0.187,0.076  c0.132,0.049,0.249-0.18,0.263-0.484c0.007-0.257,0.138-0.368,0.256-0.23c0.043,0.058,0.043,0.126,0.008,0.188  c-0.089,0.138-0.083,0.277,0.008,0.277c0.118,0,0.283-0.5,0.249-0.742c-0.021-0.125-0.014-0.229,0.014-0.229  c0.035,0,0.271,0.097,0.533,0.215l0.473,0.214l0.617-0.082c0.646-0.091,0.735-0.063,0.741,0.193c0,0.049,0.075,0.202,0.167,0.348  c0.409,0.63,0.741,0.791,1.365,0.657l0.326-0.061l0.091,0.312c0.048,0.173,0.174,0.395,0.277,0.491  c0.173,0.159,0.187,0.202,0.132,0.473c-0.049,0.291-0.049,0.304,0.145,0.375c0.188,0.062,0.201,0.097,0.201,0.409  c0,0.283,0.021,0.338,0.126,0.338c0.069,0,0.291,0.085,0.491,0.188l0.368,0.182l0.881-0.084c1.323-0.132,1.615-0.139,1.871-0.034  c0.326,0.131,0.584,0.118,0.902-0.049c0.277-0.146,0.283-0.146,0.472-0.007c0.192,0.139,0.664,0.63,1.282,1.33  c0.313,0.354,0.325,0.382,0.229,0.535c-0.056,0.083-0.104,0.264-0.104,0.401c0,0.222-0.013,0.244-0.207,0.244  c-0.118,0-0.402-0.057-0.624-0.126c-0.34-0.097-0.416-0.146-0.416-0.264c0-0.089-0.069-0.173-0.181-0.223  c-0.098-0.049-0.152-0.117-0.132-0.151c0.028-0.042,0.021-0.063-0.014-0.056c-0.027,0.007-0.14-0.034-0.235-0.104  c-0.25-0.166-0.479-0.208-0.479-0.083c0,0.056,0.145,0.271,0.318,0.486l0.313,0.395l-0.152,0.582  c-0.146,0.555-0.153,0.639-0.077,1.421c0.098,0.924,0.098,0.924-0.339,1.472c-0.307,0.388-0.375,0.637-0.277,0.983  c0.062,0.229,0.048,0.265-0.152,0.451c-0.126,0.111-0.306,0.242-0.409,0.284c-0.257,0.104-0.257,0.312,0.007,0.374  c0.276,0.063,0.908,0.021,0.908-0.054c0-0.119,0.609-0.924,0.901-1.187c0.45-0.409,0.839-0.554,1.476-0.554  c0.466-0.009,0.535-0.022,0.535-0.126c0-0.077-0.056-0.125-0.132-0.125c-0.146,0-0.25-0.181-0.146-0.242  c0.04-0.027,0.423-0.167,0.852-0.319c0.424-0.152,0.806-0.305,0.841-0.34c0.04-0.041,0.026-0.11-0.043-0.187  c-0.056-0.07-0.125-0.182-0.146-0.243c-0.056-0.153-0.11-0.153-0.604-0.021c-0.207,0.055-0.388,0.104-0.395,0.104  c-0.014,0-0.021-0.11-0.021-0.25c0-0.187,0.049-0.284,0.209-0.423c0.118-0.097,0.257-0.256,0.312-0.359  c0.292-0.576,1.296-1.068,2.122-1.056c0.354,0.015,0.492-0.013,0.617-0.117c0.188-0.152,0.146-0.36-0.076-0.36  c-0.409,0,0.284-0.562,0.755-0.61c0.251-0.021,0.333-0.056,0.34-0.146c0.021-0.229,0.528-0.984,0.888-1.317  c0.549-0.499,1.359-0.881,3.01-1.429l1.484-0.492l0.076-0.242c0.104-0.32,0.173-0.423,0.437-0.618  c0.124-0.089,0.229-0.215,0.229-0.276c0-0.063,0.055-0.285,0.124-0.492c0.117-0.341,0.125-0.409,0.034-0.756  c-0.166-0.632-0.166-0.756-0.042-1.865c0.098-0.84,0.152-1.082,0.243-1.145c0.09-0.056,0.146-0.042,0.25,0.049  c0.18,0.166,0.249,0.153,0.61-0.125c0.36-0.277,0.513-0.298,0.825-0.104c0.38,0.236,0.797,1.006,1.074,1.977l0.118,0.417l0.284,0.02  c0.264,0.021,0.305,0.049,0.429,0.291c0.141,0.278,0.376,0.486,0.542,0.486c0.055,0,0.173-0.063,0.271-0.139  c0.097-0.077,0.235-0.14,0.313-0.14c0.249,0,0.512-0.201,0.637-0.478c0.097-0.201,0.182-0.29,0.326-0.32  c0.243-0.055,0.257-0.076,0.68-0.9c0.368-0.721,0.534-0.984,0.597-0.923c0.021,0.022-0.015,0.168-0.069,0.333  c-0.118,0.34-0.14,0.693-0.034,0.693c0.041,0,0.158-0.075,0.256-0.166c0.264-0.242,0.839-0.54,0.937-0.485  c0.04,0.028,0.055,0.021,0.034-0.021c-0.028-0.042,0.013-0.09,0.089-0.111c0.21-0.055,0.168,0.063-0.089,0.257  c-0.125,0.097-0.271,0.256-0.326,0.347l-0.09,0.174l-0.125-0.153l-0.124-0.152l-0.285,0.277c-0.194,0.188-0.43,0.568-0.741,1.199  l-0.459,0.923l0.111,0.257c0.063,0.138,0.125,0.347,0.152,0.464c0.07,0.313,0.216,0.5,0.431,0.555  c0.298,0.068,0.644,0.251,0.61,0.313c-0.077,0.125,0.25-0.028,0.416-0.187c0.396-0.396,0.741-1.533,0.694-2.261  c-0.021-0.368,0.068-0.466,0.436-0.466c0.167,0,0.222-0.048,0.333-0.291c0.181-0.408,0.665-1.032,1.587-2.066  c0.688-0.762,0.833-1.032,0.508-0.942c-0.459,0.132-0.52,0.125-0.563-0.021c-0.034-0.153-0.277-0.194-0.457-0.084  c-0.063,0.043-0.167,0.036-0.271-0.013c-0.139-0.063-0.188-0.057-0.27,0.056c-0.056,0.075-0.132,0.131-0.167,0.118  c-0.041-0.008-0.056,0.006-0.034,0.04c0.021,0.035-0.049,0.146-0.161,0.25c-0.151,0.146-0.305,0.209-0.706,0.264  c-0.283,0.042-0.597,0.117-0.7,0.166c-0.236,0.117-0.402,0.063-0.382-0.132c0.015-0.166,0-0.174-0.755-0.089  c-0.424,0.04-0.437,0.04-0.783-0.237c-0.194-0.151-0.367-0.354-0.396-0.444c-0.043-0.187-0.258-0.27-0.499-0.199  c-0.139,0.034-0.153,0.02-0.118-0.133c0.062-0.249,0.069-0.824,0.014-1.033c-0.021-0.097-0.125-0.214-0.215-0.256  c-0.159-0.069-0.194-0.055-0.423,0.207c-0.133,0.16-0.243,0.313-0.243,0.347c0,0.091-0.234,0.063-0.402-0.055  c-0.125-0.083-0.215-0.098-0.471-0.042c-0.299,0.063-0.306,0.063-0.201-0.056c0.062-0.069,0.319-0.18,0.561-0.249  c0.535-0.146,0.77-0.374,0.991-0.971c0.354-0.943,0.07-1.546-0.733-1.553c-0.514,0-1.096,0.291-1.838,0.922  c-0.236,0.202-0.43,0.319-0.479,0.283c-0.048-0.027-0.063-0.021-0.041,0.021c0.021,0.034-0.161,0.265-0.402,0.499  c-0.472,0.465-1.076,1.318-1.373,1.948c-0.104,0.208-0.292,0.854-0.423,1.436c-0.271,1.186-0.492,1.713-0.867,2.087  c-0.589,0.584-1.414,1.353-1.248,1.158c1.414-1.643,1.442-1.685,1.581-2.101c0.083-0.235,0.236-1.013,0.347-1.727  c0.118-0.715,0.257-1.464,0.318-1.651c0.146-0.449,0.562-1.053,0.832-1.198c0.119-0.063,0.229-0.146,0.25-0.18  c0.027-0.028,0.097-0.403,0.16-0.833c0.165-1.096,0.173-1.145,0.339-1.297c0.638-0.603,4.349-2.558,4.854-2.558  c0.201,0,0.381-0.117,1.096-0.701c0.472-0.388,0.88-0.755,0.9-0.819c0.021-0.061,0.098-0.581,0.167-1.156  c0.118-1.02,0.125-1.047,0.326-1.18c0.117-0.076,0.283-0.305,0.401-0.554c0.167-0.354,0.25-0.444,0.555-0.61  c0.583-0.318,0.721-0.817,0.52-1.913L80.1,44.8l-0.222,0.007c-0.201,0.007-0.263-0.042-0.597-0.514  c-0.423-0.576-0.693-0.771-1.096-0.776c-0.402-0.007-0.631,0.167-0.631,0.457c0,0.125-0.048,0.271-0.104,0.319  c-0.091,0.076-0.104,0.048-0.104-0.18c0-0.327-0.041-0.396-0.332-0.542c-0.215-0.11-0.806-0.138-0.735-0.034  c0.014,0.028-0.063,0.11-0.181,0.174c-0.223,0.139-0.223,0.132-0.146,0.339c0.041,0.098,0.008,0.216-0.098,0.382  c-0.076,0.132-0.249,0.513-0.374,0.846s-0.305,0.666-0.389,0.749l-0.159,0.146l-0.041-0.235c-0.027-0.132-0.015-0.326,0.027-0.423  c0.083-0.215,0.548-0.846,0.617-0.825c0.021,0.007,0.035-0.118,0.035-0.277c-0.015-0.347,0.082-0.645,0.242-0.764  c0.062-0.041,0.215-0.214,0.333-0.374c0.207-0.263,0.222-0.298,0.118-0.401c-0.236-0.235-0.93-0.416-0.93-0.243  c0,0.041-0.076,0.152-0.166,0.243c-0.159,0.159-0.174,0.159-0.526,0.069c-0.354-0.097-0.626-0.055-0.626,0.098  c0,0.027-0.145,0.034-0.325,0.006c-0.298-0.048-0.34-0.034-0.512,0.152c-0.216,0.236-0.237,0.222-0.41-0.318  c-0.083-0.263-0.09-0.263-0.375-0.223c-0.81,0.132-0.858,0.132-1.102-0.02c-0.14-0.084-0.354-0.146-0.52-0.146  c-0.153,0-0.299-0.028-0.327-0.063c-0.021-0.042,0.028-0.181,0.104-0.32c0.16-0.276,0.194-0.755,0.056-0.713  c-0.049,0.02-0.111,0.124-0.139,0.234c-0.035,0.126-0.042,0.042-0.027-0.222l0.027-0.422l-0.325-0.041  c-0.174-0.028-0.438-0.077-0.577-0.118c-0.249-0.069-0.249-0.085-0.18-0.285c0.063-0.181,0.049-0.235-0.09-0.381  c-0.188-0.201-0.249-0.208-0.43-0.049c-0.111,0.098-0.146,0.104-0.174,0.035c-0.049-0.139-0.43-0.562-0.575-0.646  c-0.097-0.048-0.195-0.034-0.348,0.049l-0.222,0.111l0.049-0.236l0.042-0.243l-0.673-0.367c-1.227-0.666-1.552-0.916-1.795-1.407  c-0.195-0.375-0.334-0.465-0.493-0.306c-0.098,0.09-0.09,0.111,0.049,0.153c0.118,0.035,0.138,0.083,0.104,0.194  c-0.187,0.617-0.18,0.853,0.042,2.094l0.152,0.839l-0.242,0.318c-0.139,0.181-0.32,0.514-0.409,0.742  c-0.091,0.236-0.209,0.424-0.257,0.424c-0.049,0-0.354-0.111-0.68-0.243c-0.319-0.132-0.638-0.243-0.706-0.243  c-0.209,0-0.583,0.278-0.659,0.486c-0.042,0.117-0.104,0.207-0.132,0.207c-0.09,0-0.146-0.151-0.063-0.2  c0.042-0.027,0.118-0.188,0.166-0.361c0.091-0.298,0.091-0.326-0.063-0.513c-0.091-0.111-0.193-0.18-0.249-0.152  c-0.146,0.056-0.638-0.873-0.583-1.096c0.034-0.125-0.014-0.215-0.2-0.402c-0.195-0.194-0.244-0.298-0.244-0.513  c0-0.513-0.076-0.783-0.215-0.783c-0.152,0-0.152,0-0.062,0.235c0.076,0.208,0.055,0.215-0.354,0.076  c-0.277-0.097-0.341-0.097-0.61,0c-0.166,0.055-0.424,0.104-0.569,0.104c-0.283,0-0.263,0.021-0.442-0.659  c-0.008-0.042-0.251-0.125-0.528-0.201c-0.283-0.069-0.575-0.18-0.651-0.25c-0.312-0.271-0.7-0.485-0.881-0.485  c-0.146,0-0.249,0.076-0.45,0.339c-0.438,0.562-0.479,0.575-1.706,0.52l-1.061-0.048l-0.145,0.25  c-0.265,0.444-0.237,0.707,0.117,1.109c0.409,0.465,0.506,0.742,0.444,1.255c-0.029,0.235-0.057,0.451-0.063,0.491  c0,0.036,0.221,0.41,0.507,0.819l0.505,0.749l-0.18,0.707c-0.097,0.387-0.222,0.853-0.283,1.025  c-0.111,0.298-0.111,0.334,0.006,0.576c0.076,0.159,0.216,0.304,0.354,0.374c0.125,0.056,0.222,0.124,0.207,0.146  c-0.012,0.02,0.064,0.041,0.175,0.048c0.264,0.006,0.547,0.216,1.275,0.915c0.825,0.804,0.901,0.985,0.895,2.164  c0,0.831-0.021,0.991-0.188,1.449c-0.443,1.233-1.13,2.065-1.935,2.363c-0.284,0.097-0.234,0.229,0.209,0.535  c0.533,0.38,0.596,0.463,0.734,0.991c0.069,0.249,0.264,0.692,0.437,0.99c0.174,0.292,0.354,0.681,0.409,0.854  c0.049,0.174,0.16,0.396,0.243,0.499c0.131,0.168,0.139,0.243,0.097,0.783c-0.034,0.472-0.027,0.646,0.056,0.805  c0.166,0.313,0.042,0.424-0.187,0.16c-0.14-0.174-0.222-0.216-0.347-0.181c-0.139,0.034-0.168,0.104-0.223,0.472  c-0.063,0.43-0.069,0.436-0.264,0.423c-0.271-0.021-0.846-0.325-0.818-0.43c0.008-0.048-0.014-0.069-0.049-0.048  c-0.089,0.055-1.053-0.944-1.011-1.056c0.02-0.049,0.006-0.076-0.028-0.055c-0.028,0.021-0.159-0.076-0.291-0.208  s-0.402-0.354-0.597-0.486c-0.257-0.166-0.368-0.29-0.368-0.388c0-0.139,0.008-0.139,0.092-0.034  c0.088,0.124,0.811,0.298,1.399,0.34c0.332,0.021,0.348,0.013,0.326-0.153c-0.014-0.097-0.146-0.291-0.292-0.437  c-0.317-0.306-0.615-0.34-1.178-0.124l-0.348,0.131v-0.235c0-0.131-0.027-0.292-0.069-0.361c-0.034-0.062-0.18-0.401-0.311-0.741  c-0.222-0.547-0.258-0.721-0.292-1.449l-0.042-0.818l-0.873,0.049c-0.479,0.021-1.215,0.069-1.629,0.104l-0.757,0.056l-0.423-0.257  c-0.408-0.249-1.179-0.491-1.928-0.597c-0.2-0.027-0.333-0.082-0.333-0.138c0-0.118-0.54-0.804-0.797-1.013  c-0.312-0.256-0.555-0.341-0.963-0.341c-0.333,0-0.411-0.027-0.701-0.269c-0.18-0.153-0.429-0.291-0.547-0.313  c-0.264-0.049-0.866,0.111-1.27,0.347c-0.208,0.118-0.333,0.152-0.436,0.11c-0.139-0.049-0.161-0.117-0.181-0.547  c-0.021-0.549-0.152-1.131-0.423-1.858c-0.09-0.271-0.188-0.534-0.208-0.596c-0.02-0.084-0.131-0.104-0.527-0.098  c-0.277,0.007-0.562,0.034-0.638,0.056c-0.215,0.069-0.485-0.473-0.416-0.832c0.021-0.139,0.056-0.431,0.076-0.639  c0.076-1.074,0.118-1.372,0.271-2.004c0.223-0.914,0.41-1.372,0.7-1.691c0.256-0.284,0.291-0.402,0.132-0.402  c-0.111,0-0.146-0.11-0.042-0.152c0.028-0.014,0.215-0.215,0.416-0.45c0.195-0.243,0.444-0.479,0.555-0.542  c0.299-0.151,0.334-0.317,0.097-0.498l-0.194-0.159h0.368c0.395,0,0.866-0.194,0.943-0.382c0.083-0.222,0.042-0.568-0.083-0.679  c-0.265-0.236-1.062-0.548-2.081-0.812c-0.159-0.042-0.277-0.104-0.256-0.138c0.09-0.153,0.597-0.056,1.353,0.25  c0.957,0.381,1.234,0.388,1.545,0.014c0.104-0.125,0.207-0.292,0.229-0.368c0.021-0.097,0.167-0.194,0.429-0.298  c0.5-0.188,0.86-0.485,1.102-0.901c0.161-0.271,0.188-0.402,0.195-0.839v-0.526l-0.693-0.036c-0.756-0.035-0.978-0.125-1.386-0.555  c-0.112-0.125-0.299-0.263-0.403-0.326c-0.112-0.055-0.181-0.118-0.16-0.139c0.071-0.069,0.667,0.132,0.618,0.208  c-0.02,0.042-0.007,0.048,0.035,0.021c0.042-0.028,0.319,0.076,0.618,0.221c0.297,0.153,0.699,0.298,0.895,0.319  c0.347,0.048,0.353,0.048,0.581-0.208c0.277-0.318,0.639-1.088,0.61-1.304c-0.015-0.097-0.097-0.173-0.249-0.221  c-0.284-0.09-0.388-0.194-0.34-0.333c0.033-0.09,0.118-0.104,0.408-0.069c0.5,0.048,0.542,0.069,0.542,0.235  c0,0.119,0.027,0.132,0.193,0.098c0.104-0.028,0.243-0.076,0.319-0.111c0.069-0.042,0.262-0.049,0.429-0.021  c0.348,0.048,0.41-0.056,0.167-0.277c-0.173-0.16-0.11-0.257,0.111-0.173c0.097,0.042,0.195,0.069,0.222,0.069  c0.027,0,0.201-0.25,0.389-0.548c0.194-0.305,0.416-0.589,0.506-0.638c0.354-0.193,0.126-1.04-0.464-1.706  c-0.152-0.173-0.258-0.347-0.229-0.388c0.021-0.042,0.008-0.049-0.034-0.021c-0.07,0.042-0.43-0.402-0.43-0.527  c0-0.027,0.116-0.056,0.256-0.069c0.341-0.028,0.402-0.201,0.341-0.901l-0.049-0.52l-0.432-0.097  c-0.387-0.09-0.429-0.118-0.45-0.291c-0.013-0.104-0.083-0.222-0.159-0.257c-0.069-0.042-0.471-0.069-0.894-0.063  c-0.651,0.007-0.764,0.021-0.77,0.125c-0.035,0.388,0.083,1.005,0.291,1.553l0.132,0.333L45.209,28  c-0.159,0.063-0.173,0.097-0.166,0.541c0.007,0.381-0.028,0.541-0.174,0.825c-0.098,0.194-0.208,0.562-0.25,0.818  c-0.083,0.5-0.215,0.762-0.41,0.818c-0.103,0.028-0.187-0.104-0.458-0.707c-0.214-0.471-0.34-0.86-0.353-1.081  c-0.027-0.306-0.021-0.327,0.048-0.16c0.098,0.25,0.167,0.243,0.265-0.007c0.138-0.326,0.026-0.666-0.354-1.082  c-0.209-0.229-0.327-0.409-0.292-0.458c0.027-0.048,0.021-0.062-0.028-0.034c-0.042,0.021-0.104-0.014-0.146-0.077  c-0.055-0.104-0.09-0.111-0.208-0.041c-0.18,0.111-0.236,0.111-0.173,0.007c0.027-0.048,0.021-0.056-0.035-0.028  c-0.042,0.028-0.063,0.083-0.042,0.118c0.028,0.035,0.021,0.104-0.013,0.146c-0.027,0.048-0.083,0.402-0.125,0.776  c-0.035,0.381-0.104,0.7-0.146,0.713c-0.041,0.015-0.173-0.298-0.297-0.721c-0.305-1.02-0.319-1.088-0.187-1.192  c0.179-0.152,0.124-0.25-0.181-0.333c-0.25-0.069-0.326-0.062-0.464,0.028c-0.139,0.09-0.173,0.09-0.229,0.014  c-0.194-0.298-0.202-0.347-0.09-0.527c0.097-0.138,0.104-0.208,0.042-0.347c-0.111-0.243-0.097-0.256,0.097-0.132  c0.166,0.104,0.173,0.104,0.173-0.014c0-0.118-0.187-0.43-0.59-0.971c-0.09-0.125-0.201-0.409-0.25-0.624  c-0.222-1.095-0.333-1.283-0.797-1.353c-0.111-0.021-0.194-0.062-0.187-0.104c0.007-0.035-0.042-0.118-0.111-0.18  c-0.118-0.104-0.139-0.097-0.326,0.18c-0.139,0.208-0.201,0.381-0.201,0.576c0,0.25-0.014,0.277-0.173,0.277  c-0.167,0-0.173,0.021-0.194,0.451c-0.014,0.25,0.021,0.582,0.069,0.728c0.083,0.243,0.076,0.305-0.028,0.52  c-0.173,0.333-0.159,0.679,0.048,0.984c0.187,0.284,0.597,0.562,0.77,0.527c0.09-0.014,0.201,0.09,0.277,0.277  c0.007,0.014,0.097,0.035,0.208,0.055c0.257,0.049,0.306,0.097,0.083,0.097c-0.152,0-0.187,0.049-0.284,0.417  c-0.146,0.513-0.146,0.582-0.007,0.7c0.097,0.076,0.132,0.069,0.236-0.062c0.069-0.084,0.146-0.153,0.172-0.153  c0.112,0-0.048,0.666-0.241,1.006c-0.195,0.332-0.257,0.388-0.521,0.457c-0.208,0.049-0.319,0.125-0.354,0.216  c-0.042,0.131,0,0.749,0.077,1.269c0.035,0.194,0.027,0.201-0.05,0.049c-0.082-0.167-0.256-0.202-0.381-0.077  c-0.139,0.139-0.187-0.513-0.083-1.137c0.056-0.312,0.097-0.596,0.097-0.638c0-0.035-0.125-0.09-0.27-0.118  c-0.154-0.036-0.382-0.139-0.514-0.236l-0.235-0.187l-0.339,0.16c-0.375,0.18-0.389,0.222-0.229,0.624  c0.096,0.243,0.138,0.277,0.333,0.277c0.298,0,0.478,0.139,0.443,0.347c-0.035,0.271-0.173,0.236-0.562-0.132l-0.367-0.354  l-0.139,0.18c-0.125,0.166-0.146,0.173-0.479,0.097c-0.187-0.042-0.707-0.069-1.151-0.056c-0.77,0.021-0.818,0.014-0.984-0.139  c-0.097-0.09-0.215-0.257-0.263-0.375c-0.076-0.187-0.104-0.201-0.396-0.187c-0.298,0.021-0.325,0.007-0.637-0.339  c-0.265-0.306-0.32-0.403-0.292-0.576c0.014-0.111-0.021-0.347-0.09-0.527L31.98,27.5l-0.389,0.048  c-0.215,0.028-0.458,0.055-0.541,0.063c-0.076,0.006-0.131,0.027-0.118,0.048c0.014,0.028-0.125,0.083-0.306,0.125  c-0.423,0.111-0.61,0.235-0.748,0.513c-0.063,0.118-0.091,0.201-0.063,0.166c0.035-0.028,0.104-0.007,0.166,0.048  c0.063,0.049,0.208,0.111,0.326,0.132c0.18,0.035,0.228,0.014,0.256-0.09c0.027-0.104,0.098-0.138,0.292-0.138  c0.139,0,0.339-0.049,0.457-0.104c0.111-0.062,0.235-0.09,0.264-0.069c0.034,0.021,0.076,0,0.091-0.042  c0.026-0.076,0.263-0.014,0.263,0.076c0,0.09-0.285,0.243-0.832,0.451c-0.493,0.188-0.88,0.402-0.984,0.548  c-0.021,0.035,0,0.188,0.055,0.347c0.056,0.153,0.118,0.514,0.146,0.791c0.042,0.499,0.035,0.513-0.104,0.472  c-0.104-0.035-0.153-0.014-0.187,0.104c-0.09,0.278-0.188-0.027-0.111-0.353c0.083-0.381,0.007-0.631-0.354-1.089  c-0.166-0.208-0.388-0.492-0.492-0.63l-0.202-0.257l-0.706,0.027c-0.396,0.007-0.895-0.014-1.124-0.063  c-0.443-0.09-1.144-0.395-1.407-0.61c-0.16-0.125-0.16-0.152-0.076-0.354c0.083-0.208,0.097-0.215,0.526-0.215h0.438l-0.021-0.367  c-0.028-0.444-0.25-0.971-0.472-1.11c-0.083-0.062-0.339-0.138-0.555-0.18c-0.714-0.132-0.922-0.312-1.858-1.609  c-0.527-0.735-1.144-1.352-1.442-1.428c-0.111-0.027-0.208,0.007-0.319,0.111c-0.277,0.264-0.874,0.34-0.874,0.118  c0-0.048,0.138-0.374,0.312-0.721c0.222-0.458,0.277-0.638,0.208-0.638c-0.215,0-0.832,0.464-1.04,0.79  c-0.111,0.167-0.139,0.181-0.236,0.083c-0.076-0.083-0.111-0.347-0.146-1.171c-0.027-0.583-0.069-1.103-0.097-1.144  c-0.028-0.049-0.111-0.083-0.181-0.083c-0.104,0-0.125,0.042-0.097,0.222c0.028,0.208,0.007,0.25-0.27,0.417  c-0.43,0.27-0.569,0.319-0.514,0.173c0.035-0.083,0.007-0.118-0.09-0.118c-0.076,0-0.159-0.007-0.187-0.013  c-0.381-0.098-0.763-0.105-0.95-0.028c-0.173,0.069-0.25,0.069-0.423,0c-0.326-0.146-0.693-0.111-1.103,0.09  c-0.374,0.18-0.596,0.18-0.596-0.007c0-0.146,0.208-0.18,1.49-0.25c0.652-0.027,1.297-0.097,1.436-0.145  c0.263-0.083,0.416-0.34,0.208-0.34c-0.069,0-0.208-0.048-0.326-0.111c-0.292-0.16-1.609-0.125-3.121,0.083  c-0.263,0.035-0.257,0.027,0.131-0.139c0.506-0.215,0.555-0.264,0.5-0.493c-0.055-0.208-0.235-0.305-0.326-0.166  c-0.042,0.076-0.194,0.09-0.652,0.069c-0.333-0.007-0.589,0.007-0.589,0.042c0,0.035,0.048,0.207,0.11,0.388  c0.083,0.25,0.146,0.326,0.257,0.333c0.083,0.006,0.028,0.035-0.125,0.062c-0.153,0.028-0.285,0.035-0.298,0.007  c-0.111-0.27-0.215-0.388-0.361-0.409c-0.242-0.034-0.485-0.562-0.485-1.061c0-0.319-0.055-0.492-0.395-1.158  c-0.284-0.561-0.43-0.777-0.521-0.777C12.434,16.766,12.377,16.787,12.377,16.815z M18.258,28.027  c0.291,0.146,0.381,0.16,0.812,0.111c0.271-0.028,1.012-0.035,1.664-0.021c1.082,0.028,1.192,0.042,1.331,0.173  c0.229,0.215,0.195,0.319-0.097,0.368c-0.804,0.139-0.929,0.242-0.624,0.521c0.472,0.443,0.964,0.547,1.394,0.284  c0.298-0.188,0.367-0.097,0.145,0.208c-0.422,0.583-0.589,0.867-0.589,1.013c0,0.236-0.195,0.201-0.569-0.104  c-0.257-0.215-0.36-0.264-0.534-0.236c-0.229,0.028-0.291,0.153-0.264,0.492c0.014,0.16-0.035,0.187-0.575,0.361  c-0.916,0.285-0.971,0.298-0.971,0.139c0-0.09,0.063-0.139,0.236-0.166c0.464-0.076,0.922-0.5,0.776-0.729  c-0.021-0.042-0.132-0.104-0.25-0.139c-0.194-0.069-0.236-0.055-0.603,0.271c-0.215,0.187-0.409,0.339-0.437,0.339  c-0.069,0-0.645-0.422-0.742-0.547c-0.132-0.166-0.111-0.201,0.132-0.187c0.173,0.007,0.229-0.028,0.25-0.132  c0.042-0.18,0.201-0.291,0.513-0.34c0.292-0.048,0.312-0.117,0.16-0.415c-0.056-0.104-0.104-0.208-0.104-0.222  c0-0.083,0.167,0,0.444,0.215c0.285,0.214,0.527,0.312,0.527,0.208c0-0.021-0.063-0.16-0.139-0.305  c-0.146-0.298-0.416-0.451-0.908-0.521c-0.173-0.027-0.423-0.117-0.541-0.208c-0.222-0.167-0.318-0.167-0.714-0.007  c-0.111,0.041-0.125,0.007-0.125-0.271c0-0.173,0.014-0.318,0.035-0.318C17.911,27.861,18.078,27.937,18.258,28.027z M22.238,36.029  c0.014-0.042,0.069-0.056,0.111-0.028c0.063,0.035,0.048,0.104-0.055,0.249c-0.188,0.264-0.173,0.389,0.055,0.659  c0.104,0.125,0.243,0.313,0.312,0.409c0.083,0.118,0.187,0.18,0.319,0.18c0.166,0,0.201,0.042,0.312,0.382  c0.146,0.464,0.271,0.54,0.846,0.505c0.381-0.021,0.485-0.062,0.839-0.319c0.811-0.596,1.22-0.687,1.941-0.429  c0.451,0.159,0.527,0.214,0.493,0.374c-0.014,0.097-0.083,0.083-0.465-0.097c-0.499-0.236-0.791-0.27-1.109-0.139  c-0.305,0.125-0.277,0.236,0.049,0.173c0.409-0.076,0.521-0.076,0.548,0.007c0.014,0.049-0.056,0.104-0.159,0.125  c-0.133,0.035-0.174,0.083-0.146,0.173c0.027,0.104-0.035,0.139-0.381,0.201c-0.236,0.041-0.506,0.146-0.611,0.236  c-0.11,0.09-0.346,0.285-0.527,0.437c-0.319,0.271-0.339,0.277-0.846,0.277s-0.513,0-0.735,0.257  c-0.263,0.318-0.485,0.402-1.033,0.402c-0.305,0-0.534-0.049-0.784-0.167c-0.401-0.188-0.95-0.645-0.888-0.742  c0.021-0.035,0.007-0.055-0.027-0.049c-0.111,0.035-1.006-0.977-0.957-1.088c0.021-0.056,0.083-0.083,0.132-0.063  c0.125,0.042,0.499,0.562,0.561,0.77c0.035,0.11,0.125,0.166,0.306,0.194c0.139,0.028,0.36,0.076,0.485,0.118  c0.214,0.063,0.25,0.049,0.61-0.292c0.367-0.347,0.388-0.361,0.687-0.319c0.166,0.028,0.319,0.021,0.34-0.014  c0.013-0.028-0.042-0.27-0.139-0.541c-0.215-0.575-0.444-1.512-0.444-1.789c0-0.193,0.007-0.193,0.167-0.083  C22.162,36.077,22.224,36.084,22.238,36.029z M31.446,46.305c-0.063,0.151-0.063,0.256-0.007,0.429  c0.056,0.152,0.056,0.236,0.007,0.249c-0.035,0.016-0.07,0.07-0.07,0.118c0,0.056-0.069,0.104-0.152,0.118  c-0.111,0.015-0.18,0.097-0.235,0.264c-0.062,0.181-0.138,0.264-0.333,0.34c-0.138,0.056-0.27,0.076-0.291,0.063  c-0.055-0.063,0.291-0.867,0.534-1.24c0.125-0.201,0.25-0.319,0.298-0.292c0.042,0.021,0.055,0.015,0.021-0.015  c-0.028-0.033,0.021-0.132,0.104-0.22C31.501,45.923,31.563,46.013,31.446,46.305z M71.467,46.755  c0.097,0.353,0.097,0.382-0.015,0.382c-0.061,0-0.2,0.11-0.311,0.249c-0.194,0.242-0.216,0.25-0.527,0.208l-0.326-0.042  l-0.041,0.229c-0.027,0.132-0.027,0.292,0,0.354c0.027,0.069,0.007,0.11-0.049,0.117c-0.055,0.008-0.16,0.014-0.236,0.021  c-0.076,0-0.139,0.048-0.131,0.09c0.007,0.049,0.015,0.132,0.021,0.187c0,0.063,0.125,0.118,0.305,0.146  c0.694,0.118,0.708,0.307,0.021,0.299h-0.521l-0.021-0.319l-0.021-0.318l-0.512-0.193c-0.285-0.112-0.701-0.217-0.924-0.244  c-0.422-0.041-0.45-0.076-0.36-0.422c0.042-0.152,0.049-0.152,0.624,0.158c0.326,0.174,0.646,0.313,0.722,0.313  c0.124,0,0.124-0.015,0.027-0.243c-0.138-0.339-0.132-0.547,0.028-0.484c0.361,0.139,0.472,0.117,0.651-0.118  c0.166-0.216,0.174-0.25,0.084-0.423c-0.056-0.104-0.084-0.188-0.056-0.188c0.021,0,0.256,0.118,0.512,0.257  c0.493,0.271,0.625,0.278,0.486,0.021c-0.124-0.236-0.027-0.416,0.236-0.416C71.349,46.374,71.364,46.395,71.467,46.755z   M32.368,47.476c0.014,0.069,0,0.18-0.035,0.243c-0.09,0.159-0.028,0.208,0.146,0.11c0.125-0.063,0.146-0.056,0.146,0.083  c0,0.229-0.188,0.473-0.458,0.583c-0.271,0.111-0.291,0.18-0.097,0.374l0.139,0.139l-0.526,0.624  c-0.368,0.444-0.589,0.639-0.742,0.68c-0.264,0.076-0.354,0.015-0.292-0.194c0.035-0.117,0.083-0.138,0.243-0.104  c0.153,0.035,0.222,0,0.368-0.174c0.194-0.222,0.194-0.443,0.014-0.971c-0.076-0.215-0.069-0.277,0.063-0.499  c0.097-0.174,0.194-0.263,0.298-0.263c0.104,0,0.167-0.063,0.222-0.223C32.028,47.399,32.292,47.185,32.368,47.476z M36.438,53.251  c0,0.118-0.076,0.195-0.277,0.285c-0.153,0.069-0.278,0.174-0.278,0.229c0,0.118,0.159,0.091,0.5-0.083  c0.25-0.132,0.263-0.125,0.263,0.068c0,0.126-0.049,0.174-0.222,0.209c-0.346,0.069-0.403,0.152-0.361,0.548  c0.028,0.291,0.008,0.395-0.104,0.533l-0.146,0.174v-0.16c0-0.082-0.035-0.152-0.076-0.152c-0.083,0-0.042,0.32,0.146,1.109  c0.223,0.902,1.145,3.794,1.283,4.021c0.027,0.042,0.076,0.368,0.104,0.715c0.028,0.354,0.07,0.687,0.083,0.742  c0.021,0.104-0.028,0.11-0.236,0.034c-0.09-0.034-0.125-0.013-0.125,0.076c-0.006,0.16-0.146,0.401-0.243,0.423  c-0.09,0.015-0.125-1.851-0.042-2.079c0.048-0.126,0.042-0.194-0.021-0.25c-0.063-0.056-0.118-0.021-0.208,0.132  c-0.125,0.214-0.25,0.277-0.25,0.118c0.007-0.042,0.035-0.216,0.063-0.383c0.055-0.283,0.048-0.305-0.146-0.401  c-0.146-0.076-0.188-0.139-0.161-0.235c0.07-0.215-0.09-0.223-0.214,0c-0.139,0.229-0.305,0.326-0.305,0.18  c0-0.055-0.125-0.339-0.277-0.632c-0.153-0.29-0.257-0.56-0.236-0.596c0.021-0.034,0-0.056-0.042-0.048  c-0.042,0.014-0.138-0.132-0.214-0.313c-0.125-0.312-0.125-0.332-0.007-0.367c0.388-0.125,0.395-0.146,0.076-0.194  c-0.589-0.089-0.687-0.423-0.277-0.887c0.159-0.181,0.187-0.278,0.159-0.465c-0.028-0.216-0.021-0.229,0.131-0.181  c0.09,0.028,0.256,0.098,0.368,0.152c0.277,0.146,0.388,0.021,0.229-0.249c-0.181-0.306-0.152-0.617,0.056-0.715  c0.131-0.055,0.194-0.055,0.277,0.015c0.097,0.083,0.125,0.076,0.18-0.008c0.097-0.152,0.076-0.256-0.063-0.332  c-0.069-0.035-0.159-0.181-0.201-0.319c-0.076-0.243-0.069-0.256,0.243-0.555C36.23,53.064,36.438,53.009,36.438,53.251z   M33.421,54.763c0.022,0.035-0.006,0.152-0.062,0.265c-0.111,0.207-0.049,0.359,0.146,0.359c0.125,0,0.111,0.105-0.014,0.209  c-0.083,0.068-0.105,0.2-0.091,0.512l0.02,0.424l0.299-0.014c0.242-0.008,0.291,0.007,0.291,0.118c0,0.084-0.069,0.145-0.208,0.172  c-0.173,0.042-0.298-0.007-0.687-0.234c-0.256-0.159-0.505-0.284-0.547-0.284c-0.194,0-0.063-0.2,0.229-0.348  c0.187-0.097,0.222-0.166,0.318-0.658c0.062-0.306,0.118-0.562,0.125-0.575C33.262,54.666,33.38,54.701,33.421,54.763z   M32.632,56.801c0.298-0.042,0.367-0.021,0.575,0.14c0.361,0.271,0.43,0.679,0.326,1.817c-0.048,0.492-0.097,0.907-0.118,0.921  c-0.014,0.015-0.084-0.091-0.146-0.242c-0.097-0.208-0.125-0.484-0.139-1.206c-0.007-0.514-0.014-0.951-0.014-0.964  c-0.007-0.015-0.049,0.013-0.097,0.055c-0.111,0.091-0.187,0.034-0.187-0.146c0-0.166-0.222-0.158-0.333,0.015  c-0.16,0.256-0.291,0.173-0.284-0.194c0-0.18,0.021-0.284,0.042-0.237C32.278,56.822,32.381,56.837,32.632,56.801z M34.261,59.527  c0.264,0.041,0.305,0.18,0.305,0.984c0,0.526,0,0.526,0.284,0.805c0.16,0.151,0.312,0.339,0.34,0.415  c0.09,0.229,0.006,0.498-0.16,0.547c-0.339,0.092-0.36,0.069-0.478-0.567c-0.167-0.86-0.368-1.471-0.61-1.824  c-0.249-0.375-0.27-0.513-0.048-0.45C33.976,59.464,34.143,59.499,34.261,59.527z"></path><path fill="#FFFFFF" d="M46.977,18.292c-0.098,0.035-0.318,0.083-0.499,0.104c-0.249,0.034-0.332,0.069-0.332,0.159  c0.014,0.417,0.749,1.609,0.992,1.609c0.082,0,0.256-0.111,0.394-0.243c0.229-0.229,0.306-0.25,0.751-0.291  c0.63-0.056,0.761-0.132,0.643-0.409C48.648,18.569,47.594,18.063,46.977,18.292z"></path><path fill="#FFFFFF" d="M28.326,18.528c-0.097,0.055-0.347,0.09-0.569,0.083c-0.214-0.007-0.381,0.014-0.36,0.035  c0.014,0.028-0.223,0.194-0.521,0.375c-0.436,0.256-0.567,0.367-0.631,0.547c-0.042,0.139-0.187,0.305-0.388,0.444  c-0.256,0.188-0.312,0.257-0.291,0.416c0.014,0.111,0.083,0.215,0.18,0.256c0.118,0.055,0.152,0.125,0.152,0.326  c0,0.146,0.021,0.264,0.055,0.264c0.069,0,0.908,0.132,1.144,0.18c0.361,0.077,0.182,0.132-0.45,0.153  c-0.749,0.014-1.151,0.069-1.207,0.16c-0.09,0.145,0.076,0.513,0.347,0.784c0.298,0.305,0.562,0.423,1.761,0.811  c0.5,0.16,0.797,0.298,0.991,0.464c0.153,0.132,0.264,0.257,0.243,0.278c-0.021,0.02,0.014,0.076,0.083,0.125  c0.105,0.083,0.077,0.09-0.193,0.097c-0.243,0-0.409-0.056-0.694-0.236c-0.699-0.443-0.686-0.437-1.615-0.478  c-0.804-0.027-0.888-0.021-0.95,0.09c-0.104,0.201-0.083,0.396,0.125,1.047c0.152,0.5,0.215,0.617,0.347,0.652  c0.097,0.021,0.138,0.069,0.111,0.117c-0.035,0.049-0.021,0.056,0.034,0.021c0.048-0.027,0.23,0.049,0.431,0.181  c0.374,0.256,0.52,0.527,0.602,1.137c0.049,0.347,0.056,0.347,0.438,0.499c0.499,0.201,1.31,0.326,1.706,0.263  c0.166-0.02,0.485-0.131,0.714-0.236c0.346-0.166,0.45-0.187,0.777-0.145l0.367,0.048l0.271-0.298  c0.152-0.167,0.312-0.305,0.36-0.305c0.05,0,0.14,0.104,0.202,0.235c0.111,0.236,0.347,0.388,0.603,0.388  c0.146,0,0.146,0-0.013,0.174c-0.092,0.097-0.154,0.18-0.133,0.194c0.167,0.118,1.158,0.347,1.526,0.354  c0.624,0.007,0.756-0.104,0.756-0.658c0-0.479-0.125-0.604-0.438-0.444c-0.167,0.083-0.194,0.083-0.256-0.034  c-0.104-0.194-0.083-0.271,0.055-0.236c0.076,0.021,0.208-0.056,0.361-0.215l0.243-0.25l0.076,0.229  c0.076,0.222,0.076,0.222,0.166,0.083l0.09-0.152l0.118,0.146c0.195,0.236,0.347,0.111,0.361-0.298c0-0.188,0.007-0.388,0.014-0.437  c0.007-0.048-0.069-0.083-0.173-0.083c-0.132,0-0.257-0.09-0.438-0.298c-0.138-0.166-0.249-0.333-0.249-0.367  c0-0.035-0.104-0.063-0.229-0.063c-0.223,0-0.244-0.021-0.521-0.611l-0.291-0.603l0.007-1.456c0-0.805-0.035-1.561-0.069-1.686  c-0.063-0.208-0.055-0.222,0.056-0.187c0.097,0.028,0.139-0.006,0.173-0.173c0.021-0.118,0.131-0.312,0.249-0.423  c0.319-0.325,0.263-0.721-0.138-0.929c-0.208-0.104-0.597-0.139-0.791-0.062c-0.173,0.069-0.132,0.416,0.097,0.874  c0.187,0.367,0.299,0.735,0.145,0.471c-0.097-0.159-0.853-0.901-0.915-0.901c-0.111,0-0.27,0.417-0.339,0.881  c-0.035,0.257-0.07,0.832-0.07,1.276c0,0.63-0.021,0.825-0.104,0.895c-0.167,0.138-0.244-0.194-0.223-0.957  c0.014-0.638,0-0.693-0.214-1.103c-0.118-0.236-0.222-0.5-0.222-0.583c0-0.125-0.028-0.139-0.187-0.097  c-0.306,0.069-0.341,0.153-0.202,0.409c0.07,0.132,0.104,0.271,0.083,0.312c-0.063,0.097-0.625,0.354-0.776,0.354  c-0.104,0-0.104-0.021,0.027-0.159c0.187-0.201,0.194-0.368,0.014-0.659c-0.076-0.125-0.125-0.256-0.104-0.291  c0.021-0.042,0-0.048-0.056-0.028c-0.055,0.021-0.14-0.014-0.188-0.076c-0.048-0.055-0.131-0.104-0.187-0.104  c-0.055,0-0.076-0.027-0.055-0.069c0.118-0.194-0.173,0.042-0.381,0.312c-0.258,0.326-0.32,0.354-0.486,0.243  c-0.09-0.063-0.09-0.076,0.006-0.138c0.327-0.194,0.424-0.327,0.458-0.638c0.028-0.256,0.014-0.34-0.111-0.464  C28.859,18.41,28.583,18.389,28.326,18.528z"></path><path fill="#FFFFFF" d="M39.538,18.59c-0.027,0.07-0.097,0.09-0.216,0.07c-0.27-0.056-0.408,0.097-0.36,0.395  c0.035,0.229,0.028,0.25-0.138,0.243h-0.181l0.015,1.103c0,0.61,0.041,1.262,0.083,1.449c0.076,0.368,0.326,0.672,0.54,0.672  c0.194,0,0.375-0.458,0.381-0.964v-0.437l0.361,0.035c0.305,0.034,0.374,0.013,0.493-0.111c0.312-0.347,0.916-1.658,0.916-1.991  c0-0.221-0.292-0.318-0.646-0.221c-0.264,0.069-0.318,0.063-0.533-0.083C39.919,18.535,39.587,18.458,39.538,18.59z"></path><path fill="#FFFFFF" d="M45.334,18.548c-0.188,0.035-0.784,0.562-0.915,0.812c-0.056,0.097-0.132,0.152-0.174,0.132  c-0.042-0.021-0.056-0.021-0.027,0.006c0.027,0.035-0.014,0.208-0.09,0.395c-0.153,0.396-0.181,1.158-0.042,1.324  c0.042,0.056,0.132,0.132,0.201,0.167c0.104,0.055,0.098,0.097-0.049,0.444c-0.187,0.437-0.159,0.506,0.319,0.776  c0.291,0.16,0.339,0.284,0.291,0.68c-0.048,0.347-0.202,0.333-0.173-0.014c0.013-0.215-0.014-0.264-0.319-0.471  c-0.187-0.125-0.374-0.285-0.416-0.354c-0.146-0.236-0.319-1.283-0.319-2.01c-0.007-0.729-0.007-0.736,0.25-1.145  c0.18-0.298,0.236-0.429,0.18-0.492c-0.264-0.319-1.464,0.291-1.838,0.929c-0.325,0.554-0.374,0.95-0.325,2.461l0.048,1.366  l0.18,0.069c0.098,0.042,0.306,0.076,0.458,0.076c0.409-0.006,0.499,0.021,0.666,0.236c0.145,0.18,0.145,0.194,0.02,0.159  c-0.069-0.021-0.243-0.056-0.374-0.083c-0.132-0.027-0.299-0.062-0.36-0.076c-0.104-0.035-0.126,0.007-0.126,0.263  c0,0.306,0.07,0.437,0.479,0.943c0.221,0.271,0.263,0.292,0.576,0.292c0.242,0,0.332-0.028,0.332-0.097  c0-0.215,0.146-0.167,0.527,0.166c0.361,0.319,0.409,0.34,0.514,0.243c0.097-0.083,0.359-0.118,1.228-0.139  c0.609-0.014,1.205,0,1.323,0.035c0.263,0.07,0.306,0.021,0.223-0.27l-0.062-0.215h0.539c0.659,0,0.833-0.097,0.735-0.396  c-0.041-0.118-0.167-0.242-0.332-0.318c-0.493-0.243-0.209-0.354,0.387-0.146c0.319,0.111,0.514,0.298,0.411,0.41  c-0.028,0.035-0.016,0.035,0.027,0.013c0.041-0.021,0.123,0.049,0.192,0.16c0.105,0.187,0.133,0.194,0.292,0.125  c0.193-0.09,0.306,0,0.306,0.236c0,0.09,0.055,0.125,0.201,0.125c0.29,0,0.658,0.277,0.686,0.52  c0.021,0.152-0.021,0.243-0.152,0.347c-0.166,0.131-0.174,0.166-0.104,0.367c0.043,0.125,0.111,0.222,0.152,0.222  c0.043,0,0.243-0.159,0.438-0.354l0.359-0.354l0.326,0.25c0.265,0.195,0.354,0.229,0.458,0.18c0.104-0.062,0.173-0.021,0.381,0.208  c0.139,0.152,0.451,0.437,0.693,0.63c0.244,0.201,0.424,0.388,0.402,0.417c-0.021,0.035,0,0.063,0.041,0.063  c0.133,0,0.348,0.443,0.348,0.707c0,0.146-0.111,0.582-0.249,0.971c-0.355,1.006-0.438,1.324-0.375,1.435  c0.027,0.056,0.222,0.208,0.423,0.347c0.208,0.139,0.374,0.298,0.374,0.354c0,0.139-0.631,0.604-0.999,0.729  c-0.18,0.063-0.554,0.104-0.88,0.104c-0.617,0-0.651,0.021-0.651,0.437c0,0.139-0.063,0.285-0.181,0.402  c-0.153,0.16-0.173,0.236-0.139,0.423c0.098,0.506,0.492,0.901,0.998,0.998c0.201,0.042,0.264,0.014,0.493-0.208  c0.139-0.139,0.291-0.25,0.34-0.25c0.041,0,0.104-0.125,0.124-0.278c0.049-0.297,0.068-0.304,0.597-0.138  c0.222,0.069,0.263,0.035,0.263-0.222c0-0.257,0.111-0.472,0.244-0.472c0.069,0,0.104,0.076,0.104,0.243  c0,0.264,0.069,0.305,0.236,0.132c0.124-0.118,0.11-0.125,0.741,0.333c0.479,0.347,0.923,0.499,1.213,0.43  c0.222-0.056,0.307,0.048,0.307,0.402c0,0.264,0.18,0.534,0.366,0.548c0.326,0.027,1.352-0.028,1.484-0.083  c0.131-0.048,0.173-0.027,0.264,0.146c0.131,0.257,0.415,0.319,1.171,0.236c0.305-0.035,0.895-0.063,1.304-0.063  c0.401,0,0.755-0.021,0.784-0.048c0.027-0.028-0.014-0.188-0.098-0.354c-0.181-0.368-0.534-0.583-1.394-0.832  c-0.326-0.097-0.687-0.216-0.797-0.271c-0.416-0.18-1.075-0.624-1.075-0.713c0-0.097,0.139-0.077,0.603,0.11  c0.167,0.069,0.258,0.069,0.396,0.007c0.2-0.09,0.305-0.062,0.68,0.173c0.291,0.18,0.532,0.201,0.998,0.084  c0.283-0.077,0.325-0.07,0.478,0.076c0.229,0.215,0.313,0.125,0.292-0.292c-0.021-0.312-0.056-0.381-0.354-0.679  c-0.193-0.202-0.312-0.368-0.284-0.417c0.035-0.055,0.118,0,0.249,0.153c0.188,0.215,0.195,0.222,0.201,0.069  c0.008-0.409-0.65-1.095-1.123-1.165c-0.276-0.049-0.276-0.063-0.146-0.416c0.015-0.042-0.02-0.119-0.083-0.167  c-0.09-0.077-0.131-0.069-0.243,0.034c-0.159,0.146-0.166,0.139-0.256-0.138c-0.076-0.236-0.374-0.347-0.84-0.292  c-0.27,0.028-0.311,0.014-0.512-0.222c-0.118-0.139-0.313-0.319-0.431-0.409l-0.215-0.159l-0.117,0.146  c-0.14,0.173-0.194,0.173-0.194,0.014c0-0.146-0.201-0.36-0.333-0.36c-0.049,0-0.083-0.07-0.083-0.152c0-0.146,0-0.146,0.145-0.014  c0.174,0.159,0.375,0.062,0.375-0.188c0-0.118-0.076-0.208-0.277-0.319c-0.263-0.146-0.271-0.16-0.09-0.16  c0.235,0,0.305-0.111,0.166-0.271c-0.146-0.159-0.138-0.194,0.028-0.284c0.11-0.062,0.173-0.034,0.354,0.139  c0.117,0.111,0.381,0.264,0.576,0.34l0.353,0.131l0.159-0.146l0.167-0.152l-0.035,0.229c-0.028,0.173-0.007,0.243,0.077,0.271  c0.132,0.048,0.706,0.492,0.812,0.63c0.048,0.056,0.15,0.077,0.276,0.056c0.118-0.014,0.347-0.035,0.513-0.035l0.306-0.007  l-0.049-0.284c-0.027-0.16-0.124-0.423-0.223-0.59c-0.18-0.312-0.165-0.478,0.036-0.43c0.109,0.035,0.151-0.153,0.173-0.881  c0.008-0.256-0.006-0.277-0.188-0.298c-0.242-0.027-0.229-0.229,0.021-0.291c0.161-0.042,0.175-0.069,0.153-0.423  c-0.014-0.208-0.062-0.417-0.11-0.465c-0.161-0.16-0.639-0.187-0.854-0.042c-0.111,0.069-0.202,0.111-0.202,0.09  c-0.006-0.014-0.075,0.049-0.158,0.146l-0.14,0.173l-0.006-0.361c0-0.194-0.028-0.374-0.063-0.395  c-0.027-0.021-0.159,0.104-0.285,0.277l-0.222,0.319l-0.271-0.263c-0.165-0.167-0.256-0.306-0.234-0.368  c0.021-0.063,0.021-0.083-0.007-0.055c-0.028,0.027-0.104,0-0.175-0.063c-0.111-0.098-0.139-0.098-0.333,0  c-0.276,0.145-0.29,0.138-0.214-0.069c0.049-0.132,0.049-0.215-0.008-0.277c-0.124-0.152-0.192-0.118-0.395,0.214  c-0.173,0.291-0.208,0.312-0.395,0.271c-0.361-0.076-0.666-0.249-0.736-0.423c-0.062-0.159-0.082-0.167-0.7-0.159  c-0.941,0.014-0.957,0.014-0.714-0.097c0.438-0.195,0.575-0.597,0.236-0.7c-0.188-0.063-0.166-0.167,0.062-0.216  c0.382-0.083,0.424-0.104,0.473-0.249c0.069-0.215-0.091-0.27-0.68-0.221c-0.639,0.047-0.688-0.021-0.299-0.396  c0.318-0.312,0.306-0.438-0.069-0.618c-0.389-0.187-0.547-0.159-0.575,0.09c-0.028,0.202-0.139,0.243-0.285,0.098  c-0.068-0.069-0.117-0.042-0.256,0.125c-0.09,0.111-0.167,0.187-0.167,0.167c0-0.104,0.222-0.465,0.382-0.617  c0.229-0.215,0.222-0.402-0.007-0.458c-0.181-0.048-0.665,0-0.881,0.083c-0.083,0.027-0.118,0.006-0.118-0.07  c0-0.111-0.013-0.111-0.152-0.014c-0.214,0.152-0.241,0.139-0.283-0.09c-0.056-0.271-0.243-0.333-0.326-0.104  c-0.042,0.097-0.069,0.236-0.069,0.305c0,0.139-0.188,0.277-0.374,0.277c-0.063,0-0.112-0.028-0.112-0.069  c0-0.035,0.021-0.063,0.057-0.063c0.242,0.042,0.36-0.021,0.36-0.18c0-0.214-0.111-0.222-0.284-0.021  c-0.181,0.222-0.173,0.028,0.014-0.326l0.145-0.27l-0.248-0.236c-0.271-0.243-0.534-0.277-0.569-0.069  c-0.034,0.263-0.181,0.603-0.271,0.631c-0.097,0.042-0.387-0.347-0.478-0.631c-0.069-0.208-0.146-0.194-0.36,0.09  c-0.229,0.305-0.312,0.257-0.132-0.076c0.188-0.354,0.089-0.61-0.257-0.638c-0.207-0.021-0.256-0.048-0.291-0.222  c-0.034-0.188-0.069-0.208-0.402-0.256c-0.437-0.063-0.921-0.063-1.172,0c-0.243,0.063-0.373,0.388-0.373,0.895  c0.006,0.312-0.015,0.381-0.085,0.319c-0.047-0.042-0.089-0.131-0.089-0.201c0-0.167-0.125-0.229-0.243-0.132  c-0.083,0.069-0.104,0.062-0.104-0.055c0-0.181-0.098-0.25-0.195-0.132c-0.034,0.042-0.124,0.263-0.193,0.479  c-0.068,0.222-0.138,0.381-0.159,0.361c-0.021-0.021-0.027-0.326-0.021-0.68l0.021-0.651l-0.347-0.396  c-0.243-0.277-0.354-0.464-0.354-0.59C46.077,18.694,45.736,18.465,45.334,18.548z M55.838,28.547  c0.181,0.076,0.479,0.152,0.66,0.18c0.353,0.056,0.436,0.125,0.491,0.396c0.028,0.16,0,0.194-0.2,0.263  c-0.133,0.042-0.258,0.139-0.278,0.208c-0.034,0.105-0.09,0.125-0.277,0.09c-0.235-0.034-0.235-0.034-0.181,0.167  c0.035,0.118,0.035,0.25,0.007,0.305c-0.034,0.048-0.041,0.118-0.027,0.146c0.021,0.028,0.008,0.055-0.027,0.055  c-0.083,0-0.152-0.166-0.152-0.346c0-0.069-0.104-0.264-0.229-0.43c-0.201-0.256-0.236-0.367-0.249-0.735  c-0.008-0.257,0.013-0.43,0.056-0.43C55.471,28.416,55.651,28.478,55.838,28.547z M57.169,31.896  c0.181,0.146,0.264,0.388,0.168,0.485c-0.021,0.028-0.097-0.014-0.174-0.09c-0.188-0.188-0.271-0.167-0.271,0.069  c0,0.146-0.042,0.221-0.146,0.25c-0.159,0.055-0.5-0.09-0.437-0.18c0.021-0.035-0.008-0.042-0.063-0.021  c-0.055,0.021-0.124,0-0.152-0.042c-0.063-0.097,0.098-0.222,0.222-0.173c0.182,0.063,0.16-0.111-0.048-0.388  c-0.111-0.16-0.209-0.319-0.209-0.347C56.06,31.369,56.942,31.723,57.169,31.896z"></path><path fill="#FFFFFF" d="M37.153,18.66c-0.313,0.118-0.34,0.166-0.194,0.333c0.118,0.118,0.118,0.153,0.035,0.202  c-0.153,0.096-0.209,0.083-0.25-0.056c-0.021-0.063-0.07-0.174-0.104-0.243c-0.035-0.07-0.048-0.153-0.028-0.187  c0.021-0.042-0.007-0.049-0.063-0.028c-0.055,0.021-0.118,0.077-0.131,0.132c-0.021,0.049-0.146,0.104-0.285,0.132l-0.242,0.048  l0.104,0.284c0.055,0.153,0.097,0.285,0.097,0.292s-0.104,0.007-0.222,0.007c-0.187,0-0.222,0.021-0.208,0.139  c0.014,0.077,0.117,0.236,0.229,0.347c0.236,0.25,0.236,0.285,0.09,0.659c-0.132,0.326-0.271,0.36-0.326,0.083  c-0.048-0.257-0.304-0.569-0.464-0.569c-0.257,0-0.257,0.742,0.006,1.255c0.07,0.139,0.299,0.465,0.52,0.729  c0.389,0.472,0.652,0.943,0.673,1.206c0.006,0.098,0.096,0.153,0.346,0.215c0.181,0.041,0.354,0.062,0.375,0.035  c0.034-0.035,0.062-0.166,0.083-0.479c0.007-0.104,0.042-0.117,0.215-0.083c0.166,0.035,0.256,0,0.486-0.18l0.277-0.222v-0.756  c0-0.721-0.007-0.755-0.132-0.714c-0.119,0.035-0.145,0-0.188-0.222c-0.028-0.146-0.076-0.333-0.103-0.423  c-0.057-0.152-0.07-0.152-0.237-0.041c-0.166,0.111-0.173,0.104-0.173-0.028c0-0.076,0.131-0.333,0.298-0.576  c0.409-0.597,0.43-0.673,0.25-0.866c-0.138-0.146-0.16-0.153-0.423-0.056c-0.381,0.131-0.395,0.125-0.118-0.063  C37.75,18.694,37.617,18.486,37.153,18.66z"></path><path fill="#FFFFFF" d="M36.792,26.751c-0.125,0.229-0.333,0.554-0.464,0.728c-0.132,0.173-0.236,0.339-0.236,0.374  c0,0.104,0.465,0.423,1.034,0.708c0.735,0.368,0.915,0.395,1.199,0.194c0.249-0.173,0.465-0.409,0.472-0.499  c0-0.07-0.68-0.943-1.068-1.366c-0.271-0.306-0.575-0.555-0.672-0.555C37.035,26.335,36.909,26.522,36.792,26.751z"></path><path fill="#FFFFFF" d="M51.256,27.285c-0.307,0.126-0.361,0.271-0.361,0.923c0.008,0.423,0.076,0.964,0.132,1.026  c0.014,0.014,0.201,0.041,0.417,0.062c0.776,0.083,0.935-0.18,0.804-1.262l-0.091-0.714l-0.235-0.049  c-0.132-0.021-0.277-0.055-0.319-0.069C51.553,27.188,51.401,27.223,51.256,27.285z"></path><path fill="#FFFFFF" d="M45.625,33.629c-0.028,0.201-0.008,0.693,0.035,1.096c0.048,0.402,0.082,0.943,0.082,1.2  c0,0.43-0.028,0.506-0.29,0.929c-0.152,0.249-0.271,0.499-0.25,0.547c0.056,0.139,0.305,0.118,0.658-0.048  c0.368-0.167,0.43-0.125,0.61,0.388c0.071,0.194,0.152,0.361,0.181,0.375c0.167,0.076,0.34-0.091,0.562-0.534  c0.14-0.271,0.312-0.527,0.381-0.569c0.257-0.132,0.354-0.285,0.354-0.547c0-0.174,0.048-0.306,0.139-0.389  c0.131-0.125,0.138-0.118,0.138,0.021c0,0.111,0.058,0.152,0.276,0.188c0.251,0.042,0.279,0.07,0.265,0.229  c-0.021,0.173,0,0.188,0.563,0.319l0.587,0.132l0.224-0.271c0.415-0.492,0.43-0.562,0.188-0.797l-0.21-0.215l-0.298,0.152  c-0.312,0.16-0.729,0.146-0.561-0.021c0.041-0.042,0.075-0.118,0.075-0.174c0-0.298-0.865-0.998-1.782-1.428  c-0.235-0.111-0.414-0.222-0.401-0.243c0.014-0.028-0.027-0.049-0.091-0.049c-0.062,0-0.187-0.027-0.27-0.055  c-0.146-0.048-0.16-0.028-0.16,0.159c0,0.347-0.104,0.298-0.312-0.139C45.986,33.186,45.694,33.082,45.625,33.629z"></path><path fill="#FFFFFF" d="M49.043,37.991c-0.27,0.173-0.353,0.194-0.473,0.132c-0.117-0.062-0.15-0.049-0.2,0.083  c-0.034,0.09-0.125,0.298-0.194,0.472c-0.146,0.333-0.117,0.728,0.063,0.846c0.111,0.076,0.451,0.014,0.651-0.118  c0.2-0.131,0.798-1.033,0.764-1.151c-0.015-0.056-0.049-0.181-0.069-0.292C49.53,37.728,49.453,37.734,49.043,37.991z"></path><path fill="#FFFFFF" d="M51.38,38.539c-0.062,0.069-0.132,0.264-0.152,0.43c-0.027,0.249,0.007,0.354,0.201,0.645  c0.283,0.423,0.472,0.458,0.562,0.104c0.104-0.395,0.028-1.109-0.125-1.22C51.685,38.365,51.526,38.379,51.38,38.539z"></path><path fill="#FFFFFF" d="M0.466,43.392c-0.125,0.118-0.25,0.341-0.291,0.493c-0.083,0.298-0.104,1.123-0.042,1.233  c0.021,0.035,0,0.076-0.056,0.097c-0.076,0.027-0.09,0.188-0.069,0.722c0.034,1.131,0.145,1.554,0.388,1.49  c0.097-0.021,0.125-0.069,0.097-0.18c-0.09-0.292-0.118-1.054-0.062-1.324c0.042-0.194,0.097-0.277,0.187-0.277  c0.138,0,0.277-0.208,0.215-0.313c-0.021-0.042-0.146-0.069-0.264-0.075c-0.188,0-0.201-0.016-0.083-0.063  c0.083-0.028,0.187-0.104,0.235-0.166c0.049-0.063,0.125-0.091,0.174-0.063c0.042,0.021,0.055,0.021,0.027-0.007  c-0.027-0.034,0.152-0.229,0.403-0.437c0.249-0.209,0.437-0.416,0.423-0.458c-0.014-0.042-0.125-0.097-0.243-0.125  c-0.173-0.034-0.229-0.021-0.256,0.076c-0.063,0.201-0.292,0.362-0.464,0.325c-0.146-0.027-0.139-0.033,0.062-0.082  c0.125-0.028,0.243-0.104,0.263-0.167c0.049-0.166-0.208-0.867-0.333-0.895C0.722,43.185,0.584,43.273,0.466,43.392z"></path><path fill="#FFFFFF" d="M80.96,46.214c-0.313,0.153-0.548,0.534-0.638,1.026c-0.091,0.484-0.042,1.012,0.188,2.163  c0.089,0.465,0.165,1.068,0.165,1.339c0,0.519,0.076,0.762,0.243,0.762c0.166,0,0.18,0.119,0.062,0.479  c-0.062,0.194-0.096,0.479-0.083,0.632c0.021,0.249,0.007,0.277-0.131,0.277c-0.146,0-0.298,0.173-0.298,0.339  c0,0.139,0.332,0.076,0.554-0.104c0.118-0.104,0.237-0.165,0.257-0.138c0.021,0.021-0.015,0.249-0.084,0.506  c-0.062,0.264-0.131,0.541-0.152,0.631c-0.055,0.229,0.181,0.638,0.36,0.638c0.188,0,0.632-0.283,1.283-0.825  c0.367-0.298,0.639-0.464,0.929-0.554c0.389-0.118,0.437-0.16,0.764-0.639c0.36-0.526,0.548-0.638,0.582-0.359  c0.021,0.124,0.068,0.159,0.229,0.159c0.173,0,0.222-0.05,0.359-0.326c0.153-0.319,0.348-0.506,0.438-0.416  c0.028,0.021-0.069,0.367-0.208,0.763c-0.138,0.396-0.25,0.755-0.25,0.798c0,0.048,0.105,0.083,0.242,0.083  c0.195,0,0.271-0.041,0.41-0.257c0.152-0.223,0.175-0.305,0.139-0.638c-0.035-0.306-0.007-0.473,0.111-0.771  c0.111-0.291,0.139-0.451,0.104-0.707c-0.028-0.188-0.021-0.332,0.013-0.332c0.125,0,0.432,0.395,0.715,0.915  c0.354,0.658,0.535,0.729,0.569,0.215c0.013-0.174,0.055-0.332,0.09-0.341c0.041-0.014,0.146,0.134,0.235,0.326  c0.207,0.423,0.333,0.423,0.548-0.007c0.188-0.368,0.167-0.666-0.082-1.214c-0.182-0.401-0.563-0.867-0.708-0.867  c-0.117,0-0.125,0.078-0.021,0.307c0.069,0.139,0.063,0.208-0.034,0.354c-0.062,0.097-0.146,0.158-0.173,0.139  c-0.035-0.015-0.084-0.236-0.111-0.479c-0.021-0.25-0.069-0.534-0.098-0.631l-0.047-0.188l-0.134,0.153  c-0.117,0.131-0.138,0.242-0.124,0.734c0.007,0.318-0.014,0.583-0.041,0.583c-0.084,0-0.285-0.319-0.285-0.452  c0-0.068-0.068-0.104-0.207-0.104c-0.112,0-0.208-0.021-0.208-0.055c0-0.028,0.096-0.208,0.208-0.396  c0.229-0.389,0.276-0.859,0.103-1.006c-0.124-0.104-0.103-0.132-0.359,0.347c-0.249,0.443-0.354,0.5-0.409,0.223  c-0.034-0.166-0.069-0.194-0.209-0.166c-0.166,0.027-0.166,0.021-0.166-0.466v-0.492h-0.271c-0.416,0-0.631,0.111-0.991,0.485  c-0.174,0.195-0.305,0.347-0.29,0.347c0.021,0-0.022,0.077-0.084,0.174c-0.138,0.208-0.236,0.222-0.236,0.034  s-0.076-0.173-0.381,0.069c-0.298,0.235-0.333,0.243-0.451,0.104c-0.049-0.056-0.132-0.104-0.181-0.104  c-0.124,0-0.117-0.069,0.007-0.235c0.118-0.153,0.14-0.5,0.042-0.562c-0.034-0.021-0.146,0.042-0.242,0.138  c-0.098,0.098-0.257,0.174-0.354,0.174c-0.221,0-0.332,0.258-0.298,0.672c0.015,0.167,0,0.298-0.021,0.298  c-0.063,0-0.312-0.706-0.408-1.156c-0.098-0.43-0.111-0.971-0.036-1.415c0.057-0.347-0.027-0.484-0.208-0.34  c-0.124,0.104-0.124,0.118,0-0.347c0.057-0.207,0.104-0.388,0.104-0.402C81.299,46.068,81.174,46.109,80.96,46.214z"></path><path fill="#FFFFFF" d="M54.653,48.571c-0.02,0.035-0.056,0.159-0.083,0.291c-0.048,0.223-0.056,0.229-0.146,0.111  c-0.09-0.126-0.097-0.117-0.139,0.007c-0.027,0.069-0.104,0.284-0.18,0.464c-0.069,0.181-0.126,0.361-0.126,0.396  c0,0.117,0.181,0.077,0.313-0.07c0.104-0.11,0.146-0.124,0.229-0.054c0.082,0.069,0.131,0.049,0.291-0.146  c0.16-0.187,0.188-0.277,0.16-0.484C54.897,48.619,54.757,48.397,54.653,48.571z"></path><path fill="#FFFFFF" d="M1.672,51.345c-0.056,0.173,0.013,0.521,0.125,0.631c0.049,0.049,0.153,0.098,0.236,0.104  c0.167,0.008,0.215,0.118,0.056,0.118c-0.125,0-0.388,0.326-0.388,0.486c0,0.062,0.076,0.152,0.159,0.187  c0.18,0.083,0.638,0.729,0.75,1.062c0.055,0.158,0.048,0.235-0.035,0.36c-0.166,0.236-0.139,0.45,0.056,0.498  c0.146,0.036,0.18,0.105,0.243,0.444c0.173,0.894,0.166,0.882,0.374,0.86c0.18-0.021,0.187-0.006,0.187,0.319  c0,0.375,0.146,0.623,0.701,1.205c0.416,0.431,0.568,0.507,0.783,0.367c0.16-0.103,0.16-0.123,0.132-0.887l-0.035-0.776  l-0.347-0.353l-0.347-0.362l-0.035-0.782c-0.035-0.736-0.048-0.813-0.243-1.082c-0.111-0.166-0.18-0.333-0.152-0.381  c0.028-0.043,0.021-0.057-0.027-0.036c-0.091,0.063-0.59-0.623-0.527-0.728c0.027-0.042,0.021-0.055-0.021-0.034  c-0.042,0.028-0.25-0.208-0.479-0.521c-0.298-0.41-0.478-0.597-0.68-0.686C1.804,51.199,1.721,51.199,1.672,51.345z"></path><path fill="#FFFFFF" d="M75.406,53.703c-0.424,0.02-0.624,0.068-1.089,0.283c-0.312,0.139-0.567,0.292-0.575,0.326  c0,0.083,1.844,0.319,2.448,0.313c0.45,0,1.047-0.215,1.13-0.403c0.166-0.388,0.139-0.408-0.472-0.457  c-0.319-0.027-0.651-0.055-0.749-0.069C76.002,53.688,75.69,53.688,75.406,53.703z"></path><path fill="#FFFFFF" d="M80.586,56.614c-0.021,0.034-0.069,0.242-0.112,0.465c-0.208,1.131,0.056,2.281,0.555,2.398  c0.242,0.063,0.839-0.471,1.192-1.067c0.23-0.388,0.265-0.493,0.194-0.59c-0.04-0.061-0.097-0.167-0.117-0.235  c-0.028-0.063-0.049-0.118-0.057-0.118c0,0-0.207,0.063-0.457,0.14c-0.249,0.076-0.457,0.139-0.465,0.139  c-0.014,0-0.021-0.132-0.021-0.299c0-0.222-0.056-0.367-0.215-0.59C80.891,56.594,80.663,56.482,80.586,56.614z"></path><path fill="#FFFFFF" d="M79.248,58.653c-0.167,0.188-0.478,0.347-1.283,0.645L77.32,59.54l-0.194-0.18  c-0.104-0.104-0.208-0.243-0.235-0.312c-0.021-0.069-0.076-0.125-0.132-0.125c-0.105,0-0.222,0.693-0.146,0.817  c0.07,0.118,0.7,0.222,1.289,0.222c0.485,0,0.562-0.013,0.624-0.146c0.076-0.131,0.09-0.131,0.202-0.027  c0.097,0.084,0.2,0.097,0.408,0.063c0.306-0.048,0.437-0.223,0.257-0.325c-0.125-0.069-0.098-0.334,0.077-0.659  C79.657,58.508,79.511,58.368,79.248,58.653z"></path><path fill="#FFFFFF" d="M55.505,68.839c-0.097,0.027-0.332,0.055-0.526,0.063c-0.375,0.007-0.79,0.118-0.79,0.214  c0,0.035,0.228,0.098,0.505,0.139c0.271,0.049,0.688,0.125,0.916,0.175c0.499,0.104,0.583,0.055,0.61-0.348l0.014-0.276  l-0.277-0.015C55.804,68.783,55.603,68.805,55.505,68.839z"></path></svg>