<svg fill="#FFFFFF" xmlns="http://www.w3.org/2000/svg" xmlns:xlink="http://www.w3.org/1999/xlink" version="1.1" x="0px" y="0px" viewBox="0 0 100 100" style="enable-background:new 0 0 100 100;" xml:space="preserve"><g style="" display="none"><rect x="-3.066" y="-17.496" style="" width="1220.125" height="990.055" display="inline" fill="#FFFFFF" stroke="#FFFFFF" stroke-width="4" stroke-miterlimit="10"></rect></g><g><path d="M50.518,50.875l0.158-0.158l0.158,0.158l17.094-17.094c4.72-4.72,4.72-12.373,0-17.094c-2.36-2.36-5.454-3.54-8.547-3.54   c-3.093,0-6.187,1.18-8.547,3.54l-0.158,0.158l-0.158-0.158c-2.36-2.36-5.454-3.54-8.547-3.54c-3.093,0-6.187,1.18-8.547,3.54   c-4.72,4.72-4.72,12.373,0,17.094L50.518,50.875z M48.359,18.848l0.158,0.158l2.159,2.159l2.159-2.159l0.158-0.158   c1.706-1.706,3.975-2.646,6.387-2.646c2.413,0,4.681,0.94,6.387,2.646c1.706,1.706,2.646,3.975,2.646,6.387   c0,2.413-0.94,4.681-2.646,6.387L50.835,46.556l-0.158-0.158l-0.158,0.158L35.584,31.622c-3.522-3.522-3.522-9.253,0-12.775   c1.706-1.706,3.975-2.646,6.387-2.646C44.384,16.202,46.653,17.141,48.359,18.848z"></path><path d="M65.741,56.977c-3.218,1.769-6.257,3.44-8.245,7.529c-1.73,3.539-2.475,7.789-2.346,13.374l-0.437,8.972h3.057l0.432-8.879   c0.002-0.037,0.002-0.074,0.001-0.111c-0.124-5.104,0.523-8.921,2.036-12.018c1.565-3.219,3.951-4.531,6.971-6.191   c0.653-0.359,1.324-0.728,2.009-1.129c3.217-1.887,5.962-4.743,8.383-7.263c0.478-0.497,0.947-0.985,1.41-1.456   c0.518-0.528,2.794-2.631,3.674-3.441c0.937-0.936,2.59-0.936,3.527,0c0.976,0.976,0.978,2.561,0.006,3.533l-12.99,12.991   c-0.5,0.5-0.591,1.278-0.221,1.88c0.096,0.157,0.252,0.393,0.506,0.647c0.596,0.596,1.563,0.596,2.159,0   c0.304-0.303,0.453-0.703,0.447-1.1l12.257-12.258c2.163-2.163,2.161-5.685-0.006-7.851c-0.701-0.701-1.565-1.169-2.502-1.415   V31.142c0-1.687,1.204-3.123,2.742-3.269c0.861-0.076,1.689,0.195,2.331,0.778c0.635,0.578,1,1.396,1,2.244l0,26.689   c0,0.727-0.365,1.368-0.919,1.757l0.133,0.133c-0.003,0.003-0.006,0.006-0.009,0.01L76.483,74.151   c-0.554,0.554-1.055,1.039-1.58,1.366c-0.387,0.242-0.645,0.643-0.705,1.095l-1.322,10.24h3.045l1.217-9.174   c0.536-0.413,1.02-0.883,1.505-1.368l14.666-14.666c0.413-0.413,0.84-0.84,1.235-1.329c0.334-0.413,0.416-0.947,0.267-1.419   C94.922,58.475,95,58.041,95,57.585l0-26.69c0-1.706-0.729-3.348-1.998-4.502c-1.266-1.153-2.972-1.722-4.673-1.56   c-3.089,0.292-5.509,3.063-5.509,6.309v11.71c-0.848,0.258-1.626,0.69-2.243,1.309c-0.125,0.114-3.061,2.813-3.74,3.504   c-0.47,0.478-0.948,0.975-1.434,1.481c-2.396,2.493-4.874,5.071-7.724,6.743C67.019,56.275,66.371,56.63,65.741,56.977z"></path><path d="M22.862,77.678l1.216,9.174h3.081l-1.358-10.24c-0.06-0.452-0.318-0.853-0.705-1.095c-0.524-0.327-1.025-0.813-1.58-1.366   L8.85,59.485c-0.003-0.003-0.006-0.006-0.009-0.01l0.133-0.133c-0.554-0.389-0.919-1.03-0.919-1.757l0-26.689   c0-0.849,0.364-1.667,1-2.245c0.568-0.516,1.281-0.792,2.035-0.792c0.098,0,0.196,0.005,0.295,0.014   c1.538,0.146,2.742,1.581,2.742,3.269V42.79c-0.936,0.247-1.801,0.715-2.502,1.415c-2.167,2.166-2.169,5.688-0.006,7.851   l12.263,12.264c0,0.391,0.153,0.783,0.453,1.084c0.596,0.596,1.575,0.584,2.171-0.012c0.231-0.231,0.387-0.467,0.483-0.624   c0.371-0.602,0.279-1.38-0.221-1.88l-12.99-12.991c-0.972-0.972-0.97-2.557,0.006-3.533c0.937-0.936,2.543-0.981,3.574,0.045   c0.833,0.765,3.109,2.868,3.628,3.397c0.462,0.47,0.931,0.958,1.409,1.455c2.422,2.52,5.166,5.376,8.385,7.264   c0.683,0.4,1.354,0.768,2.007,1.128c3.02,1.66,5.406,2.972,6.972,6.194c1.512,3.094,2.159,6.911,2.035,12.015   c-0.001,0.037,0,0.074,0.001,0.111l0.469,8.879h3.021l-0.436-8.972c0.13-5.584-0.616-9.835-2.344-13.371   c-1.989-4.093-5.028-5.763-8.246-7.532c-0.63-0.347-1.277-0.702-1.936-1.087c-2.853-1.673-5.33-4.251-7.726-6.744   c-0.486-0.506-0.964-1.003-1.433-1.48c-0.679-0.691-3.616-3.39-3.694-3.46c-0.647-0.647-1.437-1.09-2.29-1.351V31.142   c0-3.246-2.42-6.017-5.509-6.309c-1.703-0.167-3.407,0.407-4.673,1.56C5.729,27.548,5,29.189,5,30.896l0,26.689   c0,0.456,0.077,0.89,0.188,1.311c-0.148,0.471-0.066,1.006,0.267,1.419c0.396,0.49,0.822,0.917,1.235,1.329l14.666,14.666   C21.842,76.796,22.326,77.266,22.862,77.678z"></path></g></svg>