<svg fill="#FFFFFF" xmlns="http://www.w3.org/2000/svg" xmlns:xlink="http://www.w3.org/1999/xlink" version="1.1" x="0px" y="0px" viewBox="0 0 64 64" enable-background="new 0 0 64 64" xml:space="preserve"><g><g><path d="M40.828,38.688c-1.36-1.042-3.445-0.921-4.677,0.311c-1.387,1.387-1.387,3.645,0,5.031l4.323,4.323    c0.098,0.098,0.226,0.146,0.354,0.146s0.256-0.049,0.354-0.146l4.324-4.323c1.386-1.387,1.386-3.645,0-5.031    C44.273,37.767,42.186,37.646,40.828,38.688z M44.799,43.323l-3.971,3.97l-3.97-3.97c-0.997-0.997-0.997-2.62,0-3.617    c0.482-0.482,1.125-0.749,1.808-0.749c0.684,0,1.325,0.267,1.809,0.749c0.195,0.195,0.512,0.195,0.707,0    c0.964-0.964,2.649-0.966,3.617,0C45.795,40.703,45.795,42.326,44.799,43.323z"></path><path d="M32,24.5c4.687,0,8.5-3.813,8.5-8.5S36.687,7.5,32,7.5c-4.687,0-8.5,3.813-8.5,8.5S27.313,24.5,32,24.5z M32,8.5    c4.136,0,7.5,3.364,7.5,7.5s-3.364,7.5-7.5,7.5s-7.5-3.364-7.5-7.5S27.864,8.5,32,8.5z"></path><path d="M48,29.5H16c-2.481,0-4.5,2.019-4.5,4.5v22c0,0.276,0.224,0.5,0.5,0.5h40c0.276,0,0.5-0.224,0.5-0.5V34    C52.5,31.519,50.481,29.5,48,29.5z M51.5,55.5h-7V52c0-0.276-0.224-0.5-0.5-0.5s-0.5,0.224-0.5,0.5v3.5h-23V42    c0-0.276-0.224-0.5-0.5-0.5s-0.5,0.224-0.5,0.5v13.5h-7V34c0-1.93,1.57-3.5,3.5-3.5h32c1.93,0,3.5,1.57,3.5,3.5V55.5z"></path></g></g></svg>