<svg fill="#FFFFFF" xmlns="http://www.w3.org/2000/svg" xmlns:xlink="http://www.w3.org/1999/xlink" version="1.1" x="0px" y="0px" viewBox="0 0 32 32" enable-background="new 0 0 32 32" xml:space="preserve"><g display="none"><rect x="-233.895" y="-85.339" display="inline" fill="#FFFFFF" width="435.561" height="207"></rect></g><g><path d="M10.038,2.089c-3.62,0-6.555,2.916-6.555,6.512s2.935,6.512,6.555,6.512c3.62,0,6.555-2.916,6.555-6.512   S13.658,2.089,10.038,2.089z M10.038,13.114c-2.511,0-4.555-2.024-4.555-4.512s2.043-4.512,4.555-4.512   c2.511,0,4.555,2.024,4.555,4.512S12.55,13.114,10.038,13.114z"></path><path d="M27.448,15.339c-1.149,0-2.215,0.4-3.084,1.16l-0.213,0.187l-0.21-0.191c-0.805-0.737-1.9-1.143-3.086-1.143   c-1.263,0-2.413,0.459-3.241,1.293c-0.204,0.207-0.38,0.43-0.537,0.662c-1.466-0.68-2.919-0.709-2.919-0.709h-8.24   c0,0-5.919,0.066-5.919,5.486c0,5.387,0,6.62,0,6.62h20.077c0,0,0-0.656,0-3.062l4.082,4.27l6.532-6.85   c1.755-1.822,1.748-4.647-0.031-6.445C29.809,15.793,28.668,15.339,27.448,15.339z M18.077,26.704H2v-4.62   c0-3.227,3.293-3.47,3.919-3.486h8.221c0.24,0.005,1.273,0.061,2.221,0.557c-0.209,1.366,0.195,2.81,1.242,3.899l0.474,0.496   V26.704z M29.247,21.677l-5.09,5.337l-5.111-5.346c-0.117-0.122-0.218-0.252-0.307-0.388c-0.03-0.045-0.052-0.093-0.078-0.139   c-0.054-0.093-0.105-0.186-0.147-0.283c-0.025-0.057-0.043-0.117-0.063-0.175c-0.031-0.089-0.059-0.179-0.08-0.27   c-0.015-0.064-0.025-0.128-0.035-0.192c-0.013-0.088-0.022-0.177-0.026-0.265c-0.003-0.066-0.005-0.133-0.002-0.199   c0.003-0.087,0.012-0.174,0.024-0.261c0.009-0.066,0.017-0.132,0.031-0.198c0.019-0.088,0.047-0.174,0.076-0.259   c0.02-0.061,0.036-0.123,0.061-0.182c0.042-0.101,0.097-0.197,0.153-0.293c0.023-0.04,0.04-0.083,0.066-0.122   c0.091-0.137,0.195-0.268,0.316-0.39c0.448-0.451,1.095-0.7,1.82-0.7c0.685,0,1.301,0.22,1.737,0.618l1.533,1.399l1.556-1.365   c1.026-0.897,2.677-0.831,3.572,0.034C30.248,19.043,30.246,20.64,29.247,21.677z"></path></g><g display="none"><g display="inline"><g><path fill="#FFFFFF" d="M10.2,3.235c3.121,0,5.66,2.521,5.66,5.619s-2.539,5.619-5.66,5.619s-5.66-2.521-5.66-5.619     S7.079,3.235,10.2,3.235 M10.2,2.235c-3.678,0-6.66,2.963-6.66,6.619s2.982,6.619,6.66,6.619c3.678,0,6.66-2.963,6.66-6.619     S13.879,2.235,10.2,2.235L10.2,2.235z"></path></g><g><path fill="#FFFFFF" d="M14.377,17.981c0.291,0.006,5.023,0.178,5.023,4.576v5.729H1v-5.729c0-4.364,4.513-4.567,5.014-4.576     H14.377 M14.387,16.981H6.014c0,0-6.014,0.067-6.014,5.576c0,5.476,0,6.729,0,6.729h20.401c0,0,0-1.253,0-6.729     C20.401,17.081,14.387,16.981,14.387,16.981L14.387,16.981z"></path></g><path fill="#FFFFFF" stroke="#FFFFFF" stroke-miterlimit="10" d="M24.548,29.041l-5.927-6.201c-1.392-1.447-1.392-3.689,0-5.096    c0.646-0.651,1.558-1.013,2.57-1.013c0.946,0,1.818,0.316,2.451,0.894l0.886,0.809l0.899-0.789    c0.693-0.605,1.545-0.927,2.464-0.927c0.979,0,1.891,0.368,2.557,1.013c1.398,1.414,1.405,3.663,0.007,5.116L24.548,29.041z"></path></g></g><g display="none"><path display="inline" d="M10.038,4.089 M10.038,2.089c-3.62,0-6.555,2.916-6.555,6.512c0,3.597,2.935,6.512,6.555,6.512   s6.555-2.916,6.555-6.512C16.593,5.005,13.658,2.089,10.038,2.089L10.038,2.089z"></path><path display="inline" d="M19.046,21.669c-0.87-0.905-0.979-2.24-0.326-3.227c-1.747-1.796-4.561-1.844-4.561-1.844h-8.24   c0,0-5.919,0.066-5.919,5.486c0,5.387,0,6.62,0,6.62h20.077c0,0,0-1.139,0-5.957L19.046,21.669z"></path><path display="inline" d="M30.66,16.616c-0.852-0.823-1.992-1.277-3.212-1.277c-1.149,0-2.215,0.4-3.084,1.16l-0.213,0.187   l-0.21-0.191c-0.805-0.737-1.9-1.143-3.086-1.143c-1.263,0-2.413,0.459-3.241,1.293c-1.755,1.775-1.76,4.591-0.012,6.409   l6.557,6.857l6.532-6.85C32.446,21.239,32.439,18.414,30.66,16.616z M19.046,21.669c-0.991-1.031-0.996-2.62-0.011-3.617   c0.448-0.451,1.095-0.7,1.82-0.7c0.685,0,1.301,0.22,1.737,0.618l1.533,1.399l1.556-1.365c1.026-0.897,2.677-0.831,3.572,0.034   c0.994,1.005,0.992,2.603-0.007,3.64l-5.09,5.337L19.046,21.669z"></path></g></svg>