<svg fill="#FFFFFF" xmlns:dc="http://purl.org/dc/elements/1.1/" xmlns:cc="http://creativecommons.org/ns#" xmlns:rdf="http://www.w3.org/1999/02/22-rdf-syntax-ns#" xmlns:svg="http://www.w3.org/2000/svg" xmlns="http://www.w3.org/2000/svg" xmlns:sodipodi="http://sodipodi.sourceforge.net/DTD/sodipodi-0.dtd" xmlns:inkscape="http://www.inkscape.org/namespaces/inkscape" version="1.1" x="0px" y="0px" viewBox="0 0 100 100"><g transform="translate(0,-952.36218)"><path d="m 25.031688,962.75587 c 0.3149,0 0.6321,0.0414 0.9375,0.124 0.6979,0.1889 1.2755,0.5786 1.6181,1.1266 0.3424,0.5478 0.5062,1.2855 0.2172,2.3962 0,0 0,0.001 0,0.001 l -5.2,19.8725 c -1.5253,1.0299 -2.3144,2.9016 -1.9194,4.7256 l 0,0.001 3.8312,17.75883 a 1.0001,1.0001 0 1 0 1.955,-0.4219 l -3.8312,-17.75983 a 1.0001,1.0001 0 0 0 0,-10e-4 c -0.2818,-1.3005 0.4587,-2.6235 1.8731,-3.005 0,0 0.001,0 0.0013,0 0.001,0 0.0014,0 0.0021,-0.001 1.405,-0.3698 2.8267,0.3905 3.0997,1.5894 a 1.0001,1.0001 0 0 0 10e-4,0.004 l 2.1522,9.2919 a 1.0001,1.0001 0 0 0 0.0081,0.0325 c 0.727,2.71973 2.0478,4.58573 3.3172,6.50473 1.2693,1.919 2.5168,3.9106 3.37,7.1016 a 1.0001,1.0001 0 0 0 0.001,0 c 0.8392,3.1109 0.4617,9.7529 -0.3047,12.9316 l -5.565,1.4897 a 1.0001,1.0001 0 1 0 0.5172,1.9319 l 6.124,-1.6391 a 1.0001,1.0001 0 0 0 0.0016,-10e-4 l 0.0038,0 5.3046,-1.4282 2.3072,8.5963 -29.8156,7.9897 -2.31,-8.6075 c 3.7402,-1.0431 7.4551,-2.0231 11.2231,-2.986 a 1.0001,1.0001 0 1 0 -0.495,-1.9378 c -1.8427,0.4709 -3.6733,0.9474 -5.5018,1.4322 0.1167,-7.107 -1.3779,-12.0471 -3.2394,-16.3484 -1.9557,-4.519 -4.2591,-8.3208 -5.6219003,-13.435 a 1.0001,1.0001 0 0 0 -10e-4,0 c -0.2288,-0.85103 0.079,-3.28683 0.9631003,-6.25973 0.8841,-2.9729 2.2479,-6.5751 3.7713,-10.2694 3.0465,-7.388 6.7243,-15.1398 8.5296,-19.2525 0,0 0,-10e-4 0,-10e-4 0.4514,-1.025 1.5504,-1.5472 2.675,-1.5465 z" style="text-indent:0;text-transform:none;direction:ltr;block-progression:tb;baseline-shift:baseline;color:#000000;enable-background:accumulate;" fill="#FFFFFF" fill-opacity="1" fill-rule="evenodd" stroke="none" marker="none" visibility="visible" display="inline" overflow="visible"></path><path d="m 74.966685,962.75587 c 1.126,-10e-4 2.2266,0.522 2.6778,1.5465 0,0 0,10e-4 0,10e-4 1.8052,4.1124 5.4806,11.8644 8.5259,19.2525 1.5228,3.6943 2.8864,7.2963 3.771,10.2694 0.8843,2.9724 1.1939,5.4086 0.9668,6.26093 0,0 0,0 0,0 -1.3677,5.1142 -3.6736,8.9163 -5.6293,13.4354 -1.8616,4.3015 -3.3538,9.2416 -3.2326,16.3484 -1.8283,-0.4847 -3.6586,-0.9614 -5.5012,-1.4322 a 1.0001,1.0001 0 1 0 -0.4953,1.9378 c 3.7681,0.9629 7.4832,1.9429 11.2234,2.986 l -2.31,8.6075 -29.8165,-7.99 2.2987,-8.5963 5.3185,1.4297 a 1.0001,1.0001 0 0 0 10e-4,0 1.0001,1.0001 0 0 0 0.003,0 l 6.1115,1.6388 a 1.0001,1.0001 0 1 0 0.5178,-1.9319 l -5.5568,-1.4897 c -0.7724,-3.1737 -1.1444,-9.8188 -0.3125,-12.9341 0.858,-3.1902 2.1078,-5.182 3.3784,-7.1009 1.2708,-1.9193 2.5917,-3.7853 3.3188,-6.50503 a 1.0001,1.0001 0 0 0 0.008,-0.0334 l 2.1413,-9.2894 10e-4,-0.003 c 0.2829,-1.2041 1.6925,-1.9619 3.1094,-1.5922 0.002,0 0.004,10e-4 0.006,0.002 1.3995,0.3808 2.1437,1.7054 1.8715,3.0056 0,0.001 -0.001,0.003 -0.001,0.004 l -3.8303,17.75503 a 1.0001,1.0001 0 1 0 1.955,0.4218 l 3.8312,-17.75933 a 1.0001,1.0001 0 0 0 0.001,-0.004 c 0.3854,-1.8257 -0.4061,-3.6974 -1.9313,-4.7256 l -5.1893,-19.8688 a 1.0001,1.0001 0 0 0 0,-10e-4 c -0.2915,-1.1114 -0.1284,-1.8485 0.2135,-2.396 0.3419,-0.5475 0.9198,-0.9373 1.6184,-1.1262 0.3057,-0.0827 0.6231,-0.124 0.9385,-0.1241 z" style="text-indent:0;text-transform:none;direction:ltr;block-progression:tb;baseline-shift:baseline;color:#000000;enable-background:accumulate;" fill="#FFFFFF" fill-opacity="1" fill-rule="evenodd" stroke="none" marker="none" visibility="visible" display="inline" overflow="visible"></path><path style="text-indent:0;text-transform:none;direction:ltr;block-progression:tb;baseline-shift:baseline;color:#000000;enable-background:accumulate;" d="m 45.051288,975.64197 a 1.000096,1.0001041 0 0 0 -0.9062,1 l 0,7.375 -7.375,0 a 1.000096,1.0001041 0 0 0 -1,1 l 0,9.6876 a 1.000096,1.0001041 0 0 0 1,1 l 7.375,0 0,7.37503 a 1.000096,1.0001041 0 0 0 1,1 l 9.687497,0 a 1.000096,1.0001041 0 0 0 1,-1 l 0,-7.37503 7.4063,0 a 1.000096,1.0001041 0 0 0 1,-1 l 0,-9.6876 a 1.000096,1.0001041 0 0 0 -1,-1 l -7.4063,0 0,-7.375 a 1.000096,1.0001041 0 0 0 -1,-1 l -9.687497,0 a 1.000096,1.0001041 0 0 0 -0.094,0 z m 1.0938,2 7.687497,0 0,7.375 a 1.000096,1.0001041 0 0 0 1,1 l 7.4063,0 0,7.6876 -7.4063,0 a 1.000096,1.0001041 0 0 0 -1,1 l 0,7.37503 -7.687497,0 0,-7.37503 a 1.000096,1.0001041 0 0 0 -1,-1 l -7.375,0 0,-7.6876 7.375,0 a 1.000096,1.0001041 0 0 0 1,-1 l 0,-7.375 z" fill="#FFFFFF" fill-opacity="1" fill-rule="evenodd" stroke="none" marker="none" visibility="visible" display="inline" overflow="visible"></path></g></svg>