<svg fill="#FFFFFF" xmlns="http://www.w3.org/2000/svg" xmlns:xlink="http://www.w3.org/1999/xlink" version="1.1" x="0px" y="0px" viewBox="0 0 100 100" enable-background="new 0 0 100 100" xml:space="preserve"><g><g><path d="M88.305,85.994L67.351,38.721c-0.129-0.49-0.34-0.972-0.633-1.421l-0.206-0.49c-0.026,0.04-0.043,0.063-0.057,0.087    c-0.679-0.871-1.618-1.561-2.651-1.846c0,0-7.561-2.113-13.807-2.113c-6.242,0-13.811,2.113-13.811,2.113    c-1.011,0.285-1.953,0.961-2.625,1.822c-0.018-0.02-0.038-0.034-0.064-0.063l-0.214,0.487c-0.291,0.452-0.509,0.934-0.633,1.424    L11.697,85.994c-1.075,2.433,0.152,5.241,2.741,6.263c2.582,1.015,5.551-0.138,6.627-2.597l14.515-32.744l-1.358,30.768    c-0.088,1.877-0.386,4.957-0.69,6.816h32.495c-0.289-1.859-0.599-4.939-0.684-6.816l-1.409-31.865L78.932,89.66    c1.074,2.459,4.043,3.611,6.63,2.597C88.151,91.235,89.378,88.427,88.305,85.994z M59.547,51.933h-6.694v6.692h-5.69v-6.692    h-6.697v-5.691h6.697v-6.694h5.69v6.694h6.694V51.933z"></path><path d="M49.997,29.955c7.144,0,12.953-5.474,12.953-12.213c0-6.771-5.809-12.242-12.953-12.242    c-7.152,0-12.943,5.471-12.943,12.242C37.053,24.481,42.844,29.955,49.997,29.955z"></path></g></g><g display="none"><path display="inline" fill="#FFFFFF" stroke="#FFFFFF" stroke-width="0.2205" d="M98.825,90.778c0,5.176-4.197,9.375-9.377,9.375   H8.198c-5.176,0-9.375-4.199-9.375-9.375V9.524c0-5.176,4.199-9.375,9.375-9.375h81.25c5.18,0,9.377,4.199,9.377,9.375V90.778z"></path><g display="inline"><g><path fill="#FFFFFF" d="M11.836,92.912c0,0.258-0.016,0.457-0.048,0.594c-0.032,0.139-0.075,0.234-0.127,0.289     c-0.053,0.057-0.13,0.105-0.233,0.15c-0.103,0.043-0.223,0.082-0.36,0.113c-0.138,0.033-0.287,0.059-0.448,0.076     s-0.324,0.025-0.488,0.025c-0.439,0-0.82-0.055-1.143-0.166s-0.589-0.283-0.8-0.516c-0.211-0.23-0.366-0.521-0.466-0.873     s-0.149-0.768-0.149-1.248V87.34h-0.94c-0.111,0-0.196-0.068-0.255-0.207c-0.059-0.137-0.088-0.367-0.088-0.689     c0-0.17,0.007-0.312,0.022-0.43s0.037-0.209,0.066-0.277c0.029-0.066,0.066-0.115,0.11-0.145s0.095-0.045,0.154-0.045h0.932     v-1.748c0-0.059,0.016-0.111,0.048-0.158s0.091-0.086,0.176-0.119c0.085-0.031,0.199-0.055,0.343-0.07     c0.144-0.014,0.321-0.021,0.532-0.021c0.217,0,0.397,0.008,0.541,0.021c0.144,0.016,0.256,0.039,0.338,0.07     c0.082,0.033,0.141,0.072,0.176,0.119s0.053,0.1,0.053,0.158v1.748h1.705c0.059,0,0.11,0.016,0.154,0.045s0.081,0.078,0.11,0.145     c0.029,0.068,0.051,0.16,0.066,0.277s0.022,0.26,0.022,0.43c0,0.322-0.029,0.553-0.088,0.689     c-0.059,0.139-0.144,0.207-0.255,0.207H9.78v3.684c0,0.428,0.067,0.748,0.202,0.961c0.135,0.215,0.375,0.322,0.721,0.322     c0.117,0,0.223-0.01,0.316-0.031c0.094-0.02,0.177-0.045,0.25-0.07c0.073-0.027,0.135-0.049,0.185-0.07     c0.05-0.02,0.095-0.031,0.136-0.031c0.035,0,0.069,0.012,0.101,0.031c0.032,0.021,0.057,0.061,0.075,0.123     c0.018,0.061,0.034,0.145,0.048,0.25S11.836,92.748,11.836,92.912z"></path><path fill="#FFFFFF" d="M21.247,89.688c0,0.668-0.088,1.277-0.264,1.828s-0.442,1.025-0.8,1.424s-0.806,0.705-1.345,0.922     s-1.169,0.326-1.89,0.326c-0.697,0-1.304-0.098-1.819-0.291s-0.943-0.475-1.283-0.844s-0.592-0.822-0.756-1.361     s-0.246-1.154-0.246-1.846c0-0.668,0.089-1.279,0.268-1.834c0.179-0.553,0.447-1.027,0.804-1.424     c0.357-0.395,0.804-0.701,1.34-0.918s1.165-0.324,1.885-0.324c0.703,0,1.312,0.096,1.828,0.285     c0.516,0.191,0.942,0.471,1.279,0.84s0.587,0.822,0.751,1.361S21.247,88.99,21.247,89.688z M18.97,89.775     c0-0.387-0.031-0.744-0.092-1.068c-0.062-0.326-0.166-0.607-0.312-0.848s-0.341-0.428-0.584-0.562s-0.549-0.203-0.918-0.203     c-0.328,0-0.615,0.061-0.861,0.18c-0.246,0.121-0.448,0.297-0.606,0.527c-0.158,0.232-0.277,0.51-0.356,0.836     c-0.079,0.324-0.119,0.695-0.119,1.111c0,0.387,0.032,0.742,0.097,1.068c0.064,0.324,0.168,0.607,0.312,0.848     s0.338,0.426,0.584,0.559c0.246,0.131,0.551,0.197,0.914,0.197c0.334,0,0.624-0.059,0.87-0.18     c0.246-0.119,0.448-0.295,0.606-0.523s0.275-0.506,0.352-0.83C18.932,90.561,18.97,90.191,18.97,89.775z"></path><path fill="#FFFFFF" d="M25.298,83.191c0,0.445-0.091,0.754-0.272,0.924s-0.519,0.254-1.011,0.254     c-0.498,0-0.833-0.082-1.006-0.246s-0.259-0.459-0.259-0.887c0-0.445,0.089-0.754,0.268-0.928c0.179-0.172,0.517-0.26,1.015-0.26     c0.492,0,0.826,0.084,1.002,0.25C25.21,82.467,25.298,82.764,25.298,83.191z M25.131,93.686c0,0.059-0.018,0.109-0.053,0.154     c-0.035,0.043-0.095,0.08-0.18,0.109S24.701,94,24.56,94.016c-0.141,0.014-0.319,0.021-0.536,0.021s-0.396-0.008-0.536-0.021     c-0.141-0.016-0.253-0.037-0.338-0.066s-0.145-0.066-0.18-0.109c-0.035-0.045-0.053-0.096-0.053-0.154v-7.822     c0-0.059,0.018-0.109,0.053-0.154c0.035-0.043,0.095-0.08,0.18-0.113c0.085-0.031,0.198-0.057,0.338-0.074     s0.319-0.027,0.536-0.027s0.396,0.01,0.536,0.027s0.253,0.043,0.338,0.074c0.085,0.033,0.145,0.07,0.18,0.113     c0.035,0.045,0.053,0.096,0.053,0.154V93.686z"></path><path fill="#FFFFFF" d="M29.466,93.686c0,0.059-0.018,0.109-0.053,0.154c-0.035,0.043-0.095,0.08-0.18,0.109     S29.035,94,28.895,94.016c-0.141,0.014-0.319,0.021-0.536,0.021s-0.396-0.008-0.536-0.021c-0.141-0.016-0.253-0.037-0.338-0.066     s-0.145-0.066-0.18-0.109c-0.035-0.045-0.053-0.096-0.053-0.154V82.129c0-0.059,0.018-0.111,0.053-0.158s0.095-0.086,0.18-0.119     c0.085-0.031,0.198-0.057,0.338-0.074s0.319-0.027,0.536-0.027s0.396,0.01,0.536,0.027s0.253,0.043,0.338,0.074     c0.085,0.033,0.145,0.072,0.18,0.119s0.053,0.1,0.053,0.158V93.686z"></path><path fill="#FFFFFF" d="M38.869,89.537c0,0.27-0.06,0.469-0.18,0.598s-0.286,0.193-0.497,0.193H33.42     c0,0.334,0.04,0.637,0.119,0.91c0.079,0.271,0.205,0.504,0.378,0.693c0.173,0.191,0.396,0.336,0.668,0.436s0.599,0.15,0.98,0.15     c0.387,0,0.727-0.027,1.02-0.084c0.293-0.055,0.546-0.117,0.76-0.186c0.214-0.066,0.391-0.127,0.532-0.184     c0.141-0.055,0.255-0.084,0.343-0.084c0.053,0,0.097,0.012,0.132,0.031c0.035,0.021,0.064,0.057,0.088,0.109     s0.04,0.127,0.048,0.225c0.009,0.096,0.013,0.219,0.013,0.365c0,0.129-0.003,0.238-0.009,0.328     c-0.006,0.092-0.015,0.17-0.026,0.234s-0.029,0.117-0.053,0.162c-0.023,0.043-0.054,0.086-0.092,0.127s-0.142,0.098-0.312,0.168     s-0.387,0.139-0.65,0.205c-0.264,0.068-0.565,0.127-0.905,0.176c-0.34,0.051-0.703,0.076-1.09,0.076     c-0.697,0-1.308-0.088-1.833-0.264s-0.962-0.443-1.314-0.801s-0.614-0.809-0.787-1.354s-0.259-1.184-0.259-1.916     c0-0.697,0.091-1.324,0.272-1.885c0.182-0.559,0.445-1.033,0.791-1.424c0.346-0.389,0.766-0.688,1.261-0.893     s1.053-0.307,1.674-0.307c0.656,0,1.217,0.096,1.683,0.289s0.848,0.461,1.147,0.805c0.299,0.342,0.519,0.748,0.659,1.217     s0.211,0.979,0.211,1.529V89.537z M36.725,88.904c0.018-0.621-0.107-1.107-0.374-1.463c-0.267-0.354-0.678-0.531-1.235-0.531     c-0.281,0-0.526,0.053-0.734,0.158s-0.381,0.248-0.519,0.426c-0.138,0.18-0.243,0.391-0.316,0.633     c-0.073,0.244-0.116,0.502-0.127,0.777H36.725z"></path><path fill="#FFFFFF" d="M45.31,92.912c0,0.258-0.016,0.457-0.048,0.594c-0.032,0.139-0.075,0.234-0.127,0.289     c-0.053,0.057-0.13,0.105-0.233,0.15c-0.103,0.043-0.223,0.082-0.36,0.113c-0.138,0.033-0.287,0.059-0.448,0.076     s-0.324,0.025-0.488,0.025c-0.439,0-0.82-0.055-1.143-0.166s-0.589-0.283-0.8-0.516c-0.211-0.23-0.366-0.521-0.466-0.873     s-0.149-0.768-0.149-1.248V87.34h-0.94c-0.111,0-0.196-0.068-0.255-0.207c-0.059-0.137-0.088-0.367-0.088-0.689     c0-0.17,0.007-0.312,0.022-0.43s0.037-0.209,0.066-0.277c0.029-0.066,0.066-0.115,0.11-0.145s0.095-0.045,0.154-0.045h0.932     v-1.748c0-0.059,0.016-0.111,0.048-0.158s0.091-0.086,0.176-0.119c0.085-0.031,0.199-0.055,0.343-0.07     c0.144-0.014,0.321-0.021,0.532-0.021c0.217,0,0.397,0.008,0.541,0.021c0.144,0.016,0.256,0.039,0.338,0.07     c0.082,0.033,0.141,0.072,0.176,0.119s0.053,0.1,0.053,0.158v1.748h1.705c0.059,0,0.11,0.016,0.154,0.045s0.081,0.078,0.11,0.145     c0.029,0.068,0.051,0.16,0.066,0.277s0.022,0.26,0.022,0.43c0,0.322-0.029,0.553-0.088,0.689     c-0.059,0.139-0.144,0.207-0.255,0.207h-1.714v3.684c0,0.428,0.067,0.748,0.202,0.961c0.135,0.215,0.375,0.322,0.721,0.322     c0.117,0,0.223-0.01,0.316-0.031c0.094-0.02,0.177-0.045,0.25-0.07c0.073-0.027,0.135-0.049,0.185-0.07     c0.05-0.02,0.095-0.031,0.136-0.031c0.035,0,0.069,0.012,0.101,0.031c0.032,0.021,0.057,0.061,0.075,0.123     c0.018,0.061,0.034,0.145,0.048,0.25S45.31,92.748,45.31,92.912z"></path><path fill="#FFFFFF" d="M58.414,93.686c0,0.064-0.015,0.119-0.044,0.162c-0.029,0.045-0.079,0.082-0.149,0.111     s-0.166,0.049-0.286,0.061s-0.268,0.018-0.444,0.018c-0.188,0-0.34-0.006-0.457-0.018s-0.212-0.031-0.286-0.061     s-0.126-0.066-0.158-0.111c-0.032-0.043-0.048-0.098-0.048-0.162v-0.869c-0.404,0.434-0.828,0.77-1.27,1.01     s-0.933,0.361-1.472,0.361c-0.598,0-1.103-0.117-1.516-0.348s-0.75-0.543-1.011-0.936s-0.45-0.852-0.567-1.377     c-0.117-0.523-0.176-1.076-0.176-1.656c0-0.697,0.075-1.324,0.224-1.881s0.368-1.031,0.655-1.424s0.645-0.693,1.072-0.904     s0.92-0.316,1.477-0.316c0.439,0,0.838,0.09,1.195,0.268c0.357,0.18,0.712,0.441,1.063,0.787v-4.246     c0-0.059,0.016-0.111,0.048-0.158s0.091-0.086,0.176-0.119c0.085-0.031,0.198-0.057,0.338-0.074s0.319-0.025,0.536-0.025     s0.396,0.008,0.536,0.025s0.252,0.043,0.334,0.074c0.082,0.033,0.141,0.072,0.176,0.119s0.053,0.1,0.053,0.158V93.686z      M56.217,88.447c-0.316-0.398-0.62-0.703-0.91-0.914s-0.593-0.316-0.91-0.316c-0.287,0-0.535,0.072-0.743,0.215     c-0.208,0.145-0.375,0.336-0.501,0.576s-0.22,0.51-0.281,0.805c-0.062,0.297-0.092,0.6-0.092,0.91     c0,0.328,0.026,0.646,0.079,0.957s0.139,0.588,0.259,0.83c0.12,0.244,0.28,0.439,0.479,0.586s0.451,0.219,0.756,0.219     c0.152,0,0.3-0.021,0.444-0.066c0.144-0.043,0.29-0.115,0.439-0.215s0.303-0.229,0.461-0.391c0.158-0.16,0.331-0.359,0.519-0.594     V88.447z"></path><path fill="#FFFFFF" d="M67.226,93.713c0,0.082-0.029,0.146-0.088,0.193s-0.151,0.08-0.277,0.1     c-0.126,0.021-0.312,0.031-0.558,0.031c-0.264,0-0.456-0.01-0.576-0.031c-0.12-0.02-0.205-0.053-0.255-0.1     s-0.075-0.111-0.075-0.193v-0.625c-0.322,0.346-0.69,0.615-1.103,0.809s-0.872,0.291-1.375,0.291     c-0.416,0-0.798-0.055-1.147-0.164c-0.349-0.107-0.65-0.268-0.905-0.482c-0.255-0.213-0.453-0.479-0.593-0.795     s-0.211-0.686-0.211-1.107c0-0.457,0.089-0.854,0.268-1.191c0.179-0.336,0.445-0.615,0.8-0.836     c0.354-0.219,0.795-0.381,1.323-0.486s1.14-0.158,1.837-0.158h0.765v-0.475c0-0.246-0.025-0.463-0.075-0.646     c-0.05-0.186-0.132-0.338-0.246-0.461s-0.267-0.215-0.457-0.273s-0.426-0.088-0.708-0.088c-0.369,0-0.699,0.041-0.989,0.123     s-0.546,0.174-0.769,0.273s-0.409,0.189-0.558,0.271s-0.271,0.123-0.365,0.123c-0.064,0-0.122-0.02-0.171-0.061     s-0.091-0.1-0.123-0.176s-0.057-0.17-0.075-0.281s-0.026-0.234-0.026-0.369c0-0.182,0.015-0.326,0.044-0.432     s0.085-0.199,0.167-0.285c0.082-0.084,0.226-0.178,0.431-0.281c0.205-0.102,0.445-0.197,0.721-0.285s0.576-0.16,0.901-0.217     c0.325-0.055,0.661-0.082,1.006-0.082c0.615,0,1.141,0.061,1.578,0.18c0.437,0.121,0.795,0.305,1.077,0.553     c0.281,0.25,0.486,0.57,0.615,0.963s0.193,0.859,0.193,1.398V93.713z M65.055,90.355h-0.844c-0.357,0-0.662,0.025-0.914,0.078     s-0.457,0.133-0.615,0.238s-0.274,0.232-0.347,0.381c-0.073,0.15-0.11,0.322-0.11,0.516c0,0.328,0.104,0.586,0.312,0.773     s0.497,0.281,0.866,0.281c0.311,0,0.596-0.08,0.857-0.238s0.526-0.389,0.795-0.693V90.355z"></path><path fill="#FFFFFF" d="M81.795,93.686c0,0.059-0.018,0.109-0.053,0.154c-0.035,0.043-0.094,0.08-0.176,0.109     S81.373,94,81.232,94.016c-0.141,0.014-0.319,0.021-0.536,0.021c-0.223,0-0.404-0.008-0.545-0.021     c-0.141-0.016-0.253-0.037-0.338-0.066s-0.144-0.066-0.176-0.109c-0.032-0.045-0.048-0.096-0.048-0.154v-4.648     c0-0.264-0.025-0.504-0.075-0.721s-0.126-0.402-0.229-0.559c-0.103-0.154-0.231-0.275-0.387-0.361     c-0.155-0.084-0.341-0.127-0.558-0.127c-0.264,0-0.53,0.104-0.8,0.309s-0.562,0.504-0.879,0.896v5.211     c0,0.059-0.018,0.109-0.053,0.154c-0.035,0.043-0.095,0.08-0.18,0.109S76.231,94,76.091,94.016     c-0.141,0.014-0.316,0.021-0.527,0.021c-0.217,0-0.396-0.008-0.536-0.021c-0.141-0.016-0.253-0.037-0.338-0.066     s-0.145-0.066-0.18-0.109c-0.035-0.045-0.053-0.096-0.053-0.154v-4.648c0-0.264-0.025-0.504-0.075-0.721     s-0.125-0.402-0.224-0.559c-0.1-0.154-0.229-0.275-0.387-0.361c-0.158-0.084-0.343-0.127-0.554-0.127     c-0.27,0-0.539,0.104-0.809,0.309s-0.56,0.504-0.87,0.896v5.211c0,0.059-0.018,0.109-0.053,0.154     c-0.035,0.043-0.095,0.08-0.18,0.109S71.107,94,70.967,94.016c-0.141,0.014-0.319,0.021-0.536,0.021s-0.396-0.008-0.536-0.021     c-0.141-0.016-0.253-0.037-0.338-0.066s-0.145-0.066-0.18-0.109c-0.035-0.045-0.053-0.096-0.053-0.154v-7.84     c0-0.059,0.015-0.109,0.044-0.154c0.029-0.043,0.082-0.08,0.158-0.109s0.174-0.051,0.294-0.066     c0.12-0.014,0.271-0.021,0.453-0.021c0.188,0,0.343,0.008,0.466,0.021c0.123,0.016,0.218,0.037,0.286,0.066     s0.116,0.066,0.145,0.109c0.029,0.045,0.044,0.096,0.044,0.154v0.906c0.434-0.469,0.866-0.82,1.296-1.055s0.88-0.352,1.349-0.352     c0.322,0,0.612,0.033,0.87,0.1c0.258,0.068,0.488,0.166,0.69,0.291c0.202,0.127,0.376,0.277,0.523,0.453s0.27,0.371,0.369,0.588     c0.234-0.252,0.464-0.469,0.69-0.65s0.448-0.33,0.668-0.443c0.22-0.115,0.439-0.199,0.659-0.256     c0.22-0.055,0.444-0.082,0.672-0.082c0.521,0,0.961,0.088,1.318,0.264s0.646,0.414,0.866,0.715     c0.22,0.303,0.376,0.656,0.47,1.061s0.141,0.832,0.141,1.283V93.686z"></path><path fill="#FFFFFF" d="M91.127,89.537c0,0.27-0.06,0.469-0.18,0.598s-0.286,0.193-0.497,0.193h-4.772     c0,0.334,0.04,0.637,0.119,0.91c0.079,0.271,0.205,0.504,0.378,0.693c0.173,0.191,0.396,0.336,0.668,0.436s0.599,0.15,0.98,0.15     c0.387,0,0.727-0.027,1.02-0.084c0.293-0.055,0.546-0.117,0.76-0.186c0.214-0.066,0.391-0.127,0.532-0.184     c0.141-0.055,0.255-0.084,0.343-0.084c0.053,0,0.097,0.012,0.132,0.031c0.035,0.021,0.064,0.057,0.088,0.109     s0.04,0.127,0.048,0.225c0.009,0.096,0.013,0.219,0.013,0.365c0,0.129-0.003,0.238-0.009,0.328     c-0.006,0.092-0.015,0.17-0.026,0.234s-0.029,0.117-0.053,0.162c-0.023,0.043-0.054,0.086-0.092,0.127s-0.142,0.098-0.312,0.168     s-0.387,0.139-0.65,0.205c-0.264,0.068-0.565,0.127-0.905,0.176c-0.34,0.051-0.703,0.076-1.09,0.076     c-0.697,0-1.308-0.088-1.833-0.264s-0.962-0.443-1.314-0.801s-0.614-0.809-0.787-1.354s-0.259-1.184-0.259-1.916     c0-0.697,0.091-1.324,0.272-1.885c0.182-0.559,0.445-1.033,0.791-1.424c0.346-0.389,0.766-0.688,1.261-0.893     s1.053-0.307,1.674-0.307c0.656,0,1.217,0.096,1.683,0.289s0.848,0.461,1.147,0.805c0.299,0.342,0.519,0.748,0.659,1.217     s0.211,0.979,0.211,1.529V89.537z M88.982,88.904c0.018-0.621-0.107-1.107-0.374-1.463c-0.267-0.354-0.678-0.531-1.235-0.531     c-0.281,0-0.526,0.053-0.734,0.158s-0.381,0.248-0.519,0.426c-0.138,0.18-0.243,0.391-0.316,0.633     c-0.073,0.244-0.116,0.502-0.127,0.777H88.982z"></path><path fill="#FFFFFF" d="M98.437,91.471c0,0.445-0.083,0.838-0.25,1.178s-0.403,0.625-0.708,0.854s-0.665,0.398-1.081,0.514     c-0.416,0.113-0.867,0.172-1.354,0.172c-0.293,0-0.573-0.023-0.839-0.066c-0.267-0.045-0.505-0.1-0.716-0.168     c-0.211-0.066-0.387-0.135-0.527-0.205s-0.243-0.137-0.308-0.199c-0.064-0.061-0.114-0.158-0.149-0.289     c-0.035-0.133-0.053-0.326-0.053-0.584c0-0.17,0.006-0.307,0.018-0.41c0.012-0.102,0.029-0.184,0.053-0.246     c0.023-0.061,0.053-0.102,0.088-0.123c0.035-0.02,0.079-0.029,0.132-0.029c0.064,0,0.16,0.037,0.286,0.109     c0.126,0.074,0.283,0.154,0.47,0.242s0.406,0.17,0.655,0.246s0.532,0.113,0.848,0.113c0.199,0,0.376-0.02,0.532-0.061     s0.29-0.1,0.404-0.176s0.201-0.174,0.259-0.291s0.088-0.252,0.088-0.404c0-0.176-0.054-0.326-0.163-0.453     c-0.108-0.125-0.252-0.234-0.431-0.328s-0.381-0.182-0.606-0.264s-0.457-0.174-0.694-0.273s-0.469-0.213-0.694-0.342     s-0.428-0.287-0.606-0.475s-0.322-0.414-0.431-0.678s-0.163-0.58-0.163-0.949c0-0.375,0.073-0.719,0.22-1.033     c0.146-0.312,0.357-0.58,0.633-0.803s0.611-0.396,1.006-0.52s0.839-0.184,1.332-0.184c0.246,0,0.485,0.018,0.716,0.053     s0.441,0.078,0.628,0.131s0.346,0.109,0.475,0.172c0.129,0.061,0.221,0.113,0.277,0.158c0.056,0.043,0.095,0.088,0.119,0.131     c0.023,0.045,0.041,0.098,0.053,0.158c0.012,0.062,0.022,0.139,0.031,0.229c0.009,0.092,0.013,0.205,0.013,0.34     c0,0.158-0.004,0.287-0.013,0.387s-0.023,0.178-0.044,0.236s-0.048,0.1-0.083,0.119c-0.035,0.021-0.076,0.031-0.123,0.031     c-0.053,0-0.135-0.031-0.246-0.094c-0.111-0.061-0.25-0.127-0.417-0.197s-0.36-0.137-0.58-0.197     c-0.22-0.062-0.47-0.092-0.751-0.092c-0.199,0-0.372,0.02-0.519,0.061s-0.267,0.1-0.36,0.176s-0.164,0.166-0.211,0.268     c-0.047,0.104-0.07,0.213-0.07,0.33c0,0.182,0.056,0.334,0.167,0.457s0.258,0.232,0.439,0.326s0.388,0.182,0.62,0.264     s0.466,0.17,0.703,0.268c0.237,0.096,0.472,0.209,0.703,0.338s0.438,0.287,0.62,0.475s0.328,0.412,0.439,0.672     C98.381,90.805,98.437,91.113,98.437,91.471z"></path></g></g></g></svg>