<svg fill="#FFFFFF" xmlns="http://www.w3.org/2000/svg" xmlns:xlink="http://www.w3.org/1999/xlink" xml:space="preserve" style="shape-rendering:geometricPrecision;text-rendering:geometricPrecision;image-rendering:optimizeQuality;" viewBox="0 0 6827 6827" x="0px" y="0px" fill-rule="evenodd" clip-rule="evenodd"><defs><style type="text/css">
   
    .fil1 {fill:none}
    .fil0 {fill:#FFFFFF;fill-rule:nonzero}
   
  </style></defs><g><path class="fil0" d="M2253 1650c55,-91 114,-163 183,-219 104,-84 228,-125 390,-125 180,0 344,73 462,191 118,118 191,282 191,462 0,306 -150,608 -375,908 -220,293 -508,581 -796,869l-57 57 -57 -57c-288,-288 -576,-576 -796,-869 -225,-300 -375,-602 -375,-908 0,-180 73,-344 191,-462 118,-118 282,-191 462,-191 278,0 435,115 574,344zm283 -94c-79,63 -145,162 -211,296l-71 142 -71 -142c-129,-257 -255,-386 -502,-386 -136,0 -260,55 -349,145 -89,89 -145,213 -145,349 0,267 137,539 342,812 196,262 458,528 725,795 266,-267 528,-533 725,-795 205,-274 342,-545 342,-812 0,-136 -55,-260 -145,-349 -89,-89 -213,-145 -349,-145 -124,0 -216,30 -291,90z"></path><path class="fil0" d="M3891 4737c1,44 -33,81 -77,82 -44,1 -81,-33 -82,-77 -5,-137 -116,-175 -145,-182l-973 0c-8,0 -17,-1 -24,-4 -5,-1 -12,-3 -20,-6l-2 -1c-164,-52 -460,-154 -740,-250 -304,-104 -589,-202 -649,-219 -90,-25 -148,97 -148,97l0 0c-1,1 -1,3 -2,4 -42,75 13,150 32,174l1893 1052c1,1 3,1 4,2 116,67 225,14 246,3 6,-4 12,-7 20,-10l1405 -464c9,-3 18,-5 28,-5l313 0c44,0 80,36 80,80 0,44 -36,80 -80,80l-301 0 -1390 459c-43,23 -218,101 -401,-5l-2 -1 -1905 -1059c-7,-4 -13,-9 -18,-14l0 0c0,-1 -170,-172 -66,-366l0 0c0,-1 114,-243 334,-182 71,20 355,117 658,221 166,57 337,116 479,164 -5,-26 -8,-55 -8,-86l0 0 0 0 0 -1 0 -1c5,-288 291,-321 291,-321 3,0 7,-1 10,-1l0 0 732 0c97,-44 596,-266 865,-314 1,0 2,0 3,0 120,-21 269,-28 404,-28 136,0 255,5 318,9 44,3 78,40 75,84 -3,44 -40,78 -84,75 -63,-4 -180,-9 -308,-9 -126,0 -265,7 -377,26 -1,0 -2,0 -3,1 -263,47 -775,278 -837,306 -12,7 -25,10 -39,10l-744 0c-28,5 -145,34 -147,166l0 0c0,31 4,56 11,77 8,22 19,40 32,53 21,22 44,34 59,39l3 1c2,0 3,1 5,2l2 1 973 0 0 0c5,0 10,0 15,1 1,0 271,49 281,336z"></path><path class="fil0" d="M5794 3367l-697 0c-5,0 -10,2 -13,5l0 0 0 0c-4,4 -6,8 -6,13l0 1881c0,5 2,10 6,13 1,1 1,1 2,2 3,2 7,4 12,4l697 0c5,0 10,-2 13,-6 1,-1 1,-1 2,-2 2,-3 4,-7 4,-12l0 -1881c0,-5 -2,-10 -5,-13l0 0 0 0c-4,-4 -8,-6 -13,-6zm-697 -160l697 0c49,0 94,20 127,53l0 0c33,33 53,77 53,126l0 1881c0,46 -18,89 -47,121 -2,2 -4,4 -5,6 -32,32 -77,53 -127,53l-697 0c-46,0 -89,-18 -121,-47 -2,-2 -4,-4 -6,-5 -32,-32 -53,-77 -53,-127l0 -1881c0,-49 20,-94 53,-127l0 0c33,-33 77,-53 126,-53z"></path></g><rect class="fil1" width="6827" height="6827"></rect></svg>