<svg fill="#FFFFFF" xmlns="http://www.w3.org/2000/svg" data-name="Layer 1" viewBox="0 0 100 100" x="0px" y="0px"><title>02</title><g data-name="Group"><path data-name="Compound Path" d="M91.2,38.1h-.1a7.2,7.2,0,0,0-5.7-1.5A27.4,27.4,0,0,0,86,23.9C84.2,14.5,77.4,8.5,68.8,8.5c-4.3,0-8.9,1.6-13.4,4.6C50.9,10,46.2,8.4,41.8,8.4c-8.7,0-15.4,6.1-17.2,15.5-1.4,7.1.4,14.9,4.8,21.8A8.5,8.5,0,0,0,27.8,47L6.2,72,25.8,91.6,36.5,77.4l32.4-4.1a8.3,8.3,0,0,0,5.5-3.1L92.3,48A7.1,7.1,0,0,0,91.2,38.1ZM28.5,24.7c1.4-7.5,6.6-12.3,13.3-12.3,3.9,0,8.2,1.7,12.3,4.8l1.2.9,1.2-.9c4.2-3.1,8.4-4.7,12.3-4.7,6.7,0,11.8,4.7,13.3,12.1A25.3,25.3,0,0,1,79,41.5L67.1,55.9l-15,3.6-2.8-3.1,10.8-4.4a7.1,7.1,0,0,0-4.4-13.4L33.2,44.2C29,38,27.3,31,28.5,24.7ZM89.1,45.5,71.3,67.8a4.3,4.3,0,0,1-2.8,1.6L34.4,73.7l-9,11.8L11.7,71.8,30.8,49.7a4.4,4.4,0,0,1,2.4-1.3l23.5-5.9a3.1,3.1,0,0,1,1.9,5.8L42.5,54.8l8.3,9.1,18.6-4.5.4-.5L82.3,43.8h.1l1.7-2.1a3.2,3.2,0,0,1,4.5-.4h.1A3,3,0,0,1,89.1,45.5Z"></path></g></svg>