<svg fill="#FFFFFF" xmlns="http://www.w3.org/2000/svg" xmlns:xlink="http://www.w3.org/1999/xlink" version="1.1" x="0px" y="0px" viewBox="0 0 64 64" style="enable-background:new 0 0 64 64;" xml:space="preserve"><path d="M44,43v-8v-7h7h8c0.552,0,1-0.447,1-1v-8c0-0.553-0.448-1-1-1h-8h-7v-7V3c0-0.553-0.448-1-1-1h-8c-0.552,0-1,0.447-1,1v8v7  h-7h-8h-8H3c-0.552,0-1,0.447-1,1v8c0,0.553,0.448,1,1,1h7v7v8v8v8c0,0.553,0.448,1,1,1h8c0.552,0,1-0.447,1-1v-8v-8v-8v-7h7h7v7v8  c0,0.553,0.448,1,1,1h8C43.552,44,44,43.553,44,43z M36,12h6v6h-6V12z M42,20v6h-6v-6H42z M36,28h6v6h-6V28z M58,26h-6v-6h6V26z   M50,26h-6v-6h6V26z M36,4h6v6h-6V4z M18,42h-6v-6h6V42z M12,44h6v6h-6V44z M18,34h-6v-6h6V34z M18,26h-6v-6h6V26z M4,20h6v6H4V20z   M18,58h-6v-6h6V58z M20,20h6v6h-6V20z M28,20h6v6h-6V20z M42,42h-6v-6h6V42z"></path><rect x="26" y="60" width="2" height="2"></rect><rect x="22" y="60" width="2" height="2"></rect><rect x="30" y="60" width="2" height="2"></rect><path d="M57.464,35c-1.212,0-2.351,0.472-3.207,1.328l-1.964,1.965l-14,14c-0.01,0.01-0.013,0.024-0.023,0.034  c-0.074,0.08-0.136,0.171-0.182,0.273c-0.005,0.012-0.013,0.022-0.018,0.033c-0.002,0.005-0.006,0.01-0.008,0.015l-3,8  c-0.138,0.367-0.048,0.781,0.229,1.059C35.484,61.898,35.74,62,36,62c0.118,0,0.237-0.021,0.351-0.063l8-3  c0.005-0.002,0.009-0.006,0.015-0.008c0.013-0.005,0.023-0.013,0.036-0.019c0.102-0.045,0.191-0.107,0.271-0.18  c0.01-0.01,0.024-0.013,0.034-0.023l14-14l1.964-1.965C61.528,41.886,62,40.746,62,39.535C62,37.034,59.965,35,57.464,35z   M37.709,59.291l1.682-4.485l2.804,2.804L37.709,59.291z M44,56.586L40.414,53L53,40.414L56.586,44L44,56.586z M59.257,41.328  L58,42.586L54.414,39l1.257-1.258C56.15,37.264,56.787,37,57.464,37C58.862,37,60,38.138,60,39.535  C60,40.212,59.736,40.849,59.257,41.328z"></path></svg>