<svg fill="#FFFFFF" xmlns="http://www.w3.org/2000/svg" xmlns:xlink="http://www.w3.org/1999/xlink" version="1.1" x="0px" y="0px" viewBox="0 0 52 52" enable-background="new 0 0 52 52" xml:space="preserve"><g><path d="M30.2587891,32.3505859c-0.3583984-0.4199219-0.9902344-0.4677734-1.4091797-0.1083984L27,33.8269043v-6.8259277   c0-0.5527344-0.4472656-1-1-1s-1,0.4472656-1,1v6.8259277l-1.8496094-1.5847168   c-0.4179688-0.359375-1.0498047-0.3115234-1.4091797,0.1083984c-0.3603516,0.4189453-0.3115234,1.0498047,0.1083984,1.4091797   l3.5,3C25.5361328,36.9208984,25.7685547,37.0009766,26,37.0009766s0.4638672-0.0800781,0.6503906-0.2412109l3.5-3   C30.5703125,33.4003906,30.6191406,32.7695313,30.2587891,32.3505859z"></path><path d="M20.762085,18.0009766c0.375,0,0.7255859-0.2167969,0.8935547-0.5517578l0.8945313-1.7900391   c0.5117188-1.0224609,1.5400391-1.6582031,2.6835938-1.6582031H50V12c0-1.6499023-1.3499756-3-3-3H25.8300171   c-0.2700195,0-0.5200195-0.1099854-0.710022-0.2900391l-1.8299561-1.8299561C22.7300415,6.3100586,21.9700317,6,21.1700439,6H5   C3.3400269,6,2,7.3500977,2,9v9.0009766H20.762085z"></path><path d="M25.2337646,16.0009766c-0.3818359,0-0.7246094,0.2119141-0.8945313,0.5527344l-0.8945313,1.7890625   c-0.5107422,1.0224609-1.5390625,1.6582031-2.6826172,1.6582031H2V43c0,1.6600342,1.3400269,3,3,3h42c1.6500244,0,3-1.3399658,3-3   V16.0009766H25.2337646z M26,42c-5.5200195,0-10-4.4899902-10-10s4.4799805-10,10-10c5.5099487,0,10,4.4899902,10,10   S31.5099487,42,26,42z"></path></g></svg>