<svg fill="#FFFFFF" xmlns="http://www.w3.org/2000/svg" data-name="Layer 1" viewBox="0 0 100 100" x="0px" y="0px"><title>29</title><g data-name="Group"><path data-name="Compound Path" d="M92.7,65.1C91.4,60.5,88,55.2,83,50c5-5.2,8.4-10.5,9.6-15.1s.6-6.4-.8-8.8c-3.4-5.9-13.1-7.2-25.4-4.3C62.8,9.8,56.9,2.1,50,2.1S37.2,9.8,33.5,21.7c-12.3-2.8-22-1.5-25.4,4.3-1.4,2.5-1.7,5.4-.8,8.8S12,44.8,17,50c-5,5.2-8.4,10.5-9.6,15.1s-.6,6.4.8,8.8,7.3,5.8,14,5.8a51.5,51.5,0,0,0,11.4-1.5C37.2,90.2,43.1,97.9,50,97.9s12.8-7.6,16.5-19.6a51.5,51.5,0,0,0,11.4,1.5c6.7,0,11.7-1.9,14-5.8S93.6,68.5,92.7,65.1Zm-4.2-37a7.4,7.4,0,0,1,.4,5.8c-1.1,4-4.1,8.6-8.6,13.3a96.6,96.6,0,0,0-10.4-8.5,93.3,93.3,0,0,0-2.2-13C77.5,23.3,85.8,23.6,88.4,28.1ZM58.2,63.9c-2.6,1.5-5.4,2.9-8.2,4.2-2.8-1.3-5.5-2.7-8.2-4.2s-5.3-3.2-7.8-4.9c-.2-2.9-.4-5.9-.4-9.1s.1-6.2.4-9.1c2.5-1.7,5.1-3.3,7.8-4.9s5.4-2.9,8.2-4.2c2.8,1.3,5.5,2.7,8.2,4.2s5.3,3.2,7.8,4.9c.2,2.9.4,5.9.4,9.1s-.1,6.2-.4,9.1C63.5,60.8,60.9,62.4,58.2,63.9Zm7.3.3a86.2,86.2,0,0,1-1.7,9.1c-2.9-.8-5.9-1.9-8.9-3.1l5.2-2.8Zm-20.3,6c-3,1.2-6,2.2-8.9,3.1a86.2,86.2,0,0,1-1.7-9.1l5.3,3.2ZM29.8,56a90.3,90.3,0,0,1-7.2-6,90.3,90.3,0,0,1,7.2-6c-.1,2-.2,4-.2,6S29.7,54.1,29.8,56Zm4.7-20.3a86.2,86.2,0,0,1,1.7-9.1c2.9.8,5.9,1.9,8.9,3.1l-5.3,2.8Zm20.3-6c3-1.2,6-2.2,8.9-3.1a86.2,86.2,0,0,1,1.7,9.1l-5.3-3.2ZM70.2,44a90.3,90.3,0,0,1,7.2,6,90.3,90.3,0,0,1-7.2,6c.1-2,.2-4,.2-6S70.3,45.9,70.2,44ZM50,6.1c4.7,0,9.5,6.1,12.7,16.6A95.7,95.7,0,0,0,50,27.4a95.7,95.7,0,0,0-12.7-4.7C40.5,12.3,45.3,6.1,50,6.1ZM11.6,28.1c2.6-4.5,10.9-4.8,20.9-2.4a93.3,93.3,0,0,0-2.2,13,96.6,96.6,0,0,0-10.4,8.5c-4.5-4.7-7.5-9.3-8.6-13.3A7.4,7.4,0,0,1,11.6,28.1Zm0,43.8a7.4,7.4,0,0,1-.4-5.8c1.1-4,4.1-8.6,8.6-13.3a96.6,96.6,0,0,0,10.4,8.5,93.3,93.3,0,0,0,2.2,13C22.5,76.7,14.2,76.4,11.6,71.9ZM50,93.9c-4.7,0-9.5-6.1-12.7-16.6A95.8,95.8,0,0,0,50,72.6a95.8,95.8,0,0,0,12.7,4.7C59.5,87.7,54.7,93.9,50,93.9ZM88.4,71.9c-2.6,4.5-10.9,4.8-20.9,2.4a93.3,93.3,0,0,0,2.2-13,96.6,96.6,0,0,0,10.4-8.5c4.5,4.7,7.5,9.3,8.6,13.3A7.4,7.4,0,0,1,88.4,71.9Z"></path><path data-name="Compound Path" d="M62,43.4c0-3.8-6-5.5-12-5.5s-12,1.7-12,5.5h0v13c0,3.8,6,5.5,12,5.5s12-1.7,12-5.5v-13h0Zm-4,6.3c-.6.6-3.4,1.7-8,1.7s-7.4-1.1-8-1.7v-2a23.7,23.7,0,0,0,8,1.2,23.7,23.7,0,0,0,8-1.2Zm-8-7.7c4,0,6.7.8,7.7,1.5-1,.6-3.7,1.5-7.7,1.5s-6.7-.8-7.7-1.5C43.3,42.8,46,41.9,50,41.9ZM42,56.4V54.1a23.7,23.7,0,0,0,8,1.2,23.7,23.7,0,0,0,8-1.2v2.3c-.6.6-3.4,1.7-8,1.7S42.6,57,42,56.4Z"></path></g></svg>