<svg fill="#FFFFFF" xmlns="http://www.w3.org/2000/svg" xmlns:xlink="http://www.w3.org/1999/xlink" version="1.1" x="0px" y="0px" viewBox="0 0 28 32" style="enable-background:new 0 0 28 32;" xml:space="preserve"><g><g><g><path d="M6.645,19.442H5.318v3.582h1.327C8.804,23.024,8.9,19.442,6.645,19.442z"></path><polygon points="11.72,21.969 13.607,21.969 12.704,19.994    "></polygon><path d="M23,15H1c-0.55,0-1,0.45-1,1v10c0,0.55,0.45,1,1,1h22c0.551,0,1-0.45,1-1V16C24,15.45,23.551,15,23,15z M6.717,24H4.814     c-0.264,0-0.552-0.145-0.552-0.496v-4.541c0-0.288,0.288-0.496,0.552-0.496h1.831C10.299,18.467,10.219,24,6.717,24z      M14.527,23.729l-0.353-0.704h-2.95l-0.344,0.704C10.752,24,10.457,24.057,10.168,24c-0.256-0.145-0.415-0.432-0.256-0.768     l2.295-4.485c0.216-0.424,0.792-0.44,0.992,0l2.253,4.485C15.781,23.855,14.814,24.352,14.527,23.729z M19.561,19.467h-1.328     v4.037c0,0.695-1.055,0.712-1.055,0v-4.037h-1.398c-0.697,0-0.697-1.023,0-1.023h3.781     C20.271,18.443,20.271,19.467,19.561,19.467z"></path></g><path d="M27,7.586L20.414,1C19.836,0.42,18.82,0,18,0H7C5.346,0,4,1.346,4,3v10c0,0.553,0.447,1,1,1s1-0.447,1-1V3    c0-0.551,0.448-1,1-1h9c1.105,0,2,0.896,2,2v3.75C18,8.988,19.014,10,20.25,10H24c1.105,0,2,0.896,2,2v17c0,0.551-0.447,1-1,1H7    c-0.552,0-1-0.449-1-1c0-0.553-0.447-1-1-1s-1,0.447-1,1c0,1.654,1.346,3,3,3h18c1.654,0,3-1.346,3-3V10    C28,9.181,27.58,8.165,27,7.586z"></path></g></g></svg>