<svg fill="#FFFFFF" xmlns="http://www.w3.org/2000/svg" xmlns:xlink="http://www.w3.org/1999/xlink" version="1.1" x="0px" y="0px" viewBox="0 0 52 52" enable-background="new 0 0 52 52" xml:space="preserve"><g><g><g><path d="M40.0001106,50.0004349h-28c-1.6542969,0-3-1.3457031-3-3V9.5873489l7.5859385-7.5869141h23.4140625     c1.6542969,0,3,1.3457031,3,3.0000002v42C43.0001106,48.6547318,41.6544075,50.0004349,40.0001106,50.0004349z      M11.0001097,10.4154739v36.5849609c0,0.5517578,0.4482422,1,1,1h28c0.5517578,0,1-0.4482422,1-1v-42     c0-0.5517578-0.4482422-1-1-1H17.4141731L11.0001097,10.4154739z"></path></g></g><g><g><path d="M17.0001106,11.0014114h-7.000001c-0.4042969,0-0.7695313-0.2431641-0.9238281-0.6171875     C8.9210081,10.0102005,9.0069456,9.580513,9.2930784,9.2943802l7.000001-7.0009766     c0.2861328-0.2871094,0.7158203-0.3730468,1.0898438-0.2167969c0.3730469,0.1542969,0.6171875,0.5195313,0.6171875,0.9238281     v7.0009766C18.0001106,10.5541458,17.552845,11.0014114,17.0001106,11.0014114z M12.4141722,9.0014114h3.5859385V5.4144974     L12.4141722,9.0014114z"></path></g></g><g><g><path d="M32.9981575,35.9955521c-1.3691406,0-2.6269531-0.6884766-3.3632813-1.8417969     c-0.4169922-0.6523438-0.6367188-1.3984375-0.6367188-2.1582031c0-0.7578125,0.2197266-1.5039063,0.6357422-2.1572266     c0.7529297-1.1572266,2.0087891-1.8427734,3.3642578-1.8427734c2.2060547,0,4,1.7939453,4,4     S35.2042122,35.9955521,32.9981575,35.9955521z M32.9981575,29.9955521c-0.6767578,0-1.3056641,0.3457031-1.6826172,0.9248047     c-0.2089844,0.3291016-0.3173828,0.6933594-0.3173828,1.0751953c0,0.3828125,0.1083984,0.7470703,0.3222656,1.0820313     c0.3671875,0.5751953,0.9941406,0.9179688,1.6777344,0.9179688c1.1025391,0,2-0.8974609,2-2     S34.1006966,29.9955521,32.9981575,29.9955521z"></path></g></g><g><g><path d="M19.0001106,45.0004349c-2.2060547,0-4.000001-1.7939453-4.000001-4s1.7939463-4,4.000001-4s4,1.7939453,4,4     S21.2061653,45.0004349,19.0001106,45.0004349z M19.0001106,39.0004349c-1.1025391,0-2,0.8974609-2,2s0.8974609,2,2,2     s2-0.8974609,2-2S20.1026497,39.0004349,19.0001106,39.0004349z"></path></g></g><g><g><path d="M18.9981575,26.9955521c-2.2060547,0-4.000001-1.7939453-4.000001-4s1.7939463-4,4.000001-4     c1.3701172,0,2.6269531,0.6884766,3.3623047,1.8417969c0.4169922,0.6523438,0.6376953,1.3994141,0.6376953,2.1582031     c0,0.7607422-0.2207031,1.5068359-0.6386719,2.1591797C21.6251106,26.3070755,20.3682747,26.9955521,18.9981575,26.9955521z      M18.9981575,20.9955521c-1.1025391,0-2,0.8974609-2,2s0.8974609,2,2,2c0.6835938,0,1.3095703-0.3427734,1.6767578-0.9179688     c0.2148438-0.3359375,0.3232422-0.6992188,0.3232422-1.0820313c0-0.3818359-0.1083984-0.7460938-0.3232422-1.0820313     C20.3077278,21.3383255,19.6817513,20.9955521,18.9981575,20.9955521z"></path></g></g><g><g><path d="M33.0001106,18.0004349c-2.2060547,0-4-1.7939453-4-4s1.7939453-4,4-4s4,1.7939453,4,4     S35.2061653,18.0004349,33.0001106,18.0004349z M33.0001106,12.0004349c-1.1025391,0-2,0.8974609-2,2s0.8974609,2,2,2     s2-0.8974609,2-2S34.1026497,12.0004349,33.0001106,12.0004349z"></path></g></g><g><g><rect x="20.6718864" y="17.4957142" transform="matrix(0.8409563 -0.5411031 0.5411031 0.8409563 -5.8732343 17.0090218)" width="10.6515636" height="1.9996767"></rect></g></g><g><g><rect x="20.6718864" y="35.4957123" transform="matrix(0.8409563 -0.5411031 0.5411031 0.8409563 -15.6130896 19.871809)" width="10.6515636" height="1.9996767"></rect></g></g><g><g><rect x="24.9978294" y="22.1697712" transform="matrix(0.5407437 -0.8411874 0.8411874 0.5407437 -11.1893187 34.496418)" width="1.9996767" height="10.6515636"></rect></g></g></g></svg>