<svg fill="#FFFFFF" xmlns="http://www.w3.org/2000/svg" xmlns:xlink="http://www.w3.org/1999/xlink" version="1.1" x="0px" y="0px" viewBox="0 0 100 100" style="enable-background:new 0 0 100 100;" xml:space="preserve"><g><path d="M96.397,27.807c-0.841-0.903-2.258-0.957-3.163-0.114c-1.897,1.765-4.122,2.947-6.456,3.726l-11.979-11.98   c-0.874-0.875-2.291-0.874-3.165,0c-0.874,0.874-0.874,2.292,0,3.165l9.927,9.928c-2.691,0.294-5.333,0.219-7.624-0.009   c-1.229-0.124-2.328,0.774-2.45,2.005c-0.122,1.229,0.775,2.326,2.005,2.449c1.386,0.138,2.885,0.228,4.451,0.228   c6.039,0,13.064-1.324,18.341-6.233C97.188,30.127,97.24,28.712,96.397,27.807z"></path><path d="M69.523,35.358c-0.064-0.184-6.264-18.57,2.979-28.381c0.849-0.9,0.806-2.316-0.094-3.164   c-0.898-0.847-2.315-0.806-3.164,0.094c-10.971,11.645-4.38,31.658-3.963,32.881c0.227,0.72,3.937,13.058-3.382,22.077   L41.167,38.127c1.882-1.482,3.897-2.513,5.942-3.195l11.787,11.793c0.437,0.437,1.01,0.656,1.583,0.656   c0.572,0,1.146-0.219,1.582-0.655c0.875-0.874,0.875-2.291,0.001-3.166l-9.699-9.705c2.419-0.22,4.738-0.096,6.753,0.176   c1.216,0.163,2.353-0.693,2.518-1.919c0.166-1.225-0.694-2.352-1.919-2.518c-3.004-0.405-7.491-0.606-12.207,0.589   c-0.245,0.026-0.485,0.09-0.712,0.196c-3.579,1.012-7.251,2.848-10.477,6.053c-0.001,0.001-0.002,0.002-0.004,0.004   c0,0,0,0-0.001,0.001s-0.001,0.001-0.001,0.002c-11.066,11.006-6.115,27.327-5.861,28.133c0.007,0.022,0.015,0.045,0.022,0.067   c0.063,0.186,6.262,18.572-2.977,28.384c-0.847,0.899-0.805,2.315,0.095,3.162c0.432,0.407,0.983,0.609,1.534,0.609   c0.596,0,1.189-0.236,1.63-0.704c10.961-11.642,4.379-31.647,3.959-32.879c-0.222-0.708-3.901-12.929,3.268-21.938L58.69,61.986   c-1.865,1.44-3.857,2.442-5.877,3.107L40.979,53.258c-0.873-0.874-2.292-0.874-3.165,0c-0.875,0.873-0.875,2.291,0,3.165   l9.729,9.729c-2.385,0.208-4.669,0.085-6.659-0.184c-1.22-0.164-2.352,0.692-2.517,1.919c-0.166,1.225,0.693,2.352,1.918,2.517   c1.32,0.179,2.924,0.318,4.709,0.318c5.497,0,12.693-1.337,18.493-6.975c0.022-0.021,0.05-0.036,0.071-0.059   c0.012-0.011,0.018-0.023,0.029-0.034c0.031-0.031,0.063-0.058,0.094-0.089c11.086-11.017,6.109-27.36,5.863-28.142   C69.538,35.402,69.531,35.38,69.523,35.358z"></path><path d="M26.565,77.713l-9.979-9.98c3.315-0.586,6.658-0.534,9.474-0.253c1.227,0.113,2.326-0.775,2.449-2.006   c0.123-1.23-0.775-2.326-2.005-2.449c-5.711-0.566-10.793-0.063-15.087,1.447c-0.008,0.003-0.017,0.006-0.024,0.009   c-2.953,1.042-5.535,2.559-7.676,4.55c-0.905,0.843-0.956,2.259-0.114,3.163c0.441,0.475,1.04,0.714,1.64,0.714   c0.546,0,1.093-0.198,1.524-0.6c1.476-1.373,3.152-2.389,4.921-3.144L23.4,80.878c0.437,0.437,1.01,0.655,1.583,0.655   c0.572,0,1.145-0.219,1.582-0.655C27.439,80.005,27.439,78.587,26.565,77.713z"></path></g></svg>