<svg fill="#FFFFFF" xmlns:dc="http://purl.org/dc/elements/1.1/" xmlns:cc="http://creativecommons.org/ns#" xmlns:rdf="http://www.w3.org/1999/02/22-rdf-syntax-ns#" xmlns:svg="http://www.w3.org/2000/svg" xmlns="http://www.w3.org/2000/svg" xmlns:sodipodi="http://sodipodi.sourceforge.net/DTD/sodipodi-0.dtd" xmlns:inkscape="http://www.inkscape.org/namespaces/inkscape" viewBox="0 0 100 100" version="1.1" x="0px" y="0px"><g transform="translate(0,-952.36216)"><path style="color:#000000;font-style:normal;font-variant:normal;font-weight:normal;font-stretch:normal;font-size:medium;line-height:normal;font-family:sans-serif;text-indent:0;text-align:start;text-decoration:none;text-decoration-line:none;text-decoration-style:solid;text-decoration-color:#000000;letter-spacing:normal;word-spacing:normal;text-transform:none;direction:ltr;block-progression:tb;writing-mode:lr-tb;baseline-shift:baseline;text-anchor:start;white-space:normal;clip-rule:nonzero;display:inline;overflow:visible;visibility:visible;opacity:1;isolation:auto;mix-blend-mode:normal;color-interpolation:sRGB;color-interpolation-filters:linearRGB;solid-color:#000000;solid-opacity:1;fill:#FFFFFF;fill-opacity:1;fill-rule:nonzero;stroke:none;stroke-width:2.26481652px;stroke-linecap:butt;stroke-linejoin:miter;stroke-miterlimit:4;stroke-dasharray:none;stroke-dashoffset:0;stroke-opacity:1;color-rendering:auto;image-rendering:auto;shape-rendering:auto;text-rendering:auto;enable-background:accumulate" d="M 78.941406 18.207031 L 78.941406 18.21875 L 74.279297 18.857422 L 73.119141 20.21875 L 74.708984 21.546875 L 74.705078 21.582031 L 74.134766 21.300781 L 73.011719 23.142578 L 72.164062 23.714844 L 72.164062 24.636719 L 71.791016 24.636719 L 70.863281 22.621094 L 69.201172 25.558594 L 68.335938 27.611328 L 68.416016 27.679688 L 64.326172 26.333984 L 66.488281 31.162109 L 65.597656 31.296875 L 64.275391 33.349609 L 64.820312 35.527344 L 62.892578 34.775391 L 62.023438 36.318359 L 61.890625 36.238281 L 60.761719 34.207031 L 59.349609 33.458984 L 59.326172 33.394531 L 63.380859 33.585938 L 65.695312 30.664062 L 62.841797 28.513672 L 57.953125 26.664062 L 55.679688 26.480469 L 57.509766 25.824219 L 52.943359 23.640625 L 50.208984 25.458984 L 50.152344 25.523438 C 50.152344 25.523438 49.733255 25.995213 49.261719 26.507812 C 49.025948 26.764113 48.77709 27.030347 48.564453 27.248047 C 48.351815 27.465647 48.150309 27.649975 48.121094 27.671875 L 48.117188 27.671875 L 48.111328 27.671875 C 48.104528 27.681875 47.791327 27.876825 47.431641 28.078125 C 47.071955 28.279525 46.626743 28.518547 46.195312 28.748047 C 45.332453 29.207047 44.523437 29.625 44.523438 29.625 L 44.332031 29.722656 L 44.236328 29.916016 C 44.236328 29.916016 43.900477 30.582978 43.498047 31.330078 C 43.095617 32.077278 42.577679 32.951691 42.412109 33.150391 C 42.178792 33.429591 42.013812 33.761722 41.820312 34.169922 C 41.626652 34.578422 41.430294 35.044428 41.251953 35.486328 C 40.974201 36.174628 40.841655 36.545869 40.751953 36.792969 L 39.365234 37.003906 L 38.408203 38.669922 L 35.853516 39.958984 L 33.111328 41.947266 L 32.613281 46.835938 L 33.261719 49.400391 L 34.90625 50.746094 L 36.919922 50.318359 L 38.455078 49.171875 C 38.543578 49.586675 38.572163 49.828734 38.708984 50.240234 L 38.710938 50.240234 C 38.79188 50.487131 38.893205 50.73837 38.990234 50.984375 C 39.169363 51.438534 39.337165 51.839151 39.363281 51.898438 L 39.800781 54.154297 L 39.964844 56.613281 L 43.382812 55.582031 L 45.060547 54.736328 L 45.380859 53.193359 L 44.970703 50.261719 L 46.988281 49.054688 L 47.957031 47.294922 L 46.646484 45.552734 L 46.15625 45.142578 L 46.242188 42.013672 L 47.269531 41.929688 L 50.251953 38.578125 L 50.566406 36.771484 L 51.369141 36.259766 L 52.240234 36.324219 L 52.550781 36.951172 L 49.316406 40.943359 L 49.205078 44.570312 C 49.117288 44.692513 49.001794 44.839997 48.839844 45.154297 C 48.731522 45.364497 48.622118 45.580119 48.589844 45.886719 C 48.573684 46.040019 48.576226 46.240131 48.697266 46.457031 C 48.818326 46.673831 49.076206 46.835353 49.289062 46.876953 L 49.285156 46.876953 C 49.286356 46.877153 49.828966 47.129613 50.216797 47.382812 C 50.604628 47.636012 50.927734 47.878906 50.927734 47.878906 L 51.212891 48.091797 L 51.033203 48.144531 L 51.867188 50.609375 L 52.576172 51.328125 L 52.386719 51.910156 L 51.84375 51.28125 L 50.287109 51.28125 L 48.732422 53.691406 L 49.144531 57.03125 L 47.449219 57.800781 L 46.265625 57.042969 L 42.474609 58.183594 L 41.820312 58.773438 L 41.001953 57.505859 L 37.960938 57.935547 L 37.6875 57.246094 L 37.078125 56.236328 L 37.078125 55.794922 L 38.605469 54.265625 L 38.248047 52.933594 C 38.364694 52.760994 38.504495 52.572987 38.701172 52.179688 C 38.836348 51.909288 38.966798 51.645916 39 51.291016 C 39.0083 51.202266 39.010768 51.097325 38.990234 50.984375 C 38.969701 50.871425 38.925305 50.750456 38.837891 50.628906 C 38.663063 50.385906 38.337367 50.273438 38.105469 50.273438 C 37.706256 50.273438 37.400368 50.410206 37.080078 50.566406 C 36.759787 50.722606 36.443239 50.915922 36.154297 51.107422 C 35.576414 51.490522 35.107422 51.871094 35.107422 51.871094 L 34.898438 52.039062 L 34.267578 57.277344 L 35.138672 57.914062 L 35.1875 58.197266 L 32.236328 58.107422 L 30.603516 58.931641 L 30.603516 59.632812 L 30.279297 59.667969 L 29.785156 59.392578 L 28.304688 61.023438 L 25.234375 62.271484 L 24.238281 63.703125 L 22.101562 64.417969 L 19.777344 62.568359 L 19.525391 64.599609 L 19.378906 64.527344 L 17.484375 64.152344 L 15.646484 64.556641 L 16.347656 66.857422 L 18.082031 68.484375 L 18.193359 70.285156 L 18.824219 70.830078 L 17.080078 74.888672 L 10.998047 72.445312 L 9.9667969 71.232422 L 5.6601562 71.865234 L 6.6933594 73.777344 L 5.1582031 78.056641 L 2.3222656 80.816406 L 3.3027344 80.816406 L 3.0800781 81.201172 L 3.9960938 81.511719 L 2.9804688 83.818359 L 6.296875 84.839844 L 7.5742188 88.201172 L 10.515625 87.244141 L 13.851562 88.576172 L 15.542969 87.042969 L 17.121094 87.042969 L 17.972656 85.355469 L 18.259766 84.324219 L 20.544922 81.619141 L 23.828125 81.095703 L 24.003906 78.994141 L 25 78.292969 L 27.587891 79.652344 L 33.019531 77.849609 L 33.365234 78.546875 L 34.355469 82.185547 L 41.261719 87.363281 L 41.451172 92.447266 L 45.027344 89.126953 L 44.677734 87.914062 L 47.369141 89.169922 L 45.609375 85.353516 L 43.052734 83.128906 L 41.726562 82.544922 L 39.707031 79.121094 L 38.246094 78.103516 L 38.03125 76.189453 L 39.181641 76.042969 L 39.181641 78.269531 L 40.505859 77.607422 L 42.535156 81.679688 L 46.46875 83.339844 L 46.46875 86.951172 L 49.744141 90.710938 L 51.25 93.888672 L 54.306641 94.996094 L 53.753906 91.808594 L 56.242188 91.283203 L 54.257812 87.914062 L 54.042969 86.310547 L 56.597656 85.925781 L 60.191406 85.148438 L 63.568359 85.148438 L 60.716797 81.677734 L 61.566406 79.546875 L 61.566406 77.894531 L 62.21875 77.498047 L 63.103516 75.435547 L 64.248047 73.660156 L 64.728516 73.267578 L 64.996094 73.875 L 66.478516 73.875 L 65.451172 74.097656 L 67.324219 77.691406 L 68.964844 77.263672 L 70.873047 74.523438 L 70.755859 72.851562 L 70.291016 72.283203 L 70.435547 71.792969 L 72.066406 71.09375 L 72.611328 71.869141 L 72.646484 73.632812 L 71.302734 74.419922 L 76.927734 76.896484 L 84.789062 77.240234 L 86.787109 76.582031 L 93.083984 77.238281 L 88.496094 73.494141 L 87.140625 70.023438 L 86.666016 71.310547 L 86.253906 70.673828 L 86.253906 68.720703 L 87.927734 68.376953 L 87.927734 66.611328 L 90.267578 63.5625 L 89.605469 62.052734 L 89.029297 61.580078 L 88.919922 59.683594 L 87.142578 58.154297 L 86.400391 56.318359 L 90.224609 53.564453 L 96.029297 52.339844 L 97.677734 51.341797 L 96.927734 48.769531 L 95.296875 48.931641 L 94.560547 48.931641 L 94.455078 48.179688 L 92.791016 48.070312 L 92.722656 47.386719 L 91.826172 45.576172 L 90.283203 44.414062 L 88.724609 46.435547 L 88.654297 46.580078 L 88.330078 46.580078 L 87.220703 45.996094 L 88.603516 44.853516 L 88.603516 42.066406 L 86.675781 41.828125 L 86.582031 39.248047 L 83.589844 32.46875 L 80.578125 28.056641 L 81.769531 22.865234 L 81.509766 20.240234 L 78.941406 18.207031 z " transform="translate(0,952.36216)"></path><path style="color:#000000;font-style:normal;font-variant:normal;font-weight:normal;font-stretch:normal;font-size:medium;line-height:normal;font-family:sans-serif;text-indent:0;text-align:start;text-decoration:none;text-decoration-line:none;text-decoration-style:solid;text-decoration-color:#000000;letter-spacing:normal;word-spacing:normal;text-transform:none;direction:ltr;block-progression:tb;writing-mode:lr-tb;baseline-shift:baseline;text-anchor:start;white-space:normal;clip-rule:nonzero;display:inline;overflow:visible;visibility:visible;opacity:1;isolation:auto;mix-blend-mode:normal;color-interpolation:sRGB;color-interpolation-filters:linearRGB;solid-color:#000000;solid-opacity:1;fill:#FFFFFF;fill-opacity:1;fill-rule:nonzero;stroke:none;stroke-width:2.26481652px;stroke-linecap:butt;stroke-linejoin:miter;stroke-miterlimit:4;stroke-dasharray:none;stroke-dashoffset:0;stroke-opacity:1;color-rendering:auto;image-rendering:auto;shape-rendering:auto;text-rendering:auto;enable-background:accumulate" d="M 14.498047 47.322266 L 13.082031 47.933594 L 13.146484 48.541016 L 12.9375 48.556641 L 11.882812 48.435547 L 11.445312 49.414062 L 10.150391 50.261719 L 11.517578 51.408203 L 10.916016 51.662109 L 9.1113281 53.076172 L 9.4335938 54.642578 L 9.8925781 54.707031 L 14.855469 55.423828 L 14.986328 54.822266 C 14.986328 54.822266 15.161593 54.001053 15.375 53.189453 C 15.481704 52.783653 15.599966 52.379816 15.699219 52.103516 C 15.731029 52.014516 15.750037 51.974275 15.773438 51.921875 C 15.962378 51.873875 16.174873 51.844803 16.349609 51.783203 C 16.645357 51.678003 16.896484 51.574219 16.896484 51.574219 L 17.25 51.427734 L 17.589844 48.652344 L 15.869141 47.900391 L 14.498047 47.322266 z " transform="translate(0,952.36216)"></path><path style="color:#000000;font-style:normal;font-variant:normal;font-weight:normal;font-stretch:normal;font-size:medium;line-height:normal;font-family:sans-serif;text-indent:0;text-align:start;text-decoration:none;text-decoration-line:none;text-decoration-style:solid;text-decoration-color:#000000;letter-spacing:normal;word-spacing:normal;text-transform:none;direction:ltr;block-progression:tb;writing-mode:lr-tb;baseline-shift:baseline;text-anchor:start;white-space:normal;clip-rule:nonzero;display:inline;overflow:visible;visibility:visible;opacity:1;isolation:auto;mix-blend-mode:normal;color-interpolation:sRGB;color-interpolation-filters:linearRGB;solid-color:#000000;solid-opacity:1;fill:#FFFFFF;fill-opacity:1;fill-rule:nonzero;stroke:none;stroke-width:2.26481652px;stroke-linecap:butt;stroke-linejoin:miter;stroke-miterlimit:4;stroke-dasharray:none;stroke-dashoffset:0;stroke-opacity:1;color-rendering:auto;image-rendering:auto;shape-rendering:auto;text-rendering:auto;enable-background:accumulate" d="M 22.625 42.091797 L 21.941406 43.539062 L 20.789062 43.433594 L 20.738281 44.097656 L 20.671875 44.943359 L 19.796875 45.728516 L 20.197266 46.623047 L 19.771484 47.671875 L 20.427734 48.066406 L 20.009766 48.621094 L 20.123047 50.806641 L 21.074219 50.982422 L 20.849609 51.482422 L 21.234375 52.667969 L 21.306641 52.902344 L 19.632812 53.017578 L 19.074219 54.046875 L 19.074219 54.460938 L 16.939453 55.677734 L 18.482422 57.023438 L 17.894531 57.050781 L 15.201172 59.279297 L 19.052734 59.962891 L 19.974609 59.431641 L 23.361328 60.435547 L 26.642578 59.605469 L 25.714844 58.789062 L 27.148438 57.091797 L 26.404297 55.445312 L 25.558594 55.087891 L 25.697266 54.414062 L 25.603516 52.585938 L 25.1875 51.248047 L 24.640625 49.292969 L 24.533203 48.800781 L 24.955078 48.136719 L 26.445312 45.638672 L 24.595703 45.160156 L 25.884766 43.044922 L 22.625 42.091797 z " transform="translate(0,952.36216)"></path><path style="color:#000000;font-style:normal;font-variant:normal;font-weight:normal;font-stretch:normal;font-size:medium;line-height:normal;font-family:sans-serif;text-indent:0;text-align:start;text-decoration:none;text-decoration-line:none;text-decoration-style:solid;text-decoration-color:#000000;letter-spacing:normal;word-spacing:normal;text-transform:none;direction:ltr;block-progression:tb;writing-mode:lr-tb;baseline-shift:baseline;text-anchor:start;white-space:normal;clip-rule:nonzero;display:inline;overflow:visible;visibility:visible;opacity:1;isolation:auto;mix-blend-mode:normal;color-interpolation:sRGB;color-interpolation-filters:linearRGB;solid-color:#000000;solid-opacity:1;fill:#FFFFFF;fill-opacity:1;fill-rule:nonzero;stroke:none;stroke-width:2.26481652px;stroke-linecap:butt;stroke-linejoin:miter;stroke-miterlimit:4;stroke-dasharray:none;stroke-dashoffset:0;stroke-opacity:1;color-rendering:auto;image-rendering:auto;shape-rendering:auto;text-rendering:auto;enable-background:accumulate" d="M 16.697266 22.503906 L 15.835938 24.416016 L 15.583984 24.488281 L 14.023438 24.886719 L 13.339844 24.474609 L 14.535156 28.076172 L 12.277344 28.871094 L 14.591797 29.701172 L 15.925781 31.855469 L 19.736328 32.181641 L 22.125 31.097656 L 22.125 30.138672 L 21.896484 27.755859 L 21.667969 26.841797 L 20.90625 26.722656 L 19.310547 26.148438 L 19.078125 26.416016 L 18.738281 26.396484 L 18.068359 25.130859 L 17.662109 25.507812 L 16.697266 22.503906 z " transform="translate(0,952.36216)"></path><path style="color:#000000;font-style:normal;font-variant:normal;font-weight:normal;font-stretch:normal;font-size:medium;line-height:normal;font-family:sans-serif;text-indent:0;text-align:start;text-decoration:none;text-decoration-line:none;text-decoration-style:solid;text-decoration-color:#000000;letter-spacing:normal;word-spacing:normal;text-transform:none;direction:ltr;block-progression:tb;writing-mode:lr-tb;baseline-shift:baseline;text-anchor:start;white-space:normal;clip-rule:nonzero;display:inline;overflow:visible;visibility:visible;opacity:1;isolation:auto;mix-blend-mode:normal;color-interpolation:sRGB;color-interpolation-filters:linearRGB;solid-color:#000000;solid-opacity:1;fill:#FFFFFF;fill-opacity:1;fill-rule:nonzero;stroke:none;stroke-width:2.26481652px;stroke-linecap:butt;stroke-linejoin:miter;stroke-miterlimit:4;stroke-dasharray:none;stroke-dashoffset:0;stroke-opacity:1;color-rendering:auto;image-rendering:auto;shape-rendering:auto;text-rendering:auto;enable-background:accumulate" d="M 67.339844 5.6484375 L 67.150391 6.8183594 L 66.867188 8.5664062 L 65.587891 9.6914062 L 65.630859 10.521484 L 63.951172 13.300781 L 65.189453 13.822266 L 64.75 16.294922 L 65.541016 16.294922 L 65.332031 16.966797 L 65.900391 17.833984 C 65.915621 17.875984 65.939146 17.943759 65.978516 18.068359 C 66.009624 18.166855 66.031858 18.295663 66.044922 18.351562 C 66.039567 18.389814 66.034545 18.432485 66.023438 18.478516 C 65.994367 18.598916 65.951996 18.754797 65.910156 18.904297 C 65.826476 19.203097 65.742188 19.480469 65.742188 19.480469 L 65.533203 20.166016 L 68.244141 20.744141 L 68.431641 20.351562 C 68.520471 20.421563 68.608763 20.490906 68.701172 20.566406 C 68.980344 20.794606 69.230469 21.009766 69.230469 21.009766 L 69.544922 21.277344 L 73.400391 19.580078 L 69.730469 18.058594 L 69.625 17.421875 L 69.525391 15.462891 L 68.957031 15.015625 L 69.015625 14.894531 L 69.072266 13.939453 L 68.974609 13.769531 L 69.320312 13.679688 L 68.431641 11.253906 L 69.816406 7.8027344 L 67.339844 5.6484375 z " transform="translate(0,952.36216)"></path><path style="color:#000000;font-style:normal;font-variant:normal;font-weight:normal;font-stretch:normal;font-size:medium;line-height:normal;font-family:sans-serif;text-indent:0;text-align:start;text-decoration:none;text-decoration-line:none;text-decoration-style:solid;text-decoration-color:#000000;letter-spacing:normal;word-spacing:normal;text-transform:none;direction:ltr;block-progression:tb;writing-mode:lr-tb;baseline-shift:baseline;text-anchor:start;white-space:normal;clip-rule:nonzero;display:inline;overflow:visible;visibility:visible;opacity:1;isolation:auto;mix-blend-mode:normal;color-interpolation:sRGB;color-interpolation-filters:linearRGB;solid-color:#000000;solid-opacity:1;fill:#FFFFFF;fill-opacity:1;fill-rule:nonzero;stroke:none;stroke-width:2.26481652px;stroke-linecap:butt;stroke-linejoin:miter;stroke-miterlimit:4;stroke-dasharray:none;stroke-dashoffset:0;stroke-opacity:1;color-rendering:auto;image-rendering:auto;shape-rendering:auto;text-rendering:auto;enable-background:accumulate" d="m 69.154018,971.60637 0.897089,0.3725 -0.283894,0.1249 c -0.09489,-0.08 -0.110002,-0.094 -0.233922,-0.1953 -0.125944,-0.1029 -0.255358,-0.2063 -0.379273,-0.3021 z"></path><path style="color:#000000;font-style:normal;font-variant:normal;font-weight:normal;font-stretch:normal;font-size:medium;line-height:normal;font-family:sans-serif;text-indent:0;text-align:start;text-decoration:none;text-decoration-line:none;text-decoration-style:solid;text-decoration-color:#000000;letter-spacing:normal;word-spacing:normal;text-transform:none;direction:ltr;block-progression:tb;writing-mode:lr-tb;baseline-shift:baseline;text-anchor:start;white-space:normal;clip-rule:nonzero;display:inline;overflow:visible;visibility:visible;opacity:1;isolation:auto;mix-blend-mode:normal;color-interpolation:sRGB;color-interpolation-filters:linearRGB;solid-color:#000000;solid-opacity:1;fill:#FFFFFF;fill-opacity:1;fill-rule:nonzero;stroke:none;stroke-width:2.26481652px;stroke-linecap:butt;stroke-linejoin:miter;stroke-miterlimit:4;stroke-dasharray:none;stroke-dashoffset:0;stroke-opacity:1;color-rendering:auto;image-rendering:auto;shape-rendering:auto;text-rendering:auto;enable-background:accumulate" d="m 37.206338,1041.9699 -1.666993,0.6791 0.227111,0.6007 0.291837,0.7721 4.789767,2.7901 0.977712,-4.582 -4.619434,-0.26 z"></path><path style="color:#000000;font-style:normal;font-variant:normal;font-weight:normal;font-stretch:normal;font-size:medium;line-height:normal;font-family:sans-serif;text-indent:0;text-align:start;text-decoration:none;text-decoration-line:none;text-decoration-style:solid;text-decoration-color:#000000;letter-spacing:normal;word-spacing:normal;text-transform:none;direction:ltr;block-progression:tb;writing-mode:lr-tb;baseline-shift:baseline;text-anchor:start;white-space:normal;clip-rule:nonzero;display:inline;overflow:visible;visibility:visible;opacity:1;isolation:auto;mix-blend-mode:normal;color-interpolation:sRGB;color-interpolation-filters:linearRGB;solid-color:#000000;solid-opacity:1;fill:#FFFFFF;fill-opacity:1;fill-rule:nonzero;stroke:none;stroke-width:2.26481652px;stroke-linecap:butt;stroke-linejoin:miter;stroke-miterlimit:4;stroke-dasharray:none;stroke-dashoffset:0;stroke-opacity:1;color-rendering:auto;image-rendering:auto;shape-rendering:auto;text-rendering:auto;enable-background:accumulate" d="M 32.431641 82.751953 L 29.947266 83.4375 L 29.917969 83.90625 L 29.613281 88.671875 L 32.759766 87.919922 L 33.591797 85.052734 L 32.431641 82.751953 z " transform="translate(0,952.36216)"></path><path style="color:#000000;font-style:normal;font-variant:normal;font-weight:normal;font-stretch:normal;font-size:medium;line-height:normal;font-family:sans-serif;text-indent:0;text-align:start;text-decoration:none;text-decoration-line:none;text-decoration-style:solid;text-decoration-color:#000000;letter-spacing:normal;word-spacing:normal;text-transform:none;direction:ltr;block-progression:tb;writing-mode:lr-tb;baseline-shift:baseline;text-anchor:start;white-space:normal;clip-rule:nonzero;display:inline;overflow:visible;visibility:visible;opacity:1;isolation:auto;mix-blend-mode:normal;color-interpolation:sRGB;color-interpolation-filters:linearRGB;solid-color:#000000;solid-opacity:1;fill:#FFFFFF;fill-opacity:1;fill-rule:nonzero;stroke:none;stroke-width:2.26481652px;stroke-linecap:butt;stroke-linejoin:miter;stroke-miterlimit:4;stroke-dasharray:none;stroke-dashoffset:0;stroke-opacity:1;color-rendering:auto;image-rendering:auto;shape-rendering:auto;text-rendering:auto;enable-background:accumulate" d="M 44.318359 8.4785156 L 44.488281 9.2753906 L 44.982422 11.582031 L 45.138672 12.257812 L 45.458984 13.208984 L 47.185547 16.591797 L 48.291016 12.427734 L 49.679688 11.699219 L 49.287109 9.5175781 L 46.984375 8.4785156 L 44.318359 8.4785156 z " transform="translate(0,952.36216)"></path><path style="color:#000000;font-style:normal;font-variant:normal;font-weight:normal;font-stretch:normal;font-size:medium;line-height:normal;font-family:sans-serif;text-indent:0;text-align:start;text-decoration:none;text-decoration-line:none;text-decoration-style:solid;text-decoration-color:#000000;letter-spacing:normal;word-spacing:normal;text-transform:none;direction:ltr;block-progression:tb;writing-mode:lr-tb;baseline-shift:baseline;text-anchor:start;white-space:normal;clip-rule:nonzero;display:inline;overflow:visible;visibility:visible;opacity:1;isolation:auto;mix-blend-mode:normal;color-interpolation:sRGB;color-interpolation-filters:linearRGB;solid-color:#000000;solid-opacity:1;fill:#FFFFFF;fill-opacity:1;fill-rule:nonzero;stroke:none;stroke-width:2.26481652px;stroke-linecap:butt;stroke-linejoin:miter;stroke-miterlimit:4;stroke-dasharray:none;stroke-dashoffset:0;stroke-opacity:1;color-rendering:auto;image-rendering:auto;shape-rendering:auto;text-rendering:auto;enable-background:accumulate" d="M 48.488281 5.0039062 L 48.242188 5.2011719 L 47.244141 5.9960938 L 47.341797 7.3554688 L 48.304688 7.9882812 L 50.007812 8.9804688 L 52.335938 5.8769531 L 48.488281 5.0039062 z " transform="translate(0,952.36216)"></path></g></svg>