<svg fill="#FFFFFF" xmlns="http://www.w3.org/2000/svg" xmlns:xlink="http://www.w3.org/1999/xlink" version="1.1" x="0px" y="0px" viewBox="0 0 100 100" enable-background="new 0 0 100 100" xml:space="preserve"><g><path d="M23.354,19.025c-5.037,0-9.088,4.078-9.088,9.086v36.345c0,5.007,4.052,9.058,9.088,9.058h17.164l6.021,6.048   c1.914,1.885,5.008,1.885,6.895,0l6.02-6.048h17.164c5.037,0,9.117-4.051,9.117-9.058V28.111c0-5.008-4.08-9.086-9.117-9.086   H23.354L23.354,19.025z M23.354,20.601h53.263c4.193,0,7.541,3.348,7.541,7.511v36.345c0,4.163-3.348,7.482-7.541,7.482h-17.5   c-0.227,0-0.422,0.084-0.592,0.225l-6.246,6.245c-1.294,1.294-3.292,1.294-4.586,0l-6.247-6.245   c-0.168-0.141-0.366-0.225-0.591-0.225H23.354c-4.165,0-7.513-3.319-7.513-7.482V28.111C15.842,23.948,19.19,20.601,23.354,20.601   L23.354,20.601z M26.393,32.725c-0.422,0.056-0.76,0.45-0.703,0.872c0.028,0.422,0.45,0.76,0.872,0.731h46.875   c0.422,0,0.816-0.366,0.816-0.788s-0.395-0.815-0.816-0.815H26.562c-0.028,0-0.056,0-0.084,0S26.421,32.725,26.393,32.725   L26.393,32.725z M26.365,45.495c-0.394,0.028-0.732,0.45-0.704,0.872c0.056,0.422,0.479,0.76,0.9,0.704h46.875   c0.422,0,0.816-0.366,0.816-0.788s-0.395-0.788-0.816-0.788H26.562C26.506,45.468,26.421,45.468,26.365,45.495L26.365,45.495z    M26.393,58.211c-0.422,0.056-0.76,0.45-0.703,0.872c0.028,0.422,0.45,0.759,0.872,0.731h46.875c0.422,0,0.816-0.395,0.816-0.816   s-0.395-0.787-0.816-0.787H26.562c-0.028,0-0.056,0-0.084,0S26.421,58.211,26.393,58.211L26.393,58.211z"></path></g></svg>