<svg fill="#FFFFFF" xmlns="http://www.w3.org/2000/svg" xmlns:xlink="http://www.w3.org/1999/xlink" version="1.1" x="0px" y="0px" viewBox="0 0 100 100" enable-background="new 0 0 100 100" xml:space="preserve"><rect x="-888.5" y="-577.5" display="none" fill="#FFFFFF" width="1400" height="920"></rect><g><path d="M36.1,52.9l-8.7,8.4l0-8.7c0-0.2-0.1-0.5-0.3-0.7c-0.2-0.2-0.4-0.3-0.7-0.3h-5.3V22.5h41.7l0,9.9c0,0.5,0.4,0.9,0.9,0.9   c0.5,0,0.9-0.4,0.9-0.9l0-10.9c0-0.2-0.1-0.5-0.3-0.7c-0.2-0.2-0.4-0.3-0.7-0.3H20.2c-0.2,0-0.5,0.1-0.7,0.3   c-0.2,0.2-0.3,0.4-0.3,0.7v31.1c0,0.2,0.1,0.5,0.3,0.7c0.2,0.2,0.4,0.3,0.7,0.3h5.3v9.9c0,0.4,0.2,0.7,0.6,0.9   c0.3,0.1,0.7,0.1,1-0.2l10.3-9.9c0.4-0.4,0.4-0.9,0-1.3C37.1,52.6,36.5,52.5,36.1,52.9L36.1,52.9z"></path><polygon points="42,68.2 62.2,68.2 73.1,79 73.1,68.2 79.3,68.2 79.3,37.1 42,37.1  "></polygon></g></svg>