<svg fill="#FFFFFF" xmlns:dc="http://purl.org/dc/elements/1.1/" xmlns:cc="http://creativecommons.org/ns#" xmlns:rdf="http://www.w3.org/1999/02/22-rdf-syntax-ns#" xmlns:svg="http://www.w3.org/2000/svg" xmlns="http://www.w3.org/2000/svg" xmlns:sodipodi="http://sodipodi.sourceforge.net/DTD/sodipodi-0.dtd" xmlns:inkscape="http://www.inkscape.org/namespaces/inkscape" version="1.1" x="0px" y="0px" viewBox="0 0 100 100"><g transform="translate(0,-952.36218)"><path style="text-indent:0;text-transform:none;direction:ltr;block-progression:tb;baseline-shift:baseline;color:#000000;enable-background:accumulate;" d="m 50,972.36215 c -1.6568,0 -3,1.3432 -3,3 l 0,13 -21,0 c -12.1147,0 -21.9999998,9.88537 -21.9999998,21.99995 0,12.1146 9.8851998,22.0001 21.9999998,22.0001 10.0272,0 18.4359,-6.7848 21.0625,-16.0001 l 5.875,0 c 2.6266,9.2153 11.0353,16.0001 21.0625,16.0001 12.1148,0 22,-9.8855 22,-22.0001 0,-12.11458 -9.8853,-21.99995 -22,-21.99995 l -21,0 0,-13 c 0,-1.6568 -1.3431,-3 -3,-3 z m -24,21.99997 48,0 c 8.8721,0 16,7.12798 16,15.99998 0,8.8718 -7.128,16.0001 -16,16.0001 -8.0081,0 -14.5696,-5.8337 -15.7812,-13.4688 a 3.0003,3.0003 0 0 0 -2.9688,-2.5313 l -10.5,0 a 3.0003,3.0003 0 0 0 -2.9688,2.5313 c -1.2118,7.6351 -7.773,13.4688 -15.7812,13.4688 -8.872,0 -16,-7.1283 -16,-16.0001 0,-8.872 7.128,-15.99998 16,-15.99998 z m 0,5 c -1.6569,0 -3,1.34308 -3,2.99998 l 0,5 -5,0 c -1.6568,0 -3,1.3432 -3,3 0,1.6569 1.3432,3 3,3 l 5,0 0,5 c 0,1.6569 1.3431,3.0001 3,3.0001 1.6568,0 3,-1.3432 3,-3.0001 l 0,-5 5,0 c 1.6569,0 3,-1.3431 3,-3 0,-1.6568 -1.3431,-3 -3,-3 l -5,0 0,-5 c 0,-1.6569 -1.3432,-2.99998 -3,-2.99998 z m 53,1.99998 c -2.2091,0 -4,1.7909 -4,4 0,2.2092 1.7909,4 4,4 2.2092,0 4,-1.7908 4,-4 0,-2.2091 -1.7908,-4 -4,-4 z m -10,10 c -2.2091,0 -4,1.7909 -4,4 0,2.2092 1.7909,4 4,4 2.2092,0 4,-1.7908 4,-4 0,-2.2091 -1.7908,-4 -4,-4 z" fill="#FFFFFF" fill-opacity="1" stroke="none" marker="none" visibility="visible" display="inline" overflow="visible"></path></g></svg>