<svg fill="#FFFFFF" xmlns="http://www.w3.org/2000/svg" xmlns:xlink="http://www.w3.org/1999/xlink" version="1.1" x="0px" y="0px" viewBox="0 0 100 100" enable-background="new 0 0 100 100" xml:space="preserve"><g><path d="M55.673,5.37v1.972C76.734,10.129,93.043,28.19,93.043,50c0,23.734-19.309,43.043-43.043,43.043S6.957,73.734,6.957,50   C6.957,26.601,25.727,7.517,49,6.982v26.569H28.618c-4.353,0-7.881,3.528-7.881,7.881v17.137c0,4.353,3.528,7.881,7.881,7.881   h9.992c2.097,0,3.796-1.7,3.796-3.796s1.7-3.796,3.796-3.796h7.593c2.097,0,3.796,1.7,3.796,3.796s1.7,3.796,3.796,3.796h9.992   c4.353,0,7.881-3.528,7.881-7.881V41.432c0-4.353-3.528-7.881-7.881-7.881H51v-4.742V11.046V6.982V5.709V5.025   C50.666,5.018,50.335,5,50,5C25.187,5,5,25.187,5,50s20.187,45,45,45s45-20.187,45-45C95,27.11,77.816,8.17,55.673,5.37z    M37.964,48.995h-0.991c-0.999,0-1.808,0.809-1.808,1.808v0.991c0,0.999-0.809,1.808-1.808,1.808c-0.999,0-1.808-0.809-1.808-1.808   v-0.991c0-0.999-0.809-1.808-1.808-1.808h-0.991c-0.999,0-1.808-0.809-1.808-1.808s0.809-1.808,1.808-1.808h0.991   c0.998,0,1.808-0.809,1.808-1.808V42.58c0-0.999,0.809-1.808,1.808-1.808c0.998,0,1.808,0.809,1.808,1.808v0.991   c0,0.999,0.809,1.808,1.808,1.808h0.991c0.998,0,1.808,0.809,1.808,1.808S38.962,48.995,37.964,48.995z M72.097,45.29   c1.048,0,1.898,0.85,1.898,1.898s-0.85,1.898-1.898,1.898c-1.048,0-1.898-0.85-1.898-1.898S71.049,45.29,72.097,45.29z    M67.58,40.772c1.048,0,1.898,0.85,1.898,1.898c0,1.048-0.85,1.898-1.898,1.898c-1.048,0-1.898-0.85-1.898-1.898   C65.682,41.622,66.532,40.772,67.58,40.772z M67.58,49.807c1.048,0,1.898,0.85,1.898,1.898c0,1.048-0.85,1.898-1.898,1.898   c-1.048,0-1.898-0.85-1.898-1.898C65.682,50.657,66.532,49.807,67.58,49.807z M63.062,45.29c1.048,0,1.898,0.85,1.898,1.898   s-0.85,1.898-1.898,1.898s-1.898-0.85-1.898-1.898S62.014,45.29,63.062,45.29z"></path></g></svg>