<?xml version="1.0" standalone="no"?>
<!DOCTYPE svg PUBLIC "-//W3C//DTD SVG 20010904//EN"
 "http://www.w3.org/TR/2001/REC-SVG-20010904/DTD/svg10.dtd">
<svg version="1.0" xmlns="http://www.w3.org/2000/svg"
 width="577.000000pt" height="577.000000pt" viewBox="0 0 577.000000 577.000000"
 preserveAspectRatio="xMidYMid meet">

<g transform="translate(0.000000,577.000000) scale(0.100000,-0.100000)"
fill="#000000" stroke="none">
<path d="M0 2885 l0 -2885 2885 0 2885 0 0 2885 0 2885 -2885 0 -2885 0 0
-2885z m1887 903 c27 -22 44 -68 38 -98 -7 -30 -56 -80 -80 -80 -7 0 -16 -12
-20 -27 -5 -20 -2 -29 12 -36 10 -6 35 -27 56 -47 31 -32 37 -44 37 -79 0 -23
-9 -60 -20 -82 l-21 -40 22 -32 c13 -18 24 -34 25 -36 2 -1 30 6 63 18 34 12
75 21 91 21 l30 0 0 94 0 94 -37 19 c-48 24 -74 61 -80 114 -11 114 104 193
206 141 47 -23 72 -61 78 -113 5 -56 -27 -111 -83 -143 l-39 -22 2 -89 2 -88
63 -18 c35 -9 73 -20 85 -24 16 -5 25 -1 39 19 15 24 15 31 2 74 -10 31 -13
56 -7 76 36 126 219 103 219 -28 0 -70 -51 -116 -127 -116 -36 0 -41 -4 -71
-55 -40 -67 -46 -71 -78 -50 -84 55 -198 62 -286 17 -64 -34 -58 -37 -117 51
l-32 47 -66 0 c-63 0 -67 2 -104 39 -23 23 -39 48 -39 62 -1 55 -46 72 -91 35
-43 -36 -92 -35 -130 3 -52 53 -32 140 36 160 51 14 96 -7 120 -57 27 -58 50
-63 86 -19 16 19 46 42 67 50 22 9 42 23 46 33 8 20 -1 54 -14 54 -13 0 -40
54 -40 79 0 77 99 127 157 79z m973 -493 l0 -105 125 0 125 0 0 105 0 105 45
0 45 0 0 -260 0 -260 -45 0 -45 0 0 115 0 115 -125 0 -125 0 0 -115 0 -115
-45 0 -45 0 0 260 0 260 45 0 45 0 0 -105z m807 82 c56 -30 75 -82 74 -209 0
-140 -8 -190 -35 -231 -30 -44 -80 -55 -258 -56 l-148 -1 0 261 0 261 168 -4
c134 -3 173 -7 199 -21z m-1763 -241 c15 -23 14 -27 -11 -72 -20 -36 -28 -65
-31 -124 -5 -84 6 -131 45 -192 27 -43 28 -56 8 -82 -15 -19 -15 -19 -40 4
-14 14 -40 53 -57 88 -28 57 -32 73 -32 155 0 96 16 149 64 217 26 36 33 37
54 6z m557 -69 c45 -103 36 -256 -19 -340 -19 -28 -19 -28 -42 -9 l-23 19 22
71 c30 91 26 163 -14 250 -27 60 -27 63 -10 82 18 20 18 20 41 -1 12 -11 32
-44 45 -72z m511 -327 c39 -11 58 -34 58 -69 0 -29 -50 -29 -68 -1 -10 16 -23
20 -71 20 -81 0 -91 -11 -91 -106 0 -105 6 -114 83 -114 68 0 87 10 87 47 0
20 -5 23 -40 23 -36 0 -40 3 -40 25 0 24 2 25 71 25 l71 0 -4 -71 c-3 -54 -8
-74 -22 -85 -38 -27 -178 -29 -228 -3 -27 14 -41 78 -37 172 3 73 7 89 28 111
13 14 35 27 50 29 53 8 117 7 153 -3z m328 -15 c0 -25 -1 -25 -83 -25 l-84 0
1 -45 1 -45 76 0 c61 0 78 -3 83 -16 11 -28 -4 -34 -83 -34 l-78 0 1 -50 0
-50 82 0 c79 0 82 -1 86 -25 l5 -25 -113 0 -114 0 0 170 0 170 110 0 110 0 0
-25z m167 -7 c41 -122 82 -221 87 -208 3 8 21 58 40 110 19 52 37 103 41 113
5 13 19 17 56 17 27 0 49 -3 50 -7 2 -19 2 -176 1 -250 -2 -81 -3 -83 -27 -83
l-24 0 -3 143 c-2 87 -6 134 -11 122 -5 -11 -29 -75 -55 -142 -43 -116 -47
-123 -73 -123 -28 0 -29 1 -128 260 -7 18 -10 -15 -10 -117 l-1 -143 -30 0
-30 0 0 170 0 170 53 0 c52 0 54 -1 64 -32z m-1100 -36 l20 -28 -64 -38 c-69
-42 -66 -34 -38 -116 11 -32 16 -36 60 -42 70 -10 125 -72 125 -140 0 -39 -39
-104 -74 -123 -49 -27 -128 -17 -167 21 -62 59 -61 155 2 208 l31 26 -19 56
-19 57 -104 0 -104 1 -23 -62 -23 -62 25 -36 c32 -47 32 -90 -1 -138 -35 -51
-25 -86 26 -99 73 -18 109 -87 74 -145 -34 -58 -96 -68 -146 -23 -27 24 -33
36 -33 69 0 25 7 48 19 61 15 17 16 25 6 55 -9 29 -18 37 -46 42 -19 3 -45 15
-59 26 -23 18 -26 18 -55 3 -17 -9 -30 -24 -30 -34 0 -93 -95 -143 -160 -83
-42 37 -48 78 -18 121 30 45 66 54 123 33 43 -16 46 -15 72 4 20 15 30 33 34
61 6 51 29 74 86 88 44 11 47 14 71 75 l25 63 -23 17 c-22 16 -22 18 -5 43 9
15 19 27 20 27 2 0 22 -9 46 -20 83 -37 211 -22 282 35 18 13 35 25 38 25 3 0
14 -13 26 -28z"/>
<path d="M1790 3750 c-11 -11 -20 -29 -20 -40 0 -25 34 -60 58 -60 57 1 75 82
23 109 -28 15 -38 14 -61 -9z"/>
<path d="M2078 3681 c-28 -25 -33 -36 -33 -74 0 -80 75 -128 144 -93 67 35 78
122 20 170 -42 36 -89 35 -131 -3z"/>
<path d="M1469 3526 c-30 -14 -38 -66 -14 -90 48 -48 125 23 83 76 -19 23 -42
28 -69 14z"/>
<path d="M1718 3481 c-69 -62 -25 -171 69 -171 33 0 50 6 68 24 98 98 -34 239
-137 147z"/>
<path d="M2414 3427 c-17 -15 -26 -33 -26 -52 0 -33 41 -75 73 -75 11 0 31 11
44 25 34 33 33 77 -1 104 -34 27 -57 26 -90 -2z"/>
<path d="M3390 3140 l0 -180 99 0 c89 0 103 2 126 23 23 20 27 32 32 103 7
107 -3 190 -28 215 -16 16 -34 19 -124 19 l-105 0 0 -180z"/>
<path d="M2274 2409 c-26 -13 -54 -60 -54 -91 0 -12 9 -37 19 -54 48 -79 170
-57 187 33 7 40 -10 88 -40 108 -23 17 -81 19 -112 4z"/>
<path d="M1867 2399 c-28 -16 -40 -58 -27 -90 30 -71 140 -51 140 26 0 57 -63
93 -113 64z"/>
<path d="M1616 2249 c-30 -23 -33 -45 -10 -77 30 -44 104 -16 104 39 0 16 -44
59 -60 59 -4 0 -19 -9 -34 -21z"/>
<path d="M1972 2110 c-12 -12 -22 -30 -22 -40 0 -26 34 -60 60 -60 11 0 29 9
40 20 11 11 20 29 20 40 0 25 -34 60 -58 60 -10 0 -28 -9 -40 -20z"/>
</g>
</svg>
