<svg fill="#FFFFFF" xmlns:dc="http://purl.org/dc/elements/1.1/" xmlns:cc="http://creativecommons.org/ns#" xmlns:rdf="http://www.w3.org/1999/02/22-rdf-syntax-ns#" xmlns:svg="http://www.w3.org/2000/svg" xmlns="http://www.w3.org/2000/svg" xmlns:sodipodi="http://sodipodi.sourceforge.net/DTD/sodipodi-0.dtd" xmlns:inkscape="http://www.inkscape.org/namespaces/inkscape" version="1.1" x="0px" y="0px" viewBox="0 0 100 100"><g transform="translate(0,-952.36218)"><path style="color:#000000;fill:#FFFFFF;stroke:none;stroke-width:4;stroke-linecap:round;stroke-linejoin:round;stroke-miterlimit:4;stroke-opacity:1;stroke-dasharray:none;stroke-dashoffset:0;marker:none;visibility:visible;display:inline;overflow:visible;enable-background:accumulate;opacity:1" d="M 35.03125 13 C 31.13115 13 28 16.13115 28 20.03125 L 28 23 L 62.96875 23 C 69.009725 23 74 27.99028 74 34.03125 L 74 61.96875 C 74 63.444986 73.69478 64.862984 73.15625 66.15625 L 82 75 L 82 57 L 84.96875 57 C 88.86885 57 92 53.86885 92 49.96875 L 92 20.03125 C 92 16.13116 88.86885 13 84.96875 13 L 35.03125 13 z M 15.03125 27 C 11.13115 27 8 30.13115 8 34.03125 L 8 61.96875 C 8 65.86885 11.13115 69 15.03125 69 L 18 69 L 18 87 L 36 69 L 62.96875 69 C 66.86885 69 70 65.86885 70 61.96875 L 70 34.03125 C 70 30.13115 66.86885 27 62.96875 27 L 15.03125 27 z M 25 44 C 27.2091 44 29 45.79088 29 48 C 29 50.2092 27.2091 52 25 52 C 22.7909 52 21 50.2092 21 48 C 21 45.79088 22.7909 44 25 44 z M 39 44 C 41.2091 44 43 45.79088 43 48 C 43 50.2092 41.2091 52 39 52 C 36.7909 52 35 50.2092 35 48 C 35 45.79088 36.7909 44 39 44 z M 53 44 C 55.2092 44 57 45.79088 57 48 C 57 50.2092 55.2092 52 53 52 C 50.7909 52 49 50.2092 49 48 C 49 45.79088 50.7909 44 53 44 z " transform="translate(0,952.36218)"></path></g></svg>