<svg fill="#FFFFFF" xmlns="http://www.w3.org/2000/svg" xmlns:xlink="http://www.w3.org/1999/xlink" version="1.1" x="0px" y="0px" viewBox="0 0 100 100" enable-background="new 0 0 100 100" xml:space="preserve"><path d="M89.866,52.641c-2.573-4.779-8.606-8.086-8.606-13.922c0-3.041,2.06-4.016,2.06-7.469c0-3.449-0.313-7.134-3.063-11.068  C75.95,14.014,66.844,5,46.639,5C22.345,5,2.034,23.17,12.536,51.445c3.585,10.281,12.887,14.52,12.887,20.584  c0,2.637-0.701,7.326-2.587,11.785c-2.451,5.789-3.416,7.641-3.416,7.641C18.402,93.404,19.369,95,21.57,95h39.25h0.483  c1.532-1.912,0.237-8.15,0.237-8.15c-0.559-2.693,1.223-4.67,3.959-4.393c0,0,1.777,0.182,6.897,0.783  c3.278,0.385,6.485,0.412,8.564-0.736c5.329-2.939,0.092-8.186,0.092-10.012c0-1.83,3.773-1.75,3.773-3.771  c0-2.02-3.544-1.104-3.59-2.389c-0.045-1.287,4.877-0.283,4.877-2.305c0-2.02-2.024-2.449-2.024-4.703  c0-1.744,4.843-2.082,5.954-4.301C90.372,54.367,90.452,53.729,89.866,52.641z M46.202,53.938  C29.658,42.595,26.778,36.49,27.246,29.534C27.72,22.579,37.117,15.396,46.202,24c9.081-8.604,18.482-1.421,18.95,5.534  C65.629,36.49,62.744,42.595,46.202,53.938z"></path></svg>