<?xml version="1.0" encoding="UTF-8"?>
<svg fill="#FFFFFF" width="100pt" height="100pt" version="1.1" viewBox="0 0 100 100" xmlns="http://www.w3.org/2000/svg">
 <g>
  <path d="m38 49.898l11.801 11.801c0.19922-1.6992 0.19922-3.6992-0.10156-5.6992-0.39844-3-2.8008-5.5-5.8984-5.8984-2-0.30078-4-0.30078-5.8008-0.20312z"/>
  <path d="m32 51.199c-1.6016 0.60156-3.1016 1.3008-4.3984 2.1016l19 19c0.80078-1.3984 1.5-2.8984 2.1016-4.5-0.10156-0.10156-0.10156-0.10156-0.19922-0.19922z"/>
  <path d="m54.398 28.199c-0.60156 1.3008-1 2.6992-1.3984 4l14.602 14.602c1.3008-0.39844 2.6992-0.80078 4-1.3984 0.30078-0.10156 0.5-0.19922 0.80078-0.30078l-17.602-17.602c-0.19922 0.19922-0.30078 0.5-0.40234 0.69922z"/>
  <path d="m58.199 47.801c1 0.10156 2 0.10156 3 0l-9.1992-9.1992v3c0.19922 3.2969 2.8984 6 6.1992 6.1992z"/>
  <path d="m50 5c-25.102 0.19922-45.199 20.5-45 45.301 0.19922 24.598 20.301 44.699 45 44.699h0.30078c12-0.10156 23.301-4.8008 31.699-13.398 8.3984-8.6016 13.102-19.898 13-31.898-0.19922-24.602-20.301-44.703-45-44.703zm23.801 45.102c-6.3984 2.8008-13 3.6016-19.398 2.5 3 15-3.6992 24.199-10.102 30.699-0.5 0.5-1.1992 0.80078-1.8008 0.80078-0.69922 0-1.3008-0.30078-1.8008-0.80078-1-1-1-2.6992 0-3.6992 0.89844-0.89844 1.8984-1.8984 2.8008-3l-20.301-20.203c-1 0.89844-2 1.8008-3 2.8008-0.5 0.5-1.1992 0.80078-1.8008 0.80078-0.69922 0-1.3008-0.30078-1.8008-0.80078-1-1-1-2.6992 0-3.6992 6.4023-6.5 15.602-13.102 30.602-10.102-1.1016-6.3008-0.30078-13 2.5-19.398 2.5-5.8008 5.6992-9.3984 5.8984-9.5 1-1.1016 2.6016-1.1016 3.6992-0.19922 1.1016 1 1.1016 2.6016 0.19922 3.6992 0 0-0.89844 1-2.1016 2.8008l19.699 19.699c1.8008-1.1992 2.8008-2 2.8008-2.1016 1.1016-1 2.6992-0.89844 3.6992 0.19922 1 1.1016 0.89844 2.6992-0.19922 3.6992-0.19531 0.003906-3.793 3.3047-9.5938 5.8047z"/>
 </g>
</svg>
