<svg fill="#FFFFFF" xmlns="http://www.w3.org/2000/svg" xmlns:xlink="http://www.w3.org/1999/xlink" version="1.1" x="0px" y="0px" viewBox="0 0 100 100" style="enable-background:new 0 0 100 100;" xml:space="preserve"><path d="M49.7,17.9c5,0,9,4.1,9,9s-4.1,9-9,9s-9-4.1-9-9S44.7,17.9,49.7,17.9z"></path><path d="M27.6,43.7c0-5.2,5.2-5.2,5.2-5.2h33.8c0,0,5.2-0.2,5.2,5.2S66.6,49,66.6,49h-5.2v26c0,0,0,5.2-5.2,5.2s-5.2-5.2-5.2-5.2  V59.4h-2.6v15.5c0,0,0,5.2-5.2,5.2s-5.2-5.2-5.2-5.2V49h-5.2C32.8,49,27.6,49,27.6,43.7z"></path></svg>