<svg fill="#FFFFFF" xmlns="http://www.w3.org/2000/svg" xmlns:xlink="http://www.w3.org/1999/xlink" version="1.1" x="0px" y="0px" viewBox="0 0 100 100" style="enable-background:new 0 0 100 100;" xml:space="preserve"><g><rect x="19.1" y="48.6" width="2.8" height="2.8"></rect><rect x="48.6" y="19.1" width="2.8" height="2.8"></rect><path d="M89.3,16.3h5.6v-2.8H89c-0.6-1.6-2.1-2.8-3.9-2.8c-0.5,0-1.1,0.1-1.6,0.3c-0.5-1.8-2.1-3.1-4.1-3.1c-0.5,0-1.1,0.1-1.6,0.3   c-0.5-1.8-2.1-3.1-4.1-3.1c-1.9,0-3.6,1.3-4.1,3.1c-0.5-0.2-1-0.3-1.6-0.3c-2.3,0-4.2,1.9-4.2,4.2v1.4h-18c-1,0-1.9,0.6-2.4,1.4   h-1.6L36,13.2V5.1h-2.8v7.2L28,10.8l-11.6-0.1V5.1h-2.8V11c-1.6,0.6-2.8,2.1-2.8,3.9c0,0.5,0.1,1.1,0.3,1.6C9.3,17,8,18.6,8,20.6   c0,0.5,0.1,1.1,0.3,1.6c-1.8,0.5-3.1,2.1-3.1,4.1s1.3,3.6,3.1,4.1C8.1,30.9,8,31.4,8,32c0,2.3,1.9,4.2,4.2,4.2h1.4v18.2   c0,1,0.6,1.9,1.4,2.4V57v1.2L13.2,64H5.1v2.8h7.2L10.8,72l-0.1,11.6H5.1v2.8H11c0.6,1.6,2.1,2.8,3.9,2.8c0.5,0,1.1-0.1,1.6-0.3   c0.5,1.8,2.1,3.1,4.1,3.1c0.5,0,1.1-0.1,1.6-0.3c0.5,1.8,2.1,3.1,4.1,3.1c1.9,0,3.6-1.3,4.1-3.1c0.5,0.2,1,0.3,1.6,0.3   c2.3,0,4.2-1.9,4.2-4.2v-1.4h18.2c1,0,1.9-0.6,2.4-1.4h4.1l3.3,2.5v7.4H67v-5.5l5.3,2.7h5.9c2.3,0,4.2-1.9,4.2-4.2v-1.4h1.4v8.4   h2.8v-8.4H88c2.3,0,4.2-1.9,4.2-4.2c0-0.5-0.1-1.1-0.3-1.6c1.8-0.5,3.1-2.1,3.1-4.1c0-1.9-1.3-3.6-3.1-4.1c0.2-0.5,0.3-1,0.3-1.6   c0-1.9-1.3-3.6-3.1-4.1c0.2-0.5,0.3-1,0.3-1.6c0-1.8-1.2-3.4-2.8-3.9V45.8c0-1-0.6-1.9-1.4-2.4v-1.6l1.7-5.8H95v-2.8h-7.2l1.6-5.2   L89.3,16.3z M45.8,16.3H64v1.4h-1.4c-2.3,0-4.2,1.9-4.2,4.2v5.9l2.6,5.3H45.8V16.3z M10.7,31.8c0-0.8,0.6-1.4,1.4-1.4h8.4v-2.8   h-8.4H9.3c-0.8,0-1.4-0.6-1.4-1.4s0.6-1.4,1.4-1.4h2.8h8.4V22h-8.4c-0.8,0-1.4-0.6-1.4-1.4s0.6-1.4,1.4-1.4h2.8h5.6v-2.8h-5.6   c-0.8,0-1.4-0.6-1.4-1.4c0-0.8,0.6-1.4,1.4-1.4h12.4l13.8,4.1h1.8v14.1h-4.7l-5.9,4.4l-5.2,2.6h-5.3c-0.8,0-1.4-0.6-1.4-1.4V36h4.2   v-2.8H12.1C11.3,33.2,10.7,32.5,10.7,31.8z M17.7,36v1.4c0,2.3,1.9,4.2,4.2,4.2h5.9l5.3-2.6v15.3H16.3V36H17.7z M33.2,87.9   c0,0.8-0.6,1.4-1.4,1.4c-0.8,0-1.4-0.6-1.4-1.4v-8.4h-2.8v8.4v2.8c0,0.8-0.6,1.4-1.4,1.4s-1.4-0.6-1.4-1.4v-2.8v-8.4H22v8.4   c0,0.8-0.6,1.4-1.4,1.4s-1.4-0.6-1.4-1.4v-2.8v-5.6h-2.8v5.6c0,0.8-0.6,1.4-1.4,1.4c-0.8,0-1.4-0.6-1.4-1.4V72.7l4.1-13.8v-1.8   h14.1v4.7l4.4,5.9l2.6,5.2v5.3c0,0.8-0.6,1.4-1.4,1.4H36v-4.2h-2.8V87.9z M54.2,83.7H36v-1.4h1.4c2.3,0,4.2-1.9,4.2-4.2v-5.9   L39,66.9h15.3v16.8H54.2z M37.4,64v0.5l-2.8-3.8V57v-0.4c0.8-0.5,1.4-1.4,1.4-2.4V37l3.3-2.4h4.1c0.5,0.8,1.4,1.4,2.4,1.4H63   l2.4,3.3v4.1c-0.8,0.5-1.4,1.4-1.4,2.4v17.9l-5.8,1.7h-1.6c-0.5-0.8-1.4-1.4-2.4-1.4C54.2,64,37.4,64,37.4,64z M83.7,45.8v15.4   H72.4l-5.6,1.7V45.8H83.7z M89.3,71c0,0.8-0.6,1.4-1.4,1.4h-8.4v2.8h8.4h2.8c0.8,0,1.4,0.6,1.4,1.4S91.5,78,90.7,78h-2.8h-8.4v2.8   h8.4c0.8,0,1.4,0.6,1.4,1.4s-0.6,1.4-1.4,1.4H75.3v2.8h4.2v1.4c0,0.8-0.6,1.4-1.4,1.4h-5.3l-5.2-2.6l-5.9-4.4H57v-14h1.4L72.7,64   h12.4c0.8,0,1.4,0.6,1.4,1.4s-0.6,1.4-1.4,1.4h-5.6v2.8h5.6h2.8C88.7,69.6,89.3,70.3,89.3,71z M82.3,41.2V43H68.2v-4.7l-4.4-5.9   l-2.6-5.2v-5.3c0-0.8,0.6-1.4,1.4-1.4H64v4.2h2.8V12.1c0-0.8,0.6-1.4,1.4-1.4s1.4,0.6,1.4,1.4v8.4h2.8v-8.4V9.3   c0-0.8,0.6-1.4,1.4-1.4s1.4,0.6,1.4,1.4v2.8v8.4H78v-8.4c0-0.8,0.6-1.4,1.4-1.4s1.4,0.6,1.4,1.4v2.8v5.6h2.8v-5.6   c0-0.8,0.6-1.4,1.4-1.4s1.4,0.6,1.4,1.4v12.4L82.3,41.2z"></path><rect x="78.1" y="48.6" width="2.8" height="2.8"></rect><rect x="48.6" y="69.6" width="2.8" height="2.8"></rect></g></svg>