<svg fill="#FFFFFF" xmlns="http://www.w3.org/2000/svg" xmlns:xlink="http://www.w3.org/1999/xlink" version="1.1" x="0px" y="0px" viewBox="0 0 100.6 100.6" style="enable-background:new 0 0 100.6 100.6;" xml:space="preserve"><circle cx="66.5" cy="28.3" r="7"></circle><circle cx="33.9" cy="28.3" r="7"></circle><path d="M45.5,35.6l-3.1,3c-0.5-0.8-1.4-1.3-2.4-1.3H27.8c-1,0-1.9,0.5-2.4,1.3l-8.4-8.2c-1.3-1.1-3-1.1-4.1,0c-1.1,1.1-1.1,3,0,4.1  l11.7,11.7v12.4v0.2v17.6c0,1.3,0.8,2.5,1.9,2.9c1.9,0.6,4-0.8,4-2.7V64.8c0-1.7,1.4-3,3-3H34c1.7,0,3,1.4,3,3v11.6  c0,1.3,0.8,2.5,1.9,2.9c1.9,0.6,4-0.8,4-2.7V58.7V46.4l6.7-6.7L45.5,35.6z"></path><path d="M54.9,30.4c-1.1-1.3-2.9-1.3-4.1,0L46,35.1l4.1,4.1l4.5-4.5C55.9,33.5,55.9,31.6,54.9,30.4z"></path><path d="M54.2,35l-4.6-4.5c-1.3-1.1-3-1.1-4.1,0c-1.1,1.1-1.1,3,0,4.1l4.5,4.5L54.2,35z"></path><path d="M87.5,34.6c1.3-1.1,1.3-2.9,0-4.1c-1.3-1.3-2.9-1.3-4.1,0L75,38.8c-0.5-0.8-1.4-1.3-2.4-1.3H60.4c-1,0-1.9,0.5-2.4,1.3  l-3.3-3.3l-4.2,4.2l6.7,6.7v4.8L51.9,61c-0.2,0.5,0.2,0.8,0.5,0.8h7.1v14.7c0,1.6,1.3,2.9,2.9,2.9s2.9-1.3,2.9-2.9V61.7h1.3h1.3  v14.7c0,1.6,1.3,2.9,2.9,2.9s2.9-1.3,2.9-2.9V61.7h7.1c0.5,0,0.8-0.5,0.5-0.8l-5.4-9.8v-4.8L87.5,34.6z"></path></svg>