<svg fill="#FFFFFF" xmlns="http://www.w3.org/2000/svg" xmlns:xlink="http://www.w3.org/1999/xlink" xml:space="preserve" version="1.1" style="shape-rendering:geometricPrecision;text-rendering:geometricPrecision;image-rendering:optimizeQuality;" viewBox="0 0 0.431 1.224" x="0px" y="0px" fill-rule="evenodd" clip-rule="evenodd"><defs><style type="text/css">
   
    .fil0 {fill:#FFFFFF;fill-rule:nonzero}
   
  </style></defs><g><path class="fil0" d="M0 0.025c0,-0.014 0.011,-0.025 0.025,-0.025 0.014,0 0.026,0.011 0.026,0.025l0 0.076 0.33 0 0 -0.076c0,-0.014 0.011,-0.025 0.025,-0.025 0.014,0 0.025,0.011 0.025,0.025l0 0.102c0,0.059 -0.026,0.11 -0.066,0.154 -0.029,0.032 -0.065,0.06 -0.102,0.085 0.043,0.029 0.084,0.064 0.114,0.104 0.033,0.042 0.054,0.09 0.054,0.142 0,0.052 -0.021,0.1 -0.054,0.143 -0.03,0.039 -0.071,0.075 -0.114,0.104 0.037,0.024 0.073,0.052 0.102,0.084 0.04,0.044 0.066,0.095 0.066,0.154l0 0.102c0,0.014 -0.011,0.025 -0.025,0.025 -0.014,0 -0.025,-0.011 -0.025,-0.025l0 -0.076 -0.33 0 0 0.076c0,0.014 -0.012,0.025 -0.026,0.025 -0.014,0 -0.025,-0.011 -0.025,-0.025l0 -0.102c0,-0.059 0.027,-0.11 0.066,-0.154 0.029,-0.032 0.065,-0.06 0.102,-0.084 -0.042,-0.029 -0.083,-0.065 -0.114,-0.104 -0.033,-0.043 -0.054,-0.091 -0.054,-0.143 0,-0.052 0.021,-0.1 0.054,-0.142 0.031,-0.04 0.072,-0.075 0.114,-0.104 -0.037,-0.025 -0.073,-0.053 -0.102,-0.085 -0.039,-0.044 -0.066,-0.095 -0.066,-0.154l0 -0.102zm0.053 0.127c0.003,0.019 0.01,0.037 0.02,0.054l0.285 0c0.01,-0.017 0.017,-0.035 0.02,-0.054l-0.325 0zm0.06 0.105c0.029,0.029 0.066,0.056 0.103,0.079 0.037,-0.023 0.073,-0.05 0.102,-0.079l-0.205 0zm0.265 0.815c-0.003,-0.019 -0.01,-0.037 -0.02,-0.054l-0.285 0c-0.01,0.017 -0.017,0.035 -0.02,0.054l0.325 0zm-0.06 -0.105c-0.029,-0.029 -0.065,-0.055 -0.102,-0.078 -0.037,0.023 -0.074,0.049 -0.103,0.078l0.205 0zm-0.102 -0.138c0.038,-0.024 0.076,-0.054 0.106,-0.087l-0.212 0c0.029,0.033 0.067,0.063 0.106,0.087zm-0.143 -0.138l0.285 0c0.01,-0.017 0.017,-0.035 0.02,-0.053l-0.325 0c0.003,0.018 0.01,0.036 0.02,0.053zm-0.02 -0.104l0.325 0c-0.003,-0.019 -0.01,-0.037 -0.02,-0.054l-0.285 0c-0.01,0.017 -0.017,0.035 -0.02,0.054zm0.057 -0.105l0.212 0c-0.03,-0.033 -0.068,-0.062 -0.106,-0.087 -0.039,0.025 -0.077,0.054 -0.106,0.087z"></path></g></svg>