<svg fill="#FFFFFF" xmlns="http://www.w3.org/2000/svg" xmlns:xlink="http://www.w3.org/1999/xlink" version="1.1" x="0px" y="0px" viewBox="0 0 64 64" style="enable-background:new 0 0 64 64;" xml:space="preserve"><g><path d="M63,18H37v5.653c-3.29-0.854-6.71-0.854-10,0V1H1v22h15.697l4.644,3.096C15.543,29.748,12,36.081,12,43   c0,11.028,8.972,20,20,20s20-8.972,20-20c0-0.993-0.081-1.998-0.234-3H63V18z M42.975,44h6.974   c-0.169,3.062-1.102,5.917-2.619,8.386c-1.099-0.622-2.915-1.475-5.501-2.173C42.454,48.336,42.877,46.263,42.975,44z    M39.834,49.747c-1.937-0.391-4.212-0.666-6.834-0.725V44h4v2.869l3.937-2.624C40.814,46.239,40.416,48.076,39.834,49.747z M37,42   h-4v-5.018c1.358-0.031,2.696-0.125,4-0.283V42z M37,34.665c-1.302,0.167-2.638,0.265-4,0.298v-8.857   c1.089,0.982,2.59,2.515,4,4.551V34.665z M31,26.115v8.863c-2.312-0.055-4.339-0.287-6.077-0.62   C26.71,30.441,29.334,27.626,31,26.115z M31,36.978V42h-7.949c0.103-2.089,0.509-4.008,1.115-5.747   C26.103,36.644,28.378,36.919,31,36.978z M21.025,42h-6.99c0.167-3.024,1.08-5.898,2.614-8.398c1.097,0.623,2.92,1.483,5.523,2.185   C21.546,37.664,21.123,39.737,21.025,42z M21.025,44c0.098,2.263,0.521,4.336,1.146,6.213c-2.586,0.698-4.401,1.551-5.501,2.173   c-1.517-2.469-2.45-5.323-2.619-8.386H21.025z M23.051,44H31v5.022c-2.622,0.058-4.897,0.333-6.834,0.725   C23.56,48.008,23.154,46.089,23.051,44z M31,51.022v8.863c-1.667-1.511-4.292-4.329-6.08-8.248   C26.656,51.306,28.684,51.076,31,51.022z M33,59.885v-8.863c2.312,0.055,4.339,0.287,6.077,0.62   C37.29,55.559,34.666,58.374,33,59.885z M37,27.372c-0.69-0.816-1.359-1.518-1.961-2.1c0.659,0.114,1.312,0.273,1.961,0.461V27.372   z M28.94,25.276c-0.598,0.575-1.259,1.261-1.94,2.063v-1.606C27.642,25.547,28.289,25.39,28.94,25.276z M3,21V3h22v23.131   L17.303,21H3z M23.188,27.327L25.696,29c-1.014,1.395-2,3.03-2.806,4.897c-2.389-0.63-4.072-1.396-5.087-1.95   C19.249,30.096,21.067,28.521,23.188,27.327z M17.814,54.04c1.012-0.555,2.687-1.318,5.073-1.945   c1.693,3.928,4.187,6.833,6.048,8.623C24.437,59.943,20.512,57.499,17.814,54.04z M35.064,60.719   c1.86-1.79,4.352-4.692,6.045-8.616c2.378,0.627,4.056,1.389,5.073,1.942C43.484,57.502,39.561,59.943,35.064,60.719z M49.946,42   h-5.643l3-2h2.417C49.833,40.668,49.908,41.334,49.946,42z M61,38H46.697L39,43.131V20h22V38z"></path><rect x="5" y="5" width="18" height="2"></rect><rect x="5" y="9" width="18" height="2"></rect><rect x="5" y="13" width="18" height="2"></rect><rect x="5" y="17" width="14" height="2"></rect><rect x="21" y="17" width="2" height="2"></rect><rect x="41" y="22" width="18" height="2"></rect><rect x="41" y="26" width="18" height="2"></rect><rect x="41" y="30" width="18" height="2"></rect><rect x="53" y="34" width="2" height="2"></rect><rect x="41" y="34" width="10" height="2"></rect><rect x="57" y="34" width="2" height="2"></rect></g></svg>