<svg fill="#FFFFFF" xmlns:dc="http://purl.org/dc/elements/1.1/" xmlns:cc="http://creativecommons.org/ns#" xmlns:rdf="http://www.w3.org/1999/02/22-rdf-syntax-ns#" xmlns:svg="http://www.w3.org/2000/svg" xmlns="http://www.w3.org/2000/svg" xmlns:sodipodi="http://sodipodi.sourceforge.net/DTD/sodipodi-0.dtd" xmlns:inkscape="http://www.inkscape.org/namespaces/inkscape" version="1.1" x="0px" y="0px" viewBox="0 0 100 100"><g transform="translate(0,-952.36218)"><path style="text-indent:0;text-transform:none;direction:ltr;block-progression:tb;baseline-shift:baseline;color:#000000;enable-background:accumulate;" d="m 50.000001,973.36215 c -1.104599,0 -2,0.8954 -2,2 l 0,14 -22,0 c -11.5743,0 -20.9999995,9.4258 -20.9999995,21.00005 0,11.574 9.4256995,21 20.9999995,21 9.8413,0 18.055101,-6.8349 20.3125,-16 l 7.375,0 c 2.257501,9.1651 10.471201,16 20.3125,16 11.5743,0 20.999998,-9.426 20.999998,-21 0,-11.57424 -9.425697,-21.00005 -20.999998,-21.00005 l -22,0 0,-14 c 0,-1.1046 -0.8954,-2 -2,-2 z m -24,20 48,0 c 9.4125,0 16.999998,7.58755 16.999998,17.00005 0,9.4121 -7.587497,17 -16.999998,17 -8.4961,0 -15.493799,-6.2002 -16.7812,-14.3125 a 2.0002002,2.0002002 0 0 0 -1.9688,-1.6875 l -10.5,0 a 2.0002002,2.0002002 0 0 0 -1.9688,1.6875 c -1.2876,8.1123 -8.2851,14.3125 -16.7812,14.3125 -9.4125,0 -16.9999995,-7.5879 -16.9999995,-17 0,-9.4124 7.5874995,-17.00005 16.9999995,-17.00005 z m 0,7.00005 c -1.104599,0 -2,0.8954 -2,2 l 0,6 -6,0 c -1.1046,0 -2,0.8954 -2,2 0,1.1046 0.8954,2 2,2 l 6,0 0,6 c 0,1.1046 0.895401,1.9999 2,1.9999 1.1046,0 2,-0.8953 2,-1.9999 l 0,-6 6,0 c 1.1046,0 2,-0.8954 2,-2 0,-1.1046 -0.8954,-2 -2,-2 l -6,0 0,-6 c 0,-1.1046 -0.8954,-2 -2,-2 z m 48,0 c -1.656899,0 -3,1.3431 -3,3 0,1.6569 1.343101,3 3,3 1.6568,0 3,-1.3431 3,-3 0,-1.6569 -1.3432,-3 -3,-3 z m -7,7 c -1.6568,0 -3,1.3431 -3,3 0,1.6568 1.3432,3 3,3 1.6569,0 3,-1.3432 3,-3 0,-1.6569 -1.3431,-3 -3,-3 z m 14,0 c -1.656899,0 -3,1.3431 -3,3 0,1.6568 1.343101,3 3,3 1.6569,0 3,-1.3432 3,-3 0,-1.6569 -1.3431,-3 -3,-3 z m -7,7 c -1.656899,0 -3,1.3431 -3,3 0,1.6569 1.343101,2.9999 3,2.9999 1.6568,0 3,-1.343 3,-2.9999 0,-1.6569 -1.3432,-3 -3,-3 z" fill="#FFFFFF" fill-opacity="1" stroke="none" marker="none" visibility="visible" display="inline" overflow="visible"></path></g></svg>