<svg fill="#FFFFFF" xmlns="http://www.w3.org/2000/svg" xmlns:xlink="http://www.w3.org/1999/xlink" version="1.1" x="0px" y="0px" viewBox="0 0 100 100" style="enable-background:new 0 0 100 100;" xml:space="preserve"><g><path d="M71.2,81c-1,1-1.9,1.7-3.6,1.7l-6.4-36.1c1.3-0.5,2.3-1.8,2.3-3.3c0-1.6-1-2.9-2.4-3.3v-6.1c1.4-0.5,2.4-1.8,2.4-3.3   c0-1.9-1.6-3.5-3.5-3.5h-0.5c-0.2-3.4-2.2-6.3-5.1-7.7c0,0,0,0,0-0.1c0-2.2-1.8-4-4-4s-4,1.8-4,4c0,0,0,0,0,0.1   c-2.9,1.4-4.9,4.3-5.1,7.7h-0.5c-1.9,0-3.5,1.6-3.5,3.5c0,1.6,1,2.9,2.4,3.3V40c-1.4,0.5-2.4,1.8-2.4,3.3c0,1.5,1,2.8,2.3,3.3   l-6.4,36.1c-1.7,0-2.6-0.8-3.6-1.7c-0.2-0.2-0.4-0.3-0.5-0.5c-0.4-0.4-1-0.3-1.4,0.1C27,81,27,81.7,27.5,82   c0.2,0.2,0.3,0.3,0.5,0.5c1.1,1.1,2.4,2.3,5,2.3c0.3,0,0.6,0,0.9-0.1c0.1,0,0.1,0,0.2,0c1.8-0.3,2.9-1.3,3.9-2.2   c1-1,1.9-1.7,3.6-1.7c1.8,0,2.6,0.8,3.6,1.7c1.1,1.1,2.4,2.3,5,2.3c2.6,0,3.9-1.2,5-2.3c1-1,1.9-1.7,3.6-1.7c1.8,0,2.6,0.8,3.6,1.7   c1,0.9,2,1.9,3.8,2.2c0.1,0,0.1,0,0.2,0c0,0,0,0,0,0c0,0,0.1,0,0.1,0c0,0,0,0,0.1,0c0.2,0,0.5,0,0.7,0c2.6,0,3.9-1.2,5-2.3   c0.4-0.4,0.4-1,0.1-1.4C72.2,80.7,71.6,80.6,71.2,81z M50.3,17.2c0.9,0,1.6,0.6,1.9,1.4c-0.6-0.1-1.3-0.2-1.9-0.2   c-0.7,0-1.3,0.1-1.9,0.2C48.6,17.8,49.4,17.2,50.3,17.2z M39.9,55.1l18.8-8.3h0.5l1.5,8.3l-22.6,9.9L39.9,55.1z M59,34v5.8H41.5V34   H59z M39.1,30.5c0-0.8,0.7-1.5,1.5-1.5H60c0.8,0,1.5,0.7,1.5,1.5S60.8,32,60,32H40.6C39.7,32,39.1,31.4,39.1,30.5z M40.6,41.8H60   c0.8,0,1.5,0.7,1.5,1.5s-0.7,1.5-1.5,1.5h-1.5c0,0,0,0,0,0H40.6c-0.8,0-1.5-0.7-1.5-1.5S39.7,41.8,40.6,41.8z M53.9,81   c-1,1-1.9,1.7-3.6,1.7c-1.8,0-2.6-0.8-3.6-1.7c-1.1-1.1-2.4-2.3-5-2.3c-2.6,0-3.9,1.2-5,2.3c-0.5,0.5-1,0.9-1.5,1.2l0.4-2.5   l27.4-12l1.5,8.5l-5.2,2.3c-0.1,0-0.2,0.1-0.3,0.2c0,0,0,0,0,0C56.4,78.8,55.1,80,53.9,81z M62,79.5l2.8-1.2l0.7,3.9   c-0.6-0.3-1-0.7-1.6-1.2C63.3,80.5,62.8,80,62,79.5z"></path><path d="M79.8,35.1H71c-0.6,0-1,0.4-1,1s0.4,1,1,1h8.8c0.6,0,1-0.4,1-1S80.3,35.1,79.8,35.1z"></path><path d="M29.8,36.1c0-0.6-0.4-1-1-1h-8.5c-0.6,0-1,0.4-1,1s0.4,1,1,1h8.5C29.3,37.1,29.8,36.7,29.8,36.1z"></path><path d="M25.7,27.4l6,2.3c0.1,0,0.2,0.1,0.4,0.1c0.4,0,0.8-0.2,0.9-0.6c0.2-0.5-0.1-1.1-0.6-1.3l-6-2.3c-0.5-0.2-1.1,0.1-1.3,0.6   C24.9,26.6,25.1,27.2,25.7,27.4z"></path><path d="M67.7,29.9c0.1,0,0.3,0,0.4-0.1l5.8-2.6c0.5-0.2,0.7-0.8,0.5-1.3s-0.8-0.7-1.3-0.5L67.3,28c-0.5,0.2-0.7,0.8-0.5,1.3   C67,29.6,67.4,29.9,67.7,29.9z"></path><path d="M74.5,45l-6-2.3c-0.5-0.2-1.1,0.1-1.3,0.6s0.1,1.1,0.6,1.3l6,2.3c0.1,0,0.2,0.1,0.4,0.1c0.4,0,0.8-0.2,0.9-0.6   C75.3,45.8,75.1,45.2,74.5,45z"></path><path d="M33.4,43.1c-0.2-0.5-0.8-0.7-1.3-0.5l-5.8,2.6c-0.5,0.2-0.7,0.8-0.5,1.3c0.2,0.4,0.5,0.6,0.9,0.6c0.1,0,0.3,0,0.4-0.1   l5.8-2.6C33.4,44.2,33.6,43.6,33.4,43.1z"></path></g></svg>