<svg fill="#FFFFFF" xmlns="http://www.w3.org/2000/svg" data-name="Layer 1" viewBox="0 0 100 100" x="0px" y="0px"><title>Artboard 16</title><path d="M22.21,31.57V31.1a3.25,3.25,0,0,1,3.25-3.25H74.54a3.25,3.25,0,0,1,3.25,3.25v.47a3.25,3.25,0,0,1-3.25,3.25H25.46A3.25,3.25,0,0,1,22.21,31.57Zm3.25,17.18H74.54a3.25,3.25,0,0,0,3.25-3.25V45a3.25,3.25,0,0,0-3.25-3.25H25.46A3.25,3.25,0,0,0,22.21,45v.47A3.25,3.25,0,0,0,25.46,48.75Zm0,13.93H74.54a3.25,3.25,0,0,0,3.25-3.25V59a3.25,3.25,0,0,0-3.25-3.25H25.46A3.25,3.25,0,0,0,22.21,59v.47A3.25,3.25,0,0,0,25.46,62.68Zm-24,9.44V18.41A10.44,10.44,0,0,1,11.9,8H88.1A10.44,10.44,0,0,1,98.53,18.41v53.7A10.44,10.44,0,0,1,88.1,82.56h-22v4.9A4.57,4.57,0,0,1,61.53,92H38.47a4.57,4.57,0,0,1-4.57-4.57v-4.9h-22A10.44,10.44,0,0,1,1.47,72.12Zm11.8-2.67a1.3,1.3,0,0,0,1.3,1.3H85.43a1.3,1.3,0,0,0,1.3-1.3V21.08a1.3,1.3,0,0,0-1.3-1.3H14.57a1.3,1.3,0,0,0-1.3,1.3Z"></path></svg>