<?xml version="1.0" encoding="UTF-8"?>
<svg fill="#FFFFFF" width="100pt" height="100pt" version="1.1" viewBox="0 0 100 100" xmlns="http://www.w3.org/2000/svg">
 <path d="m49.742 5.5898c-24.688 0-44.699 15.137-44.699 33.812 0 2.7812 0.45703 5.4766 1.293 8.0586 2.043 6.3203 6.4219 11.941 12.422 16.309 0.09375 0.74609 0.13281 1.5078 0.13281 2.2773 0 9.8672-7.043 21.148-7.043 21.148 12.742-1.0664 26.328-15.066 26.328-15.066s-0.027343-0.027344-0.074219-0.070312c3.7109 0.75391 7.6133 1.1602 11.645 1.1602 16.293 0 30.543-6.5938 38.355-16.445 4.0234-5.0781 6.3438-11.016 6.3438-17.367-0.003906-18.68-20.016-33.816-44.703-33.816zm-9.3398 49.531c-2.6953 0-4.8828-2.1875-4.8828-4.8828 0-2.6992 2.1875-4.8828 4.8828-4.8828 2.6953 0 4.8828 2.1875 4.8828 4.8828 0 2.6953-2.1875 4.8828-4.8828 4.8828zm12.254-0.12109c0-4-2.0469-8.8633-5.2852-12.113-3.2305-3.25-8.3711-4.9609-12.371-4.9609v-7.0508c14 0 24.703 10.125 24.703 24.125zm12.453 0c0-16-14.109-29.57-30.109-29.57v-7.0508c21 0 37.16 15.621 37.16 36.621z"/>
</svg>
