<svg fill="#FFFFFF" xmlns="http://www.w3.org/2000/svg" xmlns:xlink="http://www.w3.org/1999/xlink" version="1.1" x="0px" y="0px" viewBox="0 0 100 100" style="enable-background:new 0 0 100 100;" xml:space="preserve"><path d="M93.4,26L72.7,37.6c-0.3,0.2-0.6,0.6-0.6,0.9v-5.7c0-5.3-4.3-9.6-9.6-9.6H14.6c-5.3,0-9.6,4.3-9.6,9.6v34.2  c0,5.3,4.3,9.6,9.6,9.6h47.9c5.3,0,9.6-4.3,9.6-9.6v-6.3c0,0.4,0.2,0.8,0.6,0.9l20.7,11.7c0.7,0.4,1.6-0.1,1.6-0.9V26.9  C95,26.1,94.1,25.6,93.4,26z M50.5,51.1L29.4,64.5c-0.7,0.5-1.7-0.1-1.7-0.9l0.2-27.2c0-0.9,1-1.4,1.7-0.9l21,13.8  C51.2,49.7,51.2,50.7,50.5,51.1z"></path></svg>