<svg fill="#FFFFFF" xmlns="http://www.w3.org/2000/svg" xmlns:xlink="http://www.w3.org/1999/xlink" version="1.1" x="0px" y="0px" viewBox="0 0 100 100" enable-background="new 0 0 100 100" xml:space="preserve"><path fill-rule="evenodd" clip-rule="evenodd" d="M81.5,44l-3.7-2.4c6.1-9.2,3.4-21.5-5.9-27.4l2.4-3.7C85.7,17.7,88.9,32.8,81.5,44  z M70.1,39.8L67,37.4c3.4-5.1,1.9-12-3.3-15.2l1.8-3.7C72.8,23.1,74.8,32.6,70.1,39.8z M59.5,35.6c2.1-3.1,1.2-7.2-1.9-9.1l1.5-2.2  c4.4,2.7,5.7,8.4,2.7,12.8L59.5,35.6z M68.6,87.5c0.2,1.1,0.6,2.2-1.2,2.7c-0.7,0.2-1.3,0.2-1.8,0c-0.3-0.1-0.6-0.2-0.7-0.3  l-13.8-11l-14,11.1c-0.1,0.1-0.2,0.2-0.4,0.2c-0.5,0.3-1.2,0.5-2.1,0.2c-1.8-0.6-1.4-1.6-1.2-2.7l14.3-52.4  c-0.8-0.8-1.3-1.9-1.3-3.1c0-2.4,1.9-4.3,4.3-4.3c2.4,0,4.3,1.9,4.3,4.3c0,0.9-0.3,1.7-0.7,2.3L68.6,87.5z M55.9,58.4l-3.2,2.8  l5.1,4.5L55.9,58.4z M63.1,84.8L59.6,72l-6.2,4.9L63.1,84.8z M39,84.9l9.8-7.9l-6.2-5L39,84.9z M51.1,75l7.3-6l-7.4-6.5l-7.3,6.4  L51.1,75z M44.2,65.8l5.3-4.6l-3.2-2.8L44.2,65.8z M46.9,56.1l4.2,3.7l4.1-3.6l-0.1-0.3L51.1,52L47,55.9L46.9,56.1z M47.8,53  l2.2-2.1l-1.3-1.3L47.8,53z M51.1,40.8l-1.9,7.1l2,1.9l1.9-1.8L51.1,40.8z M53.5,49.7l-1.3,1.2l2.1,2L53.5,49.7z M41.2,35.9  l-2.3,1.4C36,33,37.3,27.2,41.6,24.5l1.5,2.2C40,28.7,39.1,32.8,41.2,35.9z M33.8,37.7l-3,2.4c-4.7-7.2-2.7-16.8,4.5-21.4l1.8,3.7  C31.9,25.7,30.4,32.6,33.8,37.7z M23.2,42l-3.7,2.4C12.1,33,15.3,18,26.5,10.7l2.4,3.7C19.7,20.4,17.1,32.7,23.2,42z"></path></svg>