<svg fill="#FFFFFF" xmlns="http://www.w3.org/2000/svg" xmlns:xlink="http://www.w3.org/1999/xlink" version="1.1" x="0px" y="0px" viewBox="0 0 100 100" style="enable-background:new 0 0 100 100;" xml:space="preserve"><style type="text/css">
	.st0{enable-background:new    ;}
</style><g class="st0"><path d="M3.3,106.7c0-0.3-0.3-0.5-0.6-0.5c-0.5,0-0.7,0.4-0.7,0.9c0,0.4,0.2,0.9,0.7,0.9c0.3,0,0.5-0.2,0.6-0.6h0.5   c-0.1,0.6-0.5,1.1-1.1,1.1c-0.8,0-1.3-0.6-1.3-1.3c0-0.8,0.5-1.4,1.3-1.4c0.6,0,1,0.3,1.1,0.9H3.3z"></path><path d="M4.2,106.6h0.5v0.3l0,0c0.1-0.2,0.3-0.4,0.6-0.4h0.1v0.5c0,0-0.1,0-0.2,0c-0.4,0-0.5,0.3-0.5,0.6v0.8H4.2V106.6z"></path><path d="M6,107.6c0,0.3,0.2,0.5,0.5,0.5c0.2,0,0.4-0.1,0.4-0.2h0.5c-0.1,0.4-0.5,0.6-0.9,0.6c-0.6,0-1-0.4-1-1s0.4-1,1-1   s0.9,0.5,0.9,1.1H6z M6.8,107.3c0-0.3-0.2-0.4-0.4-0.4c-0.3,0-0.4,0.3-0.4,0.4H6.8z"></path><path d="M7.6,107.1c0-0.5,0.5-0.6,0.9-0.6s0.8,0.1,0.8,0.5v1c0,0.2,0,0.3,0.1,0.4H8.8c0-0.1,0-0.1,0-0.2c-0.2,0.2-0.4,0.2-0.6,0.2   c-0.4,0-0.6-0.2-0.6-0.6s0.3-0.5,0.6-0.6c0.3,0,0.6,0,0.6-0.2s-0.2-0.3-0.3-0.3c-0.2,0-0.3,0.1-0.3,0.3L7.6,107.1L7.6,107.1z    M8.8,107.5c-0.1,0.1-0.3,0.1-0.4,0.1c-0.2,0-0.3,0.1-0.3,0.3c0,0.2,0.1,0.2,0.3,0.2c0.4,0,0.4-0.3,0.4-0.4V107.5z"></path><path d="M10.3,106.6h0.4v0.3h-0.4v0.9c0,0.2,0,0.2,0.2,0.2c0.1,0,0.1,0,0.2,0v0.4c-0.1,0-0.2,0-0.3,0c-0.3,0-0.6-0.1-0.6-0.4v-1.1   H9.5v-0.3h0.3V106h0.5V106.6z"></path><path d="M11.3,107.6c0,0.3,0.2,0.5,0.5,0.5c0.2,0,0.4-0.1,0.4-0.2h0.5c-0.1,0.4-0.5,0.6-0.9,0.6c-0.6,0-1-0.4-1-1s0.4-1,1-1   s0.9,0.5,0.9,1.1H11.3z M12.2,107.3c0-0.3-0.2-0.4-0.4-0.4c-0.3,0-0.4,0.3-0.4,0.4H12.2z"></path><path d="M14.3,108.2L14.3,108.2c-0.1,0.2-0.3,0.3-0.6,0.3c-0.6,0-0.8-0.5-0.8-1s0.3-1,0.8-1c0.2,0,0.4,0.1,0.6,0.3l0,0v-0.9h0.5   v2.5h-0.5V108.2z M13.9,106.9c-0.3,0-0.5,0.3-0.5,0.6c0,0.3,0.1,0.6,0.5,0.6c0.3,0,0.4-0.3,0.4-0.6   C14.3,107.2,14.2,106.9,13.9,106.9z"></path><path d="M16.2,105.9h0.5v0.9l0,0c0.1-0.2,0.4-0.3,0.6-0.3c0.4,0,0.8,0.3,0.8,1s-0.4,1-0.8,1c-0.3,0-0.5-0.1-0.6-0.3l0,0v0.2h-0.5   V105.9z M17.1,106.9c-0.3,0-0.4,0.3-0.4,0.6c0,0.3,0.1,0.6,0.4,0.6s0.4-0.3,0.4-0.6C17.6,107.2,17.4,106.9,17.1,106.9z"></path><path d="M19.3,108.7c-0.1,0.3-0.3,0.4-0.6,0.4c-0.1,0-0.2,0-0.3,0v-0.4c0.1,0,0.2,0,0.3,0c0.2,0,0.2-0.2,0.2-0.3l-0.7-1.7h0.5   l0.4,1.3l0,0l0.4-1.3H20L19.3,108.7z"></path><path d="M21.3,105.9h0.6v1h1v-1h0.6v2.5h-0.6v-1.1h-1v1.1h-0.6V105.9z"></path><path d="M24.8,106.5c0.6,0,1,0.4,1,1s-0.4,1-1,1s-1-0.4-1-1C23.9,106.9,24.2,106.5,24.8,106.5z M24.8,108.1c0.3,0,0.5-0.3,0.5-0.6   c0-0.3-0.1-0.6-0.5-0.6c-0.3,0-0.4,0.3-0.4,0.6C24.4,107.8,24.5,108.1,24.8,108.1z"></path><path d="M26.1,106.6h0.5v0.3l0,0c0.1-0.2,0.4-0.3,0.6-0.3c0.5,0,0.7,0.3,0.7,0.8v1h-0.5v-1c0-0.3-0.1-0.5-0.3-0.5   c-0.3,0-0.4,0.2-0.4,0.5v1h-0.5v-1.8H26.1z"></path><path d="M30,108.3c0,0.3-0.1,0.8-1,0.8c-0.4,0-0.8-0.2-0.8-0.6h0.5c0,0.2,0.2,0.3,0.4,0.3c0.3,0,0.4-0.2,0.4-0.5v-0.2l0,0   c-0.1,0.2-0.3,0.3-0.5,0.3c-0.6,0-0.8-0.4-0.8-0.9s0.3-0.9,0.8-0.9c0.2,0,0.4,0.1,0.6,0.3l0,0v-0.2H30V108.3z M29.6,107.5   c0-0.3-0.1-0.6-0.4-0.6s-0.4,0.3-0.4,0.5c0,0.3,0.1,0.6,0.4,0.6C29.4,108,29.6,107.7,29.6,107.5z"></path><path d="M31.4,106.5c0.6,0,1,0.4,1,1s-0.4,1-1,1c-0.6,0-1-0.4-1-1C30.4,106.9,30.8,106.5,31.4,106.5z M31.4,108.1   c0.3,0,0.5-0.3,0.5-0.6c0-0.3-0.1-0.6-0.5-0.6c-0.3,0-0.5,0.3-0.5,0.6C30.9,107.8,31,108.1,31.4,108.1z"></path><path d="M32.6,106.6h0.5v0.3l0,0c0.1-0.2,0.3-0.4,0.6-0.4h0.1v0.5c0,0-0.1,0-0.2,0c-0.4,0-0.5,0.3-0.5,0.6v0.8h-0.5   C32.6,108.4,32.6,106.6,32.6,106.6z"></path><path d="M34,107.1c0-0.5,0.5-0.6,0.9-0.6s0.8,0.1,0.8,0.5v1c0,0.2,0,0.3,0.1,0.4h-0.5c0-0.1,0-0.1,0-0.2c-0.2,0.2-0.4,0.2-0.6,0.2   c-0.4,0-0.6-0.2-0.6-0.6s0.3-0.5,0.6-0.6c0.3,0,0.6,0,0.6-0.2s-0.2-0.3-0.3-0.3c-0.2,0-0.3,0.1-0.3,0.3L34,107.1L34,107.1z    M35.2,107.5c-0.1,0.1-0.3,0.1-0.4,0.1c-0.2,0-0.3,0.1-0.3,0.3c0,0.2,0.1,0.2,0.3,0.2c0.4,0,0.4-0.3,0.4-0.4V107.5z"></path><path d="M36.1,106.6h0.5v0.3l0,0c0.1-0.2,0.3-0.3,0.6-0.3c0.2,0,0.4,0.1,0.5,0.3c0.1-0.2,0.3-0.3,0.6-0.3c0.4,0,0.7,0.2,0.7,0.7   v1.1h-0.5v-1c0-0.2,0-0.5-0.3-0.5s-0.3,0.2-0.3,0.5v1h-0.5v-1c0-0.2,0-0.5-0.3-0.5c-0.1,0-0.3,0.1-0.3,0.4v1.1h-0.5v-1.8H36.1z"></path></g><g class="st0"><path d="M1.6,110.5H1.3v-0.3h0.3v-0.1c0-0.3,0.2-0.6,0.6-0.6c0.1,0,0.2,0,0.3,0v0.4c-0.1,0-0.1,0-0.2,0c-0.1,0-0.2,0.1-0.2,0.2v0.1   h0.4v0.3H2.2v1.5H1.6V110.5z"></path><path d="M2.7,110.2h0.5v0.3l0,0c0.1-0.2,0.3-0.4,0.6-0.4h0.1v0.5c0,0-0.1,0-0.2,0c-0.4,0-0.5,0.3-0.5,0.6v0.8H2.7V110.2z"></path><path d="M5,110.1c0.6,0,1,0.4,1,1s-0.4,1-1,1s-1-0.4-1-1S4.4,110.1,5,110.1z M5,111.7c0.3,0,0.5-0.3,0.5-0.6c0-0.3-0.1-0.6-0.5-0.6   c-0.3,0-0.5,0.3-0.5,0.6S4.6,111.7,5,111.7z"></path><path d="M6.3,110.2h0.5v0.2l0,0c0.1-0.2,0.3-0.3,0.6-0.3c0.2,0,0.4,0.1,0.5,0.3c0.1-0.2,0.3-0.3,0.6-0.3c0.4,0,0.7,0.2,0.7,0.7v1.2   H8.6v-1.1c0-0.2,0-0.5-0.3-0.5C8,110.5,8,110.7,8,111v1H7.4v-1c0-0.2,0-0.5-0.3-0.5c-0.1,0-0.3,0.1-0.3,0.4v1.1H6.3V110.2z"></path><path d="M11.2,110.2h0.4v0.3h-0.4v0.9c0,0.2,0,0.2,0.2,0.2c0.1,0,0.1,0,0.2,0v0.4c-0.1,0-0.2,0-0.3,0c-0.3,0-0.6-0.1-0.6-0.4v-1.1   h-0.3v-0.3h0.3v-0.6h0.5C11.2,109.6,11.2,110.2,11.2,110.2z"></path><path d="M11.8,109.4h0.5v1l0,0c0.1-0.2,0.4-0.3,0.5-0.3c0.5,0,0.7,0.3,0.7,0.8v1.1H13v-1.1c0-0.3-0.1-0.5-0.3-0.5   c-0.3,0-0.4,0.2-0.4,0.5v1h-0.5V109.4z"></path><path d="M14.3,111.2c0,0.3,0.2,0.5,0.5,0.5c0.2,0,0.4-0.1,0.4-0.2h0.5c-0.1,0.4-0.5,0.6-0.9,0.6c-0.6,0-1-0.4-1-1s0.4-1,1-1   s0.9,0.5,0.9,1.1H14.3z M15.2,110.9c0-0.3-0.2-0.4-0.4-0.4c-0.3,0-0.4,0.3-0.4,0.4H15.2z"></path><path d="M17,109.4h0.6l1.1,1.7l0,0v-1.7h0.5v2.6h-0.6l-1.1-1.7l0,0v1.7H17V109.4z"></path><path d="M20.6,110.1c0.6,0,1,0.4,1,1s-0.4,1-1,1s-1-0.4-1-1S20,110.1,20.6,110.1z M20.6,111.7c0.3,0,0.5-0.3,0.5-0.6   c0-0.3-0.1-0.6-0.5-0.6c-0.3,0-0.4,0.3-0.4,0.6C20.1,111.4,20.2,111.7,20.6,111.7z"></path><path d="M23.6,112h-0.5v-0.3l0,0c-0.1,0.2-0.4,0.3-0.6,0.3c-0.5,0-0.7-0.3-0.7-0.8v-1.1h0.5v1.1c0,0.3,0.1,0.5,0.3,0.5   c0.3,0,0.4-0.2,0.4-0.5v-1h0.5v1.8H23.6z"></path><path d="M24,110.2h0.5v0.2l0,0c0.1-0.2,0.4-0.3,0.6-0.3c0.5,0,0.7,0.3,0.7,0.8v1.1h-0.5v-1.1c0-0.3-0.1-0.5-0.3-0.5   c-0.3,0-0.4,0.2-0.4,0.5v1H24V110.2z"></path><path d="M27.2,109.4h1.2c0.6,0,0.9,0.4,0.9,0.8s-0.2,0.8-0.9,0.8h-0.6v0.9h-0.6V109.4z M27.7,110.7h0.4c0.3,0,0.5-0.1,0.5-0.4   s-0.2-0.4-0.5-0.4h-0.4V110.7z"></path><path d="M29.5,110.2H30v0.3l0,0c0.1-0.2,0.3-0.4,0.6-0.4h0.1v0.5c0,0-0.1,0-0.2,0c-0.4,0-0.5,0.3-0.5,0.6v0.8h-0.5V110.2z"></path><path d="M31.8,110.1c0.6,0,1,0.4,1,1s-0.4,1-1,1c-0.6,0-1-0.4-1-1S31.2,110.1,31.8,110.1z M31.8,111.7c0.3,0,0.5-0.3,0.5-0.6   c0-0.3-0.1-0.6-0.5-0.6c-0.3,0-0.5,0.3-0.5,0.6S31.4,111.7,31.8,111.7z"></path><path d="M32.8,112.2L32.8,112.2c0.2,0,0.3,0,0.3-0.2v-1.9h0.5v2c0,0.4-0.1,0.6-0.7,0.6c-0.1,0-0.1,0-0.2,0v-0.5H32.8z M33.6,109.9   h-0.5v-0.5h0.5V109.9z"></path><path d="M34.5,111.2c0,0.3,0.2,0.5,0.5,0.5c0.2,0,0.4-0.1,0.4-0.2h0.5c-0.1,0.4-0.5,0.6-0.9,0.6c-0.6,0-1-0.4-1-1s0.4-1,1-1   s0.9,0.5,0.9,1.1H34.5z M35.3,110.9c0-0.3-0.2-0.4-0.4-0.4c-0.3,0-0.4,0.3-0.4,0.4H35.3z"></path><path d="M37.4,110.8c0-0.2-0.2-0.3-0.4-0.3c-0.3,0-0.4,0.3-0.4,0.6c0,0.3,0.1,0.6,0.4,0.6c0.2,0,0.4-0.2,0.4-0.4h0.5   c-0.1,0.5-0.4,0.8-0.9,0.8c-0.6,0-0.9-0.4-0.9-1s0.3-1,1-1c0.4,0,0.8,0.2,0.9,0.7C38,110.8,37.4,110.8,37.4,110.8z"></path><path d="M38.8,110.2h0.4v0.3h-0.4v0.9c0,0.2,0,0.2,0.2,0.2c0.1,0,0.1,0,0.2,0v0.4c-0.1,0-0.2,0-0.3,0c-0.3,0-0.6-0.1-0.6-0.4v-1.1   H38v-0.3h0.3v-0.6h0.5V110.2z"></path></g><g><path d="M84.8,9.9c-4.5-3.5-16.6-9.5-34.7,5.9C31.8,0.1,19.7,6.2,15.2,9.6C3.3,18.8,1.6,40,11.2,57.9C23.1,80,47.3,93.5,48.3,94.1   c0.5,0.3,1,0.4,1.6,0.4H50h0.1c0.5,0,1.1-0.1,1.6-0.4c1-0.6,25.2-14.1,37.1-36.1C98.4,40.2,96.6,19.1,84.8,9.9z M83.1,54.8   C73.7,72.2,55.3,84.3,50,87.5c-5.3-3.2-23.7-15.2-33-32.6c-9-16.7-5.8-33.8,2.3-40c7-5.4,17.2-2.6,28.2,7.6c0,0,0.1,0,0.1,0.1   c0,0,0,0.1,0.1,0.1c1.2,1.3,3.3,1.4,4.6,0.2c11.1-10.3,21.4-13,28.5-7.6C88.8,21.3,92,38.3,83.1,54.8z"></path><path d="M70.8,39.7H60.1V29c0-1.8-1.5-3.3-3.3-3.3H43.3c-1.8,0-3.3,1.5-3.3,3.3v10.8H29.2c-1.8,0-3.3,1.5-3.3,3.3v13.5   c0,1.8,1.5,3.3,3.3,3.3H40v10.8c0,1.8,1.5,3.3,3.3,3.3h13.5c1.8,0,3.3-1.5,3.3-3.3V59.8h10.8c1.8,0,3.3-1.5,3.3-3.3V43   C74.1,41.2,72.7,39.7,70.8,39.7z"></path></g></svg>