<svg fill="#FFFFFF" xmlns="http://www.w3.org/2000/svg" xmlns:xlink="http://www.w3.org/1999/xlink" version="1.1" x="0px" y="0px" viewBox="0 0 100 100" style="enable-background:new 0 0 100 100;" xml:space="preserve"><style type="text/css">
	.st0{fill:none;stroke:#FFFFFF;stroke-width:2;stroke-linecap:round;stroke-linejoin:round;stroke-miterlimit:10;}
	.st1{fill:none;stroke:#FFFFFF;stroke-width:2;stroke-miterlimit:10;}
	.st2{fill:none;stroke:#FFFFFF;stroke-width:2;stroke-linecap:round;stroke-miterlimit:10;}
	.st3{fill:none;stroke:#FFFFFF;stroke-linecap:round;stroke-linejoin:round;stroke-miterlimit:10;}
</style><path d="M63.585,70.516c8.478-13.564,12.777-24.437,12.777-32.316c0-14.474-11.776-26.25-26.25-26.25s-26.25,11.776-26.25,26.25  c0,17.186,24.419,48.936,25.459,50.278c0.187,0.242,0.474,0.385,0.78,0.388c0.003,0,0.007,0,0.011,0c0.301,0,0.586-0.136,0.776-0.37  C50.952,88.417,57.312,80.551,63.585,70.516z M74.362,38.199c0,16.14-19.967,42.571-24.233,48.033  c-4.224-5.641-24.267-33.192-24.267-48.033c0-13.372,10.878-24.25,24.25-24.25S74.362,24.828,74.362,38.199z"></path><path d="M50.111,51.057c0.188,0,0.366-0.081,0.489-0.222l9.388-10.724c1.471-1.466,2.297-3.47,2.297-5.61  c0-2.138-0.833-4.149-2.346-5.663c-1.51-1.509-3.516-2.34-5.649-2.34c-1.462,0-2.93,0.415-4.178,1.174  c-1.257-0.77-2.693-1.174-4.182-1.174c-2.132,0-4.139,0.831-5.651,2.34c-3.122,3.124-3.121,8.204,0.001,11.324l9.341,10.672  C49.745,50.977,49.923,51.057,50.111,51.057z M50.111,48.17l-8.282-9.458c-0.01-0.011-0.02-0.021-0.03-0.031  c-2.304-2.303-2.312-6.045-0.019-8.341c1.108-1.109,2.582-1.72,4.15-1.72c1.288,0,2.513,0.41,3.542,1.184l0.252,0.187  c0.23,0.172,0.547,0.17,0.778-0.002l0.248-0.186c1.029-0.773,2.254-1.183,3.541-1.183c1.568,0,3.042,0.611,4.148,1.72  c1.113,1.113,1.726,2.591,1.726,4.162c0,1.572-0.613,3.049-1.725,4.159L50.111,48.17z"></path></svg>