<svg fill="#FFFFFF" xmlns:dc="http://purl.org/dc/elements/1.1/" xmlns:cc="http://creativecommons.org/ns#" xmlns:rdf="http://www.w3.org/1999/02/22-rdf-syntax-ns#" xmlns:svg="http://www.w3.org/2000/svg" xmlns="http://www.w3.org/2000/svg" xmlns:sodipodi="http://sodipodi.sourceforge.net/DTD/sodipodi-0.dtd" xmlns:inkscape="http://www.inkscape.org/namespaces/inkscape" version="1.1" x="0px" y="0px" viewBox="0 0 100 100"><g transform="translate(0,-952.36218)"><path style="text-indent:0;text-transform:none;direction:ltr;block-progression:tb;baseline-shift:baseline;color:#000000;enable-background:accumulate;" d="m 2.9999998,958.36614 c 0,23.5338 0,47.79396 0,67.99736 10.6666702,0 21.3333302,0 32.0000002,0 l 0,7.0309 c -2.66676,0.011 -5.33338,0.034 -8,0.062 0,4.7582 0,8.3889 0,12.9058 16.51861,0 31.4033,0 46,0 0,-4.354 0,-8.7081 0,-13.0621 -2.66657,0.033 -5.3333,0.045 -8,0.062 l 0,-6.9997 c 10.66667,0 21.33333,0 32,0 0,-24.1352 0,-46.90326 0,-67.99736 -32.58983,0.01 -66.04745,-0.01 -94.0000001,0 z m 6,5.9997 82.0000002,0 0,48.99816 -82.0000001,0 z M 11,967.36574 c 0,13.9995 0,27.9989 0,41.99846 25,0 50,0 75,0 l 0,-2 -73,0 0,-39.99846 z m 63,1.0312 0,1.9999 16,0 0,-1.9999 z m -6.25,1.9997 c -2.75594,0.7223 -4.72781,2.71 -6.25,5.1248 -1.27924,2.0294 -2.29347,4.3828 -3.28125,6.7809 -2.66729,-1.9328 -5.31678,-4.0926 -7.875,-5.375 -3.08381,-1.3857 -5.75437,-1.8029 -8.71875,-1.1874 -3.04182,0.8251 -5.2575,2.8506 -6.96875,5.3122 -1.59341,2.2922 -2.78578,4.9841 -3.90625,7.656 -1.65974,-1.211 -3.31421,-2.3516 -5.03125,-3.2186 -2.53187,-1.2786 -5.22411,-1.9693 -7.96875,-1.2499 -0.50721,0.1309 -0.8496,0.7114 -0.7187,1.2186 0.1309,0.5072 0.71149,0.8496 1.2187,0.7187 0.94393,-0.2473 1.88581,-0.2875 2.84375,-0.1562 l 3.71875,13.5933 c -0.90208,0.85196 -1.91858,1.46226 -3.09375,1.78106 -0.50724,0.1391 -0.84221,0.7271 -0.70312,1.2343 0.13908,0.5072 0.72713,0.8422 1.23437,0.7031 2.73508,-0.742 4.69092,-2.715 6.21875,-5.12476 1.21304,-1.9133 2.17792,-4.1461 3.125,-6.406 2.71609,1.8511 5.4879,3.9807 8.09375,5.1874 2.7172,1.2315 5.63247,1.8318 8.6875,1.0311 3.06492,-0.8033 5.32405,-2.8157 7.03125,-5.281 1.49753,-2.1627 2.60968,-4.6907 3.65625,-7.2185 1.72091,1.3462 3.44768,2.6264 5.21875,3.5937 2.53204,1.3827 5.22205,2.1512 7.96875,1.4061 0.50724,-0.1391 0.84221,-0.7271 0.70312,-1.2343 -0.13908,-0.5072 -0.72713,-0.8422 -1.23437,-0.7031 -0.68551,0.186 -1.37222,0.2242 -2.0625,0.1875 l -4.0625,-15.0306 c 0.78877,-0.6531 1.6593,-1.145 2.65625,-1.4063 0.49819,-0.1084 0.86023,-0.6469 0.77253,-1.1492 -0.24584,-0.7702 -0.71625,-0.8337 -1.27253,-0.7879 z m -3.75,5.0312 3.5,12.9371 c -2.86423,-1.0332 -5.52843,-3.0791 -7.65625,-4.7498 1.29723,-2.9834 2.41099,-5.7864 4.15625,-8.1873 z m 10,0.9688 0,1.9999 12,0 0,-1.9999 z m -24.375,2.4064 3.65625,13.437 c -1.25399,1.6441 -2.71423,2.9065 -4.5625,3.5936 l -5,-18.4056 c 2.07917,-0.114 4.29518,0.5935 5.90625,1.375 z m -7.875,-1.0003 5,18.4993 c -1.95486,0.2578 -3.85849,-0.1599 -5.78125,-0.9687 l -3.875,-14.1869 c 1.28198,-1.5717 2.7677,-2.7351 4.65625,-3.3437 z m 10.28125,2.4062 c 2.02619,1.367 3.72081,2.7004 5.40625,4.0312 -0.84702,2.0516 -1.73888,4.0461 -2.75,5.8121 z m -16.40625,3.1249 2.875,10.7809 c -2.29738,-1.3851 -4.19122,-2.7814 -6.09375,-4.1875 0.97984,-2.3468 2.02206,-4.6197 3.21875,-6.5934 z m 38.375,1.0625 0,1.9999 16,0 0,-1.9999 z m -50.6875,2.1874 c 2.42695,0.9932 4.79309,2.6701 6.65625,4.0311 -1.17148,2.5984 -2.19924,5.0958 -3.65625,7.2184 z m 50.6875,5.8122 0,2 16,0 0,-2 z m -65.0000001,26.96786 82.0000001,0 0,0.9999 -82.0000001,0 z M 41,1026.3635 l 18,0 0,7.9997 -18,0 z" fill="#FFFFFF" fill-opacity="1" stroke="none" marker="none" visibility="visible" display="inline" overflow="visible"></path></g></svg>