<?xml version="1.0" encoding="UTF-8"?>
<svg fill="#FFFFFF" width="100pt" height="100pt" version="1.1" viewBox="0 0 100 100" xmlns="http://www.w3.org/2000/svg">
 <path d="m53.602 58l2-3.3008c-3.8984-2.3008-8.6992-1.8984-12.102 0.5-1.3008 0.89844-2.3984 2.1992-3.3008 3.6992-1.3984 2.6016-1.6992 5.5-0.89844 8.1992 0.10156 0.30078-0.10156 0.69922-0.5 0.69922l-3.1016 0.30078c-0.30078 0-0.5-0.19922-0.60156-0.39844-0.69922-3.1992-0.5-6.6992 1-9.8008 0.89844-1.8984 2.1992-3.6016 3.6016-4.8984 4.8984-4.3984 12.301-5.3008 18.199-1.8008l2-3.3008c0.10156-0.10156 0.30078-0.19922 0.39844-0.19922 0.19922 0 0.30078 0.10156 0.30078 0.30078l3.6992 9c0.19922 0.39844-0.10156 0.89844-0.60156 0.89844l-9.6953 0.80078c-0.19922 0-0.30078-0.10156-0.39844-0.19922-0.10156-0.10156-0.10156-0.30078 0-0.5zm11.398 3.8984c-0.10156-0.30078-0.30078-0.5-0.60156-0.39844l-3.1016 0.30078c-0.39844 0-0.60156 0.39844-0.5 0.69922 0.69922 2.6992 0.5 5.6016-0.89844 8.1992-0.80078 1.5-2 2.8008-3.3008 3.6992-3.5 2.5-8.1992 2.8984-12.102 0.5l2-3.3008c0.10156-0.10156 0.10156-0.30078 0-0.5-0.19531-0.097656-0.29688-0.097656-0.49609-0.097656l-9.6992 0.80078c-0.39844 0-0.69922 0.5-0.60156 0.89844l3.6992 9c0.10156 0.10156 0.19922 0.19922 0.30078 0.30078 0.19922 0 0.30078-0.10156 0.39844-0.19922l2-3.3008c5.8984 3.5 13.301 2.6016 18.199-1.8008 1.5-1.3008 2.6992-3 3.6016-4.8984 1.5-3.1992 1.8008-6.6016 1.1016-9.9023zm2.3008-26.398c0-1-0.39844-2-1.1992-2.6016-4.3984-3.6016-9.1992-6-10.102-6.5-0.10156-0.10156-0.19922-0.19922-0.19922-0.30078v-3.3984c0.5-0.89844 0.89844-1.8008 1-2.6992 0.39844 0 0.89844-0.60156 1.3984-2.3984 0.69922-2.6016 0-3-0.69922-2.8984 0.10156-0.39844 0.19922-0.69922 0.30078-1.1016 1.1016-6.6992-2.1992-6.8984-2.1992-6.8984s-0.5-1-2-1.8008c-1-0.60156-2.3008-1-4.1016-0.89844-0.60156 0-1.1016 0.10156-1.6016 0.30078-0.60156 0.19922-1.1992 0.5-1.8008 0.89844-0.69922 0.39844-1.3008 0.89844-1.8008 1.5-0.89844 0.89844-1.6016 2-2 3.5-0.30078 1.1016-0.19922 2.1992 0 3.3984 0.10156 0.39844 0.19922 0.69922 0.30078 1.1016-0.69922-0.10156-1.3984 0.30078-0.69922 2.8984 0.5 1.8984 1 2.3984 1.3984 2.3984 0.10156 0.89844 0.5 1.8008 1 2.6992v3.3984c0 0.10156-0.10156 0.19922-0.19922 0.30078-1 0.5-5.6992 2.8984-10.102 6.5-0.80078 0.60156-1.1992 1.6016-1.1992 2.6016v4.8984h34.5zm20.598 46.5c-0.10156-0.10156-0.19922-0.19922-0.19922-0.30078v-3.3984c0.5-0.89844 0.89844-1.8008 1-2.6992 0.39844 0 0.89844-0.60156 1.3984-2.3984 0.69922-2.6016 0-3-0.69922-2.8984 0.10156-0.39844 0.19922-0.69922 0.30078-1.1016 1.1016-6.6992-2.1992-6.8984-2.1992-6.8984s-0.5-1-2-1.8008c-1-0.60156-2.3008-1-4.1016-0.89844-0.60156 0-1.1016 0.10156-1.6016 0.30078-0.60156 0.19922-1.1992 0.5-1.8008 0.89844-0.69922 0.39844-1.3008 0.89844-1.8008 1.5-0.89844 0.89844-1.6016 2-2 3.5-0.30078 1.1016-0.19922 2.1992 0 3.3984 0.10156 0.39844 0.19922 0.69922 0.30078 1.1016-0.69922-0.10156-1.3984 0.30078-0.69922 2.8984 0.5 1.8984 1 2.3984 1.3984 2.3984 0.10156 0.89844 0.5 1.8008 1 2.6992v3.3984c0 0.10156-0.10156 0.19922-0.19922 0.30078-1 0.5-5.6992 2.8984-10.102 6.5-0.80078 0.60156-1.1992 1.6016-1.1992 2.6016l0.003907 4.8984h34.5v-4.8984c0-1-0.39844-2-1.1992-2.6016-4.3984-3.6016-9.1016-6-10.102-6.5zm-67.598 14h15v-4.8984c0-1-0.39844-2-1.1992-2.6016-4.3984-3.6016-9.1992-6-10.102-6.5-0.10156-0.10156-0.19922-0.19922-0.19922-0.30078v-3.3984c0.5-0.89844 0.89844-1.8008 1-2.6992 0.39844 0 0.89844-0.60156 1.3984-2.3984 0.69922-2.6016 0-3-0.69922-2.8984 0.10156-0.39844 0.19922-0.69922 0.30078-1.1016 1.1016-6.6992-2.1992-6.8984-2.1992-6.8984s-0.5-1-2-1.8008c-1-0.60156-2.3008-1-4.1016-0.89844-0.60156 0-1.1016 0.10156-1.6016 0.30078-0.60156 0.19922-1.1992 0.5-1.8008 0.89844-0.69922 0.39844-1.3008 0.89844-1.8008 1.5-0.89844 0.89844-1.6016 2-2 3.5-0.30078 1.1016-0.19922 2.1992 0 3.3984 0.10156 0.39844 0.19922 0.69922 0.30078 1.1016-0.69922-0.10156-1.3984 0.30078-0.69922 2.8984 0.5 1.8984 1 2.3984 1.3984 2.3984 0.10156 0.89844 0.5 1.8008 1 2.6992v3.3984c0 0.10156-0.10156 0.19922-0.19922 0.30078-1 0.5-5.6992 2.8984-10.102 6.5-0.80078 0.60156-1.1992 1.6016-1.1992 2.6016l0.003906 4.8984z"/>
</svg>
