<svg fill="#FFFFFF" xmlns="http://www.w3.org/2000/svg" xmlns:xlink="http://www.w3.org/1999/xlink" version="1.1" x="0px" y="0px" viewBox="0 0 100 100" style="enable-background:new 0 0 100 100;" xml:space="preserve"><path d="M28.518,84.702l0.325,0.174l-0.058,0.209l-0.383,0.058L28.518,84.702z M29.19,85.597h-0.162v0.183h0.162V85.597z   M28.808,86.187l0.273,0.255v0.266l0.226,0.046l0.046-0.232l-0.26-0.335l-0.285-0.059V86.187z M28.113,85.27l-0.059,0.325  l0.243-0.161L28.113,85.27z M28.576,85.722l-0.278,0.047v0.417l0.383-0.208L28.576,85.722z M28.17,80.285h-0.301l-0.162,0.267  l0.406,0.104L28.17,80.285z M46.358,11.123L45.86,11.29l-0.443,1.023l0.94-0.11V11.123z M28.356,83.96l-0.139-0.255l0.185-0.336  l-0.128-0.371l-0.451,0.649l0.225,0.209l-0.111,0.302l0.059,0.637l0.359-0.522V83.96z M29.596,87.531l0.209-0.093v-0.313h-0.452  l-0.359-0.139l-0.314-0.16l-0.116-0.119l0.244,0.498l0.545,0.185L29.306,87.6l0.348,0.452l0.255,0.127l-0.104-0.417L29.596,87.531z   M28.17,82.847l-0.232-0.174l-0.093,0.232L28.17,82.847z M28.46,82.372l0.046,0.267l0.174-0.197l-0.174-0.811l-0.614,0.186  l-0.139,0.707h0.417L28.46,82.372z M34.373,89.965L34.639,90l0.209-0.126l-0.209-0.126L34.373,89.965z M78.418,29.96l-0.472-1.342  l-1.569,0.076l-1.569-0.983l-1.191-0.87l-1.266-0.529l-2.117,0.302l-1.663-0.473l-0.775,0.435l-0.718,0.114l-0.038-1.059  l-0.756-0.378l-2.287-0.681l-1.21,0.189l-0.51,0.87l-0.945,0.794l-0.794-0.245l1.191-0.303l0.491-0.87l0.151-0.983l-2.76,0.208  l-0.189,1.304l-0.265-0.246l-0.869,0.718l-0.832,0.227l0.851-0.624l0.151-0.813l2.041-2.212v-0.907l-0.907-0.151l-0.983-2.816  l-0.661-0.075l-1.361-1.191l-1.285-0.303l-0.926-0.359l-3.081,0.302l-1.021-0.869l-0.548-0.057l-0.057-0.718l-0.567-0.378  l-0.548,0.265l-0.87-1.248l-1.607,0.208l0.284-0.718l0.378-0.454l-0.605-0.246l-2.117-0.681l0.775-0.567l-2.098,0.227l-1.229,0.793  l-0.907-0.151l-0.567-0.548l-2.571,0.321l-0.17-0.869l-1.663-0.378l-0.132-0.693l-0.548,0.088l0.302,0.87l-1.266,0.302l-0.454,0.397  l-0.586-0.87l0.794-0.397L33.716,10l-1.248,0.586l-0.945,0.718l-1.455,0.17l-0.17,0.756l-0.208-0.51l-0.643,0.283l-0.643,0.851  l0.076,0.832l-0.586,0.283l-0.756,0.907l-0.057,0.794l-0.832,1.871l-0.095,0.189l0.265,0.832l-0.265,0.265l0.189,1.814l0.321,0.302  l-1.134,1.512l-0.87,0.284l0.038,0.624h-0.435l0.189,0.662l-1.644,0.51l0.113,0.945l-0.378,0.529l-0.113,0.453l-0.321,0.321  l-0.17,1.512l0.699,0.586l0.491-0.454l-0.113,1.229l-0.51,0.132l-1.191,1.286l0.094,0.794l0.548,0.737l-0.378,0.302l1.38,0.907  l0.737,1.437l0.794,0.85l1.569,3.364l1.607,2.438l0.17,1.191l1.455,1.55l2.514,1.115l1.72,1.021l1.418,1.21l0.189,3.402  l-0.643,3.119l-0.359,3.308l-0.624,2.117l-0.284,0.567l0.094,1.248l-0.397,0.586l0.095,2.003l-0.624,2.268l-1.531,3.081  l-0.567,0.397l0.076,1.361l0.359,0.907l-0.51,0.605l-0.265,0.435l-0.094,1.077l0.17,0.491l-0.529,0.397l-0.038,0.907l-0.208,0.605  l0.51,0.076l0.34-0.586l-0.076-0.681l0.34-0.643l0.548-0.264l0.34,0.302l-0.87,2.741l0.227,0.397l-0.888,1.795L29.18,79.35  l-1.096,0.661l0.51,0.51l0.718,0.208l-0.265,0.34l-0.416,0.51l0.397,0.945l-0.605,0.359l0.227,0.775l0.302,0.378l-0.189,0.604  l0.529,0.492l0.246,0.87l-0.038,0.756l0.473,0.302l0.094,0.662l0.813-0.227l0.265,0.643l0.491-0.094l0.586,0.907l0.869,0.17h1.248  l1.021,0.321l1.38-0.492l-1.153-0.378l-1.418-1.115l0.019-0.643l-0.964-0.34l0.491-0.226l0.586,0.226l-0.491-0.85l0.019-0.51  l-0.227-0.038l0.605-0.832l0.926-0.227l0.284-0.794l0.737-0.662l0.832-0.491l0.567-0.832v-0.378l-1.04-0.095l-0.529-0.699  l0.019-0.605l1.021-0.832l1.266-0.321l0.321-0.624l0.076-0.624l0.888-0.586l-0.416-0.246l0.416-0.321l0.076-0.322l-0.529-0.113  v-1.248l0.529-0.246l1.077,0.378l0.983,0.038L42.298,74l-0.189-0.643l0.51-0.813l-0.189-0.699l1.266,0.17l2.93-0.435l1.247-0.68  l1.229-1.55l-0.076-0.416l-0.51-0.133l-0.17-0.51l0.51-0.529l-0.68-0.51l-0.775-0.265l0.303-0.624l0.548,0.491h0.68l2.892,0.303  l1.72-1.342l1.38-1.814l0.87-1.304l0.756-0.964l0.548,0.132l-0.737,0.888l-1.021,0.945l1.077-0.68l1.134-1.247l0.756-1.172  l1.418-1.058l0.416-1.493l0.265-1.89l1.323-1.21l2.249-1.342l1.38-0.472l0.378-0.586l1.455-0.227l1.418-0.057l0.246-0.737  l1.021-0.435l0.095-0.945l1.153-1.625l0.567-0.643l0.265-1.437l0.643-0.888l0.302-1.455l0.265-0.699l0.151-3.383l0.378-1.04  l0.454-0.019l0.151,0.265l1.039-1.55l0.284-0.926l1.002-1.077l1.474-1.569l0.586-1.89L78.418,29.96z M43.219,85.493l-0.383,0.397  l-0.638,0.425v0.255l0.482-0.057l1.361-0.61l-0.099-0.312L43.219,85.493z M29.156,78.267l0.267,0.568h0.336l0.07-0.104l-0.232-0.239  l0.07-0.237l-0.209-0.127L29.156,78.267z M29.724,77.34l-0.116-0.069l-0.116,0.452l0.232,0.128V77.34z M42.383,85.493h-0.624  l-0.298,0.723h-0.454l0.454,0.227l0.595-0.283l0.624-0.482L42.383,85.493z M40.054,75.553l-0.27,0.489l0.186,0.395l0.432-0.116  l0.237-0.688l-0.172-0.186L40.054,75.553z M30.118,88.284l0.348-0.104l0-0.348l-0.348,0.093V88.284z M33.573,89.443l-0.116-0.139  l-0.417-0.058h-0.522l0.058,0.197l0.522,0.302l0.07-0.302l0.197,0.244l0.661,0.061l-0.128-0.25L33.573,89.443z M31.463,88.632  l-0.139-0.347l-0.614-0.279v0.279l0.278,0.138h0.22v0.186l-0.348,0.046l0.151,0.212h0.742l0.22,0.241h-0.359l0.197,0.174  l0.406,0.081l-0.232-0.568L31.463,88.632z M37.123,89.108l0.425-0.121l0.425-0.12h-0.567L37.123,89.108z"></path></svg>