<svg fill="#FFFFFF" xmlns="http://www.w3.org/2000/svg" xmlns:xlink="http://www.w3.org/1999/xlink" version="1.1" x="0px" y="0px" viewBox="0 0 100 100" enable-background="new 0 0 100 100" xml:space="preserve"><path fill="#FFFFFF" d="M95.987,50.098c0-0.018,0.004-0.037,0.002-0.061c-0.006-0.16-0.043-0.309-0.086-0.457  c-0.016-0.047-0.02-0.092-0.035-0.133c-0.055-0.133-0.148-0.24-0.248-0.348c-0.039-0.043-0.059-0.094-0.105-0.131  c-0.162-0.135-0.369-0.246-0.643-0.318c-2.176-0.592-3.795,4.584-7.018,3.033c-0.756-0.367-3.252-2.605-3.568-3.371l0.51-1.395  c-1.568-1.558-6.273-0.295-7.709-1.965c-0.342-0.402,0.738-0.832,0.842-1.353c1.15-5.818-0.734-3.149,3.982-7.753  c0.113-0.111,0.174-0.252,0.201-0.405c0.012-0.049,0-0.111,0-0.165c0.004-0.114,0.004-0.233-0.021-0.358  c-0.016-0.068-0.039-0.141-0.062-0.21c-0.037-0.134-0.08-0.263-0.137-0.405c-0.031-0.068-0.061-0.137-0.092-0.21  c-0.074-0.156-0.152-0.321-0.236-0.481c-0.023-0.045-0.049-0.092-0.072-0.137c-0.131-0.244-0.264-0.484-0.391-0.718  c-0.025-0.049-0.051-0.095-0.078-0.141c-0.074-0.142-0.15-0.283-0.211-0.413c-0.055-0.103-0.088-0.19-0.127-0.286  c-0.029-0.073-0.068-0.153-0.092-0.222c0-0.004-0.002-0.007-0.002-0.007l0.002-0.004c-0.049-0.149-0.076-0.286-0.061-0.394  l0.645,0.084c-2.236-0.928-3.695-3.803-5.951-4.681c-0.385-0.149-0.832-0.058-1.246-0.088c-0.414-0.027-0.826-0.058-1.242-0.088  c-1.246-0.084-2.494-0.176-3.742-0.263c-0.414-0.035-0.883,0.114-1.248-0.096l-0.848-1.745c-0.23-0.241-1.65,1.263-2.17-0.142  l0.594-1.863c-1.004-1.92-3.717-0.992-4.893-0.213c-0.607,0.405-1.516,0.542-1.812,1.203c-0.738,1.622,5.547,1.481,3.906,2.508  c-0.006,0.008-2.246-0.324-2.25-0.324c-0.443,0.199,0.203,1.191-0.211,1.436c-2.389,1.431-3.912-1.542-5.662-1.803  c-1.609-0.236-3.504,1.428-5.119,1.188c-1.057-0.165-1.369-1.188-2.43-1.348c-1.296-0.202-4.312,1.142-3.938-0.118  c0.131-0.435,0.947-0.378,1.114-0.806c0.206-0.527-1.243,0.581-1.685,0.229c-1.068,0.863-2.9,3.508-4.218,3.727  c-4.239,0.718-3.521-4.807-7.75-3.196l0.087,1.481c-0.009,0.02-1.848,1.188-1.924,1.638c-0.209,1.279,1.539,0.707,1.855,0.794  c0.355,0.095,0.813,0.278,0.898,0.63c0.061,0.286-0.405,0.423-0.604,0.637c-0.708,0.749-3.235,1.752-4.871,3.356  c-1.177,1.157-2.197,2.897-3.142,3.878c-1.207,1.259-4.715,0.741-5.682,1.977c-0.848,1.088,0.273,3.646-0.482,4.811  c-1.209,1.855-5.488,1.966-7.02,3.685c-1.92,2.162-0.962,9.082-2.069,9.926c-1.52,1.166-2.118-1.436-2.723,1.975  c-0.066,0.387-0.989,0.48-0.826,0.836c0.737,1.6,5.345-0.947,6.015-1.4c1.531-1.041-0.78-7.182,8.77-5.85  c4.99,0.699,2.311,1.973,2.07,3.775c-0.111,0.814,1.355,1.838,1.252,2.652c-0.104,0.783-2.436,1.918-1.873,3.113  c0.297,0.619,1.658,0.156,1.9,0.807c0.287,0.758-1.338,1.791-0.725,2.318c0.359,0.314,0.971-0.445,1.402-0.254  c0.152,0.068,0.271,0.197,0.381,0.352c0.031,0.045,0.057,0.1,0.086,0.146c0.072,0.137,0.141,0.287,0.197,0.455  c0.019,0.059,0.039,0.111,0.055,0.174c0.152,0.523,0.256,1.156,0.373,1.797c0.035,0.201,0.078,0.41,0.119,0.607  c0.023,0.096,0.042,0.189,0.065,0.287c0.068,0.277,0.142,0.549,0.237,0.793c0.209,0.539,0.5,0.963,0.942,1.174  c3.157,1.461,7.114-1.273,10.071-1.338c1.693-0.037,3.597,2.92,5.01,2.73c0.457-0.064,7.203-5.545,7.445-6.693  c0.415-1.988-2.79-1.717-0.123-3.354c0.712-0.43,6.365-4.477,6.918-3.938c0.309,0.293-0.051,0.857-0.076,1.285  c-0.066,1.178-1.062,3.941-0.824,4.922c0.557,2.287,7.238,6.105,7.195,6.389c-0.127,0.908-1.801,1.293-1.66,2.201l2.191,1.279  c0.461,0.607,0.312,2.934,1.049,3.852c0.246,0.311,0.59,0.459,1.086,0.342c2.691-0.65-0.021-3.578-0.074-4.4  c-0.252-3.848,6.125-6.242,7.332-9.229c0.334-0.83-0.012-2.738-0.012-3.648c-0.004-0.408-0.232-0.879-0.012-1.223  c1.494-2.221,2.355,0.807,2.576,0.834c0.582,0.074,0.752-1.711,1.178-1.303c1.938,1.844-1.062,5.203,2.484,6.65  c2,0.814,4.438-3.08,6.916-1.547c1.141,0.699,0.605,4.545,1.717,5.078c0.334,0.158,0.703-0.236,1.053-0.355  c2.678-0.904,0.275-1.064,0.359-2.875c0-0.006,1.287-2.262,1.287-2.271c-0.023-0.775-4.141-3.949-0.611-5.908  c3.633-2.018,3.049,4.275,6.631,3.234l0.826-1.361c0.449-1.885-2.066-1.521-1.631-3.107c0.5-1.791,1.691-3.268,2.223-5.223  C95.54,52.057,95.997,51.02,95.987,50.098z"></path></svg>