<svg fill="#FFFFFF" xmlns="http://www.w3.org/2000/svg" xmlns:xlink="http://www.w3.org/1999/xlink" viewBox="0 0 100 100" version="1.1" x="0px" y="0px"><title>Desktop Landscape</title><desc>Created with Sketch.</desc><g stroke="none" stroke-width="1" fill="none" fill-rule="evenodd"><g fill="#FFFFFF"><path d="M49.3970463,33.7028098 L72.0581444,33.7028098 L72.0581444,60.5652875 L57.8006901,60.5652875 C57.6788352,58.7248014 56.8209855,52.316058 50.7908841,49.8564364 C50.2649962,49.6418229 49.2709865,49.2576919 49.2688067,49.2576919 C48.9581786,49.1387037 48.4600839,48.8099919 48.2257504,48.5698421 C48.2132163,48.5573456 48.2001372,48.5448491 48.1876031,48.5339826 L47.312395,47.7635474 C47.001767,47.4620019 46.6889591,47.3984328 46.4802389,47.3984328 C45.9843239,47.3984328 45.5815974,47.744531 45.4415423,48.2835097 L42.1161874,57.6814071 L38.7505054,48.2791631 C38.6082704,47.7380111 38.1995493,47.3919129 37.6992747,47.3919129 C37.4883746,47.3919129 37.1712071,47.4560253 36.8687534,47.7488776 L35.9706569,48.5676688 C35.7085305,48.8355282 35.2104357,49.1620667 34.8976278,49.2832282 C34.8976278,49.2832282 33.9878367,49.6551011 33.4436706,49.8542631 C29.3210411,51.3631237 28.0411006,57.6114609 27.7038207,59.9281154 L27.7038207,33.7028098 L34.8555729,33.7028098 C34.762964,34.653553 34.7122514,35.8094397 34.7041665,36.4129389 C34.5079804,36.8014165 34.314519,37.4805731 34.4017129,38.3591301 C34.4017129,38.3743432 34.5357734,39.8494713 34.8404069,40.6090401 C35.0338682,41.0822764 35.3597551,41.4832505 35.7744708,41.7636063 C35.8469507,42.1776202 35.9319647,42.5574045 36.0235182,42.8904629 C36.4578525,44.4699095 38.5848371,47.9314349 42.0823998,47.9314349 C45.4415423,47.9314349 47.7298355,44.6459469 48.2110365,42.8969828 C48.3194838,42.5019854 48.4023179,42.098838 48.4622637,41.7679529 C48.8769794,41.4875971 49.2028663,41.086623 49.3985075,40.6090401 C49.7009611,39.8532746 49.8328418,38.3868397 49.8328418,38.3868397 C49.9200356,37.4979595 49.7243945,36.8101097 49.5309331,36.4194588 C49.5247726,35.7342414 49.479439,34.5782844 49.3970463,33.7028098 Z M48.0079461,33.7028098 L36.238953,33.7028098 C36.1380658,34.6524186 36.0878237,35.9662094 36.0878237,36.5998428 C36.0878237,36.748714 36.040957,36.8905219 35.9537631,37.0073368 C35.9172507,37.079599 35.7063506,37.5148026 35.7788305,38.2466618 C35.8044437,38.5335375 35.9406841,39.6392045 36.1216113,40.0934244 C36.2322384,40.3672603 36.4344191,40.5791572 36.6987255,40.7068386 C36.9052659,40.8040939 37.0475008,40.9975177 37.0840132,41.2224543 C37.1368745,41.5620326 37.228428,42.0651518 37.356494,42.5253483 C37.652408,43.6016757 39.3167204,46.5497587 42.0780401,46.5497587 C44.8622483,46.5497587 46.5886862,43.5592964 46.8720661,42.5275216 C47.0039468,42.052112 47.0933205,41.5555127 47.1445469,41.2246276 C47.1783345,40.999691 47.3232942,40.8062672 47.5298346,40.7090119 C47.7957758,40.5813305 47.9979565,40.3672603 48.1107636,40.0912511 C48.2851512,39.6538742 48.4235714,38.5824368 48.4513645,38.2640482 C48.5260242,37.5017628 48.3129443,37.0730791 48.274797,37.0051635 C48.189783,36.8883486 48.1450961,36.7465407 48.1450961,36.6020161 C48.1450961,35.8637515 48.0983449,34.560655 48.0079461,33.7028098 Z M93.979745,75.0915364 L83.4687117,67.5599885 L83.4687117,26.1466508 C83.4687117,24.3122691 81.9383749,22.785879 80.1006104,22.785879 L75.8170277,22.785879 L50.8215265,22.8876384 L18.8871382,22.8876384 C17.0480134,22.8876384 15.5176766,24.4140285 15.5176766,26.2470534 L15.5176766,67.4595859 L5.11954815,75.0915364 C2.1595367,79.5703041 5.42697581,85.4696323 10.7307831,85.4696323 L88.2678479,85.4696323 C93.6709571,85.4750594 96.8322928,79.4699016 93.979745,75.0915364 Z M88.2678479,80.7887026 L10.8314453,80.7887026 C9.2004463,80.7887026 8.18022176,78.9556777 9.09842385,77.6355199 L19.2000071,70.6127687 L79.7972637,70.6127687 L89.999509,77.5351174 C90.9190714,78.9611049 89.8988469,80.7887026 88.2678479,80.7887026 Z M77.5554903,72.755142 L21.4431407,72.755142 L16.6494457,76.517524 C16.0386713,77.0263207 16.3420181,77.9435115 17.159558,77.9435115 L81.9438161,77.9435115 C82.656613,77.9435115 83.0647028,77.0263207 82.4539283,76.517524 L77.5554903,72.755142 Z M49.8301774,19.0913739 C50.3298195,19.0913739 50.7338078,18.6863344 50.7338078,18.1894954 L50.7338078,14.9018785 C50.7338078,14.4036379 50.328418,14 49.8301774,14 C49.3336888,14 48.9282989,14.4050394 48.9282989,14.9018785 L48.9282989,18.1894954 C48.9282989,18.6863344 49.3336888,19.0913739 49.8301774,19.0913739 Z M57.1692399,17.2914711 L54.8451684,19.6155426 C54.4933868,19.9673242 54.4933868,20.539495 54.8451684,20.8912767 C55.1983516,21.242708 55.7705224,21.242708 56.1219537,20.8912767 L58.4446236,18.5672052 C58.7964053,18.2154235 58.7964053,17.6432527 58.4446236,17.2914711 C58.0917908,16.9382879 57.5196201,16.9382879 57.1692399,17.2914711 Z M45.1084546,20.8898752 C45.4602363,20.5380935 45.4602363,19.9659227 45.1084546,19.614141 L42.7857846,17.2900696 C42.434003,16.9396894 41.8604307,16.9396894 41.5100505,17.2900696 C41.1582689,17.6432527 41.1582689,18.214022 41.5100505,18.5672052 L43.8327205,20.8912767 C44.1845022,21.242708 44.7566729,21.242708 45.1084546,20.8898752 Z M20.3154526,52.6040791 L20.3154526,29.199431 C20.3154526,28.0814351 21.2350149,27.1642442 22.3559016,27.1642442 L75.8170277,27.1642442 C77.4480266,27.1642442 78.676377,28.4898292 78.676377,30.0162193 L78.676377,65.8327933 L20.3208938,65.8327933 L20.3208938,52.6040791 L20.3154526,52.6040791 Z M25.0039923,32.9364713 C25.0039923,31.8761347 25.8675658,31.0165621 26.9315223,31.0165621 L72.8304427,31.0165621 C73.8949882,31.0165621 74.7579728,31.8787697 74.7579728,32.9364713 L74.7579728,61.331626 C74.7579728,62.3919627 73.8943993,63.2515353 72.8304427,63.2515353 L26.9315223,63.2515353 C25.8669769,63.2515353 25.0039923,62.3893277 25.0039923,61.331626 L25.0039923,32.9364713 Z M47.4940061,52.3897509 C47.4283215,52.3897509 47.3845007,52.4335717 47.3845007,52.4992563 L47.3845007,54.6890855 C47.3845007,54.7547701 47.3406798,54.798591 47.2749952,54.798591 L45.085166,54.798591 C45.0194814,54.798591 44.9756605,54.8424119 44.9756605,54.9080965 L44.9756605,56.8790081 C44.9756605,56.9446927 45.0194814,56.9885136 45.085166,56.9885136 L47.2749952,56.9885136 C47.3406798,56.9885136 47.3845007,57.0323345 47.3845007,57.0980191 L47.3845007,59.2878483 C47.3845007,59.3535329 47.4283215,59.3973537 47.4940061,59.3973537 L49.4649178,59.3973537 C49.5306024,59.3973537 49.5744233,59.3535329 49.5744233,59.2878483 L49.5744233,57.0980191 C49.5744233,57.0323345 49.6182441,56.9885136 49.6839287,56.9885136 L51.8737579,56.9885136 C51.9394425,56.9885136 51.9832634,56.9446927 51.9832634,56.8790081 L51.9832634,54.9080965 C51.9832634,54.8424119 51.9394425,54.798591 51.8737579,54.798591 L49.6839287,54.798591 C49.6182441,54.798591 49.5744233,54.7547701 49.5744233,54.6890855 L49.5744233,52.4992563 C49.5744233,52.4335717 49.5306024,52.3897509 49.4649178,52.3897509 L47.4940061,52.3897509 Z M48.479091,24.7206633 C48.5797531,24.3122691 48.8871808,23.9052318 49.3972931,23.8034724 C50.2161933,23.7030699 50.8269677,24.3122691 50.7263055,25.1290574 C50.6256434,25.5374516 50.3168554,25.9458457 49.8067432,26.0462483 C48.9892032,26.2470534 48.2709652,25.5374516 48.479091,24.7206633 Z"></path></g></g></svg>