<svg fill="#FFFFFF" xmlns="http://www.w3.org/2000/svg" xmlns:xlink="http://www.w3.org/1999/xlink" version="1.1" x="0px" y="0px" viewBox="0 0 100 100" enable-background="new 0 0 100 100" xml:space="preserve"><g><path d="M70.9,79.3H29.1c-1.1,0-2-0.9-2-2c0,0,0.2-4,2-4h20.3c4.4,0,8.5-2.2,11-5.9c2.6-3.9,3-8.8,1.2-13.1   c-0.7-1.6-2.2-2.6-3.9-2.6c-1.5,0-2.8,0.7-3.6,2.1L50.9,59c0.7,0.6,0.9,1.7,0.4,2.6l-0.6,1c-0.6,0.9-1.8,1.2-2.8,0.7l-9.1-5.5   c-0.5-0.3-0.8-0.7-0.9-1.2c-0.1-0.5,0-1.1,0.2-1.5l0.1-0.2c0.3-0.6,1-1.8,2.2-1.8c0.3,0,0.5,0.1,0.7,0.2l16.5-27.3   c0.4-0.6,1-1,1.7-1.1l-0.1-2.3c0-0.5,0.2-0.9,0.5-1.3c0.5-0.6,1.5-0.7,2.1-0.2l8,4.8c0.6,0.4,0.9,1,0.8,1.6   c-0.1,0.6-0.5,1.2-1.1,1.4l-2.1,0.8c0.3,0.6,0.2,1.4-0.2,2L64,37.3c-1.3,2.1-1.4,4.7-0.4,6.9l3.6,7.9c2.2,5.2,1.8,12.5-1,16.7   c-0.6,0.9-0.6,2-0.1,3c0.5,0.9,1.5,1.5,2.6,1.5h2.3c1.8,0,2,4,2,4C72.9,78.4,72,79.3,70.9,79.3z M29.6,75.3c-0.2,0.5-0.4,1.7-0.4,2   h41.8c0-0.3-0.2-1.5-0.4-2h-1.8c-1.8,0-3.4-1-4.3-2.6c-0.9-1.6-0.8-3.5,0.2-5c2.4-3.7,2.8-10.3,0.9-14.8L61.8,45   c-1.3-2.8-1.1-6.1,0.5-8.8l3.4-5.6c0.1-0.1,0-0.3-0.1-0.3l-2-1.2l4.7-1.9l-7-4.2l0.3,4.9l-1.8-1.1c0,0-0.1,0-0.1,0   c0,0-0.1,0-0.2,0.1L42.6,54.9L42.2,56l-1.6-1c-0.2,0.2-0.4,0.6-0.5,0.7L39.9,56l9.1,5.5l0.6-1l-1.7-1l0.9-1l3.5-5.7   c1.1-1.9,3.1-3,5.3-3c2.5,0,4.7,1.4,5.8,3.8c2.1,4.9,1.6,10.5-1.3,15c-2.8,4.2-7.6,6.8-12.7,6.8H29.6z"></path></g></svg>