<svg fill="#FFFFFF" xmlns="http://www.w3.org/2000/svg" xmlns:xlink="http://www.w3.org/1999/xlink" version="1.1" x="0px" y="0px" viewBox="0 0 100 100" enable-background="new 0 0 100 100" xml:space="preserve"><g><path fill-rule="evenodd" clip-rule="evenodd" d="M63.761,88.011c0.164-0.029,0.276-0.258,0.452-0.244   c0.04,0.003,0.872,0.126,0.475-0.345c-0.179-0.211-1.137,0.16-1.137,0.16c-2.109-1.256-1.982-0.435-2.682-0.222   c-1.391,0.421-0.668,0.328,0.252,0.924c1.582,1.027,0.986-0.353,1.999-0.544C63.416,87.683,63.606,88.039,63.761,88.011   L63.761,88.011z M28.867,31.811c0.248,0.1,1.321-0.822,1.002-1.018c-0.527-0.325-0.146-0.014-0.448,0.187   C29.401,30.993,27.927,31.431,28.867,31.811L28.867,31.811z M25.767,26.657c-0.357,0.862,1.829-0.445,0.528-0.715   C26.053,25.892,25.865,26.42,25.767,26.657L25.767,26.657z M30.217,30.747c-0.379-0.548,1.328-1.815,1.226-0.986   C31.412,30.008,30.514,31.177,30.217,30.747L30.217,30.747z M26.735,21.908c0.173,1.24,1.874-0.132,0.443-0.391   C26.832,21.453,26.688,21.569,26.735,21.908L26.735,21.908z M32.171,27.146c0.578,0.252,0.493-0.962,0.073-1.11   C31.55,25.793,31.614,26.903,32.171,27.146L32.171,27.146z M38.956,38.667c0.734-0.71-1.536-2.418-0.67-0.457   C38.41,38.494,38.665,38.948,38.956,38.667L38.956,38.667z M31.475,22.809c-0.569-0.292-0.487,0.803-1.204,0.026   c-0.425-0.46-0.4-1.073,0.124-1.223c0.364-0.104,0.098,0.542,0.388,0.279c0.672-0.606-0.617-1.014,0.175-1.254   c0.261-0.08,0.239,0.719,0.482,0.868c1.276,0.781-0.029-1.503,0.964-1.694c1.125-0.216,0.735,3.365,0.872,3.704   c0.119,0.294,0.289,0.04,0.576,0.24c1.845,1.288,1.375-0.325,1.831-0.485c0.502-0.177,1.31-0.083,1.046-0.483   c-0.206-0.314-0.213,0.243-0.547,0.218c-0.402-0.029,0.101-0.279-0.28-0.262c-0.317,0.015-0.515,0.692-0.849,0.371   c-0.148-0.143-0.39-1.898-0.028-2.031c0,0,1.719,1.078,1.399,0.263c-0.147-0.372-0.401,0.125-0.878-0.327   c-1.009-0.955,0.078-0.891,0.138-1.267c0.001-0.009-1.082-1.896-0.044-1.529c0.386,0.136,0.173,0.967,0.476,0.777   c0.427-0.27-0.54-0.812-0.055-1.134c0.625-0.416,0.214,0.897,1.01,0.085c0.1-0.102,0.271,0.215,0.399,0.153   c0.118-0.058-0.047-0.354,0.081-0.387c0.503-0.134,0.783,0.479,0.854,0.16c0.189-0.858-1.672-0.799-1.315-1.751   c0.076-0.206,0.532,0.215,0.657,0.034c0.686-0.989-0.853-1.016-0.427-1.714c0.114-0.185,2.183,0.23,2.217,0.136   c0.183-0.51-1.271-0.202-1.003-1.353c0.06-0.255,0.36,0.074,0.495-0.149c0.412-0.678-0.401-0.609-0.182-1.067   c0.869-1.818,0.615-1.342,1.525-0.564c0.266,0.228,0.499-0.166,0.608,0.12c0.164,0.429-0.656,0.574-0.232,0.76   c0.636,0.278,0.263-0.795,0.823-0.962c0.906-0.27-0.027,0.684,0.415,1.045c0.438,0.357,0.167-0.778,1.009-0.608   c0.324,0.065,0.355-0.02,0.604-0.241c0.749-0.666,0.511-0.216,1.182-0.136c0.938,0.112,1.52-0.716,1.853-0.654   c0.066,0.012,0.81,0.572,0.917,0.158c0.111-0.429,0.011,0.061-0.119-0.206c-0.231-0.478,0.907-0.708,1.877-0.089   c0.527,0.337-0.47,0.72-0.435,1.228c0.032,0.451,0.535,0.293,0.321,0.943c-0.294,0.898-3.489,3.557-4.149,4.22   c-2.098,2.11,0.271-1.493-0.603,0.866c-0.271,0.733-1.238-0.105-1.702,0.322c-0.212,0.196,1.885,0.352,2.021,0.439   c0.224,0.141,1.526-0.787,0.237,0.737c-0.565,0.667-3.378,0.808-2.568,1.557c0.585,0.542,1.045-1.309,1.836-0.686   c0.589,0.463-1.647,1.002-1.236,1.653c0.433,0.687,0.931-0.686,1.332-1.05c0.226-0.203,0.771,0.005,0.992-0.08   c0.573-0.222,1.693-0.952,2.046-1.089c1.221-0.477,0.68,0.792,2.736,0.09c1.277-0.436,2.645,0.525,3.973,0.138   c0.659-0.192,1.075-0.291,1.502,0.404c1.166,1.896-0.394,2.582-0.739,3.392c-0.732,1.722-0.275,3.429-1.505,4.995   c-1.331,1.695-0.34,1.63-1.755,2.758c-0.509,0.405-3.297,0.402-2.725,1.241c0.396,0.582,1.123-0.862,1.757-0.766   c0.712,0.107-0.021,0.758,0.394,0.999c0.464,0.271,1.027-0.061,1.148,0.622c0.209,1.184-2.396,0.367-2.858,1.65   c-0.531,1.476-1.616,0.254-3.094,0.591c-0.393,0.089,0.26,0.55,0.732,0.425c1.387-0.37,2.463,0.889,3.432,0.212   c0.43-0.3,0.172-0.649,0.979-0.728c0.948-0.093,0.719,0.292,1.214,0.494c1.533,0.625,2.029,0.606,2.877,1.888   c1.248,1.888,2.75,1.845,2.627,3.88c-0.113,1.91,1.474,4.356,1.48,4.379c0.913,3.044,0.812,1.859,0.977,2.321   c0.312,0.874-0.009,0.522,0.951,0.81c2.597,0.775,0.634-0.038,1.287,0.128c0.206,0.051,0.216,0.221,0.162,0.481   c-0.025,0.119-0.224-0.194,0.053-0.312c0.328-0.138,0.584,0.042,0.672,0.383c0.078,0.305,2.433,3.303,2.448,3.351   c0.102,0.291,0.686-0.024,0.776,0.383c0.156,0.706-0.658,0.334-0.439,1.387c0.244,1.179,2.241,3.03,2.036,3.325   c-0.337,0.484-2.487-0.976-2.712-0.934c-3.954,0.741-0.063,0.021,0.834,0.752c1.371,1.117,3.083,1.971,3.479,4   c0.437,2.246-2.481,2.694-1.605,3.298c0.887,0.611,1.272,1.536,2.188,0.885c1.693-1.206-0.202-1.974,2.726-1.955   c0.505,0.003,0.269-0.362,0.56-0.338l0,0l0,0c5.697,1.597,4.337,2.517,4.331,4.826c-0.003,1.085,0.085,2.173-0.007,3.255   c-0.034,0.387-0.132,0.529-0.178,0.601c-0.122,0.188-1.179,1.287-1.254,1.327c-1.321,0.708,0.814,0.458-1.041,1.606   c-0.855,0.529-0.684-0.958-1.539,0.381c-0.912,1.427-1.152-0.315,0.203,0.285c0.388,0.173,0.263,0.808,0.161,1.117   c-0.443,1.37-3.274,0.747-2.593,1.516c0.282,0.317,1.311-0.415,1.396,0.067c0.082,0.471-0.862,0.208-0.715,0.724   c0.132,0.462,0.399-0.243,0.832-0.167c0.349,0.063,0.438,0.575,0.843,0.627c0.813,0.102,1.771-1.017,3.262-0.886   c1.09,0.096-0.087,0.423,0.186,1.605c0.314,1.366-1.276,1.34-1.952,1.883c-0.656,0.527-0.186,1.246-0.582,1.354   c-0.394,0.106-0.688-0.117-1.151,0.046c-0.251,0.088-0.466,0.506-0.729,0.641c-0.606,0.311-1.429,0.293-1.88,0.805   c-0.714,0.807-1.494,0.331-2.354,0.149c-2.63-0.555-4.403,1.243-5.058,0.706c-0.312-0.256,0.118-0.526-0.231-0.724   c-0.805-0.455-0.668,0.557-0.848,0.561c-0.328,0.006,0.033-0.354-0.277-0.532c-0.27-0.156-0.126,0.476-0.321,0.47   c-0.972-0.028-1.016-1.335-1.702-0.981c-0.462,0.236,0.75,0.249,0.741,0.794c-0.005,0.288-0.5,0.257-0.828,0.404   c-0.462,0.206-0.128,0.335-0.523,0.645c-0.259,0.203-0.382-0.252-0.654-0.221c-0.504,0.058-1.379,0.393-1.938,0.417   c-1.341,0.057-0.023-0.039,0.137,0.389c0.343,0.913-0.928,0.66-1.502,0.521c-2.379-0.579-1.081,0.719-1.382,0.887   c-0.362,0.2-1.643-2.145-3.148-1.897c-2.287,0.376-1.934,1.197-3.349,0.912c-0.241-0.048-0.124,1.525-0.181,1.723   c-0.049,0.176-0.405,0.243-0.351,0.389c0.161,0.438,0.423,0.551-0.107,0.901c-0.507,0.335-0.424,2.727-1.924,0.566   c-0.597-0.857-0.793,0.067-1.306-0.307c-0.468-0.341-0.533-1.146-0.782-1.095c-1.046,0.215,0.371,0.507,0.14,0.771   c-0.466,0.533-0.474-0.48-1.575,0.076c-1.057,0.533-1.563,0.013-1.79,0.163c-0.717,0.476-0.098,0.709-0.589,1.001   c-1.561,0.928-1.034,0.326-1.21,0.346c-0.888,0.102-0.099,1.249-0.355,1.52c-0.887,0.939-1.248-0.473-1.528-0.649   c-1.525-0.965-1.213,0.628-2.098,0.52c-0.068-0.009-0.949-0.509-0.339-1.015c1.773-1.475,0.937-0.239,2.019-0.606   c1.21-0.41,0.8-1.081,2.027-2.243c0.205-0.194,0.225-0.831,0.433-0.996c0.134-0.106,0.067,0.148,0.381,0.177   c0.373,0.034-0.032-0.249,0.263-0.518c0.128-0.116,0.404-0.103,0.575-0.229c0.339-0.249,0.078-0.61,0.685-1.003   c1.068-0.691,0.727-1.348,0.938-2.428c0.272-1.384,0.839,0.003,1.551-0.706c0.884-0.882-0.293-1.423,0.797-1.775   c0.577-0.187,3.754-0.312,4.259-0.118c1.151,0.44,1.149-0.081,2.26,0.014c0.754,0.063,0.313-0.638,0.482-1.266   c0.277-1.016,1.394-1.396,2.013-2.111c0.17-0.197,1.011-1.656,1.011-1.656c-0.282-0.079-1.397,1.314-3.345,1.909   c-0.598,0.183-0.993,2.07-2.985,1.21c-1.486-0.643-1.398-1.809-1.746-1.953c-0.406-0.169-3.053,1.406-2.718-0.017   c0.078-0.333,1.017-0.042,1.254-0.278c0.303-0.301-1.475-0.108-1.773-0.344c-0.268-0.209,0.783-1.271-1.463-0.472   c-0.555,0.197-0.495,0.468-0.793,0.727c-0.373,0.321-2.723,0.502-2.232-0.221c0.263-0.386,1.054-0.121,1.534-0.437   c0.123-0.08,0.001-0.393-0.144-0.414c-0.217-0.029-1.437,0.992-1.94,0.478c-0.409-0.417,1.445-1.224-0.113-1.493   c-0.703-0.123-0.2-0.612,0.249-0.797c0.644-0.264,0.217-0.439,0.712-0.71c0.411-0.223,0.338,0.081,0.646,0.087   c1.195,0.021,0.75-0.522,1.427-0.933c0.245-0.147,0.958-0.318,1.223-0.443c3.105-1.467,1.771-2.228,2.66-3.39   c0.11-0.143,0.623-0.385,0.426-0.415c-1.648-0.254-0.224-1.725-0.278-1.79c-0.219-0.265-0.557-0.264-0.641-0.509   c-0.156-0.46,0.401-0.956,0.084-1.298c-0.482-0.519-1.788-0.032-2.079,0.863c-0.192,0.591-0.359,0.071-0.87,0.18   c-0.309,0.065-0.466,0.601-0.705,0.266c-0.609-0.857,2.091-1.505,2.467-2.916c0.43-1.623,1.16-1.329,1.957-1.575   c1.009-0.311,0.574-0.579,0.896-0.844c0.271-0.224,0.387,0.162,0.667,0.235c0.814,0.216,2.045-0.208,2.25-0.529   c0.718-1.119,0.241,0.134,0.241,0.134s0.26-0.33,0.555-0.476c1.268-0.62,1.282,0.227,1.283,0.22   c0.084-0.532,0.109-0.229-0.256-0.772c-1.32-1.96,0.953-2.356,0.505-2.758c-0.445-0.402-0.716,0.086-0.782-0.567   c-0.181-1.763,0.202-1.351,0.855-1.697c0.574-0.304-0.032-0.443-0.054-0.71c-0.039-0.487,0.356-0.411,0.482-0.704   c0.185-0.426-0.074-1.328-0.562-0.736c-0.595,0.721-0.481-0.127-0.724-0.05c-0.385,0.126-0.135,1.047-0.499,1.116   c-0.967,0.184-0.465-0.854-0.601-1.575c-0.05-0.266,0.065,0.431-0.204,0.423c-1.005-0.027-0.55-1.099-1.055-1.765   c-0.877-1.158-1.892-1.158-0.245-3.547c0.426-0.617,0.143-1.317,0.558-1.531c0.358-0.185,0.178,0.365,0.447-0.04   c0.334-0.502,1.866-0.687,1.258-0.75c-2.968-0.309-2.45-0.082-2.813,0.814c-0.193,0.479-1.229,0.179-1.44,0.469   c-1.116,1.526-1.036,0.395-1.287,0.425c-0.301,0.037-0.102,0.397-0.405,0.303c-0.317-0.099-0.151-0.412-0.269-0.55   c-0.079-0.093-1.118-0.593-1.195-0.504c-0.606,0.708,1.116,0.826,0.167,1.836c-0.574,0.611-2.985-2.903-3.189-0.943   c-0.039,0.382,0.321,0.92,0.348,1.085c0.209,1.278-2.5-2.794-1.409-3.231c0.299-0.12,0.839,1.943,0.577,0.16   c-0.245-1.671,0.193-1.141,0.653-1.856c0.327-0.51,0.44-1.339,0.745-1.912c0.372-0.701,1.761-1.231-0.105-2.472   c-1.155-0.768-0.109-0.807-0.298-1.876c-0.338-1.903,0.752-0.491,1.377-1.019c0.339-0.287-0.622-1.208-1.314-0.764   c-0.739,0.473-0.292,0.473-0.482,1.019c-0.514,1.469-0.625-0.444-0.877-0.679c-0.124-0.116,0.008,0.418-0.147,0.489   c-0.263,0.12-0.14-0.25-0.428-0.179c-0.238,0.059,0.007,0.827-0.246,0.869c-0.758,0.125-0.305-1.307-0.292-1.823   c0,0-0.704,0.365-0.723,0.445c-0.163,0.709,0.63,1.398,0.604,2.005c-0.011,0.224-1.417,2.496-1.222,3.806   c0.119,0.808-0.932,1.314-1.372,0.879c-0.635-0.627,1.313-3.902,1.154-4.359c-0.161-0.461-0.533-0.313-0.353-0.904   c0.192-0.628-0.248-0.292-0.189-0.995c0.118-1.439,1.074-0.993,0.915-2.04c-0.038-0.255-0.361,0.073-0.44-0.184   c-0.336-1.077,0.409-1.618,1.116-2.71c0.12-0.185-0.42-1.446,0.712-1.978c0.494-0.232,0.875-0.986,0.735-1.327   c-0.166-0.405-0.366,0.486-0.659,0.813c-2.571,2.88-2.137,1.781-2.758,1.536c-2.506-0.988,0.164-0.691-0.225-1.294   c-0.327-0.506-1.573,0.417-2.079-0.086c-0.33-0.328,0.288-0.574,0.646-0.707c1.155-0.428,0.752,0.844,1.836-0.71   c0.498-0.714-1.7,0.136-0.441-1.438c1.122-1.403,0.549,1.065,0.363-0.558c-0.135-1.158,1.093-0.124,1.602-0.45   c0.238-0.151-0.147-0.234-0.454-0.328c-1.622-0.493,0.65-1.672,0.319-1.678c-0.252-0.004-0.213,0.243-0.418,0.305   c-0.097,0.029-0.208-0.147-0.333-0.128c-0.726,0.11,0.108,0.38-0.419,0.921c-0.328,0.336-0.853,1.82-1.514,1.512   c-0.521-0.243,0.515-1.278,0.497-1.319c-0.488-1.101-0.764,0.23-0.948,0.214c-0.345-0.03-0.017-0.529-0.336-0.527   c-0.6,0.004-0.316,0.528-0.878-0.092c-1.35-1.486-0.229-0.832-0.276-1.362c-0.035-0.391-0.176,0.025-0.418-0.046   C31.444,23.116,31.579,22.862,31.475,22.809L31.475,22.809z M73.828,79.938c0.051,0.398,0.962,0.517,1.074,0.072   C75.029,79.51,73.752,79.332,73.828,79.938L73.828,79.938z M49.865,61.715c0.012,0.146-0.456-0.135-0.443,0.013   C49.435,61.875,49.853,61.567,49.865,61.715L49.865,61.715z M42.445,61.381c-1.545,0.122-0.604,1.686-1.078,1.249   c-0.224-0.206-0.416-0.397-0.593-0.123c-0.138,0.212,0.39,0.074,0.782,0.387c0.614,0.492,0.894,1.822,1.32,1.136   c0.521-0.843,1.829-1.144,1.597-1.502c-0.189-0.292-0.317,0.221-0.845,0.051C42.975,62.369,43.415,61.303,42.445,61.381   L42.445,61.381z M50.888,62.336c0.333,0.177,0.271,0.335,0.703,0.235C53.604,62.104,49.839,61.78,50.888,62.336L50.888,62.336z    M52.524,53.961c-0.153-0.014-0.308-0.026-0.46-0.039L52.524,53.961L52.524,53.961z M64.119,54.479   c0.739-0.049,1.359-0.596,2.004-0.961c0.094-0.054-0.229,0.063-0.326,0.012c-0.761-0.406-0.311,0.24-1.063,0.556   C64.273,54.276,63.812,54.498,64.119,54.479L64.119,54.479z M27.233,24.193c-0.033,0.571,0.446,1.044,0.171,1.151   c-1.369,0.535-1.223-3.079-0.288-2.749c0.276,0.097,0.621,0.317,0.375,0.517c-1.031,0.836-0.264-1.133,0.114,0.42   C27.718,23.994,27.25,23.907,27.233,24.193L27.233,24.193z M28.079,21.438c-0.309,0.402-0.839-0.061-1.004-0.313   c-0.279-0.427-0.684-0.015-0.876-0.483c-0.397-0.964,3.068-1.335,2.209-0.24c-0.205,0.262-0.424-0.362-0.526-0.043   C27.802,20.605,28.357,21.075,28.079,21.438L28.079,21.438z M33.78,36.458c0,0.011,0.504,0.12,0.459,0.161   c-0.311,0.288-0.757,0.235-0.911,0.602c-0.104,0.245-0.302,3.079,1.864-1.511C36.118,33.749,33.765,35.798,33.78,36.458   L33.78,36.458z M38.615,41.793c-1.148,1.617-2.721-3.457-0.646-2.592C38.303,39.34,39.156,41.03,38.615,41.793L38.615,41.793z    M32.1,37.746c-0.523,0.144,0.026-0.318-0.419-0.206c-0.737,0.186-1.035,1.641-0.606,1.851c0.333,0.162,0.603-1.358,1.025-0.935   c0.239,0.24-0.279,0.197-0.158,0.493c0.493,1.215-0.542,1.588,0.861,0.882c1.268-0.639,0.398-0.752,0.312-1.683   C32.873,35.542,32.582,37.613,32.1,37.746L32.1,37.746z M50.076,7.431c-0.264-0.888-0.666,0.287-1.089-0.385   c-0.203-0.322,0.603-0.386,0.185-0.851c-1.701-1.887-2.095,1.72-1.196,1.382c0.163-0.062,0.128-0.554,0.185-0.53   c0.319,0.136-0.267,0.593,0.118,0.897c0.62,0.489,0.634-0.297,1.15-0.202c0.325,0.06,0.265,0.594,0.887,0.513   c0.546-0.071,1.068-0.597,0.624-0.884C50.518,7.099,50.243,7.994,50.076,7.431L50.076,7.431z M48.806,5.67   c-0.136-0.448,0.504-0.636,0.707-0.316C49.881,5.933,48.98,6.245,48.806,5.67L48.806,5.67z M48.688,9.255   c0.143-0.298-0.869-1.843-1.279-1.193C47.275,8.275,48.295,10.085,48.688,9.255L48.688,9.255z M40.307,55.321   c1.745,0.162,3.465-2.591,2.323-3.435c-0.912-0.674-1.158,1.114-1.456,1.461c-0.417,0.487-0.457-0.003-0.604,0.851   C40.485,54.689,39.756,55.271,40.307,55.321L40.307,55.321z M33.626,31.478c0.489,0.273-0.848,0.14-0.744,1.152   c0.02,0.198,0.663-0.144,0.594,0.042c-0.315,0.843-1.164,0.146-1.394,0.326c-0.386,0.301-0.237,0.838,1.264,0.386   c2.992-0.901-1.321,0.005,1.293-0.09c0.592-0.022,0.238-0.462,0.647-0.793c1.234-0.998-1.068-1.355-1.188-1.438   c-0.585-0.4-0.57-1.5-1.469-1.049c-0.326,0.164-0.699,0.677-0.55,1.007C32.229,31.348,33.283,31.285,33.626,31.478L33.626,31.478z    M34.161,49.562c0.839-0.953,1.423-0.614,1.279-1.509c-0.048-0.292-0.544-0.772-0.48-0.258c0.02,0.16,0.323,0.083,0.018,0.186   c-0.104,0.034-0.354-0.935-1.192-1.718c-0.23-0.217,0.401-0.171-0.036-0.66c-0.258-0.289-0.276,0.104-0.368-0.143   c-0.151-0.408,0.681-1.728-0.811-1.48c-0.631,0.105-0.676-0.561-2.051-0.186c-0.891,0.243-0.515,0.716-1.497,0.522   c-0.25-0.049-0.379-0.398-0.701-0.196c-0.649,0.406,0.113,1.961-1.036,1.255c-1.711-1.051-1.76,1.796-1.809,1.851   c-0.721,0.807-0.534,1.25-0.756,1.117c-0.596-0.356-0.518,0.368-1.08,0.337c-0.274-0.015-0.231-0.381-0.537-0.316   c-0.093,0.021-0.875,0.448,0.088,1.009c0.385,0.225,1.476-0.162,0.097,0.675c-0.837,0.508-0.773-0.623-1.574,0.653   c-0.405,0.646,0.036,1.213,0.559,1.59c0.986,0.71,0.109,1.074,0.783,1.309c0.268,0.093,0.503-0.128,0.835,0.077   c0.198,0.124,0.323,0.647,0.528,0.705c0.467,0.127,0.444-0.323,0.828-0.203c1.35,0.425-0.448,0.526,0.658-0.124   c0.21-0.124,0.193,0.409,0.226,0.386c0.365-0.266,0.014-0.432,0.281-0.736c0.2-0.229,0.515-0.076,0.581-0.311   c0.112-0.399-0.546-0.261-0.265-0.758c0.222-0.391,0.174-0.048,0.511-0.36c0.351-0.326,0.082-0.819,0.676-0.518   c0.909,0.461,0.44,1.8,1.191,2.208c0.361,0.195,0.369-0.265,0.588,0.029c0.601,0.808-0.668,0.793,0.121,1.434   c0.456,0.37,0.475-0.208,0.799-0.262c0.558-0.094-0.156,0.49,0.668,0.104c0.589-0.275-0.617-0.734,1.566,0.043   c0.174,0.062-0.122,0.266,0.059,0.331c1.256,0.461,1.346-1.844,1.6-1.994c0.44-0.263,0.825,0.239,1.139,0.087   c0.012-0.006,1.033-1.522,1.075-1.706c0.158-0.702-0.147-2.824-1.018-2.883c-1.016-0.068-1.564,1.132-1.581,0.666   C34.124,49.766,34.129,49.598,34.161,49.562L34.161,49.562z M30.567,16.726c0.342,0.175-0.057,0.645,0.438,0.793   c0.398,0.12,0.796-0.114,0.814-0.354c0.02-0.277-0.367-0.134-0.275-0.386c0.074-0.204,1.229,0.26,0.725-0.767   c-0.787-1.604-0.189,1.278-0.024-0.937c0.04-0.545,1.169-0.99,1.048-1.548c-0.114-0.528,0.564-1.334-0.333-1.641   c-0.703-0.24-0.974,1.169-1.994,1.434c-1.579,0.41-0.324,1.437-0.571,1.596c-0.677,0.431,0.01-0.976-0.71-0.626   c-0.51,0.248,0.671,0.731,0.066,1.143c-0.382,0.26-0.024-1.484-0.847-1.019c-0.356,0.202,0.184,0.278-0.134,0.476   c-0.998,0.621,0.218,0.914,0.301,1.392c0.062,0.357-0.592,0.129-0.499,0.545c0.122,0.543,1.082,0.235,1.086,0.661   c0.004,0.446-1.227,0.723-1.339,0.965c-0.177,0.386,0.465,1.143,0.869,0.88c1.404-0.914,0.884-1.353,0.964-1.415   c0.355-0.276,0.997,0.235,0.393-0.727C30.411,16.978,30.298,16.588,30.567,16.726z"></path></g></svg>