<svg fill="#FFFFFF" xmlns="http://www.w3.org/2000/svg" xmlns:xlink="http://www.w3.org/1999/xlink" version="1.1" x="0px" y="0px" viewBox="0 0 100 100" style="enable-background:new 0 0 100 100;" xml:space="preserve"><path d="M17.329,20.759l0.663-0.244l0.276,0.113l-0.184,0.207L17.329,20.759z M18.71,21.434h-0.424l-0.202-0.23h0.442l0.258-0.445  l0.184,0.207L18.71,21.434z M73.5,76.184l1.719,0.162l-0.361,0.438H73.41L73.5,76.184z M58.688,73.369h-0.475l0.204-0.459  l0.385,0.115L58.688,73.369z M64.341,77.105l-1.085,0.138l-0.117-0.323l-0.334-0.262l1.221-0.156l0.656,0.32L64.341,77.105z   M65.55,76.33c-0.054-0.096-0.124-0.182-0.207-0.256c0.112-0.008,0.214-0.039,0.324-0.067C65.605,76.116,65.566,76.23,65.55,76.33z   M68.073,76.504l0.543-0.205l-0.362-0.346l-0.181-0.622l-0.724-0.115L68,74.848l0.904,0.275l0.679-0.161l1.085,0.115l0.563,0.599  l0.682-0.068l0.479,0.576l-0.248,0.483l-0.271-0.164l-0.857-0.217l-0.477,0.426l-0.294-0.21l-0.317,0.096l-0.494,0.646l-0.453-0.622  l-0.726,0.046l-0.882-0.046l-0.314,0.394l-0.521-0.512l0.609-0.205L68.073,76.504z M62.895,69.43l0.338,0.484l0.152,0.691  l0.188,0.093v0.553l-0.437-0.369l0.114-0.392l-0.358-0.277V69.43H62.895z M62.791,72.564l0.945,0.6l0.312,0.393l1.267,0.137  l0.203,0.513h0.543l0.656,0.507L65.27,75.08h-1.74l0.316-0.557l-0.107-0.348H63.03l-0.52-0.412v-0.484h-1.107l-0.741-0.67h-1.313  l0.248-0.459H58.42l-0.452,0.414h-0.404l-0.16,0.324L56.75,73l0.339-0.854l1.04-0.482h1.355l1.877,0.254l0.563,0.461L62.791,72.564z   M58.27,16.686l0.361-0.063l0.396,0.552V17.6l-0.758-0.11L58.27,16.686L58.27,16.686z M59.15,17.836l-0.231,0.268l-0.371-0.268  H59.15z M58.177,18.324h0.742l0.124,0.473l0.479,0.032L59.8,19.27l-0.247,0.34l0.51,0.48h0.695l0.85-0.378l0.789,0.283l0.188,0.315  L62.1,20.924h-0.705l-0.939-0.063l-0.664-0.079v-0.24l-0.521,0.24l-0.541-0.378l0.262-0.693l-0.045-0.473l-0.029-0.331l-0.402,0.236  l-0.464-0.504L58.177,18.324z M57.76,22.435l-0.386,0.347l-0.31-0.252l0.104-0.706l0.247-0.601l0.562-0.362l0.463,0.331h0.568  l0.143,0.22l-0.881,0.929l-0.711-0.094L57.76,22.435z M57.482,20.089l0.386-0.425l0.448,0.063l0.093,0.363l-0.155,0.44h-0.402  L57.482,20.089z M57.064,16.413v-0.578l0.418-0.063l0.093,0.488l0.374,0.567l-0.143,0.583H57.48l-0.063-0.52l-0.495-0.063  L57.064,16.413z M56.152,18.106l0.14,0.801l0.325-0.394l0.308,0.394l0.14-0.394l0.562,0.158v0.299l-0.448,0.283l0.108,0.205  l-0.354,0.535l-0.57-0.189l0.355-0.599h-0.604l-0.293-0.699L56.152,18.106z M55.952,20.781l0.881,0.079l0.093,0.346l-0.556,0.617  l0.294,0.423l-0.294,0.63h-0.572l-0.062,0.284l-0.356-0.095l-0.077-0.574L54.7,21.727l0.216-0.362l0.479,0.46l0.287-0.397  l-0.349-0.299L55.952,20.781z M54.577,16.482l0.974,0.088l-0.447,0.515L54.5,16.954L54.577,16.482z M54.438,18.561l-0.149-0.567  l0.417-0.299l0.313,0.121l-0.188,0.761l0.536,0.142L54.7,19.526l-0.712-0.404l-0.432,0.21l-1.01-0.031l-0.443-0.347l0.86-0.157  l-0.17-0.252L52.16,18.64l-0.354-0.646l0.756,0.113l0.142-0.506l0.558-0.182l0.434,0.397l-0.016,0.557l0.387,0.346L54.438,18.561z   M51.934,16.583l1.021-0.322l0.881,0.308l-0.727,0.7l-0.248-0.35l-0.523,0.35l-0.354-0.11l-0.465,0.259l-0.42-0.543L51.934,16.583z   M47.36,19.537l1.715-0.914l0.263-0.63l1.097,0.189l0.077,0.567l0.695,0.094l-0.016,1.008l0.246,0.079l-0.313,0.52l0.313-0.11  l0.521,0.456l-0.272,0.284l0.433,0.157l0.309-0.63l0.355,0.598l-0.325,0.866l0.325,0.079l0.278-0.945l0.246-0.504l0.418,0.189  l-0.108-0.378l0.556-0.236l0.402,0.536l-0.434,0.425l-0.391-0.236l0.145,0.693l-0.479,1.496l0.726,0.914l-0.186,0.441l-0.572-0.283  l0.232,0.504l-0.094,0.299l-0.926-0.126l-0.619-0.221V24.23l-0.818,0.252l-1.221,0.079l-0.974-0.441l0.124-0.614L48.3,23.081v-0.709  l0.804-0.063l0.943,0.551l0.417-0.063l-0.479-0.598l-1.205-0.347l-0.124-0.441l1.128-0.047l-0.51-0.063l-0.355-0.599l1.113-0.977  l-1.901,1.087l-0.773-0.205l0.154-0.425L47.36,19.537z M29.323,13.72v-0.45l0.345-0.188l-0.074,0.319l0.074,0.319l-0.239,0.732  l-0.442-0.206L29.323,13.72z M25.782,16.723l0.46,0.225l-0.203,0.432l-0.35-0.094L25.782,16.723z M26.426,24.1h-0.681l-0.589-0.338  l0.295-0.364l0.571-0.18l0.074,0.36h0.313l0.276,0.184L26.426,24.1z M27.126,23.556l-0.442-0.001v-0.338h0.442V23.556z   M30.57,35.231l0.092-2.131l0.387-0.197l0.331,0.394l-0.589,0.619l0.055,0.714L30.57,35.231z M75.852,48.041l-0.656-0.161v-0.576  l0.229-0.668h0.498L75.9,47.35l0.227-0.138l0.271,0.231L75.852,48.041z M72.438,44.054l-0.205-0.093h1.166l0.961,0.646h-0.95  L72.438,44.054z M80.533,44.607l0.226-0.208L80.6,45.16l0.385-0.323l0.186,1.083l-0.509,0.241v-0.379l-0.423,0.379l-0.092-0.241  L80.533,44.607z M57.971,87.014l-0.133-0.154l-0.124,0.234l-0.34-0.299v-0.566l-0.881-0.474l-0.17-0.409l-0.278-0.156l0.124,0.377  l-0.726-0.277l-0.248-0.479l0.052-0.511l-2.121-2.47l-3.417-1.084l-2.26-2.379l-0.804-0.236l-1.02,0.488h-0.773l-1.375-0.583  l-0.757-0.521l-0.773-0.314l-1.252-0.771l-0.664-0.709l-0.525-0.125l-0.804-0.379l-0.51-0.835l-0.927-0.661l-0.386-1.135h0.371  l-0.062-0.41l0.278-0.566l-0.216-0.483l-0.108-0.756l-0.572-0.979l-0.139-0.521l-0.804-0.931l-0.093-0.504l-0.356-0.439  l-0.448-0.252l-0.155-0.504l0.34-0.315l-0.124-0.313l-0.386-0.144l0.031-0.44l-0.263-0.063l-0.232-0.313L33.926,64.1l-0.278-0.158  l-0.695-1.496l-0.278-1.65l0.17-0.563L32.553,60.1l-0.108-0.41l-0.402-0.047l-0.325-0.427l-0.325,0.474l-0.046,1.34l0.51,0.979  l0.015,0.361l0.433,0.817L32.2,63.751l0.232,0.063l0.077,0.41l0.355,0.851l0.077,0.85l0.155,0.536l0.124,1.434l0.386,0.099  l0.371,0.646l-0.046,0.603L33.406,69.4l-0.216-0.78l-1.236-1.72l0.232-0.504l-0.015-0.739l-0.51-0.583l-0.077-0.348h-0.263  l-0.788-0.787l-0.278-0.646l0.973,0.378l-0.185-0.396l0.216-0.471l-0.34-0.992l-0.541-0.537l-0.343-3.922l-0.618-1.133l-0.309-0.158  l-0.201-0.521l-0.757-0.457l0.031-0.439l-0.371-1.729l0.263-0.362l-0.232-0.328l0.031-0.662l0.263,0.127v-0.51H27.95l-0.278-1.119  l0.278-1.764l0.541-0.866l0.356-1.559l0.865-1.024l1.623-2.819l0.411-2.137L31.36,38.79l-0.278-1.496l0.263-0.268l0.433,0.725  l0.649,0.74l-0.572-1.103l-0.093-0.772l0.355-0.614l-0.232-0.425l0.216-0.552l-0.294-0.52l0.108-0.614l0.355-0.157l0.155-0.307  l0.095-0.693l0.117-0.595l-0.325-0.205l-0.464,0.583l-0.077-0.504l0.433-0.977l-0.046-0.851L31.69,30.39l0.464-0.898l0.294-0.93  l0.232-0.11l-0.139-0.189l-0.124-1.874l0.278-0.189l-0.541-0.189l0.016-0.599l-0.836-0.756l0.062-0.409l-0.093-0.252l0.062-0.709  l-0.294-0.409l-0.402-0.079l-0.34,0.394l-0.433,0.284l-0.34-0.346l-1.545,0.079l0.124-0.441l0.495,0.126l0.046-0.394l0.448-0.158  l0.51-0.284h0.603l0.294,0.252l0.093-0.41l-0.433-0.142h-0.943l-0.695,0.315l-0.556-0.047l-0.634,0.094l0.093,0.315l-0.155,0.252  l-1.823,0.079l-0.417-0.094l-0.309,0.142l-0.603,0.079l-0.525-0.236l-0.634,0.079l-0.371-0.252l-0.077,0.11l-0.757-0.11L21.6,22.075  l-0.464,0.079l-0.077-0.347l-0.371,0.047l-0.17,0.205l-0.263-0.283l-0.51-0.252l0.355-0.189l0.556,0.11v0.236l0.587-0.032v0.157  l0.263-0.142l0.525-0.032l0.417,0.252l-0.216,0.205l0.155,0.126l0.278-0.268h0.695l0.386,0.268l0.232-0.142l0.958-0.126l0.85-0.488  l0.634-0.095l-0.525-0.236l0.139-0.268l-0.556,0.11l0.278-0.52l-0.17-0.488l-0.572-0.189l0.587-0.488l0.402-0.063l0.433-0.473  l-0.325-0.189l-0.108-0.41l0.649-0.913l0.356,0.567l0.17-0.173l-0.108-0.299l0.108-0.552l0.402-0.441l1.051-0.284l0.294,0.11  l0.881-0.299l0.077,0.157l-0.139,0.252l0.124,0.236l0.556,0.063l0.108,0.284l0.402,0.031l0.757-0.677l0.386,0.11l0.201-0.158  l-0.355-0.252l-0.386-0.047l0.031-0.378l-0.309-0.268l-0.077-0.457l0.51-0.52l0.371-0.031v-0.457l0.216-0.268l0.788,0.378  l0.68,0.142l0.124,0.268l-0.664,0.331l0.124,0.63l0.417,0.079l0.835-0.693l-0.124-0.331l0.603-0.52l0.634-0.945l0.541-0.189  l0.556,0.583l1.468-0.142l0.495,0.362l-0.108,0.252l0.525-0.347l0.402,0.504l0.695,0.079L40.255,14.4l-0.216,0.299l0.278,0.173  l-0.355,0.74l0.247,0.079l0.185,0.268l0.062,0.74l0.325,0.283v0.394l0.541,0.425v0.446l0.24,0.45l0.076,0.041l-0.185,0.441  l0.572,1.308l0.386-0.299l1.994-0.126l0.355,0.236l-0.386,0.22l0.526,0.158l0.603-0.362l0.108,0.362l-0.34,0.457l0.015,0.488  l0.943-0.504l-0.464,0.835l0.85-0.268l0.943,1.606l0.556,0.095l0.325,0.299l0.093,0.535l-0.881,0.157l1.005,0.646h1.082l0.525,0.961  l-0.232,0.536l0.371-0.126l0.216-1.008l0.958-0.173l-0.975-0.095l0.15-0.347l1.102-0.11l-0.188,0.567l1.146,0.945l1.64,0.11  l0.015-0.473h0.479l-0.51-0.63l0.666-0.662l0.711,0.552l0.143,0.646l-0.762,0.205l0.313,0.284l-0.437,0.425l0.479,0.488l0.031-0.583  l0.34-0.079l0.634-0.409l-0.197-0.362l0.229-0.473l-0.541-0.52l-0.201-0.315l0.313-0.236l-0.143-0.378L57,22.833l0.464,0.378v0.803  l0.354,0.488l-0.385,0.599l0.479,0.173l-0.077,1.197l0.417-0.772l0.541,0.142l0.152,0.598l-0.309,0.315l0.369,0.803l0.493-0.441  l0.276-0.709l0.369-0.141l-0.092-0.803l0.37-0.236l1.188,0.615l0.063,0.598l-0.419,0.157l0.354,1.039l-0.479,0.536l-0.94,0.409  l-0.446-0.252l-0.437-0.11l0.143,0.441l-0.771,0.614l0.17,0.409l-0.977,0.851l-1.453,0.205l0.341,0.268l-0.293,0.441l-0.771,0.315  l-1.545,1.418l-0.325,1.071l-0.247,0.504l0.17,0.425l0.682,0.016l0.188,1.417l-0.294,0.394l1.326-0.22l1.498,1.244l0.772,0.315  l0.558,0.567l1.838,0.158v2.158l1.035,1.496l0.541,0.378l0.23-0.393l0.354,0.425l-0.017-0.583l0.216-0.457l-0.31-0.598l0.063-0.866  l-0.27-0.992l1.128-0.567l0.616-1.118l-0.153-1.26l-0.881-1.04l0.571-0.819l-0.313-1.071l0.155-0.63l-0.344-0.599l0.324-0.472  l0.729,0.221l0.978,0.126l0.264-0.284l0.975,0.693l0.434,0.567l1.035,0.142l-0.016,0.898l0.186,0.882l0.694,0.158l0.464,0.583  l0.912-0.583l0.124-0.488l0.247-1.103l2.602,2.783l-0.229,0.677l1.252,0.756l0.229,0.646l0.479-0.362l0.354,0.315l0.938,0.142  l-0.479,0.457l0.56-0.173l0.274,0.488l0.276-0.189l0.435,0.189l0.313,0.756l0.436,0.426l-0.463,0.914l0.805-0.135l-0.315,0.968  l-0.065,0.945l0.478-0.507l0.449,0.092l-0.271,0.415l0.452,0.139l0.95-0.323l0.181,0.392l-0.09,0.599l0.563-0.208v0.53L80.08,45  l-0.609,1.152h-0.566l0.549-0.691l-0.497,0.115l-0.142-0.369l-0.588,0.3l-1.039,0.161l-0.791,0.185V45.39l0.316-0.53l-0.158-0.484  l0.158-0.276v-0.876l0.553-1.525l-1.175,0.394l-0.386,0.725l-0.541,0.504l-2.704,0.126l-1.453,0.299l-0.433,0.819l-0.402,0.015  l-0.68,0.709l-1.499,2.142l0.51-0.362l0.772-1.102l1.824-1.229l1.267-0.142l0.479,0.709l-0.593,0.598l-0.835-0.031l0.313,0.315  l0.711-0.205l0.063,0.787l0.852,0.992l0.617,0.142l1.359,0.142l0.294,0.205l-1.188,0.835l-0.896,0.205l-0.757,1.197l-0.649-0.315  l-0.124-0.646L73,48.566l-0.124-0.299l-0.711,0.457l-0.624,0.113l-0.346,0.5l-2.2,1.183l-0.402,1.354l0.556,0.662l-0.859,0.457  l-0.96-0.063l-0.711,0.41l1.232-0.094L66.29,53.75l0.062,0.536l-0.68,1.118l-0.495-0.441l0.433,1.023l-0.396,0.457l-0.438,0.852  l-0.063-0.361l0.201-0.488L64.62,56.1l-0.093-1.166l-0.418,1.07l0.279,0.284l0.123,0.567l-0.324,0.394l0.521,0.142l0.063,0.504  l0.248,0.74l-0.758,0.488l0.262,0.299l-0.045,0.252l-0.742,0.063l-0.604,0.729l-0.51,0.101l-0.634,0.504l-1.146,1.117l-0.787,1.021  l0.019,1.26l0.417,1.04l0.072,0.602l0.541,1.354l0.047,1.244l-0.521,0.882h-0.486l-0.078-0.457l-0.479-0.504l-0.808-1.623  l0.097-1.417l-1.146-1.147l-0.977,0.396L56.166,64.1l-0.929-0.252L54.354,64.1L53,63.986l-0.34,0.537l0.51,0.482l-0.186,0.189  l-0.571-0.428l-0.881,0.252L50.79,64.36l-0.525,0.222l-0.912-0.378l-1.066,0.205l-1.175,0.756l-1.144,0.563l-0.479,0.963  l0.059,0.865l-0.72,1.91l-0.294,1.623l0.278,1.669l0.711,1.56l0.322,1.135l0.68,0.109l0.541,0.6l0.68-0.11l1.854-0.268l0.773-0.269  L50.93,74.9l0.354-1.465L53,72.965l1.639,0.047l0.063,0.772l-0.683,0.661l-0.063,0.646l-0.446,1.474l-0.293,0.149l-0.134,1.953  l0.235,0.487l2.418-0.141l1.885,0.631l0.354,0.854l-0.787,3.34l1.638,2.477l0.389-0.135l0.354,0.396l1.932-0.866l1.529,0.35  l1.313,1.387L63.663,89l-1.021-1.624l0.387-0.349l-0.309-0.076l-0.717-0.68l-0.566,0.158l-0.295,0.521l-0.416,0.142l-0.125,0.205  l0.434,0.662l-0.85,0.252L60.06,87.66l-0.154-0.223l-0.094,0.475l-0.571-0.63l-0.511-0.144l-0.276,0.034L57.971,87.014z   M63.139,27.16l0.799-0.543l0.332,0.294l0.168,0.407l-0.606,0.294L63.139,27.16z M61.334,41.265v0.415l-0.748-0.415l0.092-0.254  L61.334,41.265z M60.259,29.279l0.327,0.461l0.748,0.346l-0.204,0.53l0.407-0.092l0.384,0.115l-0.203,0.484l-0.767-0.069v-0.323  l-0.545,0.046l-0.497,0.392l-0.679,0.277v-0.599h-0.633l0.385-0.369l0.406-1.521h0.543l-0.045,0.461L60.259,29.279z M61.13,31.861  l-0.543,0.622l-0.543-0.23l0.113-0.484l0.7-0.138L61.13,31.861z M61.943,32.898l0.113-0.645l0.43,0.184l-0.203,0.461  C62.283,32.898,61.943,32.898,61.943,32.898z M63.626,22.497h-0.888l-0.646,0.498l0.822,0.249l0.021-0.462l0.863-0.127l0.848,0.928  l0.711-0.158l0.556,0.43l1.267,0.77l0.532,1.086l-0.555,0.136l0.243,0.521l0.711,0.407l1.199,0.272l0.15,0.475h1.14l-0.354,1.313  l-0.444,0.86l-0.821-0.883l-0.861-0.566l-0.289,0.498l0.755,0.951l0.772,0.316l0.422,1.154l-0.439,0.464l-0.755-0.464l-0.866-0.317  l0.289,0.596l1.063,0.377l0.354,0.66l-1.62-0.23l-0.423-0.622h-0.909l-0.513-0.69l-0.955-0.838l-0.563,0.098l-0.412,0.332  l-0.887,0.068v-1.155l0.998,0.045l0.555-0.045l0.559-0.34l-0.422-0.543l0.646-0.385l0.178-0.611l-0.621-0.928l-1.108-0.928  l-0.954-0.792l-0.744,0.702l-1.086-0.566l-1.1,0.047l-0.527-0.362l-0.729-0.521l0.844-0.181l-0.222-0.294h-0.622v-0.815l0.844-1.132  l1.137-0.267l-0.502,0.539l-0.119,0.521l0.242,0.679l0.379-0.317l-0.178-0.566l0.418-0.475l1.11-0.158l1.271,0.136L63.626,22.497z   M64.158,16.749l-0.773,0.189l0.355,0.725l-0.278,0.441l-0.726,0.457l0.402,0.473l-0.559,0.488l-0.313-0.063l-0.201-0.425  l-0.758,0.246l-0.757-0.089l-0.694-0.158l0.246-0.456h0.711l-0.293-0.583l0.541-0.078l0.229,0.359l0.2-0.155v-0.677l-0.682,0.252  l-0.125-0.378l-0.74,0.331L59.3,16.829l0.494-0.189l-0.647-0.441l0.694-1.102l0.571-0.252l0.434,0.787l0.438,0.409l0.34-0.457  l-0.639-0.221l-0.104-0.929l1.188-0.425l0.518,0.205l0.354-0.536l1.5-0.378l1.392,0.457l-0.942,1.055l0.727-0.079l-0.92,1.166  L64.158,16.749z M82.671,21.175l-1.269,1.954l-0.153,0.504l0.34,0.913l-0.175,0.787l-0.846,0.41v0.378l-0.4,0.189v0.473  l-0.186,0.126l0.31,0.41l0.494,0.787v0.536l-0.278,0.567l0.278,0.189l0.587,1.512l-0.094,0.409l0.186,0.311l-0.68,0.426l-0.805-0.99  l-0.561,0.379l-0.738,0.314l-0.742-1.008l-0.834-0.157V30.09l-0.711-0.22l-0.401-0.725l0.276-0.378l-0.276-0.315l-0.31,0.504  c-0.985-0.826-0.852-0.648-1.793-1.827l0.151-0.41l-0.56-0.283v-0.598l0.648,0.031l0.063-0.441l-0.309-0.567l-0.031-0.913  l-0.412-0.032l-0.854,0.032l0.742,0.346l-0.43,0.409l-0.68-0.252l-0.246-0.536l0.397-0.094l-0.397-0.409h0.737l0.713-0.032  l-1.11-0.882h-0.648l-0.247,0.567l-0.435-0.315v-0.661l-0.188-0.756l-0.771-0.945l-0.987-0.535l-0.397-0.473L68.3,19.191h-1.267  l-0.588,0.378h-0.741l-0.402-0.662l-0.587-0.252h1.02l0.371-0.315l-0.025-0.41l-0.438,0.252l-0.771-0.126l-0.437-0.378l0.647-0.693  l0.711-0.535l0.312,0.157l-0.217-0.725l-0.494,0.158l-0.248-0.441l0.684-0.819h0.37l-0.031-0.441l0.683-0.693l0.369,0.284  l0.493-0.284l-0.435-0.315h0.713l-0.188-0.693l0.588-0.284l-0.188-0.473l1.174-0.536h0.371l-0.151,0.441l0.521-0.441l0.927-0.001  l-0.028,0.443L70.4,12.322l0.521-0.032l0.345-0.126l0.215,0.284l-0.153-0.63l0.68,0.409l0.31-0.504l-0.215-0.38l0.4-0.343  l0.711,0.535l-0.2,0.819l0.479-0.284l0.245,0.094l-0.153,0.473l0.524,0.189l1.176,1.355l0.556-0.22l0.218,0.378l0.559-0.284  l0.588,0.284l-0.711,0.567l0.398,0.315l0.586-0.284l0.188,0.284l0.617-0.063l-0.095,0.756l0.522,0.095l0.742-0.157l-0.435,0.819  l0.771-0.063l-0.124,0.914l-0.742-0.094l0.063,0.724l0.771,0.063l0.246-0.63l0.466,0.189l0.245,0.536l1.271,0.473l0.369,0.599  l-0.646,0.189l-1.082-0.315l0.221,0.378l0.49,0.221l-0.216,0.85l0.685-0.661l0.86-0.126v1.257  C82.666,21.175,82.671,21.175,82.671,21.175z"></path></svg>