<svg fill="#FFFFFF" xmlns="http://www.w3.org/2000/svg" xmlns:xlink="http://www.w3.org/1999/xlink" version="1.1" x="0px" y="0px" viewBox="0 0 100 100" enable-background="new 0 0 100 100" xml:space="preserve"><g display="none"><g display="inline"><path fill-rule="evenodd" clip-rule="evenodd" d="M50,4.7c-24.8,0-45,20.2-45,45s20.2,45,45,45s45-20.2,45-45S74.8,4.7,50,4.7z     M18.8,32.2L19,32l0.1,0.1L19,32.2l0,0.2l0.1,0.5L19,33l-0.2-0.4L18.8,32.2z M43.7,73.1c0,0-0.2-0.5-0.2-0.5l0-0.6l0.2-0.6    l-0.2,0.6l0,0.6L43.7,73.1z M44,71.3L44,71.3l0.1-0.5l0,0.1L44,71.3z M44.6,70.2l-0.3,0.3l-0.1,0.1L44.6,70.2l0.2-0.3L44.6,70.2z     M79.6,50.2l-0.4,0.1l-0.1,0L79,50.3l-0.4,0l-0.2,0.1l-0.4,0l-0.3,0.1l-0.3,0l-0.1,0.1l-0.2,0.1l0.1-0.1l-0.2,0l0-0.1l0.1-0.2    l0.3,0l0.4-0.2l0.3,0.1l0.3-0.1l0.4,0l0.4-0.2l0,0.1L79.2,50l-0.1,0.1l0.3-0.1L79.6,50.2l0.1-0.1L79.6,50.2z M81.6,49.5l-0.1,0.1    l-0.1,0l-0.1-0.1l0.1-0.1l0.1-0.1l0.2,0l0.1,0.1L81.6,49.5z M82,42.5l0.2,0.1l0.2-0.1l0.1-0.2l0.4-0.5l0.2-0.1l0.3-0.4l0.1-0.3    l0-0.3l0.3-0.2l0-0.2l0.2-0.3l0.5-0.5l0.1-0.2l0.2-0.2l0.1,0l0.2,0.1l0.2,0.2l0.3-0.1l0.4,0.1l0.1-0.1l0.5,0.5l0,0.4l-0.3,1.7    L86.2,42l0.1,0l0.1,0.2l0.1,0.1l0,0.2l0,0.1l0,0.1L86.5,43l0.1,0.1l0,0l0,0l0.5,0.3L87,43.6l0.2,0.2l0.1-0.2l0.3,0.1L87.3,44    l-0.2,0L87,43.9l-0.3,0.2l-0.2,0l-0.2,0.2l-0.1,0.1l-0.2-0.1l-0.2,0.3h-0.2l-0.1-0.3h-0.3l-0.2,0.2l-0.2,0l-0.1-0.2l0.1-0.3    l-0.3,0.4l-0.2,0.4L83.9,45l-0.1-0.1l-0.2,0.3h-0.2l0-0.3l-0.1,0.3l-0.1,0.2L83,45.2l0-0.2l-0.2,0.2h-0.1l-0.2,0.4L82.1,46    l-0.2,0.5l-0.2,0.2l-0.1,0.2L81.6,47l0,0.2h0.2l0,0.2l-0.5,0.4v0.1l0.3,0.2l0.1,0.4l0,0.2l0.4,0l0.1-0.3l0-0.2l0.1,0l0.1,0.4    l-0.2,0.3l-0.6,0.3l-0.2-0.1l0-0.2l-0.1-0.2l-0.2,0.5l-0.2,0.2l-0.2,0l0-0.2V49l-0.3-0.3V49l0,0.4l0.1,0.1l-0.2,0.1l-0.5,0    l-0.3,0.1l-0.2-0.1l-0.5,0l-0.1-0.1l-0.2,0l-0.4,0.3l-0.3,0L77.4,50l-0.2,0.1L77,50.3l0,0.2l-0.4,0.2l0.1,0.2l0.2,0.1l0,0.2    l-0.1,0.2l0,0.1l-0.1,0.2l0,0.1L76.6,52l-0.1,0.3h-0.1l-0.1,0.1l-0.1,0.4l-0.2,0.1L75.8,53l-0.1,0l0,0.2l-0.2,0.3l0-0.1l-0.2,0.1    l0.1-0.4L75.3,53l-0.2,0l-0.3-0.3l-0.1-0.2l0.1-0.2l0.4-0.5l-0.3,0.1l-0.2,0.2l-0.1,0.2l0,0.3l0.1,0.1l0,0.4l0.1,0.1l0.2,0.4    l0,0.3l-0.2,0.5l-0.3,0.2l-0.2,0.5l-0.2,0.3v0.2l-0.1,0.1l0-0.1l0-0.1l-0.3,0.5l0,0.1l-0.1,0.1l0-0.3l0.1-0.3l0.2-0.3l0-0.2    l0.2-0.2l0-0.1l0.2-0.1l-0.3,0l-0.1-0.2l0.1-0.1l0-0.1l-0.1,0l0-0.1l-0.1,0.1l-0.2-0.3l0-0.2l0.2-0.3l0.1-0.4l-0.2-0.3l0.1-0.3    l0.2-0.1l-0.1-0.1l0.1-0.2l-0.1-0.1l0,0.1l-0.1,0.2l-0.3,0.2L73.2,53l-0.1,0l0.1,0.2l0,0.2l0,0.4l0.1,0.2l0,0.2l0,0.3l0,0.5    l-0.1,0l-0.3-0.4l-0.3,0l-0.2-0.3l-0.1,0l0-0.1l0.1-0.3L72.1,54v0.2l0.2,0.1l0.2,0.2l0.3,0.1L73,55l0.2,0.1l0,0.2l-0.1,0.3l-0.2,0    l-0.1-0.2l-0.1-0.1l0.1,0.3l0.3,0.2l0.1,0.2l-0.1,0.1l0,0.1l-0.3-0.1l0.3,0.3l-0.1,0.2l-0.2-0.1l-0.1-0.2l-0.3,0l-0.2-0.1l0.2,0.2    l0.2,0.1l0.2,0l0.1,0.3l0.2,0.1l0.2,0l0.1,0.1l0.1,0.2l-0.1,0.3l-0.1-0.1l0,0.1l0.1,0.1l0,0.3L73.3,58h-0.2l-0.1,0.1l-0.4,0.1    l-0.1,0.1l-0.2-0.1L72.3,58L72.2,58l0,0.4l0,0.2l0.3-0.1l0.5-0.1l0.1,0l0,0.4l0.1,0.1l0-0.2l0.1-0.3l0.1,0l0.1,0.2L73.5,59l-0.1,0    l-0.3,0.2L73,59.4l-0.1,0.1l-0.2-0.1l-0.2,0l-0.1-0.3l0,0.2l-0.2,0.1l-0.2-0.1l-0.2,0l0.1,0.2l0.3,0.1l0.1,0.1l-0.1,0.1l0.1,0.1    L72,60l-0.2-0.1l0.2,0.2l0.3,0l0.2-0.2l0.1,0.1l0.1,0l-0.2,0.3l-0.2,0l0-0.1l-0.2,0l-0.1,0.1l-0.3,0L71,60.8l-0.7,0.5l-0.2,0.4    l-0.1,0l-0.1-0.1l-0.4,0l-0.3,0.2l-0.5,0.7v0.2l-0.2,0.2l-0.1,0l0,0.2l-0.2,0.3L68,63.3l-0.1,0l-0.1,0.1l-0.3,0l-0.1,0.2l-0.4,0    l-0.1,0.1l-0.3,0l0,0.2h-0.3L66.2,64l0.1,0.1l0,0.2l-0.2,0.3l-0.1,0l-0.1,0.2l-0.2,0.1l-0.2,0.4l-0.2,0.4V66l-0.1,0.8l0,0.4    l-0.1,0.6l0.1,0.4l0.1,0.6l0.1,0.2l0.1,0.6l0.2,0.2l0.1,0.2l-0.1,0.3l0,0.4l0.1,0.1l0.1,0.8l0.3,0.2l0.1,0.4l-0.2,0.2l0.1,0.1    l0,0.5l-0.1,0.1l0,0.2l-0.2,0.5l-0.1,0.3l-0.2,0.2l0,0.3l-0.2,0.1l-0.2,0.1l-0.2-0.1l-0.1-0.2l-0.3-0.1l0.2-0.1l-0.3-0.3l0-0.2    l-0.1-0.2l-0.2,0l-0.1-0.1l0-0.3l0-0.3l-0.3-0.2l0-0.2l0.1-0.1l0-0.2l0.2-0.2l-0.2,0.1l-0.1-0.1v0.1l-0.1,0.1l-0.1-0.2l-0.1,0    L63.2,72L63,71.9l0-0.3l-0.1-0.2l0.3-0.5l0-0.2L63,70.6l-0.1,0.1l0,0.1l-0.2,0.2l-0.1,0.1l-0.2-0.3l0-0.2l0.3-0.5l0.2-0.6l0-0.3    l-0.2-0.3l-0.2,0l-0.1-0.2l0-0.1h-0.1l-0.2-0.1l0-0.3l-0.1,0L62,68l-0.1-0.5l-0.3-0.1l-0.2-0.1l-0.3,0L61,67.5v0.1l0,0l-0.1,0    l-0.3,0.3l-0.2,0L59.9,68l-0.1-0.1l0-0.1l0,0.1l0.1,0l-0.1-0.1l-0.1-0.2l-0.3-0.2l0,0l0.2,0.1l0-0.1l-0.2-0.2l0-0.1l-0.1,0l0,0.1    l0.1,0.2l-0.2-0.1L58.9,67h-0.3l-0.3,0l0-0.1l0.3,0l0.2,0l-0.1-0.1l-0.3,0L58.1,67L58,66.9L57.6,67l-0.2-0.1l-0.2,0.1l-0.4,0    L56.7,67l-0.3-0.2l0-0.2l0-0.2l-0.2,0l-0.1,0.2l-0.1,0.2l-0.2,0l-0.2,0.1l-0.3,0L54.6,67l-0.2,0.2L54,67.3l-0.2,0.2v0.2l0.2-0.1    l0.2-0.2l0.1,0l0.1,0.1l0.2,0.1l-0.1,0.1L54,68.1l0,0.2l0.1,0.2l0.4,0.1l0.3,0.2l0,0.1L54.6,69l-0.1,0.2l0-0.3l-0.1-0.1l-0.2,0    L54,68.7l-0.2-0.1l-0.2-0.3l-0.2,0l0.1,0.2l0,0.3L53.3,69l-0.1-0.2L53,68.6l-0.2,0.1l-0.1,0.2l-0.3-0.1l-0.2-0.1l-0.2,0l-0.1-0.1    l0.1-0.1l0.2-0.1L52,68.3l-0.3,0l-0.1-0.1V68l-0.1-0.1L51.4,68l-0.1,0l0.1-0.2l-0.1-0.1l-0.3,0.1l0,0.1l0,0.2l-0.2,0L50,68.1    L49.9,68l-0.6-0.2h-0.3l-0.4,0.1L48.3,68l-0.2,0l-0.2,0.3l-0.3,0l0-0.2L47.5,68l0.2-0.2l-0.1-0.3l0,0.2l-0.3,0.2h-0.1L47,67.7    l0.2,0.4l0,0.3l0.1,0.3l-0.2,0.1h-0.2l-0.4,0.4l-0.6,0.3l-0.2,0l-0.2,0.2l-0.2,0l0.2-0.2l-0.2-0.1l-0.1,0.1l-0.1-0.1l-0.2,0.1    l0.1,0.1l-0.3,0.1l-0.1-0.1l0,0.3L44.4,70l-0.1-0.1L44,70.2l0.2,0.2l-0.3,0.2l-0.2,0.1l0.1,0.5l-0.2,0.3l-0.1,0.4l-0.2,0.3    l0.1,0.2l0,0.6l0.1,0.2l-0.1,0.3l-0.1,0.4l-0.1-0.1l-0.1-0.2l-0.2-0.1l-0.2-0.1l-0.4-0.1L41.9,73l-0.2-0.1l-0.2,0l-0.2-0.1l0,0    l-0.1-0.1l0-0.3L41,71.6l0-0.1l0-0.1l0-0.2l0-0.2l-0.2-0.2l-0.1-0.2l-0.1-0.3l-0.2-0.1L40.4,70l-0.1-0.1l-0.2-0.5l-0.1-0.2    l-0.1-0.1l0-0.3l0-0.2l-0.1-0.1l-0.1-0.3l-0.2-0.3l-0.3-0.2l-0.1-0.2l-0.2-0.1l-0.2,0l-0.1-0.1l-0.1-0.1l-0.3,0l-0.2,0l-0.2,0    l-0.1,0.2l-0.1,0l0,0l-0.1,0l-0.2,0.1l-0.1,0.1L37.1,68L37,68.1l0,0.1l0,0.1l-0.1,0l-0.2,0.2l0,0.1l-0.1,0.1l-0.1,0l-0.1-0.1    l-0.3-0.1l-0.2-0.1l0-0.1l-0.3-0.1l-0.2,0L35.3,68l0-0.1l0-0.1l-0.1-0.1l-0.1,0l-0.1-0.1l-0.1,0l0-0.1l-0.1-0.2l-0.2-0.2l-0.2-0.3    v-0.1l0.2,0l0.1-0.1l0-0.2l-0.2-0.1l0-0.1l-0.1,0l-0.1-0.1l0-0.3l-0.1-0.2l-0.2-0.1l-0.2,0l0.1-0.1l0-0.1l-0.2-0.2L33.4,65l0-0.1    l-0.1-0.2l-0.1,0l0-0.1L33,64.5l-0.2-0.3L32.6,64l-2.1-0.1l0,0.5l-3.8-0.1l-4.5-2.1l0-0.1L22.1,62l-3.2,0.1l0-0.2l0.1-0.3    l-0.1-0.4l-0.5-0.7l-0.3-0.3l-0.2,0l-0.1,0l-0.1,0l0-0.2l-0.1-0.1l-0.3-0.1l-0.2,0l-0.4-0.2v-0.2l-0.2-0.2h-0.4l-0.2,0l-0.2-0.1    l-0.3-0.1l-0.5,0l-0.1-0.1L15,58.5l0.1,0l0.1-0.2l0.1-0.4l-0.1-0.3l-0.2-0.2l0-0.1l0.1-0.1l-0.1-0.1l-0.2-0.3l-0.3-0.6l-0.1-0.5    l-0.2-0.2l0-0.2l0-0.2L14,54.9l0-0.1l0.1,0l0.2-0.2l0-0.2l-0.1-0.1l-0.2-0.1l-0.1-0.3l-0.1-0.1l0-0.2l0.1-0.2l0-0.1l0.1-0.1l0-0.2    l0.1-0.1l0.1,0.1l0.1,0.2l0.2,0.1l-0.1-0.1L14.2,53l0-0.3l-0.1-0.1l0-0.2h0.1l0.1,0.1l0.2-0.1l0.2-0.1l-0.3,0l-0.1-0.1l-0.2,0    l0-0.1l-0.1,0.1L13.9,52l0,0.3v0.3l-0.1,0l-0.1,0l0-0.1l-0.3-0.3L13.3,52l0.1-0.2l0-0.3l-0.6-0.8l-0.1-0.2l0-0.2l0.1-0.2l0-0.3    l-0.1-0.2v-0.1l0.2-0.2l0-0.3l0-0.5L12.7,48l-0.2-0.3v-0.3l0.1-0.3l0.4-0.3l0.1-0.4l-0.1-0.1l0-0.2l0.1-0.1l0.1-0.3l0.1-0.5    l-0.1-0.3l0-0.2l0.1-0.2l-0.2-0.3l0-0.3l0.1-0.5l0-0.5l0.1-0.2l0.3-0.4l0.1-0.3l0.1-0.1l0.2-0.4l0.2-0.3l0.2-0.3l0.1-0.7l0.3-0.6    l0.1-0.6l0.4-0.8l0.1-0.3l0.2-0.4l0-0.2V37l0.3-0.3l0-0.2l0.1-0.1l0.2,0.1l0.4,0l0.2,0.1l0.2,0l0.2,0.1l0.1,0.3l0-0.3l-0.1-0.2    l-0.3,0l-0.2-0.2l-0.4,0L16,36.2l0-0.1L16,36l0.1,0l0.2-0.2l0-0.3l0.1-0.2l-0.2-0.1l-0.1-0.1l0.1-0.2h0.1l0.1-0.2l0-0.1l-0.2,0    l0-0.2l0.1-0.3l-0.1-0.3l0.1-0.7l-0.1-0.5l0-0.2l0.2-0.5l0-0.3l0.1,0l0.6,0.5l0.3,0.2l0.6,0l0.2,0.1l0.1,0.2l0.1-0.1l0.1,0    l0.1,0.2L18.6,33l-0.3,0.1l-0.2,0.2l0,0.1h0.2l0.1-0.2l0.3-0.2l0.1,0l0,0.2l-0.2,0.2l-0.2,0.3l0,0.3l-0.1,0.1l0-0.2l-0.2,0.1    l-0.1-0.1l-0.2,0.2l0.1,0.1l0.2,0.1l0.3-0.2l0.1-0.2l0.1-0.2l0-0.3l0.2-0.1l0.1-0.3l0.2-0.1l0.2-0.3l-0.1-0.2l0-0.2l-0.1-0.1    l0.2-0.2l0.1-0.1l-0.2-0.1l0-0.2l0.2-0.2l0-0.2l-0.3-0.2L19,30.7l34.4,3.4l0.3,0l0.3,0l0.3,0.2l0,0.1l0.2,0.2l0.1,0l0.3,0.1l0,0.1    l0.3,0.1l0.1,0.2l0.1,0l0.2-0.1l0.2,0.1l0.2,0l0.3,0.2h0.2l0.1,0.3l0.5,0.1l0.3,0.1l0.2,0.2l0.2,0.1l0.4,0l0.2-0.1l0.1,0.1    l0.1,0.2l0.6,0l0.1,0.1l0.3,0.1l0.2,0.1l5.3,2.5l0.3,0.4l0.8,0.6l0.9,4.1l-0.1,1.8L67,46.4l-0.1,0.3l-0.2,0.3l-0.5,0.2l-0.3,0.3    l0.2,0.4l4.5-1.2l0.6-0.2l0.1-0.7l2.5-0.7l1.1-0.8l0.2-0.2l0.4-0.1l0.6-0.6l0.3-0.2l0.3-0.1l0.2-0.2l0.5-0.1l3.9,0.1l0.3-0.3    l0.1,0l0.1-0.1L82,42.5z"></path></g></g><g><path fill-rule="evenodd" clip-rule="evenodd" d="M12.8,26.3l41.3,4.1l0.3,0l0.4,0l0.4,0.3l0,0.1l0.2,0.2l0.1,0.1l0.3,0.1l0.1,0.1   l0.3,0.1l0.2,0.2l0.1,0l0.3-0.1l0.2,0.1l0.3,0l0.4,0.3h0.2l0.2,0.4l0.5,0.2l0.3,0.1l0.2,0.2l0.2,0.1l0.5,0l0.3-0.2l0.2,0.1l0.1,0.3   l0.8,0l0.2,0.2l0.4,0.1l0.2,0.2l6.3,3l0.4,0.5l1,0.8l1,4.9l-0.1,2.1l-0.2,0.4l-0.2,0.3L70,45.8l-0.6,0.3l-0.3,0.4l0.3,0.5l5.5-1.5   l0.7-0.2l0.1-0.8l3-0.9l1.3-1l0.3-0.2l0.4-0.1l0.7-0.7l0.3-0.3l0.4-0.2l0.3-0.3l0.6-0.1l4.6,0.1l0.4-0.3l0.1,0l0.1-0.1l0.2,0   l0.3,0.1l0.2-0.1l0.1-0.2l0.5-0.6l0.2-0.1L90,39l0.1-0.4l0.1-0.4l0.4-0.2l0-0.3l0.3-0.4l0.6-0.6l0.1-0.3l0.3-0.3l0.1,0l0.2,0.1   l0.2,0.2l0.3-0.1l0.4,0.1l0.1-0.1l0.6,0.6l0,0.5l-0.3,2l-0.1,0.2l0.1,0l0.1,0.2l0.1,0.2l0,0.3l0,0.2l0,0.1L93.8,41l0.1,0.1l0,0l0,0   l0.6,0.3l-0.1,0.4l0.2,0.2l0.1-0.2L95,42l-0.2,0.3l-0.3,0l-0.1-0.2L94,42.3l-0.2,0l-0.3,0.2l-0.2,0.1l-0.2-0.1l-0.3,0.4h-0.2   l-0.1-0.4h-0.4l-0.3,0.3l-0.3,0l-0.1-0.3l0.1-0.3l-0.4,0.5l-0.3,0.5l-0.2,0.1l-0.1-0.1l-0.2,0.4h-0.2l0-0.3L90,43.6l-0.1,0.2   l-0.2-0.1l0-0.2l-0.2,0.3h-0.2l-0.2,0.4l-0.6,0.5l-0.2,0.6l-0.2,0.2L88,45.7l-0.2,0.1l0,0.2H88l0,0.2l-0.6,0.5v0.1l0.4,0.2l0.2,0.5   l0,0.3l0.5,0l0.1-0.4l0-0.3l0.1,0l0.1,0.5l-0.2,0.3L88,48.5l-0.2-0.1l0-0.2l-0.1-0.3l-0.3,0.5l-0.3,0.3l-0.2,0l0-0.2v-0.3l-0.3-0.3   v0.4l0,0.4l0.1,0.1l-0.2,0.1l-0.7,0L85.5,49l-0.3-0.1l-0.6,0l-0.1-0.1l-0.2,0l-0.5,0.4l-0.3,0l-0.5,0.3l-0.3,0.1l-0.3,0.2l0,0.2   l-0.4,0.2l0.1,0.2l0.2,0.2l0,0.2l-0.2,0.2l0,0.1L82,51.5l0,0.1l-0.1,0.2l-0.1,0.3h-0.1l-0.2,0.2l-0.1,0.5l-0.2,0.1L81,53.1l-0.1,0   l0,0.2l-0.3,0.3l0-0.1l-0.2,0.2l0.2-0.4l-0.1-0.1l-0.2,0.1l-0.4-0.4l-0.1-0.2l0.1-0.2l0.5-0.6l-0.3,0.2l-0.3,0.3l-0.1,0.3l0,0.3   l0.1,0.2l0,0.4l0.2,0.2l0.2,0.5l0,0.4l-0.3,0.6l-0.4,0.2l-0.3,0.6L79,56.2v0.2l-0.1,0.1l0-0.1l0-0.1l-0.3,0.6l0,0.1l-0.1,0.1l0-0.3   l0.1-0.3l0.2-0.3l0-0.2l0.2-0.3l-0.1-0.1l0.3-0.1l-0.4,0l-0.1-0.2l0.1-0.1l0-0.1l-0.1,0l0-0.1l-0.1,0.1l-0.3-0.3l0-0.3l0.2-0.3   l0.1-0.5l-0.3-0.4l0.2-0.3l0.3-0.2l-0.1-0.1l0.1-0.3l-0.1-0.1l0,0.1l-0.1,0.3l-0.3,0.3L77.8,53l-0.1,0l0.1,0.2l-0.1,0.2l0,0.5   l0.1,0.2l0,0.2l0,0.3l0,0.6l-0.1,0l-0.4-0.4l-0.3,0l-0.2-0.4l-0.1,0l-0.1-0.2l0.1-0.3l-0.2,0.3v0.3l0.2,0.1l0.2,0.3l0.4,0.1   l0.4,0.4l0.2,0.1l0,0.3l-0.1,0.3l-0.2,0l-0.1-0.3l-0.1-0.1l0.1,0.4l0.3,0.2l0.1,0.2l-0.1,0.1l0,0.1l-0.3-0.1l0.4,0.3l-0.1,0.2   l-0.2-0.1L77.4,57L77,57l-0.3-0.1l0.2,0.3l0.3,0.1l0.2,0l0.1,0.4l0.3,0.1l0.2-0.1l0.1,0.1l0.1,0.3l-0.1,0.3l-0.2-0.1l0,0.2l0.1,0.1   l0.1,0.3L78,59.1h-0.2l-0.1,0.1l-0.4,0.1l-0.2,0.1l-0.2-0.1L76.8,59l-0.1,0.1l0,0.5l-0.1,0.2l0.3-0.1l0.6-0.1l0.1,0.1l0,0.5   l0.2,0.1l0-0.2l0.2-0.3l0.1,0l0.1,0.3l-0.1,0.3l-0.1,0l-0.3,0.3l-0.1,0.2l-0.1,0.1l-0.2-0.1l-0.2,0L77,60.4l0,0.2l-0.2,0.1   l-0.2-0.1l-0.2,0l0.2,0.2l0.4,0.1l0.1,0.2l-0.2,0.1l0.1,0.1l-0.4,0.2l-0.3-0.1l0.2,0.2l0.4,0l0.3-0.3l0.1,0.1l0.1,0l-0.3,0.3   l-0.3,0l0-0.1l-0.2,0l-0.1,0.1l-0.4,0l-0.7,0.4L74.4,63l-0.3,0.5l-0.1,0l-0.2-0.1l-0.5,0.1l-0.3,0.3l-0.6,0.8v0.2L72.2,65l-0.2,0   l0,0.2l-0.3,0.3l-0.2-0.1l-0.2,0l-0.1,0.1l-0.3,0l-0.2,0.2l-0.5,0.1L70.3,66l-0.3,0l-0.1,0.2h-0.4l-0.1,0.1l0.1,0.1l0,0.3l-0.2,0.3   l-0.1,0L69,67.1l-0.3,0.1l-0.3,0.4l-0.2,0.5v0.5l-0.1,1l0,0.4l-0.1,0.7l0.2,0.4l0.1,0.7l0.1,0.3l0.2,0.8l0.2,0.3l0.1,0.3l-0.1,0.4   l0,0.5l0.1,0.2l0.2,1l0.3,0.2l0.1,0.5l-0.2,0.2l0.1,0.1L69.3,77l-0.1,0.1l0,0.3L69,78l-0.1,0.4l-0.2,0.3l0,0.4l-0.3,0.1l-0.3,0.1   l-0.3-0.1L67.6,79l-0.3-0.1l0.2-0.1l-0.4-0.3l0-0.3L67,78l-0.3,0l-0.1-0.1l0-0.4l0-0.3l-0.4-0.3l0-0.2l0.1-0.1l0.1-0.3l0.2-0.2   l-0.3,0.1L66.2,76v0.1l-0.1,0.1L66,76l-0.1,0l-0.1-0.2l-0.2-0.2l0-0.3l-0.1-0.2l0.4-0.6l0-0.3l-0.2-0.1l-0.1,0.1l0.1,0.1l-0.2,0.3   l-0.1,0.1l-0.2-0.3l0-0.2l0.3-0.6l0.2-0.7l0-0.4l-0.2-0.4l-0.2,0l-0.1-0.2l0-0.1H65l-0.2-0.2l0-0.3l-0.1,0l-0.2-0.2l-0.2-0.6   l-0.4-0.1l-0.2-0.1l-0.3,0.1l-0.2,0.2v0.1l-0.1,0.1L63,70.6L62.6,71l-0.3,0l-0.5,0.1L61.8,71l0-0.1l0,0.1l0.1,0l-0.1-0.1l-0.2-0.2   l-0.4-0.3l0.1,0l0.2,0.1l0.1-0.1L61.3,70l-0.1-0.2l-0.1,0l0,0.1l0.2,0.2L61,70.1l-0.2-0.2h-0.4l-0.4-0.1l0.1-0.1l0.4,0l0.2-0.1   l-0.1-0.1l-0.3,0l-0.3,0.2l-0.1-0.1l-0.5,0.1L59,69.7l-0.2,0.1l-0.4,0L58,69.8l-0.3-0.3l0-0.2l0-0.2l-0.2,0l-0.1,0.3l-0.1,0.3   l-0.2,0l-0.2,0.1l-0.4-0.1l-0.9,0.2L55.3,70l-0.5,0.2l-0.3,0.3v0.2l0.2-0.1l0.2-0.2l0.1,0l0.1,0.1l0.3,0.1l-0.1,0.1l-0.5,0.2l0,0.3   l0.1,0.2l0.5,0.2l0.4,0.3l0,0.1l-0.2,0.1l-0.1,0.2l0-0.3L55.2,72L55,72l-0.2-0.2l-0.2-0.1l-0.2-0.3l-0.3,0l0.1,0.3l0,0.4L54,72.2   L53.9,72l-0.3-0.2L53.4,72l-0.2,0.2l-0.4-0.1l-0.2-0.1l-0.3,0l-0.2-0.1l0.1-0.2l0.2-0.2l-0.1-0.2l-0.3,0L52,71.3v-0.2L51.9,71   L51.7,71L51.5,71l0.1-0.2l-0.2-0.1l-0.3,0.1l0,0.2l0.1,0.2l-0.3,0l-0.9-0.1L49.8,71l-0.7-0.2h-0.4l-0.5,0.1l-0.2,0.1l-0.2,0   l-0.3,0.4l-0.4,0l0.1-0.3L47,71l0.2-0.3l-0.1-0.3l0,0.2l-0.3,0.3h-0.2l-0.2-0.2l0.2,0.5l0,0.3l0.1,0.3l-0.2,0.2h-0.2l-0.5,0.5   l-0.7,0.3l-0.2,0L44.6,73l-0.2,0l0.3-0.2l-0.2-0.2l-0.1,0.1l-0.1-0.1l-0.3,0.2l0.2,0.2L43.7,73l-0.2-0.1l0,0.4l-0.3,0.1l-0.2-0.1   l-0.3,0.4l0.2,0.2l-0.3,0.3l-0.2,0.1l0.1,0.6l-0.2,0.3l-0.1,0.5L42,76l0.1,0.2l0,0.7l0.1,0.2l-0.1,0.3L41.9,78l-0.1-0.1l-0.1-0.2   l-0.3-0.1l-0.3-0.1l-0.5-0.2L40.3,77l-0.2-0.1l-0.2,0l-0.2-0.1l0,0l-0.1-0.2l0-0.4l-0.3-0.9l0-0.1l0-0.1l0-0.3l0-0.3L39,74.3   L38.9,74l-0.1-0.3l-0.2-0.1l-0.1-0.2l-0.1-0.1l-0.2-0.6l-0.1-0.2l-0.2-0.1l0-0.4l0-0.2l-0.1-0.1l-0.1-0.3L37.4,71l-0.3-0.3   l-0.1-0.2l-0.2-0.1l-0.2,0l-0.1-0.1l-0.1-0.1l-0.3,0l-0.3,0l-0.3,0l-0.1,0.2l-0.1,0l0,0l-0.1,0l-0.2,0.1l-0.2,0.2L34.5,71l-0.1,0.2   l0,0.1l0,0.1l-0.2,0L34,71.6l0,0.1l-0.1,0.1l-0.1,0l-0.1-0.1l-0.3-0.2L33,71.4l0-0.1l-0.3-0.2l-0.2,0L32.3,71l0-0.1l-0.1-0.1   l-0.2-0.1l-0.1,0l-0.1-0.1l-0.1,0l0-0.1l-0.1-0.2l-0.2-0.3l-0.3-0.3v-0.1l0.2,0l0.1-0.1l0-0.2l-0.2-0.2L31.3,69l-0.1,0l-0.1-0.1   l0-0.4l-0.1-0.2l-0.2-0.1l-0.2-0.1l0.1-0.1l0-0.1l-0.2-0.2l-0.2-0.1l0.1-0.2L30,67.1l-0.2,0l0-0.1l-0.1-0.2l-0.3-0.4l-0.3-0.2   l-2.6-0.1l0,0.6L22,66.6l-5.4-2.5l0.1-0.1l-0.1-0.1L12.7,64l0-0.3l0.1-0.4l-0.1-0.5L12.2,62l-0.4-0.4l-0.2,0l-0.2,0l-0.1-0.1l0-0.3   l-0.1-0.2l-0.4-0.1l-0.3,0l-0.4-0.2v-0.3L10,60.3H9.6l-0.2,0l-0.3-0.2L8.8,60l-0.5,0l-0.2-0.1L8,59.7l0.1,0l0.1-0.3l0.1-0.5   l-0.1-0.3l-0.3-0.3l0-0.1l0.1-0.1L7.8,58l-0.2-0.3l-0.3-0.7l-0.1-0.5l-0.3-0.2l0-0.2l0-0.3l-0.1-0.3l0-0.1l0.1,0L7.2,55l0-0.3   L7,54.6l-0.2-0.1l-0.1-0.3l-0.1-0.1l0-0.3l0.1-0.3l0-0.1l0.1-0.1l0-0.2l0.1-0.2L6.9,53L7,53.2l0.3,0.1l-0.1-0.1L7.1,53l0-0.4   l-0.1-0.1l0-0.2h0.1l0.1,0.1l0.3-0.1l0.3-0.1l-0.4,0l-0.1-0.1l-0.3,0l0-0.1L6.9,52l-0.2-0.1l0,0.4v0.3l-0.1,0l-0.1,0l-0.1-0.2   L6.1,52L6,51.8l0.1-0.2l0-0.3l-0.7-1l-0.1-0.2l0.1-0.2l0.1-0.2l0-0.3l-0.1-0.3v-0.1l0.2-0.3l0.1-0.4l0-0.6l-0.3-0.6L5,46.7v-0.4   L5.2,46l0.5-0.3l0.2-0.4l-0.1-0.1l0-0.2l0.2-0.2L6,44.4l0.1-0.7L6,43.4l0-0.3l0.1-0.2l-0.2-0.3l0-0.4l0.2-0.6L6,41l0.1-0.3l0.4-0.5   l0.1-0.3l0.2-0.2L7,39.2l0.3-0.3l0.2-0.4l0.1-0.8L8,36.8l0.1-0.7l0.4-1l0.2-0.3l0.2-0.4l0-0.2v-0.2l0.3-0.4l0-0.3l0.1-0.1l0.2,0.1   l0.5,0l0.2,0.2l0.2,0l0.3,0.2l0.1,0.4l-0.1-0.4l-0.2-0.2l-0.3-0.1L10,33.1l-0.4,0l-0.4-0.1l0-0.2l0.1-0.1l0.1,0l0.2-0.2l0-0.3   l0.1-0.2l-0.3-0.1l-0.1-0.1l0.1-0.3h0.2l0.1-0.2l0-0.1l-0.2-0.1l0-0.2l0.1-0.4L9.4,30l0.2-0.8l-0.2-0.6l0-0.3l0.3-0.6l0-0.3l0.1,0   l0.7,0.6l0.4,0.3l0.7,0l0.3,0.1l0.1,0.3l0.1-0.1l0.1,0l0.1,0.2l-0.1,0.2L12,29.2l-0.3,0.3l0,0.2h0.3l0.1-0.2l0.3-0.3l0.2,0l0,0.3   l-0.2,0.2L12.1,30l0,0.4L12,30.5l0-0.2l-0.2,0.2l-0.1-0.1l-0.2,0.3l0.1,0.2l0.3,0.1l0.3-0.2l0.1-0.3l0.2-0.2l0-0.4l0.2-0.2l0.1-0.4   l0.3-0.2l0.3-0.3l-0.1-0.2l0-0.2L13,28.3l0.2-0.3l0.1-0.1L13,27.8l0-0.3l0.3-0.2l0-0.2L13,26.8L12.8,26.3L12.8,26.3z M87.6,48.8   l0.1,0.1l0.2,0l0.1-0.1l0.2,0L88,48.7l-0.3,0l-0.1,0.1L87.6,48.8L87.6,48.8z M82.7,50.1l-0.1,0.1L82.7,50.1l0.2-0.1l0.3,0l0.3-0.1   l0.5,0l0.2-0.1l0.5,0l0.1-0.1l0.1,0l0.4-0.1l0.2-0.2l-0.3,0.1l-0.2-0.1l-0.3,0.1l0.1-0.2l0.1-0.1l0-0.1l-0.4,0.2l-0.5,0l-0.4,0.1   l-0.3-0.1L83,49.7l-0.4,0.1L82.5,50l0,0.1L82.7,50.1L82.7,50.1z M12.9,27.8l-0.3,0.3l0,0.4l0.2,0.5l0.1-0.1l-0.2-0.6l0.1-0.3   l0.2-0.1L12.9,27.8L12.9,27.8z M43,74.2l0.1-0.1l0.3-0.4l0.2-0.3l-0.3,0.2L43,74.2L43,74.2z M42.6,75l0.1-0.1l0.1-0.4l0-0.2   L42.6,75L42.6,75z M42.5,77.2l-0.1-0.5l0-0.7l0.2-0.8l-0.3,0.7l0,0.7C42.3,76.6,42.5,77.2,42.5,77.2z"></path></g></svg>