<svg fill="#FFFFFF" xmlns="http://www.w3.org/2000/svg" xmlns:xlink="http://www.w3.org/1999/xlink" xmlns:a="http://ns.adobe.com/AdobeSVGViewerExtensions/3.0/" version="1.1" x="0px" y="0px" viewBox="-6.608 -18.829 100 100" enable-background="new -6.608 -18.829 100 100" xml:space="preserve"><path fill="#FFFFFF" d="M7.034,0.043c0,0.065,0.082,0.262,0.18,0.459C7.361,0.765,7.329,0.896,7.05,1.19  C6.837,1.419,6.739,1.682,6.788,1.944c0.049,0.229,0.033,0.295-0.033,0.164C6.608,1.763,6.215,1.485,5.707,1.387  C5.477,1.338,5.051,1.108,4.773,0.879C4.494,0.649,4.232,0.535,4.167,0.616c-0.098,0.181,0.065,2.803,0.18,3  c0.049,0.082,0,0.131-0.099,0.131c-0.098,0-0.13,0.163-0.065,0.41c0.065,0.245,0.032,0.409-0.082,0.409  c-0.295,0-0.213,0.458,0.114,0.541c0.263,0.065,0.263,0.081,0,0.098c-0.18,0.017-0.327,0.197-0.393,0.46  C3.773,5.925,3.478,6.778,3.15,7.597C2.839,8.4,2.512,9.285,2.396,9.563c-0.098,0.263-0.426,0.869-0.705,1.328  c-0.294,0.458-0.541,0.982-0.557,1.146c0,0.181-0.033,0.869-0.065,1.541C1.02,14.824,0.709,15.806,0.25,16.2  c-0.344,0.263-0.328,0.836,0.016,1.541c0.213,0.475,0.229,0.655,0.082,0.999c-0.294,0.639-0.229,1.278,0.197,2.229  c0.23,0.476,0.361,0.934,0.312,0.999c-0.115,0.214,0.459,0.804,0.672,0.672c0.098-0.049,0.082,0-0.033,0.132  c-0.098,0.115-0.197,0.557-0.197,0.982c0,0.623,0.082,0.836,0.344,1.033c0.344,0.229,0.344,0.262,0.098,0.786  c-0.147,0.295-0.197,0.605-0.131,0.705c0.065,0.082,0.229,0.426,0.344,0.736c0.115,0.313,0.36,0.771,0.524,1.017  c0.164,0.229,0.246,0.541,0.197,0.688c-0.049,0.146-0.033,0.262,0.066,0.262c0.098,0,0.164,0.344,0.147,0.754l-0.033,0.77  l0.787,0.263c0.476,0.164,0.934,0.476,1.18,0.786c0.229,0.279,0.59,0.558,0.819,0.606c0.262,0.065,0.41,0.214,0.41,0.427  c0,0.18,0.098,0.327,0.212,0.327c0.115,0,0.442,0.312,0.738,0.688c0.409,0.524,0.524,0.836,0.524,1.393  c0,0.459,0.082,0.754,0.229,0.804c0.131,0.049,1.065,0.18,2.082,0.278c1.458,0.146,1.868,0.245,1.868,0.442  c0,0.146,1.246,0.95,3.048,1.982l3.048,1.753l2.441,0.328c1.343,0.18,2.491,0.295,2.572,0.245c0.066-0.032,0.115-0.262,0.115-0.475  c0-0.394,0.049-0.409,0.623-0.328c0.328,0.05,1.032,0.131,1.557,0.181c0.672,0.082,0.983,0.197,1.098,0.41  c0.099,0.18,0.623,0.77,1.196,1.344c1.016,1.016,1.311,1.507,1.508,2.539c0.049,0.279,0.295,0.672,0.541,0.868  c0.918,0.722,1.884,1.278,2.081,1.213c0.099-0.049,0.361-0.377,0.557-0.737c0.443-0.771,0.901-0.999,1.704-0.803  c0.328,0.065,0.623,0.098,0.655,0.065c0.197-0.196,1.491,1.426,1.869,2.295c0.229,0.557,0.508,1.113,0.639,1.245  c0.656,0.721,1.082,1.343,1.147,1.753c0.131,0.705,0.787,2.016,1,2.016c0.115,0,0.459,0.147,0.787,0.327  c0.328,0.181,0.787,0.328,1.032,0.328c0.246,0,0.591,0.115,0.754,0.246c0.164,0.13,0.361,0.196,0.443,0.163  c0.229-0.147,0.327-1.327,0.146-1.786c-0.245-0.639-0.376-0.442-0.146,0.214c0.098,0.294,0.146,0.557,0.098,0.622  c-0.049,0.05-0.18-0.229-0.278-0.606c-0.115-0.442-0.131-0.737-0.033-0.803c0.082-0.049,0.296-0.524,0.459-1.032  c0.181-0.524,0.377-0.95,0.442-0.95c0.082,0,0.246-0.115,0.377-0.246s0.377-0.311,0.524-0.394c0.229-0.131,0.246-0.213,0.082-0.491  c-0.181-0.295-0.164-0.312,0.278-0.262c0.541,0.065,1.474-0.344,2.277-1.049c0.541-0.443,0.559-0.476,0.279-0.754  c-0.229-0.229-0.244-0.327-0.064-0.427c0.131-0.081,0.244-0.049,0.295,0.115c0.113,0.312,0,0.328,1.393-0.147  c1.031-0.36,1.213-0.377,1.752-0.181c0.803,0.279,2.426,0.427,2.426,0.229c0-0.098-0.195-0.164-0.441-0.164  c-0.313,0-0.395-0.049-0.264-0.18c0.264-0.263,1.541,0.344,1.443,0.688c-0.131,0.41,1.047,0.574,1.326,0.182  c0.18-0.263,0.23-0.263,0.541,0.032c0.311,0.278,0.344,0.278,0.443,0.033c0.049-0.148,0.064-0.378,0-0.508  c-0.066-0.181,0.18-0.1,0.787,0.229c0.818,0.459,1.08,0.492,1.08,0.147c0-0.082-0.262-0.262-0.574-0.409  c-0.639-0.295-0.688-0.41-0.344-0.754c0.146-0.147,0.182-0.312,0.082-0.459c-0.131-0.196-0.164-0.196-0.295,0  c-0.082,0.131-0.18,0.147-0.246,0.049c-0.115-0.196,0.59-0.737,1.18-0.934c0.23-0.065,0.477-0.033,0.639,0.115  c0.197,0.146,0.246,0.146,0.148,0c-0.082-0.132,0.033-0.197,0.377-0.197c0.393,0,0.508-0.065,0.508-0.328  c0-0.475,0.279-0.409,0.393,0.099c0.066,0.246,0.197,0.394,0.313,0.344c0.115-0.049,0.623-0.164,1.146-0.262  c0.508-0.114,0.967-0.278,1.016-0.36c0.066-0.082,0.182-0.147,0.262-0.147c0.1,0,0.115,0.065,0.066,0.164  c-0.098,0.146,0.277,0.229,0.885,0.196c0.262,0,1,0.688,1,0.95c0,0.082,0.115,0.181,0.246,0.181c0.131,0.016,0.311,0.033,0.41,0.049  c0.08,0.017,0.441-0.263,0.803-0.606c0.803-0.77,1.146-0.721,2.146,0.312c0.377,0.394,0.785,0.722,0.9,0.722  c0.1,0,0.328,0.146,0.475,0.311c0.23,0.246,0.279,0.558,0.23,1.426c-0.033,0.77,0.016,1.114,0.164,1.163  c0.098,0.049,0.195-0.032,0.195-0.18s0.082-0.263,0.164-0.263c0.197,0,0.197,0.033,0,0.574c-0.131,0.36-0.098,0.54,0.197,0.95  c0.441,0.639,0.672,0.803,0.803,0.59c0.049-0.099,0.148,0.016,0.18,0.246c0.051,0.229,0,0.458-0.098,0.491  c-0.098,0.049-0.033,0.065,0.131,0.049c0.197-0.016,0.41,0.147,0.59,0.459c0.148,0.262,0.428,0.508,0.641,0.541  c0.375,0.065,0.916,0.737,0.916,1.163c0,0.312,0.623,0.262,1.146-0.082c0.395-0.245,0.574-1.065,0.574-2.49  c0-0.771-0.229-1.245-1.523-3.294c-0.459-0.688-0.607-1.081-0.475-1.131c0.129-0.033,0-0.312-0.377-0.753  c-0.525-0.656-1.541-2.606-1.623-3.13c-0.018-0.132-0.082-0.295-0.146-0.345c-0.164-0.163-0.148-0.885,0.016-0.885  c0.082,0,0.148-0.197,0.164-0.458c0-0.247,0.164-0.771,0.344-1.18c0.18-0.394,0.279-0.787,0.23-0.886  c-0.066-0.082,0.016-0.114,0.195-0.049c0.23,0.099,0.262,0.049,0.197-0.214c-0.049-0.213,0-0.327,0.131-0.327  c0.277,0,1.229-0.787,1.229-1.017c0-0.098,0.133-0.278,0.279-0.393c0.162-0.115,0.311-0.278,0.311-0.376  c0.018-0.099,0.033-0.296,0.049-0.443c0.033-0.393,1.082-1.377,1.475-1.377c0.23,0,0.344-0.099,0.344-0.294  c0-0.427,0.969-1.672,1.297-1.672c0.146,0,0.359-0.081,0.475-0.196c0.113-0.114,0.195-0.132,0.195-0.066  c0,0.083,0.115,0.05,0.246-0.065c0.395-0.327,0.279-0.54-0.229-0.458c-0.428,0.064-0.459,0.032-0.277-0.246  c0.131-0.246,0.131-0.344-0.02-0.393c-0.408-0.148-0.195-0.313,0.297-0.247c0.393,0.065,0.508,0,0.588-0.278  c0.051-0.18,0.15-0.344,0.23-0.344c0.082,0,0.148-0.115,0.148-0.246c0-0.312-0.705-0.606-1.098-0.476  c-0.197,0.066-0.146-0.016,0.113-0.229l0.41-0.345l0.393,0.361c0.477,0.441,0.428,0.295-0.295-0.836  c-0.459-0.737-0.621-0.869-0.949-0.804c-0.213,0.033-0.426,0-0.49-0.098c-0.051-0.082-0.02-0.114,0.08-0.049  c0.279,0.164,0.377-0.181,0.098-0.394c-0.197-0.181-0.197-0.246-0.031-0.361c0.162-0.114,0.162-0.18-0.066-0.344  c-0.18-0.147-0.23-0.295-0.131-0.459c0.115-0.163,0.051-0.312-0.213-0.523c-0.197-0.164-0.262-0.263-0.146-0.197  c0.213,0.115,0.277-0.114,0.082-0.311c-0.082-0.066-0.133-0.181-0.133-0.23c-0.016-0.065-0.098-0.262-0.195-0.459  c-0.23-0.409-0.328-1.475-0.166-1.638c0.182-0.181,0.264-0.017,0.313,0.639c0.016,0.327,0.1,0.606,0.164,0.606  s0.131,0.181,0.131,0.41c0,0.36,0.148,0.491,0.541,0.426c0.064,0,0.115,0.049,0.115,0.131s0.115,0.278,0.246,0.41  c0.195,0.195,0.213,0.327,0.08,0.573c-0.211,0.409-0.211,1.163,0,1.163c0.1,0,0.164-0.114,0.164-0.246  c0-0.131,0.066-0.376,0.148-0.54c0.77-1.442,0.785-2.442,0.098-3.081c-0.229-0.213-0.41-0.442-0.41-0.524  c0-0.278,0.82,0,0.836,0.278c0,0.164,0.064,0.115,0.18-0.146c0.1-0.229,0.279-0.64,0.395-0.935c0.328-0.722,0.313-2.18-0.016-2.18  c-0.131,0-0.246-0.114-0.246-0.262c0-0.181,0.08-0.229,0.262-0.164c0.262,0.099,1.818-0.64,2.523-1.213l0.41-0.327l-0.41,0.049  c-0.23,0.033-0.77,0.213-1.211,0.409c-0.443,0.197-0.838,0.328-0.869,0.296c-0.148-0.132,1.047-0.901,1.998-1.278  c0.836-0.344,1-0.476,1.064-0.885c0.082-0.394,0.115-0.426,0.213-0.164c0.115,0.278,0.146,0.295,0.41,0.033  c0.41-0.361,0.574-0.328,0.443,0.081c-0.082,0.263-0.051,0.328,0.098,0.278c0.131-0.049,0.213-0.213,0.195-0.359  c0-0.164,0.166-0.361,0.379-0.459c0.459-0.213,0.508-0.492,0.115-0.804c-0.264-0.196-0.279-0.196-0.1,0.033  c0.115,0.148,0.164,0.312,0.1,0.36c-0.23,0.229-0.641,0.099-0.936-0.295c-0.164-0.229-0.408-0.409-0.523-0.409  c-0.295,0-0.295-0.246,0.016-0.492c0.23-0.18,0.213-0.229-0.016-0.409c-0.246-0.18-0.246-0.278-0.051-1.082  c0.131-0.491,0.23-0.999,0.23-1.131c0-0.13,0.131-0.262,0.295-0.294c0.146-0.033,0.277-0.164,0.277-0.295  c0-0.132,0.051-0.214,0.133-0.197c0.377,0.082,0.688-0.278,0.688-0.787c0-0.557,0.215-0.736,0.393-0.359  c0.082,0.164,0.115,0.164,0.197,0.016c0.049-0.114,0.182-0.164,0.297-0.114c0.113,0.049,0.293-0.099,0.408-0.295  c0.098-0.213,0.41-0.524,0.672-0.705c0.508-0.344,0.77-0.737,0.492-0.737c-0.1,0-0.166-0.114-0.166-0.245  c0-0.132-0.146-0.246-0.326-0.246c-0.215,0-0.361-0.147-0.426-0.41c-0.049-0.229-0.213-0.409-0.377-0.409  c-0.197,0-0.393-0.377-0.721-1.359c-0.328-1.033-0.541-1.427-0.854-1.59c-0.359-0.197-0.441-0.181-0.736,0.082  c-0.279,0.263-0.41,0.278-0.654,0.114c-0.182-0.114-0.363-0.196-0.395-0.196c-0.197,0-0.656,1.852-0.672,2.802  c-0.016,0.591-0.115,1.229-0.213,1.409c-0.1,0.18-0.148,0.36-0.115,0.41c0.051,0.048-0.131,0.262-0.393,0.491  c-0.264,0.246-0.492,0.491-0.525,0.59c-0.064,0.147-3.063,1.032-4.309,1.262c-0.639,0.132-0.721,0.213-1.82,1.917  c-0.229,0.345-0.344,0.623-0.262,0.623s0.182,0.213,0.213,0.491c0.049,0.377-0.031,0.59-0.375,0.918  c-0.361,0.344-0.656,0.442-1.574,0.508c-1.148,0.099-2.016,0.409-2.016,0.737c0,0.099,0.115,0.312,0.246,0.459  c0.229,0.245,0.18,0.344-0.41,1.016c-0.359,0.427-1.08,1.033-1.59,1.359c-0.523,0.346-1.129,0.787-1.359,0.968  c-0.459,0.394-1.426,0.77-1.803,0.688c-0.639-0.131-1.146-0.313-1.146-0.41c0-0.049,0.115-0.393,0.262-0.754  c0.131-0.36,0.279-0.786,0.344-0.95c0.051-0.147,0.197-0.278,0.313-0.278c0.131,0,0.229-0.147,0.229-0.328  c0-0.524-0.688-2.49-0.916-2.572c-0.279-0.099-0.887,0.246-0.887,0.508c0,0.394-0.426,0.623-0.639,0.36  c-0.146-0.18-0.131-0.278,0.066-0.475c0.131-0.147,0.244-0.377,0.244-0.508c0-0.147,0.084-0.263,0.164-0.263  c0.213,0,0.213-1.099-0.016-1.229c-0.082-0.065-0.131-0.197-0.1-0.295c0.1-0.296-0.195-0.771-0.475-0.771  c-0.131,0-0.572-0.148-0.982-0.344c-0.605-0.263-0.787-0.295-0.982-0.132c-0.148,0.115-0.213,0.345-0.182,0.491  c0.049,0.164-0.016,0.328-0.146,0.377c-0.131,0.05-0.229,0.313-0.229,0.591c0,0.262-0.066,0.491-0.166,0.491  c-0.082,0-0.162-0.164-0.162-0.345c0-0.327-0.016-0.327-0.361,0.099c-0.639,0.819-0.869,2.605-0.441,3.523  c0.475,1,0.523,1.573,0.229,2.458c-0.279,0.819-0.736,1.311-1.229,1.311c-0.313,0-0.82-1.064-0.82-1.671  c0-0.229-0.08-0.64-0.18-0.935c-0.213-0.605,0.049-2.949,0.459-4.08c0.262-0.754,0.197-1.114-0.1-0.541  c-0.098,0.181-0.375,0.541-0.605,0.787l-0.441,0.458l0.131-0.409c0.064-0.229,0.18-0.442,0.229-0.491  c0.049-0.05,0.279-0.459,0.492-0.934c0.213-0.476,0.459-0.82,0.541-0.771c0.066,0.049,0.131,0,0.131-0.083  c0-0.097,0.082-0.18,0.18-0.18c0.082,0,0.115,0.065,0.064,0.164c-0.049,0.082-0.031,0.164,0.066,0.164  c0.1,0,0.246-0.148,0.346-0.312c0.08-0.181,0.375-0.36,0.654-0.426c0.262-0.065,0.525-0.164,0.574-0.246  c0.047-0.082,0.311-0.065,0.59,0.033c0.326,0.114,0.541,0.114,0.623,0.016c0.049-0.098,0.277-0.146,0.506-0.131  c0.607,0.065,0.723-0.081,0.346-0.427c-0.197-0.18-0.346-0.393-0.346-0.475c0-0.099-0.262-0.114-0.572-0.065  c-0.508,0.082-0.574,0.05-0.574-0.262c0-0.279-0.064-0.328-0.277-0.246c-0.164,0.065-0.574,0.181-0.918,0.246  c-0.346,0.064-0.738,0.245-0.902,0.377c-0.375,0.344-1.096,0.262-1.59-0.213c-0.293-0.279-0.506-0.345-0.9-0.279  c-0.262,0.065-0.49,0.082-0.49,0.033c0-0.033,0.229-0.328,0.506-0.655c0.477-0.524,0.477-0.573,0.166-0.573  c-0.182,0-0.689,0.327-1.115,0.737c-0.41,0.409-0.869,0.737-1.016,0.737c-0.131,0-0.359,0.114-0.508,0.245  c-0.164,0.147-0.574,0.312-0.918,0.361l-0.641,0.098l0.41-0.476c0.23-0.262,0.313-0.393,0.182-0.278  c-0.115,0.099-0.313,0.147-0.426,0.099c-0.115-0.033-0.443,0.049-0.723,0.18C49.982,9.58,49.917,9.35,50.8,8.351  c0.51-0.59,1.148-1.114,1.641-1.344c0.721-0.327,0.867-0.524,0.459-0.574c-0.084-0.016-0.166-0.032-0.182-0.049  c-0.18-0.131-1.572-0.098-1.736,0.033s-0.361,0.099-0.705-0.115c-0.279-0.163-0.59-0.245-0.721-0.213  c-0.115,0.05-0.344-0.049-0.492-0.213c-0.377-0.426-0.818-0.54-1.195-0.345c-0.213,0.115-0.525,0.099-1.033-0.049  c-0.623-0.18-0.736-0.295-0.867-0.818c-0.166-0.64-0.59-0.82-0.59-0.247v0.361L40.02,4.68c-5.801-0.099-7.734-0.229-13.158-0.868  C20.454,3.058,13.113,1.633,7.411,0.043C7.198-0.022,7.034-0.006,7.034,0.043z"></path><path fill="#FFFFFF" d="M12.343,47.498c-0.099,0.098-0.295,0.196-0.41,0.229c-0.426,0.066-1.147,0.64-1.393,1.099  c-0.164,0.328-0.361,0.475-0.623,0.475c-0.623,0-0.639,0.442-0.049,1.164c0.278,0.344,0.623,0.64,0.737,0.64  c0.115,0,0.181,0.065,0.115,0.146c-0.049,0.082-0.016,0.197,0.082,0.263c0.295,0.18,0.164,0.409-0.246,0.409  c-0.262,0-0.41-0.099-0.41-0.245c0-0.328-0.099-0.312-0.95,0.146c-0.623,0.312-0.688,0.394-0.459,0.574  C8.886,52.528,9,52.741,9,52.905s0.115,0.345,0.262,0.394c0.393,0.146,1.196,0.114,1.524-0.049c0.246-0.148,0.295-0.083,0.312,0.409  c0.016,0.36-0.049,0.557-0.197,0.557c-0.115,0-0.312,0.115-0.426,0.246c-0.147,0.181-0.262,0.196-0.426,0.066  c-0.147-0.132-0.262-0.083-0.442,0.212c-0.115,0.213-0.344,0.574-0.491,0.819c-0.246,0.394-0.246,0.459-0.017,0.705  c0.148,0.131,0.229,0.344,0.181,0.459c-0.049,0.114,0.065,0.376,0.229,0.573c0.213,0.278,0.394,0.344,0.705,0.263  c0.41-0.099,0.426-0.066,0.426,0.589v0.688l0.41-0.262c0.376-0.246,0.409-0.246,0.737,0.098c0.229,0.246,0.328,0.278,0.328,0.115  c0-0.132,0.164-0.229,0.409-0.229c0.246,0,0.345,0.049,0.246,0.147c-0.098,0.099-0.164,0.328-0.164,0.508  c0,0.427-1.359,1.885-1.753,1.885c-0.164,0-0.475,0.196-0.688,0.409c-0.196,0.229-0.426,0.377-0.508,0.328  c-0.164-0.099-0.754,0.36-0.623,0.492c0.065,0.064,0.524-0.083,1.016-0.328c0.492-0.246,0.967-0.394,1.049-0.345  c0.098,0.05,0.196-0.017,0.262-0.147c0.049-0.131,0.197-0.245,0.344-0.245c0.295,0,2.867-2.59,2.867-2.885  c0-0.114-0.098-0.229-0.196-0.278c-0.147-0.05-0.098-0.196,0.164-0.475c0.197-0.214,0.361-0.509,0.361-0.64  c0-0.262,0.655-0.967,0.901-0.967c0.082,0,0,0.114-0.196,0.246c-0.328,0.229-0.623,1.229-0.361,1.229  c0.082,0,0.099,0.115,0.049,0.246c-0.164,0.426,0.147,0.263,0.901-0.427c0.524-0.491,0.672-0.704,0.524-0.852  c-0.099-0.099-0.18-0.229-0.18-0.295c0-0.131,0.721-0.065,0.967,0.099c0.246,0.147,0.868,0.278,1.163,0.246  c0.935-0.083,1.835-0.065,1.901,0.032c0.049,0.082,0.229,0.131,0.41,0.131c0.18,0,0.508,0.115,0.721,0.263  c0.328,0.212,0.458,0.229,0.655,0.065c0.147-0.114,0.295-0.164,0.361-0.099c0.049,0.05,0.016,0.099-0.082,0.099  c-0.295,0-0.229,0.295,0.131,0.655c0.181,0.181,0.328,0.278,0.328,0.229s0.147,0.065,0.312,0.278l0.311,0.394l-0.016-0.655  c0-0.361-0.082-0.771-0.18-0.901c-0.098-0.132-0.017-0.114,0.18,0.065c0.262,0.213,0.328,0.377,0.229,0.573  c-0.082,0.148-0.082,0.409,0,0.591c0.065,0.18,0.131,0.229,0.131,0.114c0.016-0.278,0.36,0.032,0.655,0.59  c0.098,0.197,0.262,0.36,0.36,0.36c0.098,0,0.115-0.099,0.049-0.213c-0.082-0.132-0.033-0.132,0.147,0.032  c0.36,0.278,0.376-0.032,0.016-0.376c-0.131-0.148-0.18-0.263-0.098-0.263s0.197,0.049,0.262,0.114  c0.18,0.197,0.917,0.246,0.917,0.065c0-0.54-0.41-0.982-1.065-1.146c-0.377-0.099-0.787-0.295-0.918-0.442  c-0.278-0.344-1.868-1.377-2.114-1.377c-0.098,0-0.246,0.182-0.328,0.41c-0.147,0.377-0.197,0.394-0.524,0.229  c-0.213-0.099-0.508-0.295-0.656-0.426c-0.197-0.181-0.344-0.196-0.59-0.066c-0.279,0.148-0.361,0.131-0.426-0.114  c-1.934-6.719-2.294-7.767-2.671-7.914c-0.229-0.083-0.475-0.099-0.574-0.05c-0.229,0.148-2.425,0.082-2.654-0.065  c-0.099-0.065-0.328-0.114-0.508-0.131s-0.442-0.065-0.574-0.131C12.622,47.382,12.441,47.4,12.343,47.498z"></path></svg>