<svg fill="#FFFFFF" xmlns="http://www.w3.org/2000/svg" xmlns:xlink="http://www.w3.org/1999/xlink" version="1.0" x="0px" y="0px" viewBox="0 0 100 100" enable-background="new 0 0 100 100" xml:space="preserve"><polygon points="95.1917572,34.1863327 94.4929428,33.5210533 93.4419098,33.9123993 92.9219971,33.3086281 91.7256088,35.0417023   91.2448273,36.8027267 90.6857681,37.8202133 90.0204926,38.1668243 89.5173416,38.2786446 89.3608093,38.8265228   86.4704819,38.8265228 84.0888977,38.8432961 83.3789062,39.2514114 81.7744141,40.7776413 81.9365463,41.0795364   82.0315933,41.9237175 80.8575745,42.6337128 79.5717468,42.4548111 78.3418274,42.3765335 77.5982819,42.6225204   77.7380447,43.2654305 77.7380447,43.2654305 77.7659988,43.4722786 76.4130859,44.7413292 75.2334824,45.3506966   74.4284363,45.6358223 73.5004044,46.2116508 72.3655167,46.4911766 71.58284,46.3849564 70.6156769,45.9544868   71.1523743,45.1438484 71.4989853,44.4058914 72.2369461,43.2374687 72.1586761,42.359745 71.8791504,41.1074638   71.2977371,40.8894234 70.3249741,41.8398285 70.0119095,41.8230553 69.9336395,41.2807693 70.7945786,40.4086456   70.9399338,39.4079285 70.8113556,38.4072151 69.6485138,37.5406837 68.317955,37.0934486 68.0999298,37.9432068   67.7533112,38.1668243 67.4737854,39.2569923 67.3284378,38.5134544 66.7022934,39.0445633 66.3109589,39.7825203   65.9028473,40.8559189 65.824585,41.7727776 66.3444977,43.1033325 66.2997742,44.5065689 65.6624527,45.5352287   65.3437881,45.8259315 64.9189072,46.0551491 64.3878021,46.0663223 64.2424545,45.9265594 63.8175735,44.819622   63.8063889,44.27174 63.8511162,43.7462273 63.6554413,42.7007942 63.9517403,41.4820557 64.3039474,39.9670219   65.1201706,38.2730827 64.8853683,38.2786789 63.7337189,39.6986847 63.5212746,39.4415245 64.1362381,38.6476555   65.0698624,37.2108765 66.1376572,37.0096245 67.3619919,36.5623894 68.5975113,36.7971992 68.6478271,36.8083725   70.0286942,36.6071205 69.2460175,35.7070503 68.8267288,35.6343689 68.3459396,35.5449181 68.016098,34.907589   66.4786911,35.1088409 65.0866394,35.6119843 63.9852982,34.7454567 63.0964012,34.4547539 63.5995483,33.2415924   62.2130928,34.0074997 60.9552155,34.7510338 59.747654,35.3324585 58.7860756,34.5497818 57.2151299,35.0249825   57.2207184,34.6895485 58.2829208,33.722374 59.3954468,32.7999344 60.9943466,32.0340309 59.0656052,31.4246616   57.7965469,31.7321358 56.2759132,31.0053692 54.6770134,30.6307945 53.5812569,30.4854355 53.094883,30.0829144   52.8153534,28.7691288 52.2842522,28.780304 52.2786636,29.6971645 49.0361404,29.6971645 43.6747932,29.6971645   38.3469887,29.6971645 33.63974,29.6971645 28.938076,29.6971645 24.3146801,29.6971645 19.53475,29.6971645 17.9917583,29.6971645   13.3404169,29.6971645 8.8903275,29.6971645 9.4214287,31.6370888 9.6730022,33.5434723 9.2872524,34.1528397 8.4542561,31.9669304   6.1900768,31.1730633 6,31.6314926 6.458426,32.7160645 6.9559851,34.6895294 7.2411051,37.7196198 7.0510283,39.7266312   6.8609509,41.7056923 6.2459903,43.723877 6.7491417,45.3451347 6.8050461,47.1341209 6.4640217,48.8392372 7.2970142,49.9517517   7.5150456,51.600975 8.7281961,53.2725449 9.4214287,53.926651 9.3655195,54.3850784 10.6737089,57.0965042 12.1943417,59.0252533   12.3844185,60.0706863 12.781352,60.3781624 14.2349014,60.5626411 14.7939577,61.0713844 15.6716795,61.1664314   15.844985,61.7031212 16.5773468,61.9267387 17.5948334,63.0001335 17.8575897,63.9505386 19.6409798,63.8107719   21.631218,63.60952 21.4858665,63.9729042 23.8506718,64.8673935 27.428627,66.1588135 30.5481606,66.147644 31.7892647,66.147644   31.7948532,65.3929138 34.5118675,65.3929138 35.0821037,66.04142 35.8815498,66.6172485 36.8151741,67.4166946   37.3350906,68.361496 37.726429,69.3510208 38.5370598,69.8933029 39.8396606,70.4299927 40.8291931,69.0155869   42.1094246,68.9820404 43.2163544,69.6976318 44.0046272,70.9163742 44.5469093,71.9562073 45.4693489,72.9625015   45.8159637,74.1868362 46.2576141,75.0086441 47.481945,75.5453339 48.594471,75.9254913 49.2038383,75.8751755   48.9075394,75.2825775 48.8292732,74.4439926 48.8460464,73.2364349 49.2094269,72.4425659 50.0647812,71.5983887   51.6245461,70.8324814 53.0501404,69.5075226 54.3695107,69.0882263 55.3422737,68.9596405 56.4827423,69.3733368   57.8524284,69.1497192 59.0208549,70.0945206 60.1557388,70.1504288 60.7427483,69.8094177 61.3241615,70.0721741   61.6204605,69.8373642 61.2850227,69.4851532 61.3129768,68.7583847 61.0334511,68.2776108 61.6819572,67.9980774   62.8783379,67.8750839 64.2703934,68.0763397 66.0425949,67.8471222 67.026535,68.2943649 67.78685,69.1329498   68.0663757,69.2223969 69.6485062,68.4061813 70.2578735,68.6801147 71.4822083,70.1783752 71.9238586,71.156723   71.5996094,72.3307495 71.8344116,73.0183945 72.5611801,74.3601227 73.3941803,75.8583908 73.9923706,76.2553177   74.2383575,77.0100403 75.0098572,77.2168884 75.4794617,76.998848 75.8708038,75.9422302 75.9378891,75.2657776   75.9881973,74.0917511 75.2446518,72.0512009 75.2334671,71.2853012 74.5346527,70.02742 74.0091324,68.4900208   73.7296066,67.2321396 73.9700012,65.9407272 74.7079544,64.8561554 75.5912628,63.9784317 77.3131561,62.7708702   77.5367813,62.1447296 78.3306351,61.4570847 79.1133194,61.3340912 80.141983,60.2271538 81.763237,59.6625023   82.7583618,58.2480888 82.5403214,56.3137627 82.3781891,55.63731 81.930954,55.5031395 81.8638687,53.6302986   80.7848892,52.9929657 81.8191528,53.3060379 81.4837112,52.0425644 81.7856064,51.1760368 81.9700851,52.8364334   82.7695312,53.5967407 82.2831573,54.9384727 82.4285202,55.0167465 83.311821,53.4458008 83.8149643,52.6743011   83.7926025,51.9195709 83.4012527,51.5617676 83.0770111,50.4771996 83.5913467,50.9803467 83.9379578,51.0865669   84.0553589,51.6009064 85.1958389,50.04673 85.53685,48.5820084 85.0728455,48.4869614 85.5480423,47.916729 85.5033264,48.1683121   86.5040436,48.1627159 88.7011261,47.5421715 88.2371216,47.1508255 85.9338074,47.5421715 87.2419968,46.9439774   88.1532669,46.8433495 88.8353119,46.7371292 89.9925613,46.373745 90.7472916,46.4128838 91.8039169,46.0718689   91.9269104,45.4736748 91.4573059,45.0040703 91.6194382,45.7699738 90.9709244,45.7196617 90.4510117,44.6071434   90.4677811,43.4834366 90.7361374,43.002655 91.5635452,41.7280083 93.2183456,41.0850983 94.8284302,40.3359642 96.5,39.2737617   96.2316437,38.5525742 95.20858,37.2947006 "></polygon></svg>