<svg fill="#FFFFFF" xmlns="http://www.w3.org/2000/svg" xmlns:xlink="http://www.w3.org/1999/xlink" version="1.1" x="0px" y="0px" viewBox="0 0 100 100" style="enable-background:new 0 0 100 100;" xml:space="preserve"><g><path d="M93.2,69.6l-10.3-7.4V47.2h0V25.8l0-4.3c0-1.8-1.5-3.3-3.3-3.3h-4.2L51,18.3H23.1h-3.4c-1.8,0-3.3,1.5-3.3,3.3l0,3.3v37.2   L6.2,69.6c-2.9,4.4,0.3,10.2,5.5,10.2h76C92.9,79.8,96.1,73.9,93.2,69.6z M51.6,20.1c0.2,0,0.4,0.1,0.4,0.4c0,0.1-0.1,0.2-0.2,0.2   c-0.2,0-0.4-0.1-0.4-0.4C51.4,20.2,51.5,20.1,51.6,20.1z M48.6,20.1c0.1-0.4,0.4-0.8,0.9-0.9c0.8-0.1,1.4,0.5,1.3,1.3   c-0.1,0.4-0.4,0.8-0.9,0.9C49.1,21.6,48.5,20.9,48.6,20.1z M21,47.5V33.8v-9.3c0-1.1,0.9-2,2-2H51l24.5,0c1.6,0,2.8,1.3,2.8,2.8   v21.9v5.7v7.6h-9.5h-1.5c-1-5.8-4.9-10.7-10.1-13c2.3-2,3.8-5.1,3.6-8.4c-0.2-5.5-4.8-10-10.3-10.1c-5.9-0.1-10.8,4.6-10.8,10.5   c0,3.1,1.3,5.9,3.5,7.8c-5.4,2.3-9.4,7.2-10.5,13.2h-2.5H21V47.5z M87.6,75.2H11.7c-1.6,0-2.6-1.8-1.7-3.1l9.9-6.9h59.4l9.9,6.9   C90.2,73.4,89.2,75.2,87.6,75.2z"></path><path d="M77.2,67.3h-55l-4.7,3.7c-0.6,0.5-0.3,1.4,0.5,1.4h63.5c0.7,0,1.1-0.9,0.5-1.4L77.2,67.3z"></path></g></svg>