<svg fill="#FFFFFF" xmlns="http://www.w3.org/2000/svg" xmlns:xlink="http://www.w3.org/1999/xlink" version="1.1" x="0px" y="0px" viewBox="0 0 100 100" enable-background="new 0 0 100 100" xml:space="preserve"><path d="M18.616785,42.8813248c0,0.7927856-0.6426392,1.4354248-1.4354248,1.4354248  c-0.7927246,0-1.4354248-0.6426392-1.4354248-1.4354248S16.3886356,41.4459,17.1813602,41.4459  C17.9741459,41.4459,18.616785,42.0885391,18.616785,42.8813248z M30.4314823,41.4459  c-0.7927856,0-1.4354248,0.6426392-1.4354248,1.4354248s0.6426392,1.4354248,1.4354248,1.4354248  s1.4354248-0.6426392,1.4354248-1.4354248S31.224268,41.4459,30.4314823,41.4459z M23.4287357,50.0181656l1.1523438,0.0888672  c0.0258789,0.0019531,0.0517578,0.0029297,0.0776367,0.0029297c0.5175781,0,0.9555664-0.3984375,0.9960938-0.9228516  c0.0424805-0.5507813-0.3696289-1.0317383-0.9204102-1.0742188l-0.6308594-0.0488281l0.5400391-1.5756836  c0.1791992-0.5224609-0.0991211-1.0908203-0.621582-1.2700195c-0.5224609-0.1806641-1.0917969,0.0986328-1.2700195,0.621582  l-0.7099609,2.0698242c-0.1616211,0.4711914-0.097168,0.9804688,0.1767578,1.3955078  C22.4922123,49.7212906,22.9341068,49.9810562,23.4287357,50.0181656z M20.241724,51.9722672  c-0.4790039,0.2744141-0.6445313,0.8857422-0.3701172,1.3642578c0.6743164,1.1757813,2.21875,1.9355469,3.9345703,1.9355469  c1.7163086,0,3.2607422-0.7597656,3.9350586-1.9355469c0.2744141-0.4785156,0.1088867-1.0898438-0.3701172-1.3642578  c-0.4799805-0.2753906-1.0908203-0.1083984-1.3652344,0.3701172c-0.2568359,0.4472656-1.0546875,0.9296875-2.199707,0.9296875  c-1.1445313,0-1.9423828-0.4824219-2.1992188-0.9296875C21.332056,51.8638687,20.7212162,51.6968765,20.241724,51.9722672z   M27.9341068,42.2261734c0.2524414,0,0.5048828-0.0947266,0.6992188-0.2851563  c1.8701172-1.8271484,3.7958965-0.2421875,4.0122051-0.0522461c0.4116211,0.3652344,1.0410156,0.3305664,1.4086914-0.0786133  c0.3691406-0.4106445,0.3354492-1.0429688-0.0751953-1.4121094c-1.1943359-1.0737305-4.1415997-2.4316406-6.7441387,0.1132813  c-0.3950195,0.3862305-0.4018555,1.019043-0.015625,1.4140625C27.4150639,42.1255875,27.6743412,42.2261734,27.9341068,42.2261734z   M18.979517,41.9410172c0.1943359,0.1904297,0.4467773,0.2851563,0.6992188,0.2851563  c0.2597656,0,0.519043-0.1005859,0.7148438-0.3007813c0.3862305-0.3950195,0.3793945-1.027832-0.015625-1.4140625  c-2.6020508-2.5454102-5.5498047-1.1870117-6.7436523-0.1132813c-0.4106445,0.3691406-0.4443359,1.0014648-0.0751953,1.4121094  c0.3696289,0.409668,1.0014648,0.4453125,1.4121094,0.0751953C15.0561771,41.8096695,17.050806,40.0572281,18.979517,41.9410172z   M47.2002182,77.4908218l0.1264648,4.5439453c0.015625,0.5517578-0.4194336,1.0117188-0.9716797,1.0273438  c-0.0092773,0-0.019043,0-0.0283203,0c-0.5395508,0-0.9838867-0.4296875-0.9990234-0.9726563l-0.0007935-0.02771  l-0.1256714-4.5162354c-0.0565796-2.0305176-0.5690918-3.9335938-1.4251709-5.609375  c-0.3742065-0.7325439-0.8131714-1.4207764-1.3139648-2.0549316c-1.3381958-1.694458-3.0946655-3.0083618-5.12854-3.756897  c-0.6326904-0.2328491-1.2908936-0.4130859-1.9716797-0.5319214c-0.0778809,0.0690308-0.1686401,0.1339111-0.2555542,0.2000122  c-2.1580811,1.640686-7.0236187,2.3869019-11.2996197,2.3869019c-4.2766113,0-9.1422729-0.7459106-11.300293-2.3869019  c-0.0861206-0.0654907-0.1761475-0.1296997-0.253418-0.1980591c-0.6749268,0.1213379-1.3264771,0.3027344-1.953064,0.5335083  c-2.0462036,0.7537231-3.8078008,2.0663452-5.1473393,3.7581787c-0.5015259,0.6334229-0.9403687,1.3210449-1.314636,2.052124  c-0.8577271,1.6755981-1.369812,3.5777588-1.4262695,5.6073608l-0.1256714,4.5162354l-0.0007935,0.02771  c-0.015625,0.5517578-0.4897461,0.9638672-1.0273438,0.9726563c-0.5522461-0.015625-0.9873047-0.4755859-0.9716797-1.0273438  l0.1264648-4.5439453c0.0830688-2.9901733,1.0192261-5.74646,2.5620728-8.0184937  c-0.1699219-0.8417358-0.2408447-1.7574463-0.1548462-2.8359985c0.1000977-1.2539063,0.5683594-2.3544922,1.0209961-3.4179688  c1.0336912-2.4296875,2.0097654-4.7246094-0.8720703-9.3359375C-1.3359129,46.9942398,2.3652589,39.47715,3.2695558,37.8472672  c0.2011719-7.9121094,2.4179685-13.6376953,6.5898438-17.0195313c5.1381836-4.1645508,11.5200195-3.3276367,12.9584961-3.0722656  c1.6362305-0.4858398,9.0649414-2.3422861,14.82617,1.9433594c4.4667969,3.3227539,6.7231445,9.4335938,6.706543,18.1616211  c0.9052734,1.637207,4.5888672,9.1479492,0.293457,16.0219727c-2.8818359,4.6113281-1.9057617,6.90625-0.8720703,9.3359375  c0.4526367,1.0634766,0.9208984,2.1640625,1.0209961,3.4189453c0.0861206,1.0797729,0.0149536,1.9963379-0.1555176,2.8389282  C46.1820297,71.7479019,47.1171494,74.5025406,47.2002182,77.4908218z M4.7995849,67.2743912  c1.9170532-1.8682251,4.3595586-3.1558838,7.0996709-3.6364136c0.1740723-0.0305176,0.3442383-0.0715332,0.5206909-0.0953979  c0.1990356-0.026001,0.4168701,0.0127563,0.6110229,0.0981445l4.3860474-0.9086914l-0.0012817-3.4846191  c-0.3672485-0.2220459-0.725647-0.4614258-1.0749512-0.7165527c-2.9630127-2.1638184-5.2602539-5.4504395-6.588562-8.7912598  c-1.6940308-0.3455811-3.3480229-2.1674194-3.884522-3.6311035c-0.3999023-1.0913086-0.3520508-2.2495117,0.1323242-3.1777344  c0.4140625-0.7929688,1.109375-1.3535156,1.9589844-1.5771484c0.223084-0.0593872,0.4489751-0.0910034,0.6749272-0.1022949  c0.0640869-0.5284424,0.1451416-1.0460815,0.2502441-1.5498047c-0.3707886-0.1958618-0.6130371-0.5631714-0.6160889-0.9851074  c-0.0123901-1.7225952,0.1687622-3.3213501,0.5023193-4.8103638c-0.0045776-0.1151123-0.0238037-0.2305298-0.0238037-0.3453979  c0-6.3603516,6.7558594-11.5351563,15.0600586-11.5351563c7.793457,0,14.222105,4.5586548,14.9829693,10.3772583  c0.8201294,2.7844238,0.4925537,8.0250854,0.477478,8.2550659c-0.0158691,0.2418213-0.1332397,0.4570923-0.302002,0.6272583  c0.3353882-0.0498047,0.6710205-0.0456543,0.998291,0.0402222c0.6655273,0.175293,1.2075195,0.6328125,1.5678711,1.3232422  c0.5888672,1.1289063,0.6445313,2.8867188,0.1357422,4.2749023c-0.6401367,1.7460938-2.2167969,2.8916016-3.8183594,2.8916016  c-0.0016479,0-0.0033569-0.0003052-0.0050049-0.0003052c-1.3721924,3.3513794-3.7458496,6.4916992-6.6731548,8.5993652  c-0.3172607,0.2284546-0.6436157,0.4365845-0.9733276,0.6394653l-0.0013428,3.6784668l4.3615704,0.9036255  c0.1781616-0.0878906,0.3792725-0.1281738,0.5866699-0.0999146c0.1937256,0.0261841,0.3806763,0.0704346,0.5715332,0.1045532  c2.7442017,0.4905396,5.1844482,1.7785034,7.0982666,3.6417847c-0.0050659-0.1619263-0.0008545-0.3143311-0.0145264-0.4855957  c-0.0742188-0.9306641-0.4594727-1.8369141-0.8676758-2.7949219c-1.0771484-2.5322266-2.4179688-5.6835938,1.0161133-11.1796875  c3.8486328-6.1582031,0.0620117-13.2666016-0.3823242-14.0566406c-0.1416016-0.2504883-0.2158203-0.5380859-0.2148438-0.8295898  c0.0283203-8.1020508-1.956543-13.6982422-5.9003906-16.6323242c-5.1948223-3.8652344-12.3300762-1.8535156-13.1259747-1.6118164  c-0.2602539,0.0800781-0.5283203,0.0952148-0.7949219,0.0444336c-1.1040039-0.206543-6.8510742-1.0507813-11.4106445,2.6455078  C7.409204,25.3882828,5.440454,30.6343765,5.2666259,37.973732c-0.0058594,0.2753906-0.0805664,0.5478516-0.2158203,0.7851563  c-0.4438477,0.7871094-4.2407227,7.8955078-0.3857422,14.0629883c3.4340825,5.4960938,2.0932617,8.6474609,1.0161133,11.1796875  c-0.4082031,0.9580078-0.793457,1.8642578-0.8671875,2.7939453C4.8005004,66.9644547,4.8047118,67.1145401,4.7995849,67.2743912z   M31.9178715,65.1314468l-2.9256592-0.6064453c-0.4643555-0.0966797-0.796875-0.5058594-0.796875-0.9794922l0.0013428-3.4423218  c-1.4573975,0.6082153-2.9974976,0.953064-4.5814209,0.953064c-1.4749756,0-2.8794556-0.2977905-4.1990356-0.8171997  l0.0012817,3.3064575c0,0.4736328-0.3325195,0.8828125-0.796875,0.9794922l-2.9256592,0.6064453  c1.7937622,0.5777588,4.5411377,1.0478516,8.1116943,1.0478516C27.3769169,66.1792984,30.1241703,65.7092056,31.9178715,65.1314468z   M17.6825809,56.9880142c0.2403564,0.1696777,0.4846802,0.329834,0.7324219,0.4812622  c0.3272095,0.2001343,0.6616821,0.3772583,1.0003052,0.5429688c1.3354492,0.6533813,2.7484741,1.0440063,4.1999512,1.0440063  c1.588623,0,3.1325073-0.4412842,4.5823364-1.1734619c0.3394165-0.1714478,0.6726685-0.3572388,1.0003052-0.5610352  c0.220459-0.137146,0.4429932-0.269104,0.6575317-0.4197998c0.1165161-0.0818481,0.2279053-0.1730957,0.3426514-0.258728  c2.4866924-1.8574219,4.527586-4.5825806,5.7377911-7.4683228c0.3191528-0.7610474,0.5725098-1.5302734,0.7686768-2.2990723  c0.1494751-0.5856323,0.2702637-1.1692505,0.3410645-1.7457886c0.0592651-0.4829712,0.0964966-0.961731,0.0964966-1.4307251  c0-0.4900513-0.0351563-1.0036621-0.0928345-1.5274048c-0.0317993-0.2890015-0.0806885-0.5839233-0.1305542-0.8790283  c-4.1635742-1.1102295-6.6902447-3.8474731-7.8576641-5.4783325c-2.7890625,2.7485352-7.2104492,2.3071289-7.4194336,2.284668  c-0.4448242-0.0483398-0.8032227-0.3862305-0.8779297-0.8271484c-0.0117188-0.0688477-0.0161133-0.137207-0.0136719-0.2045898  c-2.3413086,1.2685547-4.2607422,1.3793945-4.387207,1.3852539c-0.3549805,0.0102539-0.6928711-0.1572266-0.8867188-0.456543  c-0.1723633-0.2675781-0.206543-0.5986328-0.0961914-0.8925781c-1.5525513,1.0762939-3.1355591,1.9411621-4.3876343,2.3937988  c-0.1824951,0.7158203-0.317749,1.4637451-0.4029541,2.2392578c-0.0703735,0.6403198-0.1185913,1.291748-0.1185913,1.9626465  c0,0.2186279,0.0240479,0.4435425,0.0368042,0.6656494c0.0473022,0.8254395,0.1791382,1.6686401,0.3904419,2.5187988  c0.2036743,0.819519,0.4749756,1.638916,0.8139038,2.4485474c1.2165527,2.9063721,3.2407837,5.644043,5.7029419,7.4692993  C17.5028324,56.8668594,17.5934696,56.925148,17.6825809,56.9880142z M37.2974472,36.065712  c-0.019043-0.3729858-0.0438232-0.7416382-0.0778809-1.0981445c-0.3977661-0.9514771-0.9740601-1.8376465-1.6898804-2.6468506  c-2.5482178-2.8807983-6.9090557-4.7468872-11.7230206-4.7468872c-4.1599731,0-7.9874878,1.3903809-10.59552,3.6268921  c-1.045105,0.8961792-1.8927612,1.9285889-2.4885864,3.0618896c-0.0705566,0.3082886-0.1199951,0.6328125-0.1740723,0.9539795  c-0.1307983,0.7768555-0.2301025,1.5778198-0.2637939,2.4265747c0.078186-0.0301514,0.1796265-0.0770264,0.2665405-0.1132813  c0.3952026-0.1647949,0.8664551-0.3872681,1.4040527-0.6731567c1.7202148-0.914917,4.0007935-2.4205933,5.8284302-4.40448  c0.3378906-0.3666992,0.8955078-0.4287109,1.3066406-0.1430664c0.4101563,0.2851563,0.5463867,0.8295898,0.3198242,1.2749023  l-1.2480469,2.4492188c1.4638672-0.4995117,3.5395508-1.5844727,5.3676758-3.9355469  c0.0022583-0.0028687,0.0056152-0.0043335,0.0078735-0.0072021c0.138916-0.1752319,0.3276367-0.2919922,0.5332031-0.3448486  c0.1799316-0.0462036,0.3696289-0.0313721,0.5527344,0.02771c0.0410156,0.0132446,0.0836792,0.0154419,0.1234741,0.0343018  c0.036377,0.0172119,0.0623779,0.0463867,0.0957642,0.0673218c0.3557739,0.2231445,0.5466919,0.6403809,0.4515991,1.0581665  c-0.0576172,0.2539063-0.4150391,1.7363281-1.1816406,3.074707c1.4277344-0.2299805,3.190918-0.8481445,4.2099609-2.440918  c0.1933594-0.3017578,0.5454102-0.472168,0.8925781-0.4594727c0.3583984,0.0180664,0.6801758,0.2265625,0.8417969,0.546875  c0.0209961,0.0410156,1.9759502,3.7588501,6.3068218,5.385376c0.3085938,0.1159058,0.6273804,0.2227173,0.9602661,0.3153076  c0.0057373-0.192627,0.0097046-0.4041748,0.0132446-0.6170654C37.3510361,37.9236221,37.3445053,36.9884415,37.2974472,36.065712z   M39.1421127,43.6993179c0,1.2780151-0.2089233,2.6022339-0.5662231,3.9235229  c0.5164795-0.2566528,0.9817505-0.7561646,1.2131958-1.3878784c0.3139648-0.8569336,0.300293-2.0258789-0.03125-2.6616211  c-0.0644531-0.1235352-0.1699219-0.2788086-0.3041992-0.3144531c-0.0371094-0.0097656-0.0776367-0.0141602-0.1210938-0.0141602  c-0.0635986,0-0.1387329,0.0202026-0.2133179,0.0397339C39.1227036,43.4232559,39.1421127,43.5602188,39.1421127,43.6993179z   M8.4707279,43.6993179c0-0.1409912,0.0153809-0.2749023,0.0181274-0.4146729  c-0.0065308,0.0015869-0.0135498,0.0008545-0.0200806,0.0025635c-0.3823242,0.1010742-0.5893559,0.3647461-0.695313,0.5688477  c-0.2246094,0.4301758-0.2348633,1-0.027832,1.5639648c0.215271,0.5870972,0.6640019,1.1661377,1.1447759,1.6113281  C8.6168461,45.8757706,8.4707279,44.7491226,8.4707279,43.6993179z M68.2077255,44.2701187  c0.9072266,0,1.6426392-0.7354736,1.6426392-1.6427002c0-0.9071655-0.7354126-1.6426392-1.6426392-1.6426392  s-1.6427002,0.7354736-1.6427002,1.6426392C66.5650253,43.5346451,67.300499,44.2701187,68.2077255,44.2701187z   M83.3708115,40.9847794c-0.9072266,0-1.6427002,0.7354736-1.6427002,1.6426392  c0,0.9072266,0.7354736,1.6427002,1.6427002,1.6427002s1.6426392-0.7354736,1.6426392-1.6427002  C85.0134506,41.720253,84.278038,40.9847794,83.3708115,40.9847794z M75.4472885,50.7925797  c0.0263672,0,0.0527344-0.0009766,0.0800781-0.0019531l1.3330078-0.0634766  c0.5517578-0.0263672,0.9775391-0.4951172,0.9511719-1.046875s-0.4990234-0.9833984-1.046875-0.9511719l-0.9736328,0.046875  l0.2363281-3.1855469c0.0410156-0.5507813-0.3720703-1.0302734-0.9228516-1.0708008  c-0.5722656-0.043457-1.0302734,0.3725586-1.0712891,0.9233398l-0.2626953,3.5439453  c-0.0361328,0.4804688,0.1367188,0.953125,0.4716797,1.296875C74.5595932,50.6099625,74.9951401,50.7925797,75.4472885,50.7925797z   M71.1924057,52.8375015c-0.3994141,0.3818359-0.4140625,1.0146484-0.0332031,1.4140625  c0.828125,0.8671875,2.6015625,1.40625,4.6298828,1.40625c2.0273438,0,3.8017578-0.5390625,4.6298828-1.4052734  c0.3818359-0.3994141,0.3671875-1.0322266-0.03125-1.4140625c-0.4003906-0.3818359-1.0332031-0.3662109-1.4140625,0.03125  c-0.2910156,0.3046875-1.4130859,0.7880859-3.1845703,0.7880859s-2.8925781-0.4824219-3.1826172-0.7871094  C72.2246323,52.4712906,71.5918198,52.4566422,71.1924057,52.8375015z M70.798851,41.3565445  c0.1181641,0.0454102,0.2392578,0.0668945,0.3583984,0.0668945c0.4013672-0.0004883,0.78125-0.2441406,0.9335938-0.6420898  c0.1982422-0.5151367-0.0595703-1.09375-0.5751953-1.2919922c-3.046875-1.1708984-6.2705078-0.1181641-6.40625-0.0727539  c-0.5234375,0.175293-0.8066406,0.7416992-0.6308594,1.265625c0.1748047,0.5239258,0.7421875,0.8071289,1.265625,0.6308594  C65.7715073,41.3042984,68.4121323,40.4400406,70.798851,41.3565445z M80.4209213,41.423439  c0.1191406,0,0.2402344-0.0214844,0.3583984-0.0668945c2.3681641-0.9106445,5.0322266-0.0512695,5.0585938-0.0424805  c0.5214844,0.1723633,1.0878906-0.1083984,1.2626953-0.6323242c0.1748047-0.5234375-0.1074219-1.090332-0.6308594-1.2651367  c-0.1357422-0.0454102-3.359375-1.0976563-6.4072266,0.0727539c-0.515625,0.1982422-0.7734375,0.7768555-0.5751953,1.2919922  C79.6406479,41.1792984,80.0195541,41.423439,80.4209213,41.423439z M99.7138901,82.0347672  c0.0146484,0.5517578-0.4208984,1.0117188-0.9726563,1.0273438c-0.5009766,0.0107422-1.0117188-0.4199219-1.0273438-0.9726563  l-0.0007324-0.02771l-0.1242676-4.5318604c-0.1224976-4.4942627-2.4173584-8.3808594-5.8480225-10.4555054  c-0.3414307-0.2064819-0.6912842-0.3989868-1.0543213-0.5681763c-0.9620361-0.4484863-1.9943237-0.765564-3.0820313-0.9216309  h-0.0849609c-0.0372314,0.0361938-0.0844116,0.0675049-0.1225586,0.1032715  c-0.2880249,0.2702026-0.5944824,0.5314941-0.9307861,0.7766724c-2.5693359,1.8731079-6.475647,2.993103-10.677124,2.993103  c-4.201416,0-8.107666-1.1199341-10.677002-2.992981c-0.3363037-0.2451782-0.6427612-0.5065308-0.9308472-0.7767334  c-0.038147-0.0358276-0.0853271-0.0670776-0.1226196-0.1033325h-0.0849609  c-1.0876465,0.1560669-2.1199341,0.4732056-3.0819702,0.921814c-0.362793,0.1691284-0.7124023,0.3614502-1.0535889,0.5678101  c-3.4304199,2.074646-5.7255859,5.9613037-5.8488159,10.4556885l-0.123291,4.5318604l-0.0007324,0.02771  c-0.0146484,0.5429688-0.4599609,0.9726563-0.9990234,0.9726563c-0.0097656,0-0.0185547,0-0.0283203,0  c-0.5517578-0.015625-0.9873047-0.4755859-0.9726563-1.0273438l0.1240234-4.5595703  c0.1962891-7.1337891,5.1503906-12.9716797,11.7792969-13.8808594c0.0449219-0.0068359,0.0898438-0.0097656,0.1357422-0.0097656  h0.0032959h0.5718994c0.2783203,0,0.5449219,0.1162109,0.734375,0.3212891  c0.1114502,0.1204834,0.2532349,0.2293091,0.3778076,0.3449097l2.9522705-0.8322144l0.1243286-3.9285278  c-0.1086426-0.0681763-0.2227173-0.1270752-0.3293457-0.1984863c-1.1326904-0.758728-2.1560669-1.7016602-3.0684204-2.8290405  c-1.4298706-1.7659912-2.463623-3.8239136-3.2139893-5.9397583c-0.0493774,0.0025635-0.0975952,0.0130005-0.1473389,0.0130005  c-0.4931641,0-1.0039063-0.1259766-1.5117188-0.3740234c-1.2910156-0.6318359-2.4628906-2.0268555-2.9169922-3.4711914  c-0.6992188-2.2202148,0.4365234-4.6586914,2.53125-5.4360352c0.0767822-0.0286255,0.1564941-0.0377808,0.2341309-0.0614014  c-0.029541-0.4445801-0.0512085-0.8704224-0.0662842-1.272522c-0.2367554,0.0428467-0.4813232,0.0489502-0.7225342-0.0142212  c-0.6025391-0.1582031-1.0654297-0.6318359-1.2089844-1.2368164c-1.5751953-6.6113281,0.6640625-9.9863281,2.3544922-11.5107422  c-0.6044922-0.4633789-0.9189453-1.0126953-1.0830078-1.4731445c-0.6494141-1.8300781,0.4404297-3.9350586,0.9150391-4.5917969  l0.3974609-0.5493164l0.7167969,0.144043c0.4257813,0.1069336,0.7382813,0.4580078,0.7988281,0.8945313  c0.0488281,0.3540039,0.1542969,0.6147461,0.2685547,0.6621094c0.3525391,0.1445313,1.3691406-0.3017578,2.0351563-0.8046875  c8.1894531-6.4238291,14.9326172-2.2158203,16.3896484-1.1494141c6.5361328,0.4350586,10.9121094,3.9907227,12.3378906,10.0400391  c1.00177,4.2514648,0.3037109,9.3586426-0.9909058,11.3532715c1.5512695,1.038208,2.3103638,3.0995483,1.7106323,5.0061035  v0.0004883c-0.4550781,1.4448242-1.6279297,2.8388672-2.9179688,3.4707031  c-0.5078125,0.2490234-1.0185547,0.3740234-1.5117188,0.3740234c-0.0495605,0-0.0975342-0.010376-0.1467285-0.0129395  c-0.7502441,2.1159058-1.7838745,4.1738281-3.213623,5.9396973c-0.9134521,1.1282349-1.9378662,2.0718994-3.0673218,2.8306885  c-0.1073608,0.0722046-0.2220459,0.1314697-0.3312988,0.2002563l0.1242065,3.9251099l2.9523315,0.8321533  c0.1245117-0.1156006,0.2663574-0.2243652,0.3777466-0.3448486c0.1894531-0.2050781,0.4560547-0.3212891,0.734375-0.3212891  h0.5722046h0.0029907c0.0458984,0,0.0908203,0.0029297,0.1357422,0.0097656  c6.6298828,0.9091797,11.5839844,6.7470703,11.7792969,13.8808594L99.7138901,82.0347672z M75.7890854,67.4576187  c3.005249,0,5.8648071-0.6531982,8.0275269-1.7400513l-2.0304565-0.5724487  c-0.4199219-0.1191406-0.7138672-0.4951172-0.7275391-0.9316406l-0.1165771-3.6977539  c-1.3163452,0.5419922-2.7409058,0.8863525-4.2750244,1.0180664l-1.6699219,0.0039063  c-1.5754395-0.1339111-3.0264282-0.482666-4.3607178-1.0300293l-0.1168213,3.7058105  c-0.0136719,0.4365234-0.3076172,0.8125-0.7275391,0.9316406l-2.0303955,0.5724487  C69.9243393,66.8043594,72.7838974,67.4576187,75.7890854,67.4576187z M63.8952255,49.7211685  c0.684021,1.9697266,1.6260986,3.8742065,2.9290161,5.4835205c0.652771,0.8061523,1.3796997,1.4894409,2.1629639,2.0753174  c0.5427856,0.4060669,1.1138306,0.7629395,1.7174683,1.0621948c1.3202515,0.654541,2.7789307,1.0619507,4.3783569,1.1994019  l1.4980469-0.0039063c1.553772-0.1351929,2.9869995-0.539856,4.2926025-1.1902466  c0.6029663-0.300354,1.1752319-0.6588745,1.7199707-1.067688c0.7807617-0.5859375,1.5074463-1.2694702,2.1602783-2.0760498  c1.3029175-1.6090088,2.2450562-3.5133057,2.9290771-5.4828491c0.2915039-0.8394165,0.5371704-1.6897583,0.7411499-2.5355835  c0.3143921-1.3035278,0.5340576-2.5924072,0.6854248-3.8043823c0.0866699-0.6940308,0.151062-1.3607788,0.1983032-1.991394  c-0.06604-0.0667114-0.1330566-0.1384888-0.1988525-0.2042847c-2.1212158-2.1204834-4.1444092-3.7661743-6.0350342-5.0500488  c-7.3456421-4.9884644-12.6586304-4.43396-13.6452637-4.2717896c-1.9658813,1.5263062-3.6461792,2.992981-5.0194092,4.2717896  c-0.8918457,0.8306274-1.6428223,1.5712891-2.2590332,2.2020264c0.0019531,0.7698975,0.0265503,1.7176514,0.0996094,2.7825317  c0.0485229,0.7078247,0.1195679,1.4680176,0.2186279,2.2608643c0.1514282,1.2124023,0.3712158,2.50177,0.685791,3.8058472  C63.3582993,48.0319595,63.6038437,48.8820572,63.8952255,49.7211685z M60.1572495,37.5208511  c0.2971802-0.3121948,0.6448975-0.668396,1.0302124-1.0545654c0.0997314-0.0999756,0.1912231-0.1932373,0.2966919-0.2975464  c0.0108032-0.0106812,0.0235596-0.0228271,0.0344849-0.0335693c1.6183472-1.5990601,3.8991699-3.6939697,6.7450562-5.899231  c0.2226563-0.1704102,0.4658203-0.2788086,0.7265625-0.3261719c0.3583984-0.065918,1.0371094-0.1591797,1.9902344-0.1591797  c2.963623,0,8.5857544,0.9188232,15.4762573,6.3845825c0.9664307,0.7666016,1.9555664,1.6156006,2.9682007,2.5717163  c0.3276367,0.3093262,0.6599731,0.6422729,0.9918823,0.9727783c0.1781616,0.1774292,0.3530884,0.3384399,0.5324097,0.5220947  c0.1599121-0.3712769,0.3288574-0.9140015,0.4782715-1.5713501c0.5203857-2.2889404,0.791626-6.0458984-0.4890137-9.477478  c-1.6044922-4.3012695-5.0742188-6.6166992-10.3134766-6.8828125l-0.3447266-0.0170898l-0.2587891-0.2255859  c-0.2714844-0.2304688-6.2578125-5.190918-14.1484375,0.996582c-0.3974609,0.3017578-2.4013672,1.734375-4.0185547,1.0703125  c-0.1484375-0.0610352-0.3066406-0.1450195-0.4628906-0.2612305c-0.0908203,0.409668-0.1123047,0.831543,0.0126953,1.1835938  c0.0595703,0.1665039,0.2392578,0.6728516,1.296875,0.956543l0.6640625,0.1782227l0.1240234,0.7451172  c0.0458984,0.4404297-0.1796875,0.8544922-0.5751953,1.0551758c-0.7470703,0.3818359-4.3154297,2.6103516-2.8515625,9.6674805  C60.0911484,37.5890274,60.1277695,37.551857,60.1572495,37.5208511z M91.1430893,43.2650528  c-0.1865845,1.6116333-0.4855957,3.3676147-0.9606323,5.1385498c0.0409546-0.0169067,0.0760498-0.0175781,0.1183472-0.038269  c0.7910156-0.3867188,1.6025391-1.3647461,1.8896484-2.2744141C92.5409775,44.9759293,92.0721054,43.7797623,91.1430893,43.2650528z   M61.3962021,48.4040298c-0.4751587-1.7710571-0.7741699-3.5270386-0.9609375-5.1387329  c-0.9294434,0.5148315-1.3979492,1.7107544-1.0465698,2.824646v0.0009766  c0.2861328,0.9091797,1.0976563,1.887207,1.8876953,2.2744141C61.3193588,48.3862686,61.3546371,48.387001,61.3962021,48.4040298z"></path></svg>